<svg width="26" height="26" viewBox="0 0 26 26" fill="none" xmlns="http://www.w3.org/2000/svg">
<rect width="26" height="26" rx="9" fill="#F7FAFC"/>
<g clip-path="url(#clip0_3551_8710)">
<path d="M17.4873 22.2057H8.51292C6.11517 22.2057 4.59089 20.7756 4.45388 18.3864L4.00858 11.3216C3.94007 10.2512 4.3083 9.22362 5.04475 8.44435C5.77264 7.66508 6.80024 7.21979 7.8621 7.21979C8.13613 7.21979 8.4016 7.05708 8.53005 6.80018L9.14661 5.57562C9.65185 4.5737 10.9192 3.79443 12.0239 3.79443H13.9849C15.0896 3.79443 16.3484 4.5737 16.8537 5.56705L17.4702 6.81731C17.5987 7.05708 17.8556 7.21979 18.1382 7.21979C19.2 7.21979 20.2276 7.66508 20.9555 8.44435C21.692 9.23218 22.0602 10.2512 21.9917 11.3216L21.5464 18.395C21.3922 20.8184 19.9108 22.2057 17.4873 22.2057ZM12.0239 5.07894C11.3902 5.07894 10.5853 5.57562 10.2941 6.14936L9.67754 7.38249C9.31788 8.07613 8.62424 8.50429 7.8621 8.50429C7.14278 8.50429 6.47484 8.79545 5.97816 9.31782C5.49005 9.84018 5.24171 10.5253 5.29309 11.236L5.73838 18.3094C5.84115 20.0392 6.77455 20.9212 8.51292 20.9212H17.4873C19.2171 20.9212 20.1506 20.0392 20.2619 18.3094L20.7072 11.236C20.75 10.5253 20.5102 9.84018 20.0221 9.31782C19.5254 8.79545 18.8575 8.50429 18.1382 8.50429C17.376 8.50429 16.6824 8.07613 16.3227 7.39962L15.6976 6.14936C15.415 5.58418 14.61 5.0875 13.9764 5.0875H12.0239V5.07894Z" fill="#3E4552"/>
<path d="M14.2845 10.2171H11.7155C11.3644 10.2171 11.0732 9.92597 11.0732 9.57487C11.0732 9.22377 11.3644 8.93262 11.7155 8.93262H14.2845C14.6356 8.93262 14.9268 9.22377 14.9268 9.57487C14.9268 9.92597 14.6356 10.2171 14.2845 10.2171Z" fill="#3E4552"/>
<path d="M13.0001 18.7804C11.1076 18.7804 9.57471 17.2475 9.57471 15.355C9.57471 13.4625 11.1076 11.9297 13.0001 11.9297C14.8926 11.9297 16.4254 13.4625 16.4254 15.355C16.4254 17.2475 14.8926 18.7804 13.0001 18.7804ZM13.0001 13.2142C11.8183 13.2142 10.8592 14.1733 10.8592 15.355C10.8592 16.5368 11.8183 17.4959 13.0001 17.4959C14.1818 17.4959 15.1409 16.5368 15.1409 15.355C15.1409 14.1733 14.1818 13.2142 13.0001 13.2142Z" fill="#3E4552"/>
</g>
<defs>
<clipPath id="clip0_3551_8710">
<rect width="24" height="24" fill="white" transform="translate(1 1)"/>
</clipPath>
</defs>
</svg>
