<svg width="73" height="48" viewBox="0 0 73 48" fill="none" xmlns="http://www.w3.org/2000/svg">
<rect x="0.5" width="72" height="48" rx="9" fill="#F7FAFC"/>
<path d="M20 9C17.5325 9 15.5 11.0325 15.5 13.5V34.5C15.5 36.9675 17.5325 39 20 39H53C55.4675 39 57.5 36.9675 57.5 34.5V13.5C57.5 11.0325 55.4675 9 53 9H20ZM20 11H53C53.849 11 55.5 12.651 55.5 13.5V34.5C55.5 35.349 53.849 37 53 37H20C19.151 37 17.5 35.349 17.5 34.5V13.5C17.5 12.651 19.151 11 20 11ZM22.5 16.5C21.9477 16.5 21.5 16.9477 21.5 17.5V22C21.5 22.5523 21.9477 23 22.5 23H50.5C51.0523 23 51.5 22.5523 51.5 22V17.5C51.5 16.9477 51.0523 16.5 50.5 16.5H22.5ZM22.5 25.5C21.9477 25.5 21.5 25.9477 21.5 26.5C21.5 27.0523 21.9477 27.5 22.5 27.5H50.5C51.0523 27.5 51.5 27.0523 51.5 26.5C51.5 25.9477 51.0523 25.5 50.5 25.5H22.5ZM22.5 29.5C21.9477 29.5 21.5 29.9477 21.5 30.5C21.5 31.0523 21.9477 31.5 22.5 31.5H46C46.5523 31.5 47 31.0523 47 30.5C47 29.9477 46.5523 29.5 46 29.5H22.5Z" fill="#3E4552"/>
</svg>
