<svg width="73" height="48" viewBox="0 0 73 48" fill="none" xmlns="http://www.w3.org/2000/svg">
<rect x="0.5" width="72" height="48" rx="9" fill="#F0F2F4"/>
<path d="M20 9C17.5325 9 15.5 11.0325 15.5 13.5V34.5C15.5 36.9675 17.5325 39 20 39H53C55.4675 39 57.5 36.9675 57.5 34.5V13.5C57.5 11.0325 55.4675 9 53 9H20ZM20 11H53C53.849 11 55.5 12.651 55.5 13.5V34.5C55.5 35.349 53.849 37 53 37H20C19.151 37 17.5 35.349 17.5 34.5V13.5C17.5 12.651 19.151 11 20 11ZM29 15C25.7 15 23 17.7 23 21C23 22.4776 24.0865 24.0104 25.1079 25.0993C25.2958 25.2997 25.2446 25.6295 25.0078 25.7687C24.0616 26.3247 22.923 27.2078 22.5 28C22.0782 28.79 21.7435 29.6302 21.5905 30.5035C21.4951 31.0479 21.9491 31.5 22.5018 31.5C23.0531 31.5 23.4905 31.0467 23.6268 30.5125C24.1706 28.3805 26.3971 26.5 29 26.5C31.6029 26.5 33.8294 28.3805 34.3732 30.5125C34.5095 31.0467 34.9469 31.5 35.4982 31.5C36.0509 31.5 36.5049 31.0479 36.4095 30.5035C36.2565 29.6302 35.9218 28.79 35.5 28C35.077 27.2078 33.9384 26.3247 32.9922 25.7687C32.7554 25.6295 32.7042 25.2997 32.8922 25.0993C33.9135 24.0107 35 22.4789 35 21C35 17.7 32.3 15 29 15ZM40.5 17C39.9477 17 39.5 17.4477 39.5 18C39.5 18.5523 39.9477 19 40.5 19H50.5C51.0523 19 51.5 18.5523 51.5 18C51.5 17.4477 51.0523 17 50.5 17H40.5ZM40.5 22C39.9477 22 39.5 22.4477 39.5 23C39.5 23.5523 39.9477 24 40.5 24H50.5C51.0523 24 51.5 23.5523 51.5 23C51.5 22.4477 51.0523 22 50.5 22H40.5ZM40.5 27C39.9477 27 39.5 27.4477 39.5 28C39.5 28.5523 39.9477 29 40.5 29H46C46.5523 29 47 28.5523 47 28C47 27.4477 46.5523 27 46 27H40.5Z" fill="#3E4552"/>
</svg>
