<svg width="26" height="26" viewBox="0 0 26 26" fill="none" xmlns="http://www.w3.org/2000/svg">
<defs>
<linearGradient id="paint0_linear_3095_47345" x1="13" y1="0" x2="13" y2="26" gradientUnits="userSpaceOnUse">
<stop stop-color="#5E9E53"/>
<stop offset="1" stop-color="#80CC73"/>
</linearGradient>
</defs>
<rect width="26" height="26" rx="9" fill="url(#paint0_linear_3095_47345)"/>
<path fill-rule="evenodd" clip-rule="evenodd" d="M5.00848 8.22281C4.5003 8.79301 4.25 9.83777 4.25 11.9481V14.0519C4.25 16.1622 4.5003 17.207 5.00848 17.7772C5.51272 18.343 6.43453 18.623 8.3125 18.623H17.6875C19.5655 18.623 20.4873 18.343 20.9915 17.7772C21.4997 17.207 21.75 16.1622 21.75 14.0519V11.9481C21.75 9.83777 21.4997 8.79301 20.9915 8.22281C20.4873 7.65703 19.5655 7.37705 17.6875 7.37705H8.3125C6.43453 7.37705 5.51272 7.65703 5.00848 8.22281ZM4.11652 7.25806C5.01853 6.24598 6.44047 6 8.3125 6H17.6875C19.5595 6 20.9815 6.24598 21.8835 7.25806C22.7815 8.26573 23 9.85075 23 11.9481V14.0519C23 16.1492 22.7815 17.7343 21.8835 18.7419C20.9815 19.754 19.5595 20 17.6875 20H8.3125C6.44047 20 5.01853 19.754 4.11652 18.7419C3.21845 17.7343 3 16.1492 3 14.0519V11.9481C3 9.85075 3.21845 8.26573 4.11652 7.25806Z" fill="white"/>
<path fill-rule="evenodd" clip-rule="evenodd" d="M9.71973 13.3115C9.71973 11.5005 11.1892 10.031 13.0002 10.031C13.4 10.031 13.7538 10.0958 14.0704 10.1908C14.3596 10.2775 14.5237 10.5823 14.437 10.8715C14.3502 11.1608 14.0454 11.3249 13.7562 11.2381C13.526 11.1691 13.2784 11.1245 13.0002 11.1245C11.7931 11.1245 10.8132 12.1044 10.8132 13.3115C10.8132 14.5186 11.7931 15.4985 13.0002 15.4985C14.2073 15.4985 15.1872 14.5186 15.1872 13.3115C15.1872 12.8606 15.0521 12.4455 14.8189 12.0935C14.6521 11.8418 14.721 11.5025 14.9727 11.3357C15.2244 11.169 15.5637 11.2378 15.7305 11.4896C16.0768 12.0123 16.2807 12.636 16.2807 13.3115C16.2807 15.1225 14.8112 16.592 13.0002 16.592C11.1892 16.592 9.71973 15.1225 9.71973 13.3115Z" fill="white"/>
<path fill-rule="evenodd" clip-rule="evenodd" d="M13.0353 9.33404C13.2632 9.13595 13.6085 9.16014 13.8066 9.38805L14.7142 10.4323C14.9123 10.6603 14.8881 11.0056 14.6602 11.2037C14.4323 11.4017 14.0869 11.3776 13.8889 11.1497L12.9813 10.1054C12.7832 9.87745 12.8074 9.53212 13.0353 9.33404Z" fill="white"/>
<path fill-rule="evenodd" clip-rule="evenodd" d="M14.743 10.4682C14.9214 10.7119 14.8684 11.054 14.6247 11.2324L13.5641 12.0087C13.3204 12.1871 12.9783 12.1341 12.7999 11.8905C12.6216 11.6468 12.6745 11.3047 12.9182 11.1264L13.9789 10.35C14.2225 10.1716 14.5647 10.2246 14.743 10.4682Z" fill="white"/>
<circle cx="7" cy="13" r="1" fill="white"/>
<circle cx="19" cy="13" r="1" fill="white"/>
</svg>
