<svg width="26" height="26" viewBox="0 0 26 26" fill="none" xmlns="http://www.w3.org/2000/svg">
<defs>
<linearGradient id="paint0_linear_3095_47364" x1="13" y1="0" x2="13" y2="26" gradientUnits="userSpaceOnUse">
<stop stop-color="#00B894"/>
<stop offset="1" stop-color="#53D6BC"/>
</linearGradient>
<clipPath id="clip0_3095_47364">
<rect width="24" height="24" fill="white" transform="translate(1 1)"/>
</clipPath>
</defs>
<rect width="26" height="26" rx="9" fill="url(#paint0_linear_3095_47364)"/>
<g clip-path="url(#clip0_3095_47364)">
<path fill-rule="evenodd" clip-rule="evenodd" d="M9.4438 6.53998C8.8587 7.26634 8.6501 8.32632 8.6501 9.6666V11.3333C8.6501 11.6923 8.35908 11.9833 8.0001 11.9833C7.64111 11.9833 7.3501 11.6923 7.3501 11.3333V9.6666C7.3501 8.24855 7.55817 6.80853 8.4314 5.72447C9.32909 4.61005 10.8055 4.0166 13.0001 4.0166C15.1947 4.0166 16.6711 4.61005 17.5688 5.72447C18.442 6.80853 18.6501 8.24855 18.6501 9.6666V11.3333C18.6501 11.6923 18.3591 11.9833 18.0001 11.9833C17.6411 11.9833 17.3501 11.6923 17.3501 11.3333V9.6666C17.3501 8.32632 17.1415 7.26634 16.5564 6.53998C15.9958 5.84399 14.9722 5.3166 13.0001 5.3166C11.028 5.3166 10.0044 5.84399 9.4438 6.53998Z" fill="white"/>
<path fill-rule="evenodd" clip-rule="evenodd" d="M12.9999 14.9001C12.2083 14.9001 11.5666 15.5418 11.5666 16.3334C11.5666 17.125 12.2083 17.7668 12.9999 17.7668C13.7915 17.7668 14.4333 17.125 14.4333 16.3334C14.4333 15.5418 13.7915 14.9001 12.9999 14.9001ZM10.2666 16.3334C10.2666 14.8239 11.4904 13.6001 12.9999 13.6001C14.5095 13.6001 15.7333 14.8239 15.7333 16.3334C15.7333 17.843 14.5095 19.0668 12.9999 19.0668C11.4904 19.0668 10.2666 17.843 10.2666 16.3334Z" fill="white"/>
<path fill-rule="evenodd" clip-rule="evenodd" d="M5.95955 12.6261C5.54126 13.0444 5.3166 13.8285 5.3166 15.4998V17.1664C5.3166 18.8378 5.54126 19.6219 5.95955 20.0402C6.37785 20.4584 7.16196 20.6831 8.83327 20.6831H17.1666C18.8379 20.6831 19.622 20.4584 20.0403 20.0402C20.4586 19.6219 20.6833 18.8378 20.6833 17.1664V15.4998C20.6833 13.8285 20.4586 13.0444 20.0403 12.6261C19.622 12.2078 18.8379 11.9831 17.1666 11.9831H8.83327C7.16196 11.9831 6.37785 12.2078 5.95955 12.6261ZM5.04032 11.7068C5.87202 10.8751 7.17125 10.6831 8.83327 10.6831H17.1666C18.8286 10.6831 20.1278 10.8751 20.9596 11.7068C21.7913 12.5385 21.9833 13.8378 21.9833 15.4998V17.1664C21.9833 18.8285 21.7913 20.1277 20.9596 20.9594C20.1278 21.7911 18.8286 21.9831 17.1666 21.9831H8.83327C7.17125 21.9831 5.87202 21.7911 5.04032 20.9594C4.20861 20.1277 4.0166 18.8285 4.0166 17.1664V15.4998C4.0166 13.8378 4.20861 12.5385 5.04032 11.7068Z" fill="white"/>
</g>
</svg>
