<svg width="26" height="26" viewBox="0 0 26 26" fill="none" xmlns="http://www.w3.org/2000/svg">
<rect width="26" height="26" rx="9" fill="#F7FAFC"/>
<g clip-path="url(#clip0_4900_74371)">
<rect width="18" height="18" transform="translate(4 4)" fill="white" fill-opacity="0.01"/>
<g clip-path="url(#clip1_4900_74371)">
<path d="M22 13C22 15.3869 21.0518 17.6761 19.364 19.364C17.6761 21.0518 15.3869 22 13 22C10.6131 22 8.32387 21.0518 6.63604 19.364C4.94821 17.6761 4 15.3869 4 13C4 10.6131 4.94821 8.32387 6.63604 6.63604C8.32387 4.94821 10.6131 4 13 4C15.3869 4 17.6761 4.94821 19.364 6.63604C21.0518 8.32387 22 10.6131 22 13ZM17.5337 9.59125C17.4534 9.51117 17.3577 9.44812 17.2524 9.40587C17.1471 9.36361 17.0344 9.34303 16.921 9.34534C16.8076 9.34765 16.6958 9.37281 16.5923 9.41931C16.4888 9.46582 16.3958 9.53271 16.3187 9.616L12.4116 14.5941L10.057 12.2384C9.89705 12.0893 9.6855 12.0082 9.46691 12.0121C9.24832 12.0159 9.03976 12.1045 8.88518 12.2591C8.73059 12.4136 8.64204 12.6222 8.63818 12.8408C8.63432 13.0594 8.71546 13.2709 8.8645 13.4309L11.8412 16.4087C11.9214 16.4888 12.0169 16.5519 12.122 16.5942C12.2271 16.6366 12.3397 16.6573 12.453 16.6552C12.5662 16.6531 12.678 16.6282 12.7814 16.582C12.8849 16.5358 12.978 16.4692 13.0551 16.3863L17.5461 10.7725C17.6992 10.6133 17.7838 10.4004 17.7817 10.1796C17.7796 9.95872 17.691 9.74749 17.5349 9.59125H17.5337Z" fill="#3E4552"/>
</g>
</g>
<defs>
<clipPath id="clip0_4900_74371">
<rect width="18" height="18" fill="white" transform="translate(4 4)"/>
</clipPath>
<clipPath id="clip1_4900_74371">
<rect width="18" height="18" fill="white" transform="translate(4 4)"/>
</clipPath>
</defs>
</svg>
