<svg width="26" height="26" viewBox="0 0 26 26" fill="none" xmlns="http://www.w3.org/2000/svg">
<defs>
<linearGradient id="paint0_linear_3746_9116" x1="13" y1="0" x2="13" y2="26" gradientUnits="userSpaceOnUse">
<stop stop-color="#2196F3"/>
<stop offset="1" stop-color="#6FB6ED"/>
</linearGradient>
</defs>
<rect width="26" height="26" rx="9" fill="url(#paint0_linear_3746_9116)"/>
<path fill-rule="evenodd" clip-rule="evenodd" d="M5.8533 4.53773C6.68734 3.64622 8 3.4375 9.67684 3.4375H16.379C18.0559 3.4375 19.3685 3.64622 20.2026 4.53773C21.0222 5.41382 21.2135 6.77919 21.2135 8.55563V12.3322C21.2135 12.6912 20.9225 12.9822 20.5635 12.9822C20.2045 12.9822 19.9135 12.6912 19.9135 12.3322V8.55563C19.9135 6.75935 19.6881 5.89065 19.2532 5.42586C18.8328 4.97648 18.0533 4.7375 16.379 4.7375H9.67684C8.0026 4.7375 7.22303 4.97648 6.80263 5.42586C6.3678 5.89065 6.14241 6.75935 6.14241 8.55563V18.538C6.14241 19.0751 6.21709 19.4619 6.32104 19.7168C6.42412 19.9695 6.53521 20.0483 6.59285 20.0731C6.64574 20.0959 6.76292 20.1207 6.98886 20.0232C7.22116 19.9229 7.5252 19.7084 7.88032 19.3272C7.88532 19.3218 7.89041 19.3165 7.8956 19.3113L7.89846 19.3085C8.90035 18.2533 10.4785 18.3395 11.3498 19.505C11.3499 19.5051 11.3497 19.5049 11.3498 19.505L12.2452 20.7018C12.4602 20.9893 12.4016 21.3966 12.1141 21.6117C11.8267 21.8267 11.4193 21.768 11.2043 21.4806L10.3089 20.2838C9.92313 19.7676 9.29008 19.7273 8.83778 20.2072L8.82509 20.2203L8.82381 20.2216C8.39672 20.6785 7.95316 21.0228 7.50415 21.2167C7.04607 21.4145 6.54544 21.4681 6.0786 21.2671C5.61651 21.068 5.30594 20.6703 5.11729 20.2077C4.92952 19.7473 4.84241 19.1799 4.84241 18.538V8.55563C4.84241 6.77919 5.03369 5.41382 5.8533 4.53773Z" fill="white"/>
<path fill-rule="evenodd" clip-rule="evenodd" d="M8.83179 8.52109C8.83179 8.16211 9.1228 7.87109 9.48179 7.87109H16.574C16.933 7.87109 17.224 8.16211 17.224 8.52109C17.224 8.88008 16.933 9.17109 16.574 9.17109H9.48179C9.1228 9.17109 8.83179 8.88008 8.83179 8.52109Z" fill="white"/>
<path fill-rule="evenodd" clip-rule="evenodd" d="M9.71838 12.066C9.71838 11.707 10.0094 11.416 10.3684 11.416H15.6876C16.0466 11.416 16.3376 11.707 16.3376 12.066C16.3376 12.425 16.0466 12.716 15.6876 12.716H10.3684C10.0094 12.716 9.71838 12.425 9.71838 12.066Z" fill="white"/>
<path fill-rule="evenodd" clip-rule="evenodd" d="M19.3594 14.3089C19.9216 14.2512 20.4444 14.5025 20.9177 14.9758C21.3939 15.452 21.6483 15.9761 21.5925 16.5396C21.5399 17.0714 21.2222 17.4879 20.9177 17.7924L17.7856 20.9245C17.6626 21.0536 17.5096 21.1488 17.3819 21.2127C17.2479 21.2797 17.0864 21.3397 16.9256 21.3651L16.9157 21.3667L15.7201 21.5349C15.7198 21.5349 15.7204 21.5348 15.7201 21.5349C15.3457 21.5881 14.9629 21.4894 14.6879 21.2144C14.4129 20.9394 14.3141 20.5574 14.3674 20.183C14.3674 20.1827 14.3674 20.1832 14.3674 20.183L14.5372 18.9767C14.5629 18.8135 14.6242 18.6531 14.6909 18.5213C14.7577 18.3894 14.8517 18.2429 14.9716 18.123C14.9716 18.123 14.9716 18.123 14.9716 18.123L18.1099 14.9846C18.4145 14.6801 18.8301 14.3633 19.3594 14.3089ZM19.482 15.5027C19.3641 15.5148 19.1947 15.5969 18.9585 15.8332L15.8202 18.9715C15.8205 18.9712 15.8129 18.979 15.8001 18.9976C15.7878 19.0155 15.7744 19.0379 15.7617 19.063C15.749 19.0881 15.7389 19.1122 15.7317 19.1327C15.7259 19.1492 15.7235 19.1594 15.7228 19.1627L15.5563 20.3461L16.7399 20.1795C16.7414 20.1792 16.7439 20.1786 16.7475 20.1777C16.7541 20.176 16.7628 20.1734 16.7735 20.1697C16.7953 20.1623 16.8202 20.1519 16.8452 20.1394C16.8704 20.1268 16.8912 20.1142 16.9061 20.1039C16.9134 20.0988 16.9176 20.0954 16.9194 20.094C16.9232 20.09 16.927 20.0861 16.9309 20.0822L20.0692 16.9439C20.3055 16.7076 20.3867 16.539 20.3984 16.4214C20.4069 16.3356 20.3909 16.146 20.0692 15.8243C19.7535 15.5086 19.5671 15.4939 19.482 15.5027Z" fill="white"/>
<path fill-rule="evenodd" clip-rule="evenodd" d="M17.9199 15.2838C18.2392 15.1951 18.5699 15.382 18.6586 15.7013C18.8682 16.456 19.4545 17.0422 20.2092 17.2519C20.5285 17.3406 20.7154 17.6713 20.6267 17.9906C20.538 18.3098 20.2073 18.4968 19.888 18.4081C18.7278 18.0858 17.8247 17.1827 17.5024 16.0225C17.4137 15.7032 17.6006 15.3724 17.9199 15.2838Z" fill="white"/>
</svg>
