<svg width="26" height="26" viewBox="0 0 26 26" fill="none" xmlns="http://www.w3.org/2000/svg">
<defs>
<linearGradient id="paint0_linear_3095_47396" x1="13" y1="0" x2="13" y2="26" gradientUnits="userSpaceOnUse">
<stop stop-color="#5E9E53"/>
<stop offset="1" stop-color="#80CC73"/>
</linearGradient>
<clipPath id="clip0_3095_47396">
<rect width="24" height="24" fill="white" transform="translate(1 1)"/>
</clipPath>
</defs>
<rect width="26" height="26" rx="9" fill="url(#paint0_linear_3095_47396)"/>
<g clip-path="url(#clip0_3095_47396)">
<path fill-rule="evenodd" clip-rule="evenodd" d="M5.97296 6.34747C5.35582 6.96461 4.97501 7.87129 4.97501 9.02261V14.2451C4.97501 15.3964 5.35582 16.303 5.97296 16.9202C6.5901 17.5373 7.49678 17.9181 8.64809 17.9181C9.02305 17.9181 9.327 18.2221 9.327 18.597V20.451C9.327 20.6015 9.4943 20.6927 9.62061 20.6085L13.4945 18.0318C13.6059 17.9577 13.7367 17.9181 13.8705 17.9181H17.3521C18.5034 17.9181 19.4101 17.5373 20.0272 16.9202C20.6444 16.303 21.0252 15.3964 21.0252 14.2451V9.02261C21.0252 7.87129 20.6444 6.96461 20.0272 6.34747C19.4101 5.73033 18.5034 5.34952 17.3521 5.34952H8.64809C7.49678 5.34952 6.5901 5.73033 5.97296 6.34747ZM5.01283 5.38735C5.91889 4.48129 7.18821 3.9917 8.64809 3.9917H17.3521C18.812 3.9917 20.0813 4.48129 20.9873 5.38735C21.8934 6.2934 22.383 7.56273 22.383 9.02261V14.2451C22.383 15.7049 21.8934 16.9743 20.9873 17.8803C20.0813 18.7864 18.812 19.276 17.3521 19.276H14.0757L10.3738 21.7383C9.35117 22.42 7.96918 21.6932 7.96918 20.451V19.2394C6.79509 19.1104 5.77533 18.6428 5.01283 17.8803C4.10678 16.9743 3.61719 15.7049 3.61719 14.2451V9.02261C3.61719 7.56273 4.10678 6.2934 5.01283 5.38735Z" fill="white"/>
<path fill-rule="evenodd" clip-rule="evenodd" d="M10.876 9.97146C10.876 8.79577 11.824 7.84766 12.9997 7.84766C14.1755 7.84766 15.1235 8.79577 15.1235 9.97146C15.1235 10.9016 14.5111 11.3921 14.1153 11.6626C13.9466 11.7791 13.8405 11.8691 13.7725 11.9603C13.7169 12.0348 13.6786 12.1205 13.6786 12.2606V12.4434C13.6786 12.8183 13.3747 13.1223 12.9997 13.1223C12.6248 13.1223 12.3208 12.8183 12.3208 12.4434V12.2606C12.3208 11.3095 12.9477 10.8187 13.3451 10.5443L13.348 10.5423L13.348 10.5423C13.5085 10.4327 13.611 10.3448 13.676 10.2571C13.7296 10.1848 13.7657 10.1027 13.7657 9.97146C13.7657 9.54561 13.4255 9.20548 12.9997 9.20548C12.5739 9.20548 12.2338 9.54561 12.2338 9.97146C12.2338 10.3464 11.9298 10.6504 11.5549 10.6504C11.1799 10.6504 10.876 10.3464 10.876 9.97146Z" fill="white"/>
<path fill-rule="evenodd" clip-rule="evenodd" d="M12.3174 14.5236C12.3174 14.1487 12.6213 13.8447 12.9963 13.8447H13.0041C13.3791 13.8447 13.683 14.1487 13.683 14.5236C13.683 14.8986 13.3791 15.2025 13.0041 15.2025H12.9963C12.6213 15.2025 12.3174 14.8986 12.3174 14.5236Z" fill="white"/>
</g>
</svg>
