<svg width="144" height="160" viewBox="0 0 144 160" fill="none" xmlns="http://www.w3.org/2000/svg">
    <defs>
        <filter id="filter0_d_5335_79434" x="8.95276" y="0.664062" width="111.489" height="158.682" filterUnits="userSpaceOnUse" color-interpolation-filters="sRGB">
            <feFlood flood-opacity="0" result="BackgroundImageFix"/>
            <feColorMatrix in="SourceAlpha" type="matrix" values="0 0 0 0 0 0 0 0 0 0 0 0 0 0 0 0 0 0 127 0" result="hardAlpha"/>
            <feOffset dy="11"/>
            <feGaussianBlur stdDeviation="11"/>
            <feColorMatrix type="matrix" values="0 0 0 0 0.397708 0 0 0 0 0.47749 0 0 0 0 0.575 0 0 0 0.27 0"/>
            <feBlend mode="normal" in2="BackgroundImageFix" result="effect1_dropShadow_5335_79434"/>
            <feBlend mode="normal" in="SourceGraphic" in2="effect1_dropShadow_5335_79434" result="shape"/>
        </filter>
        <filter id="filter1_d_5335_79434" x="27.6367" y="19.0273" width="115.677" height="66.5508" filterUnits="userSpaceOnUse" color-interpolation-filters="sRGB">
            <feFlood flood-opacity="0" result="BackgroundImageFix"/>
            <feColorMatrix in="SourceAlpha" type="matrix" values="0 0 0 0 0 0 0 0 0 0 0 0 0 0 0 0 0 0 127 0" result="hardAlpha"/>
            <feOffset dy="11"/>
            <feGaussianBlur stdDeviation="11"/>
            <feColorMatrix type="matrix" values="0 0 0 0 0.397708 0 0 0 0 0.47749 0 0 0 0 0.575 0 0 0 0.27 0"/>
            <feBlend mode="normal" in2="BackgroundImageFix" result="effect1_dropShadow_5335_79434"/>
            <feBlend mode="normal" in="SourceGraphic" in2="effect1_dropShadow_5335_79434" result="shape"/>
        </filter>
        <linearGradient id="paint0_linear_5335_79434" x1="64.6751" y1="9.01134" x2="64.6751" y2="127.583" gradientUnits="userSpaceOnUse">
            <stop stop-color="#FDFEFF"/>
            <stop offset="0.9964" stop-color="#ECF0F5"/>
        </linearGradient>
        <linearGradient id="paint1_linear_5335_79434" x1="85.4516" y1="29.5057" x2="85.4516" y2="52.8204" gradientUnits="userSpaceOnUse">
            <stop stop-color="#FDFEFF"/>
            <stop offset="0.9964" stop-color="#ECF0F5"/>
        </linearGradient>
    </defs>
    <path d="M64.8726 123.753C95.3317 123.753 120.024 98.9061 120.024 68.2555C120.024 37.605 95.3317 12.7578 64.8726 12.7578C34.4135 12.7578 9.72156 37.605 9.72156 68.2555C9.72156 98.9061 34.4135 123.753 64.8726 123.753Z" fill="#EAEEF9"/>
    <path d="M133.244 73.6112C134.963 72.0303 135.083 69.3463 133.512 67.6163C131.941 65.8864 129.274 65.7655 127.555 67.3465C125.836 68.9274 125.716 71.6114 127.287 73.3414C128.858 75.0714 131.525 75.1922 133.244 73.6112Z" fill="#EAEEF9"/>
    <path d="M20.6775 26.0894C22.1346 25.6128 22.9318 24.0379 22.4582 22.5716C21.9847 21.1054 20.4196 20.3031 18.9625 20.7797C17.5054 21.2562 16.7081 22.8312 17.1817 24.2974C17.6553 25.7637 19.2204 26.5659 20.6775 26.0894Z" fill="#EAEEF9"/>
    <path d="M3.60323 38.1449C4.59404 37.8209 5.13618 36.7499 4.81414 35.7529C4.49211 34.7558 3.42783 34.2103 2.43702 34.5343C1.44622 34.8584 0.904069 35.9294 1.22611 36.9264C1.54815 37.9234 2.61242 38.469 3.60323 38.1449Z" fill="#EAEEF9"/>
    <path d="M129.349 34.7548C130.072 34.0891 130.123 32.959 129.461 32.2306C128.8 31.5022 127.677 31.4513 126.953 32.117C126.229 32.7826 126.179 33.9128 126.84 34.6412C127.502 35.3696 128.625 35.4205 129.349 34.7548Z" fill="#EAEEF9"/>
    <path d="M84.5565 8.64351C85.0544 8.18567 85.0891 7.40837 84.6342 6.90737C84.1792 6.40636 83.4067 6.37137 82.9089 6.82921C82.411 7.28705 82.3762 8.06435 82.8312 8.56535C83.2862 9.06636 84.0586 9.10135 84.5565 8.64351Z" fill="#EAEEF9"/>
    <g filter="url(#filter0_d_5335_79434)">
        <path d="M98.4415 116.521C98.4415 121.998 93.9315 126.347 88.6162 126.347H40.9392C35.4627 126.347 30.9528 121.837 30.9528 116.521V21.4894C30.9528 16.013 35.4627 11.6641 40.9392 11.6641H88.6162C94.0926 11.6641 98.4415 16.1741 98.4415 21.4894V116.521Z" fill="url(#paint0_linear_5335_79434)"/>
    </g>
    <path d="M93.2871 102.185C93.2871 105.246 90.871 107.501 87.9718 107.501H41.9054C38.8451 107.501 36.5901 105.085 36.5901 102.185V23.2607C36.5901 20.2003 39.0062 17.9453 41.9054 17.9453H87.9718C91.0321 17.9453 93.2871 20.3614 93.2871 23.2607V102.185Z" fill="#D5DDEA" stroke="#D6DCE8" stroke-width="1.9781" stroke-miterlimit="10"/>
    <path d="M64.7775 121.838C67.5352 121.838 69.7707 119.602 69.7707 116.845C69.7707 114.087 67.5352 111.852 64.7775 111.852C62.0198 111.852 59.7843 114.087 59.7843 116.845C59.7843 119.602 62.0198 121.838 64.7775 121.838Z" fill="#C4CFDD"/>
    <path d="M72.187 75.9316C72.187 76.2537 72.026 76.5759 71.5427 76.5759H36.1071C35.785 76.5759 35.4628 76.2537 35.4628 75.9316V73.8376C35.4628 73.5155 35.785 73.1934 36.1071 73.1934H71.7038C72.026 73.1934 72.3481 73.5155 72.3481 73.8376V75.9316H72.187Z" fill="#D6DCE8"/>
    <path d="M57.8517 85.2742H36.1071C35.785 85.2742 35.4628 84.952 35.4628 84.6299V82.697C35.4628 82.3749 35.785 82.0527 36.1071 82.0527H57.8517C58.1738 82.0527 58.496 82.3749 58.496 82.697V84.7909C58.6571 85.1131 58.3349 85.2742 57.8517 85.2742Z" fill="#D6DCE8"/>
    <g filter="url(#filter1_d_5335_79434)">
        <path d="M121.152 48.5505C121.152 50.8055 119.38 52.5773 116.964 52.5773H53.9856C51.5695 52.5773 49.6367 50.6444 49.6367 48.2284V34.0541C49.6367 31.7991 51.4084 30.0273 53.8245 30.0273H117.125C119.38 30.0273 121.313 31.7991 121.313 34.0541L121.152 48.5505Z" fill="url(#paint1_linear_5335_79434)"/>
    </g>
    <path d="M125.179 40.6573C125.179 44.6841 123.407 48.2277 120.991 51.127C120.83 51.288 120.508 51.6102 120.347 51.7712C117.609 54.3484 113.904 55.798 110.039 55.798C106.978 55.798 103.918 54.8316 101.341 53.2209C100.696 52.7377 100.052 52.0934 99.2467 51.6102C96.5085 49.033 94.5757 45.1673 94.5757 40.8184C94.5757 32.4427 101.341 25.6777 109.716 25.6777C118.253 25.6777 125.179 32.4427 125.179 40.6573Z" fill="#C9D6E6"/>
    <path d="M113.259 37.8152V34.4076C113.259 32.5489 111.712 31 109.855 31C108.927 31 108.102 31.413 107.38 32.0326C106.762 32.6522 106.349 33.4783 106.349 34.5109V37.9185C105.421 38.538 104.699 39.2609 104.08 40.2935C103.565 41.2228 103.255 42.3587 103.255 43.4946C103.255 47.1087 106.143 50 109.752 50C113.362 50 116.249 47.1087 116.249 43.4946C116.352 41.0163 115.115 38.9511 113.259 37.8152ZM110.577 44.1141V45.8696C110.577 46.0761 110.371 46.2826 110.165 46.2826H109.443C109.237 46.2826 109.03 46.0761 109.03 45.8696V44.7337V44.1141C108.412 43.8044 108.102 43.0815 108.205 42.3587C108.308 41.7391 108.824 41.2228 109.443 41.1196C110.474 40.913 111.402 41.7391 111.402 42.6685C111.402 43.288 111.093 43.8044 110.577 44.1141ZM111.608 37.0924C110.99 36.8859 110.474 36.7826 109.752 36.7826C109.133 36.7826 108.515 36.8859 107.896 37.0924V34.5109C107.896 33.9946 108.102 33.4783 108.412 33.1685C108.721 32.8587 109.237 32.6522 109.752 32.6522C110.783 32.6522 111.608 33.4783 111.608 34.5109V37.0924Z" fill="white"/>
    <path d="M60.2552 44C61.912 44 63.2552 42.6568 63.2552 41C63.2552 39.3431 61.912 38 60.2552 38C58.5983 38 57.2552 39.3431 57.2552 41C57.2552 42.6568 58.5983 44 60.2552 44Z" fill="#5E9E53"/>
    <path d="M68.2552 44C69.912 44 71.2552 42.6568 71.2552 41C71.2552 39.3431 69.912 38 68.2552 38C66.5983 38 65.2552 39.3431 65.2552 41C65.2552 42.6568 66.5983 44 68.2552 44Z" fill="#5E9E53"/>
    <path d="M76.2552 44C77.912 44 79.2552 42.6568 79.2552 41C79.2552 39.3431 77.912 38 76.2552 38C74.5983 38 73.2552 39.3431 73.2552 41C73.2552 42.6568 74.5983 44 76.2552 44Z" fill="#5E9E53"/>
    <path d="M84.2552 44C85.912 44 87.2552 42.6568 87.2552 41C87.2552 39.3431 85.912 38 84.2552 38C82.5983 38 81.2552 39.3431 81.2552 41C81.2552 42.6568 82.5983 44 84.2552 44Z" fill="#5E9E53"/>
</svg>
