<svg width="48" height="48" viewBox="0 0 48 48" fill="none" xmlns="http://www.w3.org/2000/svg">
<path fill-rule="evenodd" clip-rule="evenodd" d="M9.43743 11.3738C8.48785 12.3058 8.03774 13.9929 8.03774 17.3333V30.6667C8.03774 34.0071 8.48785 35.6942 9.43743 36.6262C10.387 37.5582 12.1059 38 15.5094 38H32.4906C35.8941 38 37.613 37.5582 38.5626 36.6262C39.5121 35.6942 39.9623 34.0071 39.9623 30.6667V17.3333C39.9623 13.9929 39.5121 12.3058 38.5626 11.3738C37.613 10.4418 35.8941 10 32.4906 10H15.5094C12.1059 10 10.387 10.4418 9.43743 11.3738ZM7.99653 9.95956C9.59413 8.39155 12.1205 8 15.5094 8H32.4906C35.8795 8 38.4059 8.39155 40.0035 9.95956C41.6011 11.5276 42 14.0071 42 17.3333V30.6667C42 33.9929 41.6011 36.4724 40.0035 38.0404C38.4059 39.6084 35.8795 40 32.4906 40H15.5094C12.1205 40 9.59413 39.6084 7.99653 38.0404C6.39894 36.4724 6 33.9929 6 30.6667V17.3333C6 14.0071 6.39894 11.5276 7.99653 9.95956Z" fill="white" fill-opacity="0.4"/>
<rect x="12" y="20" width="8" height="2" rx="1" fill="white" fill-opacity="0.4"/>
<rect x="12" y="14" width="8" height="2" rx="1" fill="white" fill-opacity="0.4"/>
<rect x="12" y="26" width="24" height="2" rx="1" fill="white" fill-opacity="0.4"/>
<rect x="12" y="32" width="24" height="2" rx="1" fill="white" fill-opacity="0.4"/>
<path d="M24 10H26V16C26 18.2091 27.7909 20 30 20H40V22H30C26.6863 22 24 19.3137 24 16V10Z" fill="white" fill-opacity="0.4"/>
</svg>
