<svg width="48" height="48" viewBox="0 0 48 48" fill="none" xmlns="http://www.w3.org/2000/svg">
<path fill-rule="evenodd" clip-rule="evenodd" d="M9.43743 11.3738C8.48785 12.3058 8.03774 13.9929 8.03774 17.3333V30.6667C8.03774 34.0071 8.48785 35.6942 9.43743 36.6262C10.387 37.5582 12.1059 38 15.5094 38H32.4906C35.8941 38 37.613 37.5582 38.5626 36.6262C39.5121 35.6942 39.9623 34.0071 39.9623 30.6667V17.3333C39.9623 13.9929 39.5121 12.3058 38.5626 11.3738C37.613 10.4418 35.8941 10 32.4906 10H15.5094C12.1059 10 10.387 10.4418 9.43743 11.3738ZM7.99653 9.95956C9.59413 8.39155 12.1205 8 15.5094 8H32.4906C35.8795 8 38.4059 8.39155 40.0035 9.95956C41.6011 11.5276 42 14.0071 42 17.3333V30.6667C42 33.9929 41.6011 36.4724 40.0035 38.0404C38.4059 39.6084 35.8795 40 32.4906 40H15.5094C12.1205 40 9.59413 39.6084 7.99653 38.0404C6.39894 36.4724 6 33.9929 6 30.6667V17.3333C6 14.0071 6.39894 11.5276 7.99653 9.95956Z" fill="white"/>
<path fill-rule="evenodd" clip-rule="evenodd" d="M24 19C24 18.4477 24.5199 18 25.1613 18H34.8387C35.4801 18 36 18.4477 36 19C36 19.5523 35.4801 20 34.8387 20H25.1613C24.5199 20 24 19.5523 24 19Z" fill="white"/>
<path fill-rule="evenodd" clip-rule="evenodd" d="M26 24C26 23.4477 26.5166 23 27.1538 23H34.8462C35.4834 23 36 23.4477 36 24C36 24.5523 35.4834 25 34.8462 25H27.1538C26.5166 25 26 24.5523 26 24Z" fill="white"/>
<path fill-rule="evenodd" clip-rule="evenodd" d="M28 29C28 28.4477 28.6716 28 29.5 28H34.5C35.3284 28 36 28.4477 36 29C36 29.5523 35.3284 30 34.5 30H29.5C28.6716 30 28 29.5523 28 29Z" fill="white"/>
<path fill-rule="evenodd" clip-rule="evenodd" d="M17 17.9473C15.9157 17.9473 15.0366 18.8263 15.0366 19.9107C15.0366 20.9951 15.9157 21.8742 17 21.8742C18.0844 21.8742 18.9635 20.9951 18.9635 19.9107C18.9635 18.8263 18.0844 17.9473 17 17.9473ZM13.0894 19.9107C13.0894 17.7509 14.8402 16 17 16C19.1599 16 20.9107 17.7509 20.9107 19.9107C20.9107 22.0705 19.1599 23.8214 17 23.8214C14.8402 23.8214 13.0894 22.0705 13.0894 19.9107Z" fill="white"/>
<path fill-rule="evenodd" clip-rule="evenodd" d="M18.3251 25.6433C21.1413 25.8982 23.3762 28.1145 23.6483 30.9327C23.7 31.468 23.308 31.9437 22.7728 31.9954C22.2376 32.0471 21.7618 31.6551 21.7101 31.1199C21.528 29.234 20.0332 27.7515 18.1461 27.5823L18.1361 27.5814L18.1362 27.5814C17.3899 27.5067 16.6266 27.5066 15.8615 27.5816L15.8601 27.5817C13.9623 27.7649 12.471 29.2393 12.2895 31.1199C12.2378 31.6551 11.762 32.0471 11.2268 31.9954C10.6916 31.9437 10.2996 31.468 10.3513 30.9327C10.624 28.1077 12.8646 25.915 15.6723 25.6436C16.5605 25.5565 17.4505 25.5562 18.3251 25.6433Z" fill="white"/>
</svg>
