<svg width="16" height="17" viewBox="0 0 16 17" fill="none" xmlns="http://www.w3.org/2000/svg">
<g clip-path="url(#clip0_3217_4673)">
<path fill-rule="evenodd" clip-rule="evenodd" d="M2 8.50026C2 5.19909 4.69909 2.5 8.00026 2.5C11.3014 2.5 14.0005 5.19909 14.0005 8.50026C14.0005 11.8014 11.3014 14.5005 8.00026 14.5005C4.69909 14.5005 2 11.8014 2 8.50026ZM8.00026 3.40177C5.19712 3.40177 2.90177 5.69712 2.90177 8.50026C2.90177 11.3034 5.19712 13.5987 8.00026 13.5987C10.8034 13.5987 13.0987 11.3034 13.0987 8.50026C13.0987 5.69712 10.8034 3.40177 8.00026 3.40177Z" fill="white"/>
<path fill-rule="evenodd" clip-rule="evenodd" d="M7.99971 5.73682C8.24873 5.73682 8.4506 5.93869 8.4506 6.1877V9.078C8.4506 9.32702 8.24873 9.52889 7.99971 9.52889C7.7507 9.52889 7.54883 9.32702 7.54883 9.078V6.1877C7.54883 5.93869 7.7507 5.73682 7.99971 5.73682Z" fill="white"/>
<path fill-rule="evenodd" clip-rule="evenodd" d="M7.5459 10.8122C7.5459 10.5632 7.74777 10.3613 7.99679 10.3613H8.00198C8.25099 10.3613 8.45286 10.5632 8.45286 10.8122C8.45286 11.0612 8.25099 11.2631 8.00198 11.2631H7.99679C7.74777 11.2631 7.5459 11.0612 7.5459 10.8122Z" fill="white"/>
</g>
<defs>
<clipPath id="clip0_3217_4673">
<rect width="16" height="16" fill="white" transform="translate(0 0.5)"/>
</clipPath>
</defs>
</svg>
