<svg width="73" height="48" viewBox="0 0 73 48" fill="none" xmlns="http://www.w3.org/2000/svg">
<rect x="0.5" width="72" height="48" rx="9" fill="#F7FAFC"/>
<g clip-path="url(#clip0_4569_70636)">
<path d="M33.7291 25.5834C33.7291 26.375 32.8425 26.375 31.75 26.375C30.6575 26.375 29.7708 26.375 29.7708 25.5834C29.7708 24.7917 30.6575 24.7917 31.75 24.7917C32.8425 24.7917 33.7291 24.7917 33.7291 25.5834ZM41.25 24.7917C40.1575 24.7917 39.2708 24.7917 39.2708 25.5834C39.2708 26.3196 40.1575 26.375 41.25 26.375C42.3425 26.375 43.2291 26.375 43.2291 25.5834C43.2291 24.7917 42.3425 24.7917 41.25 24.7917ZM52.3333 24C52.3333 32.74 45.24 39.8334 36.5 39.8334C27.76 39.8334 20.6666 32.74 20.6666 24C20.6666 15.26 27.76 8.16669 36.5 8.16669C45.24 8.16669 52.3333 15.26 52.3333 24ZM49.1666 24C49.1666 22.765 48.9766 21.5775 48.6441 20.4534C47.5358 20.6909 46.3958 20.8334 45.2083 20.8334C40.2525 20.8334 35.835 18.5534 32.9216 14.9909C31.2591 19.0442 27.95 22.2267 23.8333 23.7784C23.8491 23.8417 23.8333 23.9209 23.8333 24C23.8333 30.9825 29.5175 36.6667 36.5 36.6667C43.4825 36.6667 49.1666 30.9825 49.1666 24Z" fill="#3E4552"/>
</g>
<defs>
<clipPath id="clip0_4569_70636">
<rect width="38" height="38" fill="white" transform="translate(17.5 5)"/>
</clipPath>
</defs>
</svg>
