<svg width="24" height="24" viewBox="0 0 24 24" fill="none" xmlns="http://www.w3.org/2000/svg">
<rect width="24" height="24" rx="12" fill="#5E9E53"/>
<g clip-path="url(#clip0_4569_71060)">
<path d="M10.8333 12.6667C10.8333 13.1267 10.46 13.5 10 13.5C9.54 13.5 9.16667 13.1267 9.16667 12.6667C9.16667 12.2067 9.54 11.8333 10 11.8333C10.46 11.8333 10.8333 12.2067 10.8333 12.6667ZM14 11.8333C13.54 11.8333 13.1667 12.2067 13.1667 12.6667C13.1667 13.1267 13.54 13.5 14 13.5C14.46 13.5 14.8333 13.1267 14.8333 12.6667C14.8333 12.2067 14.46 11.8333 14 11.8333ZM18.6667 12C18.6667 15.68 15.68 18.6667 12 18.6667C8.32 18.6667 5.33334 15.68 5.33334 12C5.33334 8.31999 8.32 5.33333 12 5.33333C15.68 5.33333 18.6667 8.31999 18.6667 12ZM17.3333 12C17.3333 11.48 17.2533 10.98 17.1133 10.5067C16.6467 10.6067 16.1667 10.6667 15.6667 10.6667C13.58 10.6667 11.72 9.70666 10.4933 8.20666C9.79334 9.91333 8.4 11.2533 6.66667 11.9067C6.67334 11.9333 6.66667 11.9667 6.66667 12C6.66667 14.94 9.06 17.3333 12 17.3333C14.94 17.3333 17.3333 14.94 17.3333 12Z" fill="white"/>
</g>
<defs>
<clipPath id="clip0_4569_71060">
<rect width="16" height="16" fill="white" transform="translate(4 4)"/>
</clipPath>
</defs>
</svg>
