<svg width="26" height="26" viewBox="0 0 26 26" fill="none" xmlns="http://www.w3.org/2000/svg">
<rect width="26" height="26" rx="9" fill="#F7FAFC"/>
<g clip-path="url(#clip0_4370_66803)">
<path d="M11.25 14C11.25 14.69 10.69 15.25 10 15.25C9.31 15.25 8.75 14.69 8.75 14C8.75 13.31 9.31 12.75 10 12.75C10.69 12.75 11.25 13.31 11.25 14ZM16 12.75C15.31 12.75 14.75 13.31 14.75 14C14.75 14.69 15.31 15.25 16 15.25C16.69 15.25 17.25 14.69 17.25 14C17.25 13.31 16.69 12.75 16 12.75ZM23 13C23 18.52 18.52 23 13 23C7.48 23 3 18.52 3 13C3 7.48 7.48 3 13 3C18.52 3 23 7.48 23 13ZM21 13C21 12.22 20.88 11.47 20.67 10.76C19.97 10.91 19.25 11 18.5 11C15.37 11 12.58 9.56 10.74 7.31C9.69 9.87 7.6 11.88 5 12.86C5.01 12.9 5 12.95 5 13C5 17.41 8.59 21 13 21C17.41 21 21 17.41 21 13Z" fill="#3E4552"/>
</g>
<defs>
<clipPath id="clip0_4370_66803">
<rect width="24" height="24" fill="white" transform="translate(1 1)"/>
</clipPath>
</defs>
</svg>