<svg width="26" height="26" viewBox="0 0 26 26" fill="none" xmlns="http://www.w3.org/2000/svg">
<defs>
<linearGradient id="paint0_linear_3095_13165" x1="13" y1="0" x2="13" y2="26" gradientUnits="userSpaceOnUse">
<stop stop-color="#5E9E53"/>
<stop offset="1" stop-color="#80CC73"/>
</linearGradient>
</defs>
<rect width="26" height="26" rx="9" fill="url(#paint0_linear_3095_13165)"/>
<path fill-rule="evenodd" clip-rule="evenodd" d="M5.00848 8.22281C4.5003 8.79301 4.25 9.83777 4.25 11.9481V14.0519C4.25 16.1622 4.5003 17.207 5.00848 17.7772C5.51272 18.343 6.43453 18.623 8.3125 18.623H17.6875C19.5655 18.623 20.4873 18.343 20.9915 17.7772C21.4997 17.207 21.75 16.1622 21.75 14.0519V11.9481C21.75 9.83777 21.4997 8.79301 20.9915 8.22281C20.4873 7.65703 19.5655 7.37705 17.6875 7.37705H8.3125C6.43453 7.37705 5.51272 7.65703 5.00848 8.22281ZM4.11652 7.25806C5.01853 6.24598 6.44047 6 8.3125 6H17.6875C19.5595 6 20.9815 6.24598 21.8835 7.25806C22.7815 8.26573 23 9.85075 23 11.9481V14.0519C23 16.1492 22.7815 17.7343 21.8835 18.7419C20.9815 19.754 19.5595 20 17.6875 20H8.3125C6.44047 20 5.01853 19.754 4.11652 18.7419C3.21845 17.7343 3 16.1492 3 14.0519V11.9481C3 9.85075 3.21845 8.26573 4.11652 7.25806Z" fill="white"/>
<circle cx="7" cy="13" r="1" fill="white"/>
<circle cx="19" cy="13" r="1" fill="white"/>
<path fill-rule="evenodd" clip-rule="evenodd" d="M11 11.3226C11 10.0368 12.0367 9 13.3225 9C14.6084 9 15.645 10.0368 15.645 11.3226C15.645 12.3363 14.9789 12.8715 14.5409 13.1708C14.3524 13.301 14.2299 13.4041 14.1502 13.511C14.0837 13.6003 14.038 13.7037 14.038 13.8687V14.072C14.038 14.4671 13.7176 14.7875 13.3225 14.7875C12.9274 14.7875 12.6071 14.4671 12.6071 14.072V13.8687C12.6071 12.8318 13.2891 12.2963 13.7293 11.9924L13.7323 11.9903L13.7323 11.9903C13.9118 11.8677 14.0303 11.7669 14.1067 11.6639C14.1709 11.5771 14.2141 11.4777 14.2141 11.3226C14.2141 10.827 13.818 10.4309 13.3225 10.4309C12.827 10.4309 12.4309 10.827 12.4309 11.3226C12.4309 11.7177 12.1106 12.038 11.7154 12.038C11.3203 12.038 11 11.7177 11 11.3226Z" fill="white"/>
<path fill-rule="evenodd" clip-rule="evenodd" d="M12.6035 16.3859C12.6035 15.9907 12.9238 15.6704 13.319 15.6704H13.3277C13.7228 15.6704 14.0431 15.9907 14.0431 16.3859C14.0431 16.781 13.7228 17.1013 13.3277 17.1013H13.319C12.9238 17.1013 12.6035 16.781 12.6035 16.3859Z" fill="white"/>
</svg>
