<svg width="1024" height="1024" viewBox="0 0 1024 1024" fill="none" xmlns="http://www.w3.org/2000/svg">
<defs>
<filter id="filter0_d_1335_13612" x="-519" y="26" width="2950" height="3196" filterUnits="userSpaceOnUse" color-interpolation-filters="sRGB">
<feFlood flood-opacity="0" result="BackgroundImageFix"/>
<feColorMatrix in="SourceAlpha" type="matrix" values="0 0 0 0 0 0 0 0 0 0 0 0 0 0 0 0 0 0 127 0" result="hardAlpha"/>
<feOffset dy="18"/>
<feGaussianBlur stdDeviation="100"/>
<feComposite in2="hardAlpha" operator="out"/>
<feColorMatrix type="matrix" values="0 0 0 0 0 0 0 0 0 0 0 0 0 0 0 0 0 0 0.05 0"/>
<feBlend mode="normal" in2="BackgroundImageFix" result="effect1_dropShadow_1335_13612"/>
<feBlend mode="normal" in="SourceGraphic" in2="effect1_dropShadow_1335_13612" result="shape"/>
</filter>
<linearGradient id="paint0_linear_1335_13612" x1="-319" y1="454" x2="1382.11" y2="3110.64" gradientUnits="userSpaceOnUse">
<stop offset="0.00886903" stop-color="#FEFFFE"/>
<stop offset="1" stop-color="#EEFFEF" stop-opacity="0.3"/>
</linearGradient>
<clipPath id="clip0_1335_13612">
<rect width="1024" height="1024" fill="white"/>
</clipPath>
</defs>
<g clip-path="url(#clip0_1335_13612)">
<rect width="1024" height="1024" fill="white"/>
<rect width="1024" height="1024" fill="#F44336"/>
<g filter="url(#filter0_d_1335_13612)">
<circle cx="956" cy="1729" r="1275" fill="url(#paint0_linear_1335_13612)" fill-opacity="0.2"/>
<path fill-rule="evenodd" clip-rule="evenodd" d="M260.576 576.257V246.566C260.498 241.499 261.432 236.468 263.325 231.767C265.217 227.066 268.03 222.79 271.598 219.191C275.078 215.592 279.257 212.744 283.879 210.82C288.501 208.896 293.467 207.937 298.473 208.003H335.268V345.05H484.568V208.003H560.362V576.257H484.568V412.429H335.268V576.257H260.576Z" fill="#F7FAFC"/>
<path fill-rule="evenodd" clip-rule="evenodd" d="M671.343 509.81H719.58C754.62 509.81 780.306 500.544 796.639 482.011C812.323 465.06 820.207 434.973 820.207 392.087C820.15 350.728 812.633 320.301 797.657 300.808C783.499 281.823 760.78 272.246 729.244 272.246H671.343V509.556V509.81ZM597.59 576.257V246.565C597.522 241.489 598.47 236.451 600.379 231.747C602.288 227.043 605.119 222.769 608.706 219.175C612.292 215.582 616.561 212.742 621.262 210.823C625.963 208.905 631 207.945 636.077 208.002H729.329C785.845 208.002 827.921 223.004 855.557 253.007C883.533 284.281 897.351 330.726 897.351 392.087C897.79 422.36 892.705 452.46 882.346 480.909C872.947 505.217 857.338 526.637 837.077 543.034C822.119 554.675 805.048 563.31 786.806 568.46C761.194 574.379 734.916 576.915 708.644 576.003L597.59 576.257Z" fill="#F7FAFC"/>
<path d="M299.185 735C292.025 734.862 285.009 732.969 278.751 729.487C272.494 726.005 267.187 721.041 263.295 715.03C262.796 714.002 262.326 713.18 261.885 712.358C260.52 710.305 259.618 707.98 259.242 705.544V704.428L269.933 700.023L273.428 706.161C275.946 710.774 279.631 714.645 284.115 717.387C288.599 720.129 293.725 721.645 298.979 721.785H299.478C304.715 721.711 309.823 720.154 314.21 717.296C318.597 714.437 322.084 710.393 324.266 705.632C325.487 701.986 325.701 698.077 324.884 694.319C324.067 690.561 322.251 687.093 319.626 684.282C313.752 679.113 306.527 677.175 298.862 675.119C294.736 674.113 290.683 672.828 286.732 671.272C280.843 668.974 275.743 665.024 272.044 659.898C268.345 654.772 266.205 648.687 265.88 642.374C265.612 636.085 267.124 629.847 270.24 624.377C273.357 618.907 277.954 614.427 283.501 611.45C288.78 608.424 294.775 606.872 300.859 606.957C308.434 606.861 315.839 609.209 321.975 613.653C327.601 617.478 331.924 622.929 334.369 629.276L334.869 630.657L323.356 635.15L322.71 634.005C319.876 628.663 315.425 624.356 309.993 621.7C307.359 620.566 304.518 619.996 301.652 620.026C295.92 620.02 290.384 622.108 286.086 625.899C283.15 628.443 280.986 631.759 279.839 635.47C278.692 639.182 278.608 643.14 279.595 646.897C284.118 658.35 294.28 661.023 305.147 663.813C313.781 666.045 322.768 668.365 329.23 675.384C333.823 680.275 336.9 686.393 338.088 692.997C339.277 699.6 338.526 706.407 335.926 712.592C332.5 719.363 327.257 725.045 320.783 729.003C314.309 732.961 306.861 735.037 299.273 735H299.185Z" fill="#F7FAFC"/>
<path d="M584.952 735C577.794 734.856 570.781 732.958 564.528 729.471C558.276 725.983 552.975 721.015 549.091 715.001C548.621 714.002 548.152 713.18 547.682 712.387C546.32 710.319 545.409 707.988 545.009 705.544V704.428L555.758 699.994L559.371 706.132C561.868 710.727 565.524 714.589 569.975 717.335C574.426 720.081 579.519 721.615 584.746 721.785H585.245C596.229 721.403 606.45 714.766 610.033 705.603C611.246 701.949 611.447 698.035 610.615 694.276C609.782 690.516 607.947 687.053 605.305 684.253C599.431 679.202 592.294 677.146 584.746 675.09C580.612 674.08 576.55 672.794 572.587 671.243C566.704 668.94 561.61 664.989 557.916 659.863C554.223 654.737 552.087 648.655 551.764 642.345C551.503 636.056 553.018 629.821 556.134 624.353C559.25 618.884 563.842 614.403 569.386 611.421C574.664 608.395 580.659 606.843 586.743 606.928C594.319 606.832 601.724 609.18 607.86 613.624C613.457 617.47 617.749 622.93 620.166 629.277L620.665 630.657L609.064 635.15L608.418 634.034C605.596 628.677 601.142 624.357 595.701 621.7C593.079 620.563 590.247 619.992 587.389 620.026C581.655 620.003 576.113 622.094 571.823 625.899C568.896 628.448 566.741 631.767 565.604 635.478C564.467 639.19 564.393 643.146 565.391 646.897C569.914 658.35 580.076 660.994 590.914 663.813C599.724 666.045 608.535 668.365 615.026 675.384C619.632 680.267 622.718 686.386 623.907 692.993C625.096 699.599 624.337 706.41 621.722 712.593C618.294 719.367 613.046 725.053 606.567 729.011C600.087 732.969 592.633 735.043 585.04 735H584.952Z" fill="#F7FAFC"/>
<path d="M429.411 679.466L411.79 636.648L394.168 679.466H429.411ZM450.939 731.711L434.962 692.828H388.588L372.523 731.711H358.161L411.731 604.373L465.33 731.711H450.939Z" fill="#F7FAFC"/>
<path d="M491.236 608.367H505.744V731.124H491.236V608.367Z" fill="#F7FAFC"/>
<path d="M715.852 657.059C712.45 657.074 709.194 658.436 706.794 660.847C704.394 663.257 703.047 666.52 703.047 669.922C703.025 673.408 704.341 676.769 706.723 679.315C709.105 681.861 712.372 683.397 715.852 683.607C717.664 683.683 719.472 683.38 721.161 682.717C722.849 682.055 724.381 681.047 725.658 679.759C726.934 678.472 727.929 676.931 728.577 675.237C729.225 673.543 729.512 671.733 729.421 669.922C729.233 666.449 727.722 663.181 725.198 660.788C722.674 658.396 719.33 657.061 715.852 657.059ZM715.852 696.353C712.493 696.357 709.166 695.689 706.069 694.387C702.972 693.086 700.167 691.178 697.819 688.776C695.387 686.29 693.483 683.339 692.221 680.099C690.959 676.859 690.366 673.397 690.477 669.922C690.337 666.658 690.888 663.402 692.092 660.366C693.297 657.33 695.128 654.582 697.467 652.301C699.856 649.775 702.726 647.751 705.909 646.349C709.091 644.947 712.522 644.195 715.999 644.137C719.555 644.052 723.092 644.676 726.405 645.972C729.718 647.267 732.74 649.209 735.295 651.684C738.995 655.393 741.498 660.126 742.478 665.273C743.458 670.419 742.871 675.741 740.792 680.55C738.714 685.359 735.239 689.433 730.819 692.245C726.398 695.057 721.236 696.478 715.999 696.323L715.852 696.353Z" fill="#F7FAFC"/>
<path d="M715.851 620.232C702.682 620.255 690.059 625.499 680.749 634.813C671.44 644.128 666.203 656.753 666.188 669.922C666.188 697.498 688.92 720.816 715.851 720.816C729.27 720.61 742.078 715.177 751.551 705.672C761.024 696.167 766.413 683.34 766.573 669.922C766.418 656.613 760.991 643.908 751.483 634.594C741.975 625.279 729.162 620.114 715.851 620.232ZM715.851 733.943C703.311 733.868 691.073 730.086 680.676 723.073C670.28 716.06 662.189 706.13 657.423 694.531C652.656 682.933 651.425 670.183 653.886 657.887C656.347 645.591 662.389 634.297 671.253 625.426C680.116 616.555 691.406 610.502 703.7 608.03C715.995 605.558 728.746 606.777 740.35 611.533C751.954 616.289 761.892 624.37 768.915 634.759C775.938 645.148 779.731 657.382 779.818 669.922C779.605 686.825 772.799 702.977 760.851 714.936C748.902 726.895 732.756 733.715 715.851 733.943Z" fill="#F7FAFC"/>
<path d="M824.93 640.73V727.952H812.037V602.846L886.107 696.47V606.341H899V734.354L824.93 640.73Z" fill="#F7FAFC"/>
<path fill-rule="evenodd" clip-rule="evenodd" d="M259 816H897V762H259V816Z" fill="#F7FAFC"/>
<path d="M293 773.484H308.683V778.8H303.514V801.853H298.052V778.8H293V773.484Z" fill="#E82429"/>
<path d="M333.588 785.201C332.826 785.179 332.068 785.32 331.364 785.613C330.66 785.907 330.027 786.347 329.506 786.905C328.43 788.126 327.863 789.713 327.92 791.339C327.848 792.982 328.428 794.587 329.535 795.803C330.062 796.356 330.695 796.796 331.397 797.096C332.099 797.397 332.854 797.552 333.618 797.552C334.381 797.552 335.137 797.397 335.838 797.096C336.54 796.796 337.173 796.356 337.7 795.803C338.258 795.194 338.69 794.481 338.972 793.705C339.255 792.929 339.381 792.105 339.345 791.28C339.376 790.469 339.247 789.66 338.964 788.899C338.682 788.138 338.253 787.44 337.7 786.846C337.168 786.297 336.528 785.866 335.82 785.577C335.112 785.289 334.352 785.151 333.588 785.172V785.201ZM333.001 769.46L337.553 776.949H333.794L326.716 769.372H332.942L333.001 769.46ZM339.11 780.855H344.367V801.853H339.11V799.65C338.264 800.516 337.269 801.223 336.173 801.735C335.102 802.175 333.953 802.395 332.795 802.381C331.47 802.384 330.158 802.105 328.948 801.564C327.738 801.022 326.657 800.23 325.776 799.239C323.797 797.117 322.741 794.297 322.839 791.398C322.742 788.463 323.796 785.607 325.776 783.439C326.649 782.449 327.725 781.658 328.932 781.121C330.138 780.584 331.446 780.313 332.766 780.326C333.986 780.318 335.195 780.558 336.32 781.031C337.416 781.57 338.41 782.295 339.257 783.175V780.855H339.11Z" fill="#E82429"/>
<path d="M361.05 780.855H366.307V801.853H361.05V780.855ZM363.693 772.221C364.132 772.219 364.567 772.307 364.971 772.478C365.374 772.65 365.739 772.902 366.042 773.219C366.676 773.867 367.03 774.737 367.03 775.642C367.03 776.548 366.676 777.418 366.042 778.065C365.739 778.382 365.374 778.635 364.971 778.806C364.567 778.978 364.132 779.066 363.693 779.064C363.243 779.066 362.796 778.976 362.382 778.8C361.968 778.623 361.594 778.363 361.285 778.036C360.97 777.714 360.722 777.332 360.556 776.914C360.39 776.496 360.308 776.048 360.315 775.598C360.312 775.156 360.395 774.718 360.562 774.308C360.728 773.898 360.974 773.526 361.286 773.212C361.597 772.898 361.967 772.649 362.375 772.479C362.784 772.309 363.221 772.221 363.664 772.221H363.693Z" fill="#E82429"/>
<path d="M426.19 785.114L421.814 787.522C421.132 786.765 420.302 786.155 419.376 785.73C418.439 785.375 417.442 785.205 416.439 785.231C415.569 785.192 414.699 785.328 413.882 785.63C413.065 785.933 412.317 786.396 411.682 786.993C410.567 788.189 409.947 789.763 409.947 791.398C409.947 793.033 410.567 794.607 411.682 795.803C412.939 796.946 414.595 797.547 416.293 797.477C417.337 797.535 418.381 797.347 419.339 796.929C420.298 796.511 421.146 795.874 421.814 795.069L425.955 798.006C424.843 799.452 423.396 800.607 421.738 801.369C420.08 802.131 418.262 802.479 416.439 802.382C414.824 802.494 413.202 802.261 411.683 801.699C410.164 801.137 408.782 800.259 407.629 799.122C406.426 797.914 405.523 796.44 404.993 794.82C404.464 793.199 404.322 791.477 404.579 789.792C404.836 788.106 405.485 786.505 406.474 785.116C407.462 783.727 408.763 782.59 410.272 781.795C412.084 780.868 414.083 780.364 416.119 780.324C418.154 780.283 420.172 780.706 422.02 781.56C423.688 782.373 425.122 783.596 426.19 785.114Z" fill="#E82429"/>
<path d="M442.786 772.779H447.984V782.999C448.913 782.177 449.963 781.504 451.097 781.002C452.099 780.569 453.177 780.339 454.269 780.327C455.248 780.306 456.221 780.488 457.126 780.862C458.031 781.236 458.848 781.794 459.526 782.5C460.187 783.245 460.691 784.115 461.009 785.058C461.327 786.001 461.452 786.999 461.377 787.992V801.853H456.178V792.632C456.242 790.979 456.124 789.325 455.826 787.698C455.663 786.947 455.248 786.273 454.651 785.789C454.051 785.341 453.314 785.112 452.566 785.143C451.552 785.125 450.571 785.504 449.834 786.2C449.022 787.002 448.461 788.022 448.219 789.137C448.013 790.566 447.934 792.011 447.984 793.454V801.883H442.786V772.809V772.779Z" fill="#E82429"/>
<path d="M477.673 780.855H482.959V801.853H477.673V780.855ZM481.226 769.46H487.335L480.375 776.949H476.615L481.226 769.372V769.46Z" fill="#E82429"/>
<path d="M499.556 780.855H504.96V783.028C505.931 782.173 507.019 781.462 508.191 780.914C509.125 780.537 510.121 780.338 511.128 780.326C512.11 780.312 513.085 780.497 513.994 780.87C514.903 781.244 515.726 781.798 516.414 782.499C517.065 783.249 517.562 784.121 517.874 785.063C518.187 786.006 518.309 787.001 518.235 787.991V801.853H513.037V792.661C513.096 790.99 512.988 789.317 512.714 787.668C512.534 786.932 512.122 786.272 511.539 785.789C510.932 785.354 510.2 785.128 509.454 785.143C508.436 785.135 507.457 785.525 506.722 786.229C505.912 787.028 505.36 788.051 505.136 789.166C504.92 790.574 504.841 792.001 504.901 793.424V801.853H499.644V780.884L499.556 780.855Z" fill="#E82429"/>
<path d="M535.091 772.779H540.201V782.999C541.125 782.171 542.176 781.497 543.314 781.002C544.316 780.569 545.395 780.339 546.486 780.327C547.465 780.306 548.438 780.488 549.343 780.862C550.248 781.236 551.065 781.794 551.743 782.5C552.404 783.245 552.908 784.115 553.226 785.058C553.544 786.001 553.669 786.999 553.594 787.992V801.853H548.395V792.632C548.459 790.979 548.341 789.325 548.043 787.698C547.88 786.947 547.466 786.273 546.868 785.789C546.268 785.341 545.531 785.112 544.783 785.143C543.769 785.125 542.789 785.504 542.051 786.2C541.239 787.002 540.678 788.022 540.436 789.137C540.23 790.566 540.151 792.011 540.201 793.454V801.883H535.003V772.809L535.091 772.779Z" fill="#E82429"/>
<path d="M594.063 773.132H599.349V780.885H602.462V785.407H599.349V801.853H594.063V785.407H591.361V780.885H594.063V773.132Z" fill="#E82429"/>
<path d="M616.559 780.855H621.846V801.853H616.559V780.855ZM619.203 772.221C619.646 772.222 620.084 772.31 620.492 772.482C620.901 772.653 621.271 772.904 621.582 773.219C621.9 773.54 622.152 773.92 622.324 774.338C622.495 774.757 622.582 775.205 622.58 775.657C622.582 776.104 622.494 776.548 622.323 776.961C622.151 777.374 621.899 777.75 621.582 778.065C621.278 778.382 620.914 778.634 620.51 778.806C620.106 778.978 619.671 779.065 619.232 779.063C618.786 779.069 618.343 778.981 617.933 778.803C617.523 778.626 617.155 778.365 616.853 778.036C616.529 777.719 616.273 777.339 616.102 776.92C615.93 776.501 615.846 776.051 615.855 775.598C615.845 775.156 615.926 774.717 616.093 774.308C616.259 773.899 616.508 773.528 616.824 773.219C617.135 772.904 617.505 772.653 617.913 772.482C618.322 772.31 618.76 772.222 619.203 772.221Z" fill="#E82429"/>
<path d="M654.125 788.696C653.796 787.511 653.071 786.474 652.069 785.759C651.034 785.022 649.787 784.641 648.516 784.673C647.123 784.649 645.762 785.083 644.639 785.906C643.781 786.635 643.116 787.562 642.701 788.608L654.125 788.696ZM640.498 776.949L646.372 771.487H650.572L656.445 776.949H650.572L648.486 774.423L646.372 776.949H640.498ZM659.382 792.808H642.466C642.678 794.188 643.376 795.448 644.433 796.361C645.582 797.274 647.02 797.743 648.486 797.683C649.427 797.692 650.36 797.515 651.232 797.162C652.104 796.809 652.898 796.287 653.567 795.627L658.002 797.712C656.986 799.176 655.624 800.367 654.037 801.177C652.317 801.967 650.437 802.349 648.545 802.293C647.062 802.357 645.581 802.113 644.196 801.577C642.812 801.041 641.552 800.226 640.498 799.18C639.5 798.194 638.711 797.019 638.176 795.722C637.642 794.426 637.372 793.035 637.385 791.633C637.32 790.173 637.546 788.715 638.05 787.344C638.554 785.972 639.327 784.715 640.322 783.645C641.33 782.608 642.542 781.791 643.881 781.245C645.221 780.699 646.659 780.436 648.105 780.473C649.592 780.416 651.076 780.668 652.461 781.214C653.847 781.76 655.103 782.588 656.152 783.645C657.208 784.759 658.028 786.074 658.562 787.512C659.097 788.95 659.336 790.482 659.265 792.015V793.043L659.382 792.808Z" fill="#E82429"/>
<path d="M675.447 780.855H680.763V790.987C680.699 792.36 680.838 793.736 681.174 795.069C681.411 795.792 681.875 796.42 682.496 796.86C683.145 797.3 683.915 797.526 684.698 797.506C685.492 797.536 686.275 797.31 686.93 796.86C687.565 796.414 688.038 795.776 688.281 795.039C688.588 793.772 688.707 792.465 688.634 791.163V780.884H693.891V789.695C694.045 792.233 693.747 794.779 693.01 797.213C692.395 798.778 691.307 800.113 689.897 801.03C688.304 801.955 686.479 802.403 684.64 802.323C682.665 802.415 680.712 801.88 679.059 800.796C677.646 799.718 676.616 798.215 676.123 796.508C675.61 794.225 675.402 791.885 675.506 789.548V780.737L675.447 780.855Z" fill="#E82429"/>
<path d="M743.793 785.202C743.035 785.182 742.282 785.324 741.583 785.618C740.885 785.911 740.256 786.35 739.74 786.905C738.654 788.122 738.076 789.709 738.125 791.34C738.064 792.986 738.655 794.59 739.77 795.804C740.296 796.356 740.93 796.796 741.631 797.097C742.333 797.397 743.088 797.552 743.852 797.552C744.615 797.552 745.371 797.397 746.072 797.097C746.774 796.796 747.408 796.356 747.934 795.804C748.492 795.195 748.924 794.482 749.207 793.706C749.489 792.93 749.615 792.106 749.579 791.281C749.61 790.47 749.481 789.661 749.199 788.9C748.916 788.139 748.487 787.441 747.934 786.846C747.399 786.294 746.754 785.86 746.041 785.572C745.327 785.284 744.562 785.148 743.793 785.172V785.202ZM749.344 772.779H754.601V801.853H749.344V799.651C748.455 800.532 747.409 801.239 746.26 801.736C745.189 802.175 744.04 802.395 742.883 802.382C741.557 802.385 740.246 802.106 739.036 801.564C737.826 801.022 736.745 800.23 735.863 799.24C733.887 797.116 732.832 794.297 732.927 791.398C732.832 788.464 733.886 785.609 735.863 783.44C736.733 782.445 737.808 781.651 739.015 781.113C740.223 780.576 741.532 780.307 742.853 780.327C744.064 780.317 745.264 780.557 746.378 781.032C747.529 781.55 748.574 782.277 749.461 783.175V772.779H749.344Z" fill="#E82429"/>
<path d="M780.065 769.46L784.676 776.949H781.034L773.985 769.372L780.065 769.46ZM771.724 780.855H777.04V790.987C776.976 792.36 777.115 793.736 777.451 795.069C777.689 795.784 778.14 796.409 778.743 796.86C779.422 797.307 780.222 797.533 781.034 797.506C781.828 797.536 782.611 797.31 783.266 796.86C783.892 796.405 784.363 795.77 784.617 795.039C784.909 793.769 785.017 792.464 784.94 791.163V780.884H790.227V789.695C790.381 792.233 790.082 794.779 789.345 797.213C788.721 798.772 787.635 800.104 786.232 801.03C784.639 801.955 782.815 802.403 780.975 802.323C779 802.419 777.046 801.884 775.395 800.795C773.964 799.735 772.93 798.225 772.458 796.508C771.945 794.225 771.738 791.885 771.841 789.548V780.737L771.724 780.855Z" fill="#E82429"/>
<path d="M807.257 780.855H812.514V783.029C813.49 782.18 814.577 781.469 815.744 780.914C816.679 780.541 817.675 780.342 818.681 780.327C819.664 780.309 820.64 780.492 821.55 780.866C822.459 781.24 823.282 781.796 823.968 782.5C824.619 783.25 825.115 784.121 825.428 785.064C825.74 786.006 825.863 787.001 825.789 787.992V801.853H820.59V792.661C820.65 790.99 820.541 789.318 820.267 787.669C820.126 786.937 819.755 786.268 819.21 785.76C818.603 785.325 817.871 785.099 817.125 785.114C816.108 785.106 815.128 785.496 814.393 786.2C813.583 786.999 813.031 788.022 812.807 789.137C812.591 790.545 812.512 791.972 812.572 793.395V801.824H807.315V780.885L807.257 780.855Z" fill="#E82429"/>
<path d="M852.808 785.26C852.047 785.241 851.289 785.377 850.583 785.66C849.876 785.942 849.234 786.366 848.696 786.905C848.164 787.464 847.747 788.123 847.47 788.844C847.193 789.564 847.061 790.333 847.081 791.104C847.053 791.9 847.186 792.693 847.474 793.435C847.762 794.177 848.198 794.853 848.755 795.421C849.292 795.971 849.938 796.403 850.65 796.691C851.363 796.979 852.127 797.117 852.896 797.095C853.648 797.117 854.397 796.982 855.095 796.699C855.793 796.416 856.424 795.991 856.949 795.451C857.98 794.26 858.548 792.738 858.548 791.163C858.548 789.588 857.98 788.066 856.949 786.875C856.414 786.332 855.773 785.906 855.065 785.623C854.357 785.34 853.599 785.206 852.837 785.231L852.808 785.26ZM858.27 780.884H863.527V798.857C863.741 801.631 862.983 804.393 861.383 806.669C860.286 807.848 858.938 808.767 857.438 809.356C855.939 809.946 854.326 810.192 852.72 810.076C850.956 810.116 849.199 809.858 847.521 809.312C846.191 808.817 844.98 808.046 843.967 807.051C842.995 806.013 842.272 804.768 841.853 803.409H847.727C848.269 804.013 848.956 804.468 849.724 804.731C850.664 805.075 851.661 805.234 852.661 805.201C853.834 805.247 855.001 805.015 856.068 804.525C856.84 804.179 857.479 803.592 857.889 802.851C858.311 801.707 858.491 800.487 858.417 799.269C857.58 800.122 856.582 800.801 855.48 801.266C854.37 801.667 853.196 801.866 852.015 801.853C850.685 801.893 849.363 801.652 848.133 801.146C846.903 800.64 845.794 799.88 844.878 798.916C842.962 796.738 841.92 793.927 841.952 791.027C841.985 788.126 843.09 785.339 845.054 783.204C845.922 782.318 846.96 781.617 848.105 781.143C849.251 780.668 850.481 780.431 851.721 780.444C852.9 780.441 854.067 780.67 855.157 781.119C856.362 781.646 857.458 782.393 858.388 783.322V781.002L858.27 780.884Z" fill="#E82429"/>
</g>
<path d="M236.092 405.817H205.658V284.083H175.225V253.65H220.875C224.911 253.65 228.781 255.253 231.635 258.107C234.488 260.961 236.092 264.831 236.092 268.867V405.817Z" fill="white"/>
<path d="M190.442 268.867V223.217C190.442 219.181 188.838 215.311 185.985 212.457C183.131 209.603 179.261 208 175.225 208H144.792C140.756 208 136.885 209.603 134.032 212.457C131.178 215.311 129.575 219.181 129.575 223.217V329.733H190.442V268.867Z" fill="#DFE5EB"/>
<path d="M190.442 755.8V329.733H129.575V755.8L158.015 816.667L190.442 755.8Z" fill="white"/>
</g>
</svg>
