<svg width="40" height="40" viewBox="0 0 40 40" fill="none" xmlns="http://www.w3.org/2000/svg">
<defs>
<linearGradient id="paint0_linear_3109_50339" x1="20" y1="0" x2="20" y2="40" gradientUnits="userSpaceOnUse">
<stop stop-color="#5E9E53"/>
<stop offset="1" stop-color="#80CC73"/>
</linearGradient>
</defs>
<rect width="40" height="40" rx="14" fill="url(#paint0_linear_3109_50339)"/>
<path opacity="0.4" d="M31.6668 13.2917V19.2417C31.6668 20.7233 31.1768 21.9717 30.3018 22.835C29.4385 23.71 28.1902 24.2 26.7085 24.2V26.3117C26.7085 27.105 25.8218 27.5834 25.1685 27.14L24.0368 26.3934C24.1418 26.0317 24.1885 25.635 24.1885 25.215V20.4667C24.1885 18.0867 22.6018 16.5 20.2218 16.5H12.3002C12.1368 16.5 11.9852 16.5117 11.8335 16.5234V13.2917C11.8335 10.3167 13.8168 8.33337 16.7918 8.33337H26.7085C29.6835 8.33337 31.6668 10.3167 31.6668 13.2917Z" fill="white"/>
<path d="M27 17.5264C26.6388 17.5264 26.3393 17.2256 26.3393 16.8629V16.6772C26.3393 15.6511 27.088 15.1469 27.3699 14.9523C27.6959 14.7311 27.8016 14.5807 27.8016 14.3507C27.8016 13.9085 27.4404 13.5457 27 13.5457C26.5595 13.5457 26.1983 13.9085 26.1983 14.3507C26.1983 14.7134 25.8988 15.0142 25.5376 15.0142C25.1765 15.0142 24.877 14.7134 24.877 14.3507C24.877 13.1743 25.8283 12.2189 27 12.2189C28.1716 12.2189 29.123 13.1743 29.123 14.3507C29.123 15.3592 28.383 15.8634 28.1099 16.0491C27.7664 16.2791 27.6606 16.4295 27.6606 16.6772V16.8629C27.6606 17.2345 27.3611 17.5264 27 17.5264Z" fill="white"/>
<path d="M26.8545 20.0001C26.4591 20.0001 26.1484 19.68 26.1484 19.294C26.1484 18.908 26.4685 18.5879 26.8545 18.5879C27.2405 18.5879 27.5606 18.908 27.5606 19.294C27.5606 19.68 27.2499 20.0001 26.8545 20.0001Z" fill="white"/>
<path d="M24.1885 20.4667V25.215C24.1885 25.635 24.1418 26.0316 24.0368 26.3933C23.6052 28.1083 22.1818 29.1817 20.2218 29.1817H17.0485L13.5252 31.5267C13.0002 31.8883 12.3002 31.5033 12.3002 30.8733V29.1817C11.1102 29.1817 10.1185 28.785 9.43017 28.0967C8.73017 27.3967 8.3335 26.405 8.3335 25.215V20.4667C8.3335 18.25 9.71016 16.7217 11.8335 16.5234C11.9852 16.5117 12.1368 16.5 12.3002 16.5H20.2218C22.6018 16.5 24.1885 18.0867 24.1885 20.4667Z" fill="white"/>

</svg>
