<svg width="40" height="40" viewBox="0 0 40 40" fill="none" xmlns="http://www.w3.org/2000/svg">
<defs>
<linearGradient id="paint0_linear_3109_50317" x1="20" y1="0" x2="20" y2="40" gradientUnits="userSpaceOnUse">
<stop stop-color="#2196F3"/>
<stop offset="1" stop-color="#6FB6ED"/>
</linearGradient>
</defs>
<rect width="40" height="40" rx="14" fill="url(#paint0_linear_3109_50317)"/>
<path opacity="0.4" d="M13.5024 29.159C14.5153 28.1114 16.0594 28.1947 16.9488 29.3375L18.1965 30.9446C19.1971 32.2184 20.8153 32.2184 21.8159 30.9446L23.0635 29.3375C23.953 28.1947 25.4971 28.1114 26.51 29.159C28.7088 31.4208 30.5 30.6708 30.5 27.5042V14.0998C30.5 9.3023 29.3388 8.09998 24.6694 8.09998H15.3306C10.6612 8.09998 9.5 9.3023 9.5 14.0998V27.5042C9.51235 30.6708 11.3159 31.4089 13.5024 29.159Z" fill="white"/>
<path d="M24.169 14.525H12.9998C12.4273 14.525 11.9526 14.1113 11.9526 13.6125C11.9526 13.1137 12.4273 12.7001 12.9998 12.7001H24.169C24.7414 12.7001 25.2161 13.1137 25.2161 13.6125C25.2161 14.1113 24.7414 14.525 24.169 14.525Z" fill="white"/>
<path d="M21.6955 19.3614H13.0352C12.4434 19.3614 11.9526 18.9478 11.9526 18.449C11.9526 17.9501 12.4434 17.5365 13.0352 17.5365H21.6955C22.2873 17.5365 22.778 17.9501 22.778 18.449C22.778 18.9478 22.2873 19.3614 21.6955 19.3614Z" fill="white"/>
<path d="M30.5046 22.1774L29.8963 22.7979H29.8841L26.1978 26.4842C26.0396 26.6424 25.7111 26.8127 25.48 26.837L23.8376 27.0803C23.2414 27.1655 22.8278 26.7397 22.913 26.1557L23.1441 24.5011C23.1806 24.27 23.3388 23.9536 23.4969 23.7833L27.1954 20.097L27.8037 19.4765C28.2052 19.075 28.6554 18.7831 29.142 18.7831C29.5556 18.7831 30.0058 18.9777 30.5046 19.4765C31.5995 20.5715 31.2467 21.4353 30.5046 22.1774Z" fill="white"/>

</svg>
