<svg width="24" height="24" viewBox="0 0 24 24" fill="none" xmlns="http://www.w3.org/2000/svg">
<g clip-path="url(#clip0_3059_28412)">
<path d="M16.8474 21.002H7.15256C4.8586 21.002 3 19.135 3 16.841V10.6373C3 9.49871 3.70326 8.06708 4.60744 7.36382L9.12 3.84754C10.4763 2.79266 12.6447 2.74243 14.0512 3.73033L19.2251 7.35545C20.2214 8.05033 21 9.54057 21 10.7545V16.8494C21 19.135 19.1414 21.002 16.8474 21.002ZM9.89023 4.83545L5.37767 8.35173C4.78326 8.82057 4.25581 9.88382 4.25581 10.6373V16.841C4.25581 18.4401 5.55349 19.7461 7.15256 19.7461H16.8474C18.4465 19.7461 19.7442 18.4485 19.7442 16.8494V10.7545C19.7442 9.9508 19.1665 8.83731 18.5051 8.38522L13.3312 4.7601C12.3767 4.09033 10.8028 4.12382 9.89023 4.83545Z" fill="#3E4552"/>
<path d="M12 17.6532C11.6567 17.6532 11.3721 17.3685 11.3721 17.0253V14.5136C11.3721 14.1704 11.6567 13.8857 12 13.8857C12.3432 13.8857 12.6279 14.1704 12.6279 14.5136V17.0253C12.6279 17.3685 12.3432 17.6532 12 17.6532Z" fill="#3E4552"/>
</g>
<defs>
<clipPath id="clip0_3059_28412">
<rect width="24" height="24" fill="white"/>
</clipPath>
</defs>
</svg>
