<svg width="40" height="40" viewBox="0 0 40 40" fill="none" xmlns="http://www.w3.org/2000/svg">
<defs>
<linearGradient id="paint0_linear_3109_50348" x1="20" y1="0" x2="20" y2="40" gradientUnits="userSpaceOnUse">
<stop stop-color="#5E9E53"/>
<stop offset="1" stop-color="#80CC73"/>
</linearGradient>
</defs>
<rect width="40" height="40" rx="14" fill="url(#paint0_linear_3109_50348)"/>
<path d="M25.9005 18.6875C25.449 18.6875 25.092 18.32 25.092 17.879C25.092 17.4905 24.7035 16.682 24.0525 15.9785C23.412 15.296 22.7085 14.897 22.1205 14.897C21.669 14.897 21.312 14.5295 21.312 14.0885C21.312 13.6475 21.6795 13.28 22.1205 13.28C23.1705 13.28 24.273 13.847 25.239 14.8655C26.142 15.821 26.7195 17.0075 26.7195 17.8685C26.7195 18.32 26.352 18.6875 25.9005 18.6875Z" fill="white"/>
<path d="M29.6917 18.6876C29.2402 18.6876 28.8832 18.3201 28.8832 17.8791C28.8832 14.1516 25.8487 11.1276 22.1317 11.1276C21.6802 11.1276 21.3232 10.7601 21.3232 10.3191C21.3232 9.87812 21.6802 9.50012 22.1212 9.50012C26.7412 9.50012 30.5002 13.2591 30.5002 17.8791C30.5002 18.3201 30.1327 18.6876 29.6917 18.6876Z" fill="white"/>
<path opacity="0.4" d="M19.7795 22.3204L16.346 25.7539C15.968 25.4179 15.6005 25.0714 15.2435 24.7144C14.162 23.6224 13.1855 22.4779 12.314 21.281C11.453 20.084 10.76 18.887 10.256 17.7005C9.752 16.5035 9.5 15.359 9.5 14.267C9.5 13.553 9.626 12.8705 9.878 12.2405C10.13 11.6 10.529 11.012 11.0855 10.487C11.7575 9.8255 12.4925 9.5 13.2695 9.5C13.5635 9.5 13.8575 9.563 14.12 9.689C14.393 9.815 14.6345 10.004 14.8235 10.277L17.2595 13.7105C17.4485 13.973 17.585 14.2145 17.6795 14.4455C17.774 14.666 17.8265 14.8865 17.8265 15.086C17.8265 15.338 17.753 15.59 17.606 15.8315C17.4695 16.073 17.27 16.325 17.018 16.577L16.22 17.4065C16.1045 17.522 16.052 17.6585 16.052 17.8265C16.052 17.9105 16.0625 17.984 16.0835 18.068C16.115 18.152 16.1465 18.215 16.1675 18.278C16.3565 18.6245 16.682 19.076 17.144 19.622C17.6165 20.168 18.1205 20.7245 18.6665 21.281C19.0445 21.6485 19.412 22.0054 19.7795 22.3204Z" fill="white"/>
<path d="M30.4685 26.6465C30.4685 26.9404 30.416 27.2449 30.311 27.5389C30.2795 27.6229 30.248 27.7069 30.206 27.7909C30.0275 28.1689 29.7965 28.5259 29.492 28.8619C28.9775 29.4289 28.4105 29.8384 27.77 30.1009C27.7595 30.1009 27.749 30.1114 27.7385 30.1114C27.119 30.3634 26.447 30.4999 25.7225 30.4999C24.6515 30.4999 23.507 30.2479 22.2995 29.7334C21.092 29.2189 19.8845 28.5259 18.6875 27.6544C18.278 27.3499 16.7332 26.0807 16.3447 25.7552L19.7768 22.3165C20.0708 22.537 21.47 23.675 21.6905 23.7905C21.743 23.8115 21.806 23.843 21.8795 23.8745C21.9635 23.906 22.0475 23.9165 22.142 23.9165C22.3205 23.9165 22.457 23.8535 22.5725 23.738L23.3705 22.9505C23.633 22.688 23.885 22.4885 24.1265 22.3625C24.368 22.2155 24.6095 22.142 24.872 22.142C25.0715 22.142 25.2815 22.184 25.5125 22.2785C25.7435 22.373 25.985 22.5095 26.2475 22.688L29.723 25.1555C29.996 25.3445 30.185 25.565 30.3005 25.8275C30.4055 26.09 30.4685 26.3525 30.4685 26.6465Z" fill="white"/>

</svg>
