<svg width="90" height="20" viewBox="0 0 90 20" fill="none" xmlns="http://www.w3.org/2000/svg">
<path fill-rule="evenodd" clip-rule="evenodd" d="M0.000250417 13.0632V1.6439C-0.00247446 1.4684 0.0298786 1.29413 0.0954113 1.13131C0.160944 0.968483 0.258336 0.820388 0.381874 0.69571C0.502365 0.571079 0.647075 0.472411 0.807107 0.405773C0.967139 0.339135 1.13911 0.305935 1.31245 0.308215H2.58648V5.05502H7.75601V0.308215H10.3804V13.0632H7.75601V7.3888H2.58648V13.0632H0.000250417Z" fill="#DA2028"/>
<path fill-rule="evenodd" clip-rule="evenodd" d="M14.2231 10.7619H15.8934C17.1068 10.7619 17.9963 10.4409 18.5619 9.79899C19.105 9.21188 19.378 8.16975 19.378 6.68436C19.376 5.2518 19.1157 4.19793 18.5971 3.52275C18.1069 2.86519 17.3201 2.53347 16.2281 2.53347H14.2231V10.753V10.7619ZM11.6692 13.0633V1.64399C11.6668 1.46818 11.6996 1.29368 11.7658 1.13075C11.8319 0.967825 11.9299 0.819771 12.0541 0.695307C12.1783 0.570843 12.3261 0.472484 12.4889 0.406021C12.6517 0.339559 12.8261 0.306337 13.0019 0.308311H16.231C18.1881 0.308311 19.6451 0.827906 20.6021 1.8671C21.5708 2.95032 22.0493 4.55901 22.0493 6.68436C22.0645 7.7329 21.8885 8.77544 21.5297 9.76083C21.2043 10.6028 20.6638 11.3447 19.9621 11.9126C19.4442 12.3158 18.853 12.6149 18.2214 12.7933C17.3345 12.9983 16.4245 13.0861 15.5148 13.0545L11.6692 13.0633Z" fill="#DA2028"/>
<path d="M29.8753 13.21C29.1596 13.1962 28.4583 13.007 27.8329 12.6589C27.2075 12.3109 26.677 11.8147 26.288 11.2138C26.2381 11.1111 26.1911 11.0289 26.1471 10.9467C26.0106 10.7416 25.9205 10.5092 25.8829 10.2657V10.1541L26.9514 9.71378L27.3008 10.3273C27.5525 10.7884 27.9209 11.1754 28.369 11.4495C28.8172 11.7235 29.3296 11.8751 29.8547 11.889H29.9046C30.428 11.8817 30.9386 11.7261 31.3771 11.4403C31.8156 11.1545 32.1642 10.7503 32.3822 10.2745C32.5043 9.90994 32.5256 9.51922 32.444 9.14357C32.3624 8.76792 32.1808 8.42129 31.9184 8.14031C31.3313 7.62365 30.6092 7.42991 29.843 7.22442C29.4306 7.12383 29.0255 6.99535 28.6306 6.83986C28.042 6.6101 27.5322 6.21532 27.1625 5.70292C26.7928 5.19052 26.5788 4.58229 26.5463 3.95126C26.5196 3.32254 26.6707 2.69901 26.9822 2.15224C27.2938 1.60548 27.7532 1.15763 28.3077 0.860114C28.8353 0.557644 29.4345 0.402521 30.0426 0.410972C30.7998 0.40141 31.5399 0.636112 32.1533 1.08028C32.7155 1.46265 33.1477 2.00749 33.3921 2.642L33.442 2.77997L32.2912 3.22911L32.2267 3.11463C31.9435 2.58071 31.4985 2.15014 30.9556 1.88463C30.6924 1.77133 30.4084 1.71434 30.1219 1.7173C29.549 1.71669 28.9957 1.9255 28.566 2.30441C28.2726 2.55874 28.0563 2.89018 27.9416 3.26115C27.827 3.63213 27.8185 4.02781 27.9173 4.40334C28.3693 5.54821 29.385 5.81535 30.4712 6.09422C31.3342 6.31733 32.2325 6.54924 32.8784 7.25084C33.3374 7.73979 33.645 8.35131 33.7638 9.0114C33.8826 9.6715 33.8075 10.3519 33.5477 10.9702C33.2053 11.6469 32.6811 12.215 32.0341 12.6106C31.387 13.0062 30.6425 13.2138 29.8841 13.21H29.8753Z" fill="#354D8B"/>
<path d="M58.4385 13.21C57.723 13.1957 57.0221 13.0059 56.3971 12.6573C55.7721 12.3087 55.2423 11.8121 54.8541 11.2109C54.8072 11.1111 54.7602 11.0289 54.7132 10.9497C54.5771 10.743 54.4861 10.5099 54.4461 10.2657V10.1541L55.5205 9.71085L55.8816 10.3244C56.1312 10.7837 56.4966 11.1698 56.9415 11.4443C57.3864 11.7188 57.8954 11.8721 58.4179 11.889H58.4678C59.5657 11.8509 60.5873 11.1874 60.9455 10.2715C61.0667 9.90628 61.0868 9.51501 61.0036 9.13925C60.9204 8.7635 60.737 8.41729 60.4728 8.13738C59.8857 7.63247 59.1724 7.42698 58.4179 7.22149C58.0047 7.12048 57.5987 6.99201 57.2026 6.83693C56.6145 6.60673 56.1054 6.21175 55.7362 5.69938C55.367 5.18702 55.1535 4.57902 55.1213 3.94833C55.0952 3.31972 55.2466 2.69647 55.5581 2.14983C55.8695 1.6032 56.3286 1.15524 56.8826 0.857184C57.4102 0.554715 58.0094 0.399591 58.6175 0.408043C59.3748 0.398481 60.1149 0.633183 60.7282 1.07735C61.2877 1.46182 61.7167 2.0076 61.9582 2.64201L62.0081 2.77998L60.8486 3.22912L60.784 3.11757C60.5019 2.58206 60.0567 2.15024 59.5129 1.88463C59.2508 1.77099 58.9677 1.71397 58.6821 1.7173C58.109 1.71506 57.5551 1.92407 57.1263 2.30442C56.8336 2.5592 56.6183 2.89092 56.5046 3.26193C56.391 3.63294 56.3836 4.02837 56.4834 4.40335C56.9355 5.54822 57.9512 5.81242 59.0344 6.09423C59.9151 6.31733 60.7957 6.54924 61.4445 7.25084C61.9049 7.73902 62.2133 8.35059 62.3322 9.01101C62.451 9.67143 62.3751 10.3522 62.1138 10.9702C61.7712 11.6474 61.2466 12.2157 60.599 12.6113C59.9513 13.007 59.2062 13.2143 58.4473 13.21H58.4385Z" fill="#354D8B"/>
<path d="M42.8918 7.65883L41.1305 3.37877L39.3691 7.65883H42.8918ZM45.0436 12.8812L43.4466 8.99451H38.8114L37.2056 12.8812H35.7701L41.1246 0.152588L46.482 12.8812H45.0436Z" fill="#354D8B"/>
<path d="M49.0713 0.55188H50.5215V12.8225H49.0713V0.55188Z" fill="#354D8B"/>
<path d="M71.5224 5.41912C71.1824 5.42067 70.8568 5.55682 70.617 5.79778C70.3771 6.03874 70.2424 6.3649 70.2425 6.70489C70.2403 7.05336 70.3718 7.38939 70.6099 7.64385C70.848 7.89831 71.1745 8.05184 71.5224 8.07287C71.7035 8.08045 71.8842 8.05016 72.053 7.98394C72.2217 7.91771 72.3748 7.81701 72.5025 7.68827C72.6301 7.55953 72.7295 7.40558 72.7942 7.23625C72.859 7.06693 72.8877 6.88595 72.8786 6.70489C72.8598 6.3578 72.7088 6.03108 72.4565 5.79193C72.2043 5.55277 71.87 5.41936 71.5224 5.41912ZM71.5224 9.3469C71.1866 9.34733 70.8541 9.28054 70.5446 9.15047C70.235 9.02039 69.9546 8.82966 69.7199 8.58953C69.4768 8.3411 69.2865 8.04608 69.1604 7.7222C69.0343 7.39832 68.975 7.05228 68.986 6.70489C68.9721 6.37869 69.0271 6.05321 69.1475 5.74972C69.2679 5.44622 69.451 5.17152 69.6847 4.94355C69.9235 4.69102 70.2104 4.48875 70.5285 4.34861C70.8466 4.20847 71.1895 4.13328 71.537 4.12747C71.8925 4.11901 72.2461 4.18135 72.5772 4.31088C72.9083 4.4404 73.2103 4.63451 73.4657 4.88191C73.8356 5.25258 74.0857 5.72575 74.1837 6.24018C74.2817 6.7546 74.223 7.28659 74.0152 7.76728C73.8074 8.24797 73.4602 8.65523 73.0183 8.93633C72.5765 9.21743 72.0605 9.35944 71.537 9.34397L71.5224 9.3469Z" fill="#354D8B"/>
<path d="M71.5223 1.73793C70.206 1.74026 68.9443 2.26441 68.0138 3.19548C67.0832 4.12654 66.5598 5.38857 66.5583 6.70491C66.5583 9.4614 68.8304 11.7922 71.5223 11.7922C72.8635 11.7717 74.1438 11.2286 75.0906 10.2784C76.0374 9.32829 76.5761 8.04618 76.592 6.70491C76.5765 5.37455 76.0342 4.10462 75.0838 3.17353C74.1335 2.24245 72.8527 1.72618 71.5223 1.73793ZM71.5223 13.1044C70.2689 13.0969 69.0456 12.7188 68.0065 12.0178C66.9673 11.3169 66.1586 10.3242 65.6822 9.16484C65.2057 8.00544 65.0827 6.73103 65.3287 5.50191C65.5747 4.27279 66.1786 3.14386 67.0646 2.2571C67.9505 1.37035 69.0789 0.765371 70.3078 0.51827C71.5367 0.271169 72.8112 0.392978 73.971 0.868376C75.1309 1.34377 76.1242 2.15153 76.8262 3.19004C77.5281 4.22856 77.9073 5.45145 77.916 6.70491C77.8947 8.39454 77.2144 10.0091 76.0201 11.2045C74.8258 12.3999 73.2119 13.0816 71.5223 13.1044Z" fill="#354D8B"/>
<path d="M82.425 3.78688V12.5055H81.1363V0L88.5398 9.35858V0.349332H89.8285V13.1455L82.425 3.78688Z" fill="#354D8B"/>
<path fill-rule="evenodd" clip-rule="evenodd" d="M0 20H89.6874V14.6367H0V20Z" fill="#DA2028"/>
<path fill-rule="evenodd" clip-rule="evenodd" d="M17.966 20L20.4876 14.6104H14.2877L11.8835 20H14.9981H17.966Z" fill="#ED8536"/>
<path fill-rule="evenodd" clip-rule="evenodd" d="M12.8343 20L14.261 14.6104H0V20H12.8343Z" fill="#FAD328"/>
<path fill-rule="evenodd" clip-rule="evenodd" d="M14.2614 20V14.6104H10.0313L6.8726 20H14.5579H14.2614Z" fill="#F5AF31"/>
<path d="M26.077 15.7992H27.6446V16.3305H27.128V18.6349H26.5819V16.3305H26.077V15.7992Z" fill="white"/>
<path d="M30.1339 16.9705C30.0577 16.9683 29.9819 16.9823 29.9116 17.0117C29.8412 17.041 29.7779 17.085 29.7259 17.1407C29.6184 17.2628 29.5617 17.4214 29.5674 17.584C29.5602 17.7482 29.6182 17.9086 29.7288 18.0302C29.7815 18.0854 29.8448 18.1294 29.9149 18.1595C29.9851 18.1895 30.0606 18.205 30.1369 18.205C30.2132 18.205 30.2887 18.1895 30.3588 18.1595C30.429 18.1294 30.4923 18.0854 30.5449 18.0302C30.6007 17.9693 30.6439 17.8981 30.6721 17.8205C30.7003 17.7429 30.713 17.6606 30.7093 17.5781C30.7124 17.497 30.6995 17.4162 30.6713 17.3401C30.6431 17.264 30.6001 17.1943 30.5449 17.1348C30.4917 17.08 30.4277 17.0369 30.357 17.0081C30.2862 16.9793 30.2103 16.9655 30.1339 16.9675V16.9705ZM30.0752 15.397L30.5302 16.1456H30.1545L29.447 15.3882H30.0694L30.0752 15.397ZM30.6858 16.536H31.2113V18.6349H30.6858V18.4148C30.6013 18.5013 30.5019 18.572 30.3923 18.6232C30.2852 18.6671 30.1704 18.6891 30.0547 18.6878C29.9222 18.688 29.7911 18.6602 29.6702 18.606C29.5492 18.5519 29.4411 18.4727 29.3531 18.3737C29.1553 18.1616 29.0497 17.8797 29.0595 17.5899C29.0498 17.2965 29.1551 17.011 29.3531 16.7943C29.4404 16.6953 29.5479 16.6163 29.6685 16.5626C29.7891 16.5089 29.9198 16.4818 30.0517 16.4832C30.1737 16.4824 30.2945 16.5063 30.407 16.5536C30.5165 16.6074 30.6158 16.68 30.7005 16.7679V16.536H30.6858Z" fill="white"/>
<path d="M32.8788 16.536H33.4043V18.635H32.8788V16.536ZM33.143 15.673C33.1869 15.6728 33.2303 15.6815 33.2707 15.6987C33.3111 15.7159 33.3475 15.7411 33.3778 15.7728C33.4411 15.8375 33.4766 15.9244 33.4766 16.015C33.4766 16.1055 33.4411 16.1924 33.3778 16.2572C33.3475 16.2889 33.3111 16.3141 33.2707 16.3312C33.2303 16.3484 33.1869 16.3572 33.143 16.357C33.098 16.3572 33.0534 16.3483 33.012 16.3306C32.9706 16.3129 32.9332 16.2869 32.9023 16.2542C32.8708 16.222 32.8461 16.1839 32.8295 16.1421C32.8128 16.1003 32.8047 16.0556 32.8054 16.0106C32.805 15.9664 32.8134 15.9225 32.83 15.8816C32.8467 15.8407 32.8713 15.8034 32.9024 15.772C32.9335 15.7406 32.9705 15.7157 33.0113 15.6987C33.0521 15.6817 33.0959 15.673 33.1401 15.673H33.143Z" fill="white"/>
<path d="M39.3898 16.9617L38.9524 17.2024C38.8842 17.1268 38.8013 17.0659 38.7087 17.0234C38.615 16.9878 38.5153 16.9709 38.4152 16.9735C38.3281 16.9695 38.2412 16.9831 38.1595 17.0134C38.0779 17.0436 38.0031 17.0899 37.9396 17.1496C37.8282 17.2691 37.7662 17.4265 37.7662 17.5899C37.7662 17.7534 37.8282 17.9107 37.9396 18.0303C38.0653 18.1445 38.2308 18.2046 38.4005 18.1976C38.5049 18.2034 38.6092 18.1846 38.705 18.1428C38.8009 18.101 38.8856 18.0373 38.9524 17.9569L39.3663 18.2504C39.2551 18.395 39.1104 18.5104 38.9447 18.5866C38.779 18.6628 38.5973 18.6975 38.4152 18.6878C38.2537 18.699 38.0916 18.6758 37.9398 18.6196C37.788 18.5634 37.6498 18.4756 37.5345 18.362C37.4143 18.2412 37.324 18.0939 37.2711 17.9319C37.2181 17.77 37.2039 17.5978 37.2296 17.4293C37.2553 17.2609 37.3202 17.1008 37.4191 16.962C37.5179 16.8231 37.6479 16.7094 37.7987 16.63C37.9798 16.5373 38.1797 16.487 38.3831 16.4829C38.5865 16.4789 38.7882 16.5211 38.9729 16.6065C39.1396 16.6878 39.2831 16.81 39.3898 16.9617Z" fill="white"/>
<path d="M41.0485 15.7288H41.5681V16.7503C41.661 16.6682 41.7659 16.6008 41.8793 16.5507C41.9795 16.5074 42.0872 16.4844 42.1963 16.4832C42.2942 16.4811 42.3914 16.4993 42.4819 16.5367C42.5723 16.5741 42.654 16.6298 42.7218 16.7004C42.7878 16.7749 42.8382 16.8618 42.87 16.9561C42.9018 17.0504 42.9143 17.1502 42.9068 17.2494V18.635H42.3872V17.7132C42.3935 17.548 42.3817 17.3826 42.3519 17.22C42.3357 17.1449 42.2942 17.0776 42.2345 17.0292C42.1745 16.9844 42.1009 16.9616 42.0261 16.9646C41.9248 16.9628 41.8268 17.0007 41.7531 17.0703C41.6719 17.1504 41.6158 17.2524 41.5916 17.3639C41.571 17.5067 41.5632 17.6511 41.5681 17.7954V18.6379H41.0485V15.7317V15.7288Z" fill="white"/>
<path d="M44.5356 16.536H45.064V18.6349H44.5356V16.536ZM44.8908 15.397H45.5014L44.8057 16.1456H44.4299L44.8908 15.3882V15.397Z" fill="white"/>
<path d="M46.7229 16.5361H47.2631V16.7533C47.3601 16.6679 47.4688 16.5967 47.586 16.5419C47.6793 16.5043 47.7789 16.4844 47.8795 16.4832C47.9777 16.4818 48.0752 16.5003 48.166 16.5376C48.2569 16.575 48.3391 16.6304 48.4079 16.7005C48.473 16.7754 48.5226 16.8625 48.5538 16.9567C48.5851 17.051 48.5974 17.1504 48.5899 17.2494V18.635H48.0703V17.7162C48.0763 17.5492 48.0654 17.382 48.038 17.2171C48.0201 17.1435 47.979 17.0776 47.9206 17.0292C47.8599 16.9858 47.7868 16.9632 47.7122 16.9647C47.6105 16.9639 47.5126 17.0029 47.4392 17.0733C47.3582 17.1531 47.303 17.2554 47.2807 17.3668C47.259 17.5076 47.2512 17.6502 47.2572 17.7925V18.635H46.7317V16.539L46.7229 16.5361Z" fill="white"/>
<path d="M50.2747 15.7288H50.7855V16.7503C50.8778 16.6675 50.9829 16.6001 51.0967 16.5507C51.1968 16.5074 51.3046 16.4844 51.4137 16.4832C51.5116 16.4811 51.6088 16.4993 51.6992 16.5367C51.7897 16.5741 51.8714 16.6298 51.9392 16.7004C52.0052 16.7749 52.0556 16.8618 52.0874 16.9561C52.1191 17.0504 52.1316 17.1502 52.1241 17.2494V18.635H51.6045V17.7132C51.6109 17.548 51.5991 17.3826 51.5693 17.22C51.553 17.1449 51.5116 17.0776 51.4519 17.0292C51.3919 16.9844 51.3183 16.9616 51.2434 16.9646C51.1421 16.9628 51.0441 17.0007 50.9704 17.0703C50.8893 17.1504 50.8331 17.2524 50.809 17.3639C50.7884 17.5067 50.7805 17.6511 50.7855 17.7954V18.6379H50.2659V15.7317L50.2747 15.7288Z" fill="white"/>
<path d="M56.1691 15.764H56.6975V16.539H57.0087V16.9911H56.6975V18.635H56.1691V16.9911H55.899V16.539H56.1691V15.764Z" fill="white"/>
<path d="M58.4177 16.536H58.9461V18.635H58.4177V16.536ZM58.6819 15.673C58.7262 15.6731 58.77 15.6819 58.8108 15.6991C58.8516 15.7162 58.8886 15.7412 58.9197 15.7728C58.9515 15.8048 58.9768 15.8429 58.9939 15.8847C59.011 15.9265 59.0197 15.9713 59.0195 16.0164C59.0197 16.0612 59.0109 16.1055 58.9938 16.1468C58.9766 16.1881 58.9515 16.2256 58.9197 16.2572C58.8894 16.2889 58.8529 16.3141 58.8126 16.3312C58.7722 16.3484 58.7287 16.3572 58.6849 16.357C58.6402 16.3575 58.596 16.3487 58.555 16.331C58.514 16.3133 58.4772 16.2871 58.4471 16.2542C58.4147 16.2226 58.3891 16.1846 58.372 16.1427C58.3548 16.1008 58.3464 16.0558 58.3473 16.0106C58.3463 15.9664 58.3544 15.9225 58.3711 15.8816C58.3877 15.8407 58.4126 15.8037 58.4441 15.7728C58.4752 15.7412 58.5122 15.7162 58.553 15.6991C58.5938 15.6819 58.6377 15.6731 58.6819 15.673Z" fill="white"/>
<path d="M62.1725 17.3198C62.1397 17.2014 62.0671 17.0977 61.9671 17.0263C61.8635 16.9526 61.7389 16.9145 61.6119 16.9177C61.4727 16.9153 61.3366 16.9586 61.2244 17.041C61.1386 17.1138 61.0721 17.2065 61.0306 17.311L62.1725 17.3198ZM60.8104 16.1456L61.3976 15.5996H61.8173L62.4045 16.1456H61.8173L61.6089 15.8932L61.3976 16.1456H60.8104ZM62.698 17.7308H61.0071C61.0284 17.8689 61.0981 17.9948 61.2038 18.086C61.3186 18.1773 61.4624 18.2242 61.6089 18.2181C61.7029 18.219 61.7962 18.2014 61.8834 18.1661C61.9705 18.1308 62.0498 18.0787 62.1168 18.0126L62.56 18.2211C62.4585 18.3674 62.3224 18.4864 62.1637 18.5675C61.9918 18.6464 61.8039 18.6845 61.6148 18.679C61.4665 18.6853 61.3185 18.661 61.1801 18.6074C61.0417 18.5539 60.9158 18.4723 60.8104 18.3678C60.7108 18.2693 60.6319 18.1517 60.5784 18.0222C60.525 17.8926 60.498 17.7536 60.4993 17.6134C60.4928 17.4675 60.5154 17.3218 60.5658 17.1847C60.6162 17.0476 60.6934 16.9219 60.7928 16.8149C60.8936 16.7113 61.0148 16.6296 61.1486 16.5751C61.2825 16.5205 61.4262 16.4942 61.5708 16.4979C61.7195 16.4921 61.8678 16.5174 62.0062 16.5719C62.1447 16.6265 62.2703 16.7093 62.3751 16.8149C62.4806 16.9262 62.5626 17.0577 62.6161 17.2015C62.6695 17.3453 62.6934 17.4983 62.6863 17.6516V17.7543L62.698 17.7308Z" fill="white"/>
<path d="M64.3037 16.536H64.835V17.5488C64.8287 17.6861 64.8425 17.8236 64.8761 17.9568C64.8998 18.0291 64.9462 18.0919 65.0082 18.1359C65.0731 18.1799 65.1501 18.2025 65.2284 18.2005C65.3078 18.2035 65.386 18.1808 65.4515 18.1359C65.5149 18.0913 65.5622 18.0275 65.5865 17.9539C65.6172 17.8272 65.629 17.6966 65.6218 17.5664V16.539H66.1472V17.4196C66.1626 17.6734 66.1328 17.9278 66.0592 18.1711C65.9977 18.3277 65.8889 18.4611 65.748 18.5528C65.5888 18.6452 65.4064 18.69 65.2225 18.6819C65.0252 18.6912 64.8299 18.6377 64.6648 18.5293C64.5235 18.4216 64.4205 18.2714 64.3712 18.1007C64.32 17.8725 64.2992 17.6386 64.3096 17.405V16.5243L64.3037 16.536Z" fill="white"/>
<path d="M71.1351 16.9705C71.0593 16.9685 70.9841 16.9827 70.9142 17.0121C70.8444 17.0414 70.7816 17.0853 70.73 17.1408C70.6214 17.2624 70.5636 17.4211 70.5685 17.584C70.5624 17.7486 70.6215 17.909 70.7329 18.0302C70.7855 18.0855 70.8489 18.1295 70.919 18.1595C70.9891 18.1896 71.0646 18.2051 71.1409 18.2051C71.2173 18.2051 71.2928 18.1896 71.3629 18.1595C71.433 18.1295 71.4963 18.0855 71.549 18.0302C71.6047 17.9694 71.648 17.8981 71.6762 17.8206C71.7044 17.743 71.717 17.6606 71.7134 17.5782C71.7165 17.4971 71.7036 17.4162 71.6754 17.3401C71.6472 17.2641 71.6042 17.1943 71.549 17.1349C71.4955 17.0797 71.431 17.0363 71.3597 17.0075C71.2884 16.9787 71.2119 16.9651 71.1351 16.9676V16.9705ZM71.6899 15.7288H72.2154V18.635H71.6899V18.4148C71.601 18.5029 71.4965 18.5736 71.3817 18.6232C71.2746 18.6672 71.1598 18.6891 71.0441 18.6878C70.9116 18.6881 70.7805 18.6602 70.6596 18.6061C70.5386 18.5519 70.4305 18.4727 70.3425 18.3737C70.145 18.1614 70.0394 17.8797 70.0489 17.5899C70.0395 17.2966 70.1448 17.0112 70.3425 16.7944C70.4294 16.6949 70.5369 16.6156 70.6575 16.5618C70.7782 16.5081 70.9091 16.4813 71.0411 16.4832C71.1622 16.4822 71.2821 16.5062 71.3934 16.5537C71.5085 16.6055 71.613 16.6781 71.7016 16.7679V15.7288H71.6899Z" fill="white"/>
<path d="M74.7605 15.397L75.2214 16.1456H74.8574L74.1529 15.3882L74.7605 15.397ZM73.9268 16.536H74.4582V17.5488C74.4518 17.6861 74.4657 17.8235 74.4993 17.9568C74.5231 18.0283 74.5682 18.0907 74.6284 18.1359C74.6963 18.1805 74.7763 18.2031 74.8574 18.2005C74.9368 18.2034 75.015 18.1808 75.0805 18.1359C75.1431 18.0904 75.1902 18.0269 75.2156 17.9539C75.2447 17.8269 75.2556 17.6964 75.2478 17.5664V16.5389H75.7762V17.4196C75.7916 17.6733 75.7618 17.9278 75.6882 18.1711C75.6257 18.327 75.5172 18.4602 75.377 18.5527C75.2178 18.6451 75.0354 18.6899 74.8515 18.6819C74.6541 18.6915 74.4588 18.6381 74.2938 18.5292C74.1507 18.4232 74.0474 18.2723 74.0002 18.1006C73.949 17.8725 73.9283 17.6385 73.9386 17.4049V16.5242L73.9268 16.536Z" fill="white"/>
<path d="M77.4785 16.5361H78.0039V16.7533C78.1015 16.6686 78.2101 16.5975 78.3268 16.542C78.4203 16.5047 78.5198 16.4848 78.6204 16.4833C78.7186 16.4815 78.8162 16.4998 78.9071 16.5372C78.998 16.5745 79.0802 16.6301 79.1488 16.7005C79.2139 16.7755 79.2635 16.8626 79.2947 16.9568C79.326 17.051 79.3382 17.1505 79.3308 17.2495V18.635H78.8112V17.7162C78.8171 17.5492 78.8063 17.382 78.7789 17.2172C78.7648 17.144 78.7278 17.0772 78.6732 17.0264C78.6125 16.9829 78.5394 16.9603 78.4648 16.9618C78.3631 16.961 78.2652 17 78.1918 17.0704C78.1108 17.1502 78.0556 17.2525 78.0333 17.3639C78.0116 17.5047 78.0038 17.6473 78.0098 17.7896V18.6321H77.4843V16.5391L77.4785 16.5361Z" fill="white"/>
<path d="M82.0314 16.9764C81.9553 16.9744 81.8797 16.988 81.809 17.0163C81.7383 17.0445 81.6742 17.0869 81.6204 17.1408C81.5672 17.1967 81.5256 17.2625 81.4979 17.3346C81.4702 17.4066 81.457 17.4834 81.459 17.5605C81.4562 17.6401 81.4695 17.7193 81.4983 17.7935C81.5271 17.8677 81.5706 17.9352 81.6263 17.9921C81.68 18.047 81.7445 18.0902 81.8158 18.119C81.887 18.1477 81.9634 18.1615 82.0402 18.1594C82.1154 18.1616 82.1903 18.1481 82.26 18.1198C82.3298 18.0915 82.3929 18.049 82.4453 17.995C82.5484 17.876 82.6051 17.7238 82.6051 17.5664C82.6051 17.409 82.5484 17.2568 82.4453 17.1378C82.3919 17.0835 82.3278 17.0409 82.257 17.0126C82.1863 16.9843 82.1105 16.971 82.0343 16.9734L82.0314 16.9764ZM82.5774 16.539H83.1029V18.3355C83.1243 18.6128 83.0485 18.8889 82.8886 19.1164C82.7789 19.2343 82.6441 19.326 82.4942 19.385C82.3444 19.4439 82.1832 19.4685 82.0226 19.4569C81.8463 19.4609 81.6707 19.4351 81.503 19.3806C81.37 19.331 81.249 19.254 81.1478 19.1546C81.0506 19.0508 80.9783 18.9263 80.9364 18.7905H81.5235C81.5777 18.8509 81.6465 18.8963 81.7232 18.9226C81.8171 18.957 81.9168 18.973 82.0167 18.9696C82.134 18.9742 82.2506 18.9511 82.3572 18.9021C82.4344 18.8675 82.4983 18.8088 82.5393 18.7348C82.5815 18.6203 82.5995 18.4984 82.5921 18.3766C82.5084 18.4619 82.4086 18.5298 82.2985 18.5762C82.1875 18.6164 82.0702 18.6363 81.9521 18.635C81.8193 18.6389 81.6871 18.6148 81.5642 18.5643C81.4412 18.5137 81.3304 18.4377 81.2388 18.3414C81.0473 18.1236 80.9431 17.8427 80.9464 17.5528C80.9496 17.2628 81.0601 16.9843 81.2564 16.7709C81.3431 16.6823 81.4469 16.6122 81.5614 16.5648C81.6759 16.5174 81.7988 16.4936 81.9228 16.4949C82.0406 16.4946 82.1573 16.5176 82.2662 16.5624C82.3867 16.6151 82.4962 16.6897 82.5892 16.7826V16.5507L82.5774 16.539Z" fill="white"/>
</svg>
