<svg width="25" height="24" viewBox="0 0 25 24" fill="none" xmlns="http://www.w3.org/2000/svg">
<rect x="1" y="0.5" width="23" height="23" rx="11.5" stroke="#A3AABB"/>
<path fill-rule="evenodd" clip-rule="evenodd" d="M7.03904 7.26517C6.68294 7.61466 6.51415 8.24732 6.51415 9.5V14.5C6.51415 15.7527 6.68294 16.3853 7.03904 16.7348C7.39513 17.0843 8.03972 17.25 9.31604 17.25H15.684C16.9603 17.25 17.6049 17.0843 17.961 16.7348C18.3171 16.3853 18.4858 15.7527 18.4858 14.5V9.5C18.4858 8.24732 18.3171 7.61466 17.961 7.26517C17.6049 6.91567 16.9603 6.75 15.684 6.75H9.31604C8.03972 6.75 7.39513 6.91567 7.03904 7.26517ZM6.4987 6.73483C7.0978 6.14683 8.04518 6 9.31604 6H15.684C16.9548 6 17.9022 6.14683 18.5013 6.73483C19.1004 7.32284 19.25 8.25268 19.25 9.5V14.5C19.25 15.7473 19.1004 16.6772 18.5013 17.2652C17.9022 17.8532 16.9548 18 15.684 18H9.31604C8.04518 18 7.0978 17.8532 6.4987 17.2652C5.8996 16.6772 5.75 15.7473 5.75 14.5V9.5C5.75 8.25268 5.8996 7.32284 6.4987 6.73483Z" fill="#A3AABB"/>
<rect x="8" y="10.5" width="3" height="0.75" rx="0.375" fill="#A3AABB"/>
<rect x="8" y="8.25" width="3" height="0.75" rx="0.375" fill="#A3AABB"/>
<rect x="8" y="12.75" width="9" height="0.75" rx="0.375" fill="#A3AABB"/>
<rect x="8" y="15" width="9" height="0.75" rx="0.375" fill="#A3AABB"/>
<path d="M12.5 6.75H13.25V9C13.25 9.82843 13.9216 10.5 14.75 10.5H18.5V11.25H14.75C13.5074 11.25 12.5 10.2426 12.5 9V6.75Z" fill="#A3AABB"/>
</svg>
