<svg width="32" height="32" viewBox="0 0 32 32" fill="none" xmlns="http://www.w3.org/2000/svg">
<path fill-rule="evenodd" clip-rule="evenodd" d="M10.6667 4.1604C10.6667 3.64813 10.2259 3.24297 9.71992 3.32301C7.90374 3.61031 6.43279 4.24165 5.33737 5.33707C4.24191 6.43253 3.61056 7.90354 3.32328 9.7198C3.24325 10.2258 3.6484 10.6666 4.16067 10.6666V10.6666C4.6078 10.6666 4.97801 10.3269 5.05212 9.88597C5.30574 8.37704 5.81635 7.30939 6.56302 6.56272C7.30966 5.81608 8.37726 5.30547 9.88612 5.05185C10.3271 4.97773 10.6667 4.60753 10.6667 4.1604V4.1604ZM22.114 5.05181C21.6731 4.9777 21.3334 4.60749 21.3334 4.16036V4.16036C21.3334 3.64809 21.7742 3.24294 22.2802 3.32297C24.0965 3.61024 25.5675 4.2416 26.663 5.33707C27.7585 6.43253 28.3898 7.90354 28.6771 9.7198C28.7571 10.2258 28.352 10.6666 27.8397 10.6666V10.6666C27.3926 10.6666 27.0224 10.3269 26.9483 9.88597C26.6947 8.37704 26.184 7.30939 25.4374 6.56272C24.6907 5.81604 23.623 5.30542 22.114 5.05181ZM27.8397 21.3333C27.3926 21.3333 27.0224 21.6729 26.9483 22.1139C26.6946 23.6228 26.184 24.6904 25.4374 25.4371C24.6907 26.1838 23.623 26.6944 22.114 26.948C21.6731 27.0221 21.3334 27.3923 21.3334 27.8394V27.8394C21.3334 28.3517 21.7742 28.7568 22.2802 28.6768C24.0965 28.3895 25.5675 27.7582 26.663 26.6627C27.7585 25.5673 28.3898 24.0963 28.6771 22.2801C28.7571 21.7741 28.352 21.3333 27.8397 21.3333V21.3333ZM9.71993 28.6768C10.2259 28.7568 10.6667 28.3517 10.6667 27.8394V27.8394C10.6667 27.3923 10.3271 27.0221 9.88612 26.9479C8.37726 26.6943 7.30966 26.1837 6.56302 25.4371C5.81637 24.6904 5.30575 23.6228 5.05213 22.1139C4.97802 21.6729 4.60781 21.3333 4.16068 21.3333V21.3333C3.64841 21.3333 3.24326 21.7741 3.32329 22.2801C3.61058 24.0963 4.24193 25.5673 5.33737 26.6627C6.43279 27.7581 7.90375 28.3895 9.71993 28.6768Z" fill="white"/>
<path fill-rule="evenodd" clip-rule="evenodd" d="M22.0742 21.5855C22.445 21.243 22.4679 20.6647 22.1254 20.2939C21.7828 19.923 21.2045 19.9001 20.8337 20.2426C19.5142 21.4615 17.7974 22.1327 15.9997 22.1327C14.202 22.1327 12.4853 21.4615 11.1658 20.2426C10.7949 19.9001 10.2167 19.923 9.8741 20.2939C9.53156 20.6647 9.55448 21.243 9.92532 21.5855C11.5837 23.1173 13.7409 23.9609 15.9997 23.9609C18.2586 23.9609 20.4158 23.1173 22.0742 21.5855Z" fill="white"/>
<path fill-rule="evenodd" clip-rule="evenodd" d="M17.8281 16.2344V12.9141C17.8281 12.4092 17.4189 12 16.914 12C16.4092 12 16 12.4092 16 12.9141V16.2344C16 16.5144 15.7722 16.7422 15.4922 16.7422H14.7474C14.2425 16.7422 13.8333 17.1514 13.8333 17.6562C13.8333 18.1611 14.2425 18.5703 14.7474 18.5703H15.4922C16.7802 18.5703 17.8281 17.5224 17.8281 16.2344Z" fill="white"/>
<path fill-rule="evenodd" clip-rule="evenodd" d="M22.6669 12.8035V10.1968C22.6669 9.72001 22.2789 9.3335 21.8003 9.3335C21.3216 9.3335 20.9336 9.72001 20.9336 10.1968V12.8035C20.9336 13.2803 21.3216 13.6668 21.8003 13.6668C22.2789 13.6668 22.6669 13.2803 22.6669 12.8035Z" fill="white"/>
<path fill-rule="evenodd" clip-rule="evenodd" d="M10.2 13.6668C9.72134 13.6668 9.33331 13.2803 9.33331 12.8035V10.1968C9.33331 9.72001 9.72134 9.3335 10.2 9.3335C10.6786 9.3335 11.0666 9.72001 11.0666 10.1968V12.8035C11.0666 13.2803 10.6786 13.6668 10.2 13.6668Z" fill="white"/>
</svg>
