<svg width="32" height="32" viewBox="0 0 32 32" fill="none" xmlns="http://www.w3.org/2000/svg">
<path fill-rule="evenodd" clip-rule="evenodd" d="M16 4.4627C10.2654 4.4627 5.61658 9.62805 5.61658 15.9998C5.61658 22.3716 10.2654 27.537 16 27.537C21.7346 27.537 26.3834 22.3716 26.3834 15.9998C26.3834 9.62805 21.7346 4.4627 16 4.4627ZM4 15.9998C4 8.63604 9.37258 2.6665 16 2.6665C22.6274 2.6665 28 8.63604 28 15.9998C28 23.3636 22.6274 29.3332 16 29.3332C9.37258 29.3332 4 23.3636 4 15.9998Z" fill="white"/>
<path fill-rule="evenodd" clip-rule="evenodd" d="M16 12.8666C14.8786 12.8666 14.2 13.6245 14.2 14.2877C14.2 14.7663 13.812 15.1544 13.3333 15.1544C12.8547 15.1544 12.4667 14.7663 12.4667 14.2877C12.4667 12.4275 14.18 11.1333 16 11.1333C17.82 11.1333 19.5333 12.4275 19.5333 14.2877V17.7122C19.5333 19.5725 17.82 20.8666 16 20.8666C14.18 20.8666 12.4667 19.5725 12.4667 17.7122C12.4667 17.2336 12.8547 16.8456 13.3333 16.8456C13.812 16.8456 14.2 17.2336 14.2 17.7122C14.2 18.3754 14.8786 19.1333 16 19.1333C17.1215 19.1333 17.8 18.3754 17.8 17.7122V14.2877C17.8 13.6245 17.1215 12.8666 16 12.8666Z" fill="white"/>
<path fill-rule="evenodd" clip-rule="evenodd" d="M10.2001 14.5897C10.2001 11.4419 12.7936 8.86663 16.0135 8.86663C19.0346 8.86663 21.5023 11.1318 21.7911 14.0043C21.839 14.4805 22.2639 14.8278 22.7402 14.7799C23.2164 14.732 23.5637 14.3071 23.5158 13.8309C23.1366 10.0609 19.9129 7.1333 16.0135 7.1333C11.8586 7.1333 8.4668 10.4625 8.4668 14.5897V17.4102C8.4668 20.7133 10.6392 23.5052 13.6366 24.4885C14.1631 24.6612 14.6667 24.2391 14.6667 23.685C14.6667 23.2715 14.3788 22.9191 13.9904 22.7771C11.7733 21.9662 10.2001 19.8618 10.2001 17.4102V14.5897ZM18.0134 22.7855C17.6231 22.9263 17.3333 23.2793 17.3333 23.6942C17.3333 24.2467 17.8344 24.6684 18.3601 24.4984C21.1864 23.5846 23.2904 21.0643 23.5308 18.0052C23.5683 17.528 23.2119 17.1108 22.7347 17.0733C22.2575 17.0358 21.8403 17.3923 21.8028 17.8694C21.6248 20.1341 20.1006 22.0322 18.0134 22.7855Z" fill="white"/>
</svg>
