<svg width="14" height="14" viewBox="0 0 14 14" fill="none" xmlns="http://www.w3.org/2000/svg">
<path d="M12.25 3.48796C10.3075 3.29546 8.35333 3.19629 6.405 3.19629C5.25 3.19629 4.095 3.25462 2.94 3.37129L1.75 3.48796" stroke="white" stroke-opacity="0.8" stroke-width="0.8" stroke-linecap="round" stroke-linejoin="round"/>
<path d="M4.95834 2.89949L5.08667 2.13533C5.18 1.58116 5.25 1.16699 6.23584 1.16699H7.76417C8.75 1.16699 8.82584 1.60449 8.91334 2.14116L9.04167 2.89949" stroke="white" stroke-opacity="0.8" stroke-width="0.8" stroke-linecap="round" stroke-linejoin="round"/>
<path d="M10.9958 5.33203L10.6167 11.2062C10.5525 12.122 10.5 12.8337 8.8725 12.8337H5.1275C3.5 12.8337 3.4475 12.122 3.38333 11.2062L3.00417 5.33203" stroke="white" stroke-opacity="0.8" stroke-width="0.8" stroke-linecap="round" stroke-linejoin="round"/>
<path d="M6.02583 9.625H7.96833" stroke="white" stroke-opacity="0.8" stroke-width="0.8" stroke-linecap="round" stroke-linejoin="round"/>
<path d="M5.54166 7.29199H8.45833" stroke="white" stroke-opacity="0.8" stroke-width="0.8" stroke-linecap="round" stroke-linejoin="round"/>
</svg>
