<svg width="24" height="25" viewBox="0 0 24 25" fill="none" xmlns="http://www.w3.org/2000/svg">
<defs>
<linearGradient id="paint0_linear_6033_24467" x1="12" y1="2.5" x2="12" y2="22.5" gradientUnits="userSpaceOnUse">
<stop stop-color="#5E9E53"/>
<stop offset="1" stop-color="#80CC73"/>
</linearGradient>
<linearGradient id="paint1_linear_6033_24467" x1="18.0815" y1="2.51562" x2="18.0815" y2="9.32048" gradientUnits="userSpaceOnUse">
<stop stop-color="#5E9E53"/>
<stop offset="1" stop-color="#80CC73"/>
</linearGradient>
<linearGradient id="paint2_linear_6033_24467" x1="10.5" y1="12.75" x2="10.5" y2="14.25" gradientUnits="userSpaceOnUse">
<stop stop-color="#5E9E53"/>
<stop offset="1" stop-color="#80CC73"/>
</linearGradient>
<linearGradient id="paint3_linear_6033_24467" x1="9.5" y1="16.75" x2="9.5" y2="18.25" gradientUnits="userSpaceOnUse">
<stop stop-color="#5E9E53"/>
<stop offset="1" stop-color="#80CC73"/>
</linearGradient>
<clipPath id="clip0_6033_24467">
<rect width="24" height="24" fill="white" transform="translate(0 0.5)"/>
</clipPath>
</defs>
<g clip-path="url(#clip0_6033_24467)">
<rect width="24" height="24" transform="translate(0 0.5)" fill="white" fill-opacity="0.01"/>
<path opacity="0.4" d="M20.5 10.69H17.61C15.24 10.69 13.31 8.76 13.31 6.39V3.5C13.31 2.95 12.86 2.5 12.31 2.5H8.07C4.99 2.5 2.5 4.5 2.5 8.07V16.93C2.5 20.5 4.99 22.5 8.07 22.5H15.93C19.01 22.5 21.5 20.5 21.5 16.93V11.69C21.5 11.14 21.05 10.69 20.5 10.69Z" fill="url(#paint0_linear_6033_24467)"/>
<path d="M15.8 2.71048C15.39 2.30048 14.68 2.58048 14.68 3.15048V6.64048C14.68 8.10048 15.92 9.31048 17.43 9.31048C18.38 9.32048 19.7 9.32048 20.83 9.32048C21.4 9.32048 21.7 8.65048 21.3 8.25048C19.86 6.80048 17.28 4.19048 15.8 2.71048Z" fill="url(#paint1_linear_6033_24467)"/>
<path d="M13.5 14.25H7.5C7.09 14.25 6.75 13.91 6.75 13.5C6.75 13.09 7.09 12.75 7.5 12.75H13.5C13.91 12.75 14.25 13.09 14.25 13.5C14.25 13.91 13.91 14.25 13.5 14.25Z" fill="url(#paint2_linear_6033_24467)"/>
<path d="M11.5 18.25H7.5C7.09 18.25 6.75 17.91 6.75 17.5C6.75 17.09 7.09 16.75 7.5 16.75H11.5C11.91 16.75 12.25 17.09 12.25 17.5C12.25 17.91 11.91 18.25 11.5 18.25Z" fill="url(#paint3_linear_6033_24467)"/>
</g>
</svg>
