<svg width="12" height="12" viewBox="0 0 12 12" fill="none" xmlns="http://www.w3.org/2000/svg">
<path d="M3.38002 11H8.62002C10 11 10.55 10.155 10.615 9.125L10.875 4.995C10.945 3.915 10.085 3 9.00002 3C8.69502 3 8.41502 2.825 8.27502 2.555L7.91502 1.83C7.68502 1.375 7.08502 1 6.57502 1H5.43002C4.91502 1 4.31502 1.375 4.08502 1.83L3.72502 2.555C3.58502 2.825 3.30502 3 3.00002 3C1.91502 3 1.05502 3.915 1.12502 4.995L1.38502 9.125C1.44502 10.155 2.00002 11 3.38002 11Z" stroke="#292D32" stroke-linecap="round" stroke-linejoin="round"/>
<path d="M5.25 4H6.75" stroke="#292D32" stroke-linecap="round" stroke-linejoin="round"/>
<path d="M6 9C6.895 9 7.625 8.27 7.625 7.375C7.625 6.48 6.895 5.75 6 5.75C5.105 5.75 4.375 6.48 4.375 7.375C4.375 8.27 5.105 9 6 9Z" stroke="#292D32" stroke-linecap="round" stroke-linejoin="round"/>
</svg>
