<svg width="24" height="25" viewBox="0 0 24 25" fill="none" xmlns="http://www.w3.org/2000/svg">
<defs>
<linearGradient id="paint0_linear_6033_24405" x1="11.9978" y1="12.5" x2="11.9978" y2="22.5" gradientUnits="userSpaceOnUse">
<stop stop-color="#F06930"/>
<stop offset="1" stop-color="#FC996E"/>
</linearGradient>
<linearGradient id="paint1_linear_6033_24405" x1="12" y1="17.2793" x2="12" y2="18.6393" gradientUnits="userSpaceOnUse">
<stop stop-color="#F06930"/>
<stop offset="1" stop-color="#FC996E"/>
</linearGradient>
<linearGradient id="paint2_linear_6033_24405" x1="12.0001" y1="2.5" x2="12.0001" y2="12.5" gradientUnits="userSpaceOnUse">
<stop stop-color="#F06930"/>
<stop offset="1" stop-color="#FC996E"/>
</linearGradient>
<clipPath id="clip0_6033_24405">
<rect width="24" height="24" fill="white" transform="translate(0 0.5)"/>
</clipPath>
</defs>
<g clip-path="url(#clip0_6033_24405)">
<rect width="24" height="24" transform="translate(0 0.5)" fill="white" fill-opacity="0.01"/>
<path opacity="0.4" d="M18.35 20.18C17.8 21.59 16.46 22.5 14.95 22.5H9.05C7.53 22.5 6.2 21.59 5.65 20.18C5.1 18.76 5.48 17.19 6.6 16.17L10.65 12.5H13.36L17.4 16.17C18.52 17.19 18.89 18.76 18.35 20.18Z" fill="url(#paint0_linear_6033_24405)"/>
<path d="M13.82 18.6393H10.18C9.8 18.6393 9.5 18.3293 9.5 17.9593C9.5 17.5793 9.81 17.2793 10.18 17.2793H13.82C14.2 17.2793 14.5 17.5893 14.5 17.9593C14.5 18.3293 14.19 18.6393 13.82 18.6393Z" fill="url(#paint1_linear_6033_24405)"/>
<path d="M18.35 4.82C17.8 3.41 16.46 2.5 14.95 2.5H9.05C7.54 2.5 6.2 3.41 5.65 4.82C5.11 6.24 5.48 7.81 6.61 8.83L10.65 12.5H13.36L17.4 8.83C18.52 7.81 18.89 6.24 18.35 4.82ZM13.82 7.73H10.18C9.8 7.73 9.5 7.42 9.5 7.05C9.5 6.68 9.81 6.37 10.18 6.37H13.82C14.2 6.37 14.5 6.68 14.5 7.05C14.5 7.42 14.19 7.73 13.82 7.73Z" fill="url(#paint2_linear_6033_24405)"/>
</g>
</svg>
