<svg width="24" height="25" viewBox="0 0 24 25" fill="none" xmlns="http://www.w3.org/2000/svg">
<defs>
<linearGradient id="paint0_linear_6033_24377" x1="19" y1="15.5" x2="19" y2="23.5" gradientUnits="userSpaceOnUse">
<stop stop-color="#5E9E53"/>
<stop offset="1" stop-color="#80CC73"/>
</linearGradient>
<linearGradient id="paint1_linear_6033_24377" x1="12" y1="3.90039" x2="12" y2="9.50039" gradientUnits="userSpaceOnUse">
<stop stop-color="#5E9E53"/>
<stop offset="1" stop-color="#80CC73"/>
</linearGradient>
<linearGradient id="paint2_linear_6033_24377" x1="12" y1="9.5" x2="12" y2="21.1" gradientUnits="userSpaceOnUse">
<stop stop-color="#5E9E53"/>
<stop offset="1" stop-color="#80CC73"/>
</linearGradient>
<clipPath id="clip0_6033_24377">
<rect width="24" height="24" fill="white" transform="translate(0 0.5)"/>
</clipPath>
</defs>
<g clip-path="url(#clip0_6033_24377)">
<rect width="24" height="24" transform="translate(0 0.5)" fill="white" fill-opacity="0.01"/>
<path d="M19 15.5C16.79 15.5 15 17.29 15 19.5C15 20.25 15.21 20.96 15.58 21.56C16.27 22.72 17.54 23.5 19 23.5C20.46 23.5 21.73 22.72 22.42 21.56C22.79 20.96 23 20.25 23 19.5C23 17.29 21.21 15.5 19 15.5ZM21.07 19.07L18.94 21.04C18.8 21.17 18.61 21.24 18.43 21.24C18.24 21.24 18.05 21.17 17.9 21.02L16.91 20.03C16.62 19.74 16.62 19.26 16.91 18.97C17.2 18.68 17.68 18.68 17.97 18.97L18.45 19.45L20.05 17.97C20.35 17.69 20.83 17.71 21.11 18.01C21.39 18.31 21.37 18.78 21.07 19.07Z" fill="url(#paint0_linear_6033_24377)"/>
<path d="M22 8.04039V9.50039H2V8.04039C2 5.75039 3.86002 3.90039 6.15002 3.90039H17.85C20.14 3.90039 22 5.75039 22 8.04039Z" fill="url(#paint1_linear_6033_24377)"/>
<path opacity="0.4" d="M2 9.5V16.96C2 19.25 3.85001 21.1 6.14001 21.1H12.4C12.98 21.1 13.48 20.61 13.43 20.03C13.29 18.5 13.78 16.84 15.14 15.52C15.7 14.97 16.39 14.55 17.14 14.31C18.39 13.91 19.6 13.96 20.67 14.32C21.32 14.54 22 14.07 22 13.38V9.5H2ZM8 17.75H6C5.59 17.75 5.25 17.41 5.25 17C5.25 16.59 5.59 16.25 6 16.25H8C8.41 16.25 8.75 16.59 8.75 17C8.75 17.41 8.41 17.75 8 17.75Z" fill="url(#paint2_linear_6033_24377)"/>
<path d="M8.75 17C8.75 17.41 8.41 17.75 8 17.75H6C5.59 17.75 5.25 17.41 5.25 17C5.25 16.59 5.59 16.25 6 16.25H8C8.41 16.25 8.75 16.59 8.75 17Z" fill="#EBF7EB"/>
</g>
</svg>
