<svg width="40" height="40" viewBox="0 0 40 40" fill="none" xmlns="http://www.w3.org/2000/svg">
    <defs>
        <clipPath id="clip0_3934_55138">
            <rect width="24" height="24" fill="white" transform="translate(8 8)"/>
        </clipPath>
    </defs>
    <rect x="0.5" y="0.5" width="39" height="39" rx="9.5" stroke="#DFE5EB"/>
    <g clip-path="url(#clip0_3934_55138)">
        <path fill-rule="evenodd" clip-rule="evenodd" d="M27.4596 12.5405C27.7134 12.7943 27.7134 13.2059 27.4596 13.4597L13.4596 27.4597C13.2058 27.7136 12.7942 27.7136 12.5404 27.4597C12.2865 27.2059 12.2865 26.7943 12.5404 26.5405L26.5404 12.5405C26.7942 12.2866 27.2058 12.2866 27.4596 12.5405Z" fill="#3E4552"/>
        <path fill-rule="evenodd" clip-rule="evenodd" d="M12.5404 12.5405C12.7942 12.2866 13.2058 12.2866 13.4596 12.5405L27.4596 26.5405C27.7134 26.7943 27.7134 27.2059 27.4596 27.4597C27.2058 27.7136 26.7942 27.7136 26.5404 27.4597L12.5404 13.4597C12.2865 13.2059 12.2865 12.7943 12.5404 12.5405Z" fill="#3E4552"/>
    </g>
</svg>
