<svg width="26" height="26" viewBox="0 0 26 26" fill="none" xmlns="http://www.w3.org/2000/svg">
<defs>
<linearGradient id="paint0_linear_4420_10248" x1="13" y1="0" x2="13" y2="26" gradientUnits="userSpaceOnUse">
<stop stop-color="#5E9E53"/>
<stop offset="1" stop-color="#80CC73"/>
</linearGradient>
<clipPath id="clip0_4420_10248">
<rect width="24" height="24" fill="white" transform="translate(1 1)"/>
</clipPath>
</defs>
<rect width="26" height="26" rx="9" fill="url(#paint0_linear_4420_10248)"/>
<g clip-path="url(#clip0_4420_10248)">
<path fill-rule="evenodd" clip-rule="evenodd" d="M7.58962 5.98942C7.17382 6.40522 6.95 7.18516 6.95 8.8498V17.1498C6.95 18.8145 7.17382 19.5944 7.58962 20.0102C8.00541 20.426 8.78535 20.6498 10.45 20.6498H15.43C17.0946 20.6498 17.8746 20.426 18.2904 20.0102C18.7062 19.5944 18.93 18.8145 18.93 17.1498V8.8498C18.93 7.18516 18.7062 6.40522 18.2904 5.98942C17.8746 5.57363 17.0946 5.3498 15.43 5.3498H10.45C8.78535 5.3498 8.00541 5.57363 7.58962 5.98942ZM6.67038 5.07019C7.49958 4.24098 8.79465 4.0498 10.45 4.0498H15.43C17.0854 4.0498 18.3804 4.24098 19.2096 5.07019C20.0388 5.89939 20.23 7.19445 20.23 8.8498V17.1498C20.23 18.8052 20.0388 20.1002 19.2096 20.9294C18.3804 21.7586 17.0854 21.9498 15.43 21.9498H10.45C8.79465 21.9498 7.49958 21.7586 6.67038 20.9294C5.84118 20.1002 5.65 18.8052 5.65 17.1498V8.8498C5.65 7.19445 5.84118 5.89939 6.67038 5.07019Z" fill="white"/>
<path fill-rule="evenodd" clip-rule="evenodd" d="M10.6297 7.60508C10.6297 7.24609 10.9207 6.95508 11.2797 6.95508H14.5997C14.9587 6.95508 15.2497 7.24609 15.2497 7.60508C15.2497 7.96406 14.9587 8.25508 14.5997 8.25508H11.2797C10.9207 8.25508 10.6297 7.96406 10.6297 7.60508Z" fill="white"/>
<path fill-rule="evenodd" clip-rule="evenodd" d="M12.94 16.9699C12.5884 16.9699 12.3035 17.2549 12.3035 17.6064C12.3035 17.958 12.5885 18.2429 12.94 18.2429C13.2915 18.2429 13.5765 17.958 13.5765 17.6064C13.5765 17.2549 13.2915 16.9699 12.94 16.9699ZM11.0035 17.6064C11.0035 16.5369 11.8705 15.6699 12.94 15.6699C14.0095 15.6699 14.8765 16.5369 14.8765 17.6064C14.8765 18.6759 14.0095 19.5429 12.94 19.5429C11.8705 19.5429 11.0035 18.6759 11.0035 17.6064Z" fill="white"/>
</g>
</svg>
