<svg width="24" height="24" viewBox="0 0 24 24" fill="none" xmlns="http://www.w3.org/2000/svg">
<rect x="0.5" y="0.5" width="23" height="23" rx="11.5" stroke="#A3AABB"/>
<path d="M15.75 18.75H8.25C5.25 18.75 4.5 18 4.5 15V9C4.5 6 5.25 5.25 8.25 5.25H15.75C18.75 5.25 19.5 6 19.5 9V15C19.5 18 18.75 18.75 15.75 18.75Z" stroke="#A3AABB" stroke-linecap="round" stroke-linejoin="round"/>
<path d="M13.5 9H17.25" stroke="#A3AABB" stroke-linecap="round" stroke-linejoin="round"/>
<path d="M14.25 12H17.25" stroke="#A3AABB" stroke-linecap="round" stroke-linejoin="round"/>
<path d="M15.75 15H17.25" stroke="#A3AABB" stroke-linecap="round" stroke-linejoin="round"/>
<path d="M9.37508 11.4674C10.1248 11.4674 10.7326 10.8597 10.7326 10.1099C10.7326 9.36021 10.1248 8.75244 9.37508 8.75244C8.62535 8.75244 8.01758 9.36021 8.01758 10.1099C8.01758 10.8597 8.62535 11.4674 9.37508 11.4674Z" stroke="#A3AABB" stroke-linecap="round" stroke-linejoin="round"/>
<path d="M12 15.2476C11.895 14.1601 11.0325 13.3051 9.945 13.2076C9.57 13.1701 9.1875 13.1701 8.805 13.2076C7.7175 13.3126 6.855 14.1601 6.75 15.2476" stroke="#A3AABB" stroke-linecap="round" stroke-linejoin="round"/>
</svg>
