<svg width="24" height="24" viewBox="0 0 24 24" fill="none" xmlns="http://www.w3.org/2000/svg">
<g clip-path="url(#clip0_4265_19519)">
<path fill-rule="evenodd" clip-rule="evenodd" d="M11.9999 9.36836C10.5439 9.36836 9.36824 10.544 9.36824 12C9.36824 13.456 10.5439 14.6317 11.9999 14.6317C13.4559 14.6317 14.6316 13.456 14.6316 12C14.6316 10.544 13.4559 9.36836 11.9999 9.36836ZM8.06824 12C8.06824 9.82604 9.82592 8.06836 11.9999 8.06836C14.1739 8.06836 15.9316 9.82604 15.9316 12C15.9316 14.174 14.1739 15.9317 11.9999 15.9317C9.82592 15.9317 8.06824 14.174 8.06824 12Z" fill="#3E4552"/>
<path fill-rule="evenodd" clip-rule="evenodd" d="M3.10083 9.26714C5.28746 5.82989 8.48842 3.75977 11.9998 3.75977C15.5114 3.75977 18.7125 5.83006 20.8991 9.26756C21.3939 10.0432 21.6194 11.0389 21.6194 11.9952C21.6194 12.9516 21.3938 13.9475 20.8988 14.7232C18.7122 18.1605 15.5112 20.2306 11.9998 20.2306C8.48827 20.2306 5.28719 18.1603 3.10056 14.7228C2.60574 13.9471 2.38025 12.9514 2.38025 11.9952C2.38025 11.0388 2.60582 10.0429 3.10083 9.26714ZM11.9998 5.05977C9.03973 5.05977 6.20914 6.80281 4.19744 9.9653L4.1969 9.96616C3.86709 10.4829 3.68025 11.2193 3.68025 11.9952C3.68025 12.7711 3.86709 13.5075 4.1969 14.0242L4.19744 14.0251C6.20914 17.1876 9.03973 18.9306 11.9998 18.9306C14.9599 18.9306 17.7905 17.1876 19.8022 14.0251L19.8028 14.0242C20.1326 13.5075 20.3194 12.7711 20.3194 11.9952C20.3194 11.2193 20.1326 10.4829 19.8028 9.96616L19.8022 9.9653C17.7905 6.80281 14.9599 5.05977 11.9998 5.05977Z" fill="#3E4552"/>
</g>
<defs>
<clipPath id="clip0_4265_19519">
<rect width="24" height="24" fill="white"/>
</clipPath>
</defs>
</svg>
