<svg width="24" height="24" viewBox="0 0 24 24" fill="none" xmlns="http://www.w3.org/2000/svg">
<rect x="0.5" y="0.5" width="23" height="23" rx="11.5" stroke="white" stroke-opacity="0.4"/>
<path fill-rule="evenodd" clip-rule="evenodd" d="M6.53904 7.26517C6.18294 7.61466 6.01415 8.24732 6.01415 9.5V14.5C6.01415 15.7527 6.18294 16.3853 6.53904 16.7348C6.89513 17.0843 7.53972 17.25 8.81604 17.25H15.184C16.4603 17.25 17.1049 17.0843 17.461 16.7348C17.8171 16.3853 17.9858 15.7527 17.9858 14.5V9.5C17.9858 8.24732 17.8171 7.61466 17.461 7.26517C17.1049 6.91567 16.4603 6.75 15.184 6.75H8.81604C7.53972 6.75 6.89513 6.91567 6.53904 7.26517ZM5.9987 6.73483C6.5978 6.14683 7.54518 6 8.81604 6H15.184C16.4548 6 17.4022 6.14683 18.0013 6.73483C18.6004 7.32284 18.75 8.25268 18.75 9.5V14.5C18.75 15.7473 18.6004 16.6772 18.0013 17.2652C17.4022 17.8532 16.4548 18 15.184 18H8.81604C7.54518 18 6.5978 17.8532 5.9987 17.2652C5.3996 16.6772 5.25 15.7473 5.25 14.5V9.5C5.25 8.25268 5.3996 7.32284 5.9987 6.73483Z" fill="white"/>
<rect x="7.5" y="10.5" width="3" height="0.75" rx="0.375" fill="white"/>
<rect x="7.5" y="8.25" width="3" height="0.75" rx="0.375" fill="white"/>
<rect x="7.5" y="12.75" width="9" height="0.75" rx="0.375" fill="white"/>
<rect x="7.5" y="15" width="9" height="0.75" rx="0.375" fill="white"/>
<path d="M12 6.75H12.75V9C12.75 9.82843 13.4216 10.5 14.25 10.5H18V11.25H14.25C13.0074 11.25 12 10.2426 12 9V6.75Z" fill="#757F9A"/>
</svg>
