<svg width="24" height="24" viewBox="0 0 24 24" fill="none" xmlns="http://www.w3.org/2000/svg">
<g clip-path="url(#clip0_4265_19572)">
<path fill-rule="evenodd" clip-rule="evenodd" d="M12 9.66621C10.709 9.66621 9.6667 10.7085 9.6667 11.9995C9.6667 12.4086 9.77103 12.791 9.95588 13.1245L13.1249 9.9554C12.7915 9.77054 12.4091 9.66621 12 9.66621ZM8.3667 11.9995C8.3667 9.99056 9.99105 8.36621 12 8.36621C13.0051 8.36621 13.91 8.77359 14.568 9.43159C14.8218 9.68543 14.8218 10.097 14.568 10.3508L10.3513 14.5675C10.0975 14.8213 9.68592 14.8213 9.43208 14.5675C8.77408 13.9095 8.3667 13.0046 8.3667 11.9995Z" fill="#3E4552"/>
<path fill-rule="evenodd" clip-rule="evenodd" d="M3.86013 9.49204C5.85592 6.3548 8.78272 4.45801 12 4.45801C13.8806 4.45801 15.6824 5.11313 17.2414 6.28908C17.528 6.50525 17.5851 6.91283 17.3689 7.19943C17.1527 7.48603 16.7451 7.54311 16.4585 7.32694C15.1009 6.30288 13.5693 5.75801 12 5.75801C9.33403 5.75801 6.77761 7.32772 4.95674 10.1902L4.9562 10.1911C4.66389 10.649 4.4958 11.3067 4.4958 12.0038C4.4958 12.701 4.66389 13.3587 4.9562 13.8166L4.9565 13.8171C5.58343 14.8011 6.3092 15.6433 7.09046 16.3152C7.36264 16.5493 7.39353 16.9597 7.15945 17.2318C6.92538 17.504 6.51499 17.5349 6.24281 17.3008C5.35753 16.5395 4.55007 15.5985 3.8604 14.5161C3.40271 13.799 3.1958 12.8817 3.1958 12.0038C3.1958 11.1262 3.40263 10.209 3.86013 9.49204Z" fill="#3E4552"/>
<path fill-rule="evenodd" clip-rule="evenodd" d="M18.3009 8.10154C18.5806 7.87654 18.9898 7.92091 19.2148 8.20064C19.5351 8.59894 19.85 9.02708 20.1404 9.48474C20.5975 10.2016 20.8041 11.1183 20.8041 11.9955C20.8041 12.8732 20.5973 13.7903 20.1398 14.5073C20.1397 14.5075 20.1396 14.5076 20.1395 14.5078L19.5916 14.158L20.1401 14.5069C20.14 14.507 20.1399 14.5072 20.1398 14.5073C18.144 17.6446 15.2172 19.5414 12 19.5414C10.8826 19.5414 9.78881 19.3051 8.76439 18.8738C8.43353 18.7345 8.27825 18.3533 8.41756 18.0225C8.55687 17.6916 8.93801 17.5363 9.26886 17.6756C10.1444 18.0443 11.0673 18.2414 12 18.2414C14.6659 18.2414 17.2223 16.6717 19.0432 13.8092L19.0437 13.8083C19.336 13.3504 19.5041 12.6927 19.5041 11.9955C19.5041 11.2984 19.336 10.6407 19.0437 10.1828L19.0428 10.1813C18.7833 9.77232 18.4981 9.38379 18.2018 9.01542C17.9768 8.7357 18.0212 8.32654 18.3009 8.10154Z" fill="#3E4552"/>
<path fill-rule="evenodd" clip-rule="evenodd" d="M15.0429 11.9445C15.3959 12.0096 15.6294 12.3485 15.5643 12.7016C15.2987 14.1417 14.133 15.3074 12.6929 15.5729C12.3399 15.638 12.0009 15.4046 11.9358 15.0516C11.8707 14.6985 12.1041 14.3596 12.4572 14.2945C13.3671 14.1267 14.118 13.3758 14.2858 12.4658C14.3509 12.1128 14.6899 11.8794 15.0429 11.9445Z" fill="#3E4552"/>
<path fill-rule="evenodd" clip-rule="evenodd" d="M10.3513 13.6484C10.6052 13.9022 10.6052 14.3138 10.3513 14.5676L4.12634 20.7926C3.8725 21.0465 3.46095 21.0465 3.2071 20.7926C2.95326 20.5388 2.95326 20.1272 3.2071 19.8734L9.43211 13.6484C9.68595 13.3945 10.0975 13.3945 10.3513 13.6484Z" fill="#3E4552"/>
<path fill-rule="evenodd" clip-rule="evenodd" d="M20.7929 3.20698C21.0467 3.46082 21.0467 3.87238 20.7929 4.12622L14.5679 10.3512C14.314 10.6051 13.9025 10.6051 13.6486 10.3512C13.3948 10.0974 13.3948 9.68582 13.6486 9.43198L19.8736 3.20698C20.1275 2.95314 20.539 2.95314 20.7929 3.20698Z" fill="#3E4552"/>
</g>
<defs>
<clipPath id="clip0_4265_19572">
<rect width="24" height="24" fill="white"/>
</clipPath>
</defs>
</svg>
