<svg width="40" height="40" viewBox="0 0 40 40" fill="none" xmlns="http://www.w3.org/2000/svg">
<path d="M36.2835 3.7168C35.7835 3.2168 34.9668 3.2168 34.4668 3.7168L3.7168 34.4835C3.2168 34.9835 3.2168 35.8001 3.7168 36.3001C3.9668 36.5335 4.28346 36.6668 4.6168 36.6668C4.95013 36.6668 5.2668 36.5335 5.5168 36.2835L36.2835 5.5168C36.8001 5.0168 36.8001 4.2168 36.2835 3.7168Z" fill="white"/>
<path d="M24.7 5.86682V15.3002L15.3 24.7002V22.1335H10.15C7.81669 22.1335 7.16669 20.7002 8.71669 18.9502L20 6.11682L21.3334 4.60015C23.1834 2.50015 24.7 3.06682 24.7 5.86682Z" fill="white"/>
<path d="M31.2831 21.05L19.9998 33.8834L18.6665 35.4C16.8165 37.5 15.2998 36.9334 15.2998 34.1334V29.7L27.1331 17.8667H29.8498C32.1831 17.8667 32.8331 19.3 31.2831 21.05Z" fill="white"/>
</svg>
