<svg width="26" height="26" viewBox="0 0 26 26" fill="none" xmlns="http://www.w3.org/2000/svg">
    <defs>
        <linearGradient id="paint0_linear_3767_17518" x1="13" y1="0" x2="13" y2="26" gradientUnits="userSpaceOnUse">
            <stop stop-color="#F44336"/>
            <stop offset="1" stop-color="#F2918F"/>
        </linearGradient>
    </defs>
    <rect width="26" height="26" rx="9" fill="url(#paint0_linear_3767_17518)"/>
<path fill-rule="evenodd" clip-rule="evenodd" d="M13 4.34715C8.69905 4.34715 5.21244 8.22116 5.21244 13C5.21244 17.7788 8.69905 21.6528 13 21.6528C17.301 21.6528 20.7876 17.7788 20.7876 13C20.7876 8.22116 17.301 4.34715 13 4.34715ZM4 13C4 7.47715 8.02944 3 13 3C17.9706 3 22 7.47715 22 13C22 18.5228 17.9706 23 13 23C8.02944 23 4 18.5228 4 13Z" fill="white"/>
<path fill-rule="evenodd" clip-rule="evenodd" d="M13 10.6496C12.1589 10.6496 11.65 11.218 11.65 11.7154C11.65 12.0744 11.359 12.3654 11 12.3654C10.641 12.3654 10.35 12.0744 10.35 11.7154C10.35 10.3202 11.635 9.34961 13 9.34961C14.365 9.34961 15.65 10.3202 15.65 11.7154V14.2838C15.65 15.679 14.365 16.6496 13 16.6496C11.635 16.6496 10.35 15.679 10.35 14.2838C10.35 13.9248 10.641 13.6338 11 13.6338C11.359 13.6338 11.65 13.9248 11.65 14.2838C11.65 14.7812 12.1589 15.3496 13 15.3496C13.8411 15.3496 14.35 14.7812 14.35 14.2838V11.7154C14.35 11.218 13.8411 10.6496 13 10.6496Z" fill="white"/>
<path fill-rule="evenodd" clip-rule="evenodd" d="M8.6501 11.9419C8.6501 9.58107 10.5952 7.64961 13.0101 7.64961C15.276 7.64961 17.1267 9.34847 17.3433 11.5029C17.3793 11.86 17.6979 12.1205 18.0551 12.0846C18.4123 12.0486 18.6727 11.73 18.6368 11.3728C18.3525 8.54529 15.9346 6.34961 13.0101 6.34961C9.89397 6.34961 7.3501 8.84648 7.3501 11.9419V14.0573C7.3501 16.5346 8.97942 18.6285 11.2274 19.366C11.6223 19.4956 12 19.179 12 18.7634C12 18.4532 11.7841 18.189 11.4928 18.0824C9.82999 17.4743 8.6501 15.896 8.6501 14.0573V11.9419ZM14.5101 18.0887C14.2174 18.1944 14 18.4591 14 18.7703C14 19.1847 14.3758 19.5009 14.7701 19.3734C16.8898 18.6881 18.4678 16.7979 18.6481 14.5035C18.6762 14.1457 18.4089 13.8327 18.051 13.8046C17.6931 13.7765 17.3802 14.0438 17.3521 14.4017C17.2186 16.1002 16.0754 17.5238 14.5101 18.0887Z" fill="white"/>
</svg>
