<svg width="25" height="24" viewBox="0 0 25 24" fill="none" xmlns="http://www.w3.org/2000/svg">
<rect x="1" y="0.5" width="23" height="23" rx="11.5" stroke="#A3AABB"/>
<path fill-rule="evenodd" clip-rule="evenodd" d="M7.03904 7.26517C6.68294 7.61466 6.51415 8.24732 6.51415 9.5V14.5C6.51415 15.7527 6.68294 16.3853 7.03904 16.7348C7.39513 17.0843 8.03972 17.25 9.31604 17.25H15.684C16.9603 17.25 17.6049 17.0843 17.961 16.7348C18.3171 16.3853 18.4858 15.7527 18.4858 14.5V9.5C18.4858 8.24732 18.3171 7.61466 17.961 7.26517C17.6049 6.91567 16.9603 6.75 15.684 6.75H9.31604C8.03972 6.75 7.39513 6.91567 7.03904 7.26517ZM6.4987 6.73483C7.0978 6.14683 8.04518 6 9.31604 6H15.684C16.9548 6 17.9022 6.14683 18.5013 6.73483C19.1004 7.32284 19.25 8.25268 19.25 9.5V14.5C19.25 15.7473 19.1004 16.6772 18.5013 17.2652C17.9022 17.8532 16.9548 18 15.684 18H9.31604C8.04518 18 7.0978 17.8532 6.4987 17.2652C5.8996 16.6772 5.75 15.7473 5.75 14.5V9.5C5.75 8.25268 5.8996 7.32284 6.4987 6.73483Z" fill="#A3AABB"/>
<path fill-rule="evenodd" clip-rule="evenodd" d="M12.5 10.125C12.5 9.91789 12.695 9.75 12.9355 9.75H16.5645C16.805 9.75 17 9.91789 17 10.125C17 10.3321 16.805 10.5 16.5645 10.5H12.9355C12.695 10.5 12.5 10.3321 12.5 10.125Z" fill="#A3AABB"/>
<path fill-rule="evenodd" clip-rule="evenodd" d="M13.25 12C13.25 11.7929 13.4437 11.625 13.6827 11.625H16.5673C16.8063 11.625 17 11.7929 17 12C17 12.2071 16.8063 12.375 16.5673 12.375H13.6827C13.4437 12.375 13.25 12.2071 13.25 12Z" fill="#A3AABB"/>
<path fill-rule="evenodd" clip-rule="evenodd" d="M14 13.875C14 13.6679 14.2518 13.5 14.5625 13.5H16.4375C16.7482 13.5 17 13.6679 17 13.875C17 14.0821 16.7482 14.25 16.4375 14.25H14.5625C14.2518 14.25 14 14.0821 14 13.875Z" fill="#A3AABB"/>
<path fill-rule="evenodd" clip-rule="evenodd" d="M9.87471 9.73023C9.46807 9.73023 9.13841 10.0599 9.13841 10.4665C9.13841 10.8732 9.46807 11.2028 9.87471 11.2028C10.2814 11.2028 10.611 10.8732 10.611 10.4665C10.611 10.0599 10.2814 9.73023 9.87471 9.73023ZM8.4082 10.4665C8.4082 9.65659 9.06478 9.00002 9.87471 9.00002C10.6846 9.00002 11.3412 9.65659 11.3412 10.4665C11.3412 11.2765 10.6846 11.933 9.87471 11.933C9.06478 11.933 8.4082 11.2765 8.4082 10.4665Z" fill="#A3AABB"/>
<path fill-rule="evenodd" clip-rule="evenodd" d="M10.3718 12.6162C11.4279 12.7118 12.266 13.543 12.368 14.5998C12.3874 14.8005 12.2404 14.9789 12.0397 14.9983C11.839 15.0177 11.6605 14.8707 11.6412 14.67C11.5729 13.9627 11.0123 13.4068 10.3047 13.3434L10.3009 13.343L10.3009 13.343C10.0211 13.315 9.73484 13.315 9.44795 13.3431L9.44742 13.3431C8.73573 13.4119 8.17652 13.9648 8.10843 14.67C8.08905 14.8707 7.91063 15.0177 7.70993 14.9983C7.50922 14.9789 7.36222 14.8005 7.3816 14.5998C7.48388 13.5404 8.32411 12.7181 9.37697 12.6163C9.71006 12.5837 10.0438 12.5836 10.3718 12.6162Z" fill="#A3AABB"/>
</svg>
