<svg width="26" height="26" viewBox="0 0 26 26" fill="none" xmlns="http://www.w3.org/2000/svg">
    <defs>
        <linearGradient id="paint0_linear_3767_17531" x1="13" y1="0" x2="13" y2="26" gradientUnits="userSpaceOnUse">
            <stop stop-color="#F44336"/>
            <stop offset="1" stop-color="#F2918F"/>
        </linearGradient>
    </defs>
    <rect width="26" height="26" rx="9" fill="url(#paint0_linear_3767_17531)"/>
<path fill-rule="evenodd" clip-rule="evenodd" d="M9 4.11969C9 3.73548 8.66939 3.43162 8.2899 3.49165C6.92776 3.70712 5.82454 4.18063 5.00298 5.00219C4.18139 5.82378 3.70788 6.92705 3.49242 8.28924C3.43239 8.66873 3.73625 8.99934 4.12046 8.99934C4.4558 8.99934 4.73346 8.74458 4.78904 8.41387C4.97926 7.28217 5.36222 6.48143 5.92222 5.92143C6.4822 5.36145 7.2829 4.97849 8.41454 4.78828C8.74525 4.73269 9 4.45503 9 4.11969ZM17.5855 4.78825C17.2548 4.73266 17 4.45501 17 4.11966C17 3.73546 17.3306 3.4316 17.7101 3.49162C19.0723 3.70707 20.1756 4.18059 20.9972 5.00219C21.8188 5.82378 22.2923 6.92704 22.5078 8.28924C22.5678 8.66873 22.2639 8.99934 21.8797 8.99934C21.5444 8.99934 21.2667 8.74458 21.2112 8.41387C21.0209 7.28217 20.638 6.48143 20.078 5.92143C19.518 5.36142 18.7172 4.97845 17.5855 4.78825ZM21.8797 16.9993C21.5444 16.9993 21.2667 17.2541 21.2111 17.5848C21.0209 18.7165 20.638 19.5172 20.078 20.0772C19.518 20.6372 18.7172 21.0202 17.5855 21.2104C17.2548 21.266 17 21.5436 17 21.879C17 22.2632 17.3306 22.567 17.7101 22.507C19.0723 22.2915 20.1756 21.818 20.9972 20.9964C21.8188 20.1749 22.2923 19.0716 22.5078 17.7094C22.5678 17.33 22.2639 16.9993 21.8797 16.9993ZM8.2899 22.507C8.66939 22.567 9 22.2631 9 21.8789C9 21.5436 8.74525 21.2659 8.41454 21.2103C7.2829 21.0201 6.4822 20.6372 5.92222 20.0772C5.36223 19.5172 4.97927 18.7165 4.78905 17.5848C4.73347 17.2541 4.45581 16.9993 4.12047 16.9993C3.73626 16.9993 3.4324 17.33 3.49243 17.7094C3.70789 19.0716 4.1814 20.1749 5.00298 20.9964C5.82455 21.818 6.92776 22.2915 8.2899 22.507Z" fill="white"/>
<path fill-rule="evenodd" clip-rule="evenodd" d="M17.5556 17.1891C17.8338 16.9322 17.851 16.4985 17.5941 16.2204C17.3371 15.9423 16.9034 15.9251 16.6253 16.1819C15.6357 17.0961 14.3481 17.5996 12.9998 17.5996C11.6516 17.5996 10.364 17.0961 9.37436 16.1819C9.09618 15.9251 8.66253 15.9423 8.4056 16.2204C8.1487 16.4985 8.16589 16.9322 8.44402 17.1891C9.68778 18.338 11.3057 18.9707 12.9998 18.9707C14.694 18.9707 16.3119 18.338 17.5556 17.1891Z" fill="white"/>
<path fill-rule="evenodd" clip-rule="evenodd" d="M14.3711 13.1758V10.6855C14.3711 10.3069 14.0642 10 13.6855 10C13.3069 10 13 10.3069 13 10.6855V13.1758C13 13.3858 12.8291 13.5566 12.6191 13.5566H12.0605C11.6819 13.5566 11.375 13.8636 11.375 14.2422C11.375 14.6208 11.6819 14.9277 12.0605 14.9277H12.6191C13.5852 14.9277 14.3711 14.1418 14.3711 13.1758Z" fill="white"/>
<path fill-rule="evenodd" clip-rule="evenodd" d="M18.0002 10.6025V8.64746C18.0002 8.28988 17.7092 8 17.3502 8C16.9912 8 16.7002 8.28988 16.7002 8.64746V10.6025C16.7002 10.9601 16.9912 11.25 17.3502 11.25C17.7092 11.25 18.0002 10.9601 18.0002 10.6025Z" fill="white"/>
<path fill-rule="evenodd" clip-rule="evenodd" d="M8.65 11.25C8.29102 11.25 8 10.9601 8 10.6025V8.64746C8 8.28988 8.29102 8 8.65 8C9.00898 8 9.3 8.28988 9.3 8.64746V10.6025C9.3 10.9601 9.00898 11.25 8.65 11.25Z" fill="white"/>

</svg>
