<svg width="24" height="24" viewBox="0 0 24 24" fill="none" xmlns="http://www.w3.org/2000/svg">
<g clip-path="url(#clip0_2968_8287)">
<path fill-rule="evenodd" clip-rule="evenodd" d="M8.44367 5.53998C7.85857 6.26634 7.64998 7.32632 7.64998 8.6666V10.3333C7.64998 10.6923 7.35896 10.9833 6.99998 10.9833C6.64099 10.9833 6.34998 10.6923 6.34998 10.3333V8.6666C6.34998 7.24855 6.55804 5.80853 7.43128 4.72447C8.32897 3.61005 9.80539 3.0166 12 3.0166C14.1946 3.0166 15.671 3.61005 16.5687 4.72447C17.4419 5.80853 17.65 7.24855 17.65 8.6666V10.3333C17.65 10.6923 17.359 10.9833 17 10.9833C16.641 10.9833 16.35 10.6923 16.35 10.3333V8.6666C16.35 7.32632 16.1414 6.26634 15.5563 5.53998C14.9956 4.84399 13.9721 4.3166 12 4.3166C10.0279 4.3166 9.00431 4.84399 8.44367 5.53998Z" fill="#3E4552"/>
<path fill-rule="evenodd" clip-rule="evenodd" d="M12 13.9001C11.2084 13.9001 10.5667 14.5418 10.5667 15.3334C10.5667 16.125 11.2084 16.7668 12 16.7668C12.7916 16.7668 13.4333 16.125 13.4333 15.3334C13.4333 14.5418 12.7916 13.9001 12 13.9001ZM9.26666 15.3334C9.26666 13.8239 10.4904 12.6001 12 12.6001C13.5096 12.6001 14.7333 13.8239 14.7333 15.3334C14.7333 16.843 13.5096 18.0668 12 18.0668C10.4904 18.0668 9.26666 16.843 9.26666 15.3334Z" fill="#3E4552"/>
<path fill-rule="evenodd" clip-rule="evenodd" d="M4.95962 11.6261C4.54132 12.0444 4.31666 12.8285 4.31666 14.4998V16.1664C4.31666 17.8378 4.54132 18.6219 4.95962 19.0402C5.37791 19.4584 6.16202 19.6831 7.83333 19.6831H16.1667C17.838 19.6831 18.6221 19.4584 19.0404 19.0402C19.4587 18.6219 19.6833 17.8378 19.6833 16.1664V14.4998C19.6833 12.8285 19.4587 12.0444 19.0404 11.6261C18.6221 11.2078 17.838 10.9831 16.1667 10.9831H7.83333C6.16202 10.9831 5.37791 11.2078 4.95962 11.6261ZM4.04038 10.7068C4.87208 9.87511 6.17131 9.68311 7.83333 9.68311H16.1667C17.8287 9.68311 19.1279 9.87511 19.9596 10.7068C20.7913 11.5385 20.9833 12.8378 20.9833 14.4998V16.1664C20.9833 17.8285 20.7913 19.1277 19.9596 19.9594C19.1279 20.7911 17.8287 20.9831 16.1667 20.9831H7.83333C6.17131 20.9831 4.87208 20.7911 4.04038 19.9594C3.20867 19.1277 3.01666 17.8285 3.01666 16.1664V14.4998C3.01666 12.8378 3.20867 11.5385 4.04038 10.7068Z" fill="#3E4552"/>
</g>
<defs>
<clipPath id="clip0_2968_8287">
<rect width="24" height="24" fill="white"/>
</clipPath>
</defs>
</svg>
