<svg width="56" height="56" viewBox="0 0 56 56" fill="none" xmlns="http://www.w3.org/2000/svg">
<rect width="56" height="56" rx="20" fill="white" fill-opacity="0.06"/>
<rect x="0.5" y="0.5" width="55" height="55" rx="19.5" stroke="white" stroke-opacity="0.06"/>
<path opacity="0.25" d="M34.1529 16.8667H22.8462C19.5529 16.8667 16.8862 19.5467 16.8862 22.8267V35.3734C16.8862 38.6534 19.5662 41.3334 22.8462 41.3334H34.1396C37.4329 41.3334 40.0996 38.6534 40.0996 35.3734V22.8267C40.1129 19.5334 37.4329 16.8667 34.1529 16.8667Z" fill="white"/>
<path d="M31.6329 14.6665H25.3662C23.9795 14.6665 22.8462 15.7865 22.8462 17.1732V18.4265C22.8462 19.8132 23.9662 20.9332 25.3529 20.9332H31.6329C33.0195 20.9332 34.1395 19.8132 34.1395 18.4265V17.1732C34.1529 15.7865 33.0195 14.6665 31.6329 14.6665Z" fill="white"/>
<path d="M32.4993 29.2666H23.166C22.6193 29.2666 22.166 28.8133 22.166 28.2666C22.166 27.7199 22.6193 27.2666 23.166 27.2666H32.4993C33.046 27.2666 33.4993 27.7199 33.4993 28.2666C33.4993 28.8133 33.046 29.2666 32.4993 29.2666Z" fill="white"/>
<path d="M29.006 34.6001H23.166C22.6193 34.6001 22.166 34.1468 22.166 33.6001C22.166 33.0534 22.6193 32.6001 23.166 32.6001H29.006C29.5527 32.6001 30.006 33.0534 30.006 33.6001C30.006 34.1468 29.5527 34.6001 29.006 34.6001Z" fill="white"/>
</svg>
