<svg width="24" height="24" viewBox="0 0 24 24" fill="none" xmlns="http://www.w3.org/2000/svg">
<rect x="0.5" y="0.5" width="23" height="23" rx="11.5" stroke="#A3AABB"/>
<path fill-rule="evenodd" clip-rule="evenodd" d="M12.1875 5.25H11.8125C10.5568 5.25 10.0385 5.25363 9.62209 5.33647C7.83699 5.69155 6.44155 7.08699 6.08647 8.87209C6.00363 9.28853 6 9.80683 6 11.0625V12.75C6 16.0637 8.68629 18.75 12 18.75C15.3137 18.75 18 16.0637 18 12.75V11.0625C18 9.80683 17.9964 9.28853 17.9135 8.87209C17.5585 7.08699 16.163 5.69155 14.3779 5.33647C13.9615 5.25363 13.4432 5.25 12.1875 5.25ZM5.35088 8.72578C5.25 9.23292 5.25 9.84278 5.25 11.0625V12.75C5.25 16.4779 8.27208 19.5 12 19.5C15.7279 19.5 18.75 16.4779 18.75 12.75V11.0625C18.75 9.84278 18.75 9.23292 18.6491 8.72578C18.2349 6.64315 16.6068 5.01514 14.5242 4.60088C14.0171 4.5 13.4072 4.5 12.1875 4.5H11.8125C10.5928 4.5 9.98292 4.5 9.47578 4.60088C7.39315 5.01514 5.76514 6.64315 5.35088 8.72578Z" fill="#A3AABB"/>
<path fill-rule="evenodd" clip-rule="evenodd" d="M14.8123 14.6503C14.9839 14.4917 14.9946 14.224 14.836 14.0523C14.6774 13.8806 14.4097 13.87 14.238 14.0286C13.6271 14.5929 12.8323 14.9036 12 14.9036C11.1678 14.9036 10.373 14.5929 9.76208 14.0286C9.59037 13.87 9.32268 13.8806 9.16409 14.0523C9.0055 14.224 9.01611 14.4917 9.1878 14.6503C9.95555 15.3595 10.9543 15.75 12 15.75C13.0458 15.75 14.0445 15.3595 14.8123 14.6503Z" fill="#A3AABB"/>
<path fill-rule="evenodd" clip-rule="evenodd" d="M12.8465 12.1729V10.6357C12.8465 10.402 12.6571 10.2126 12.4233 10.2126C12.1896 10.2126 12.0002 10.402 12.0002 10.6357V12.1729C12.0002 12.3025 11.8947 12.408 11.7651 12.408H11.4202C11.1865 12.408 10.9971 12.5975 10.9971 12.8312C10.9971 13.0649 11.1865 13.2544 11.4202 13.2544H11.7651C12.3614 13.2544 12.8465 12.7692 12.8465 12.1729Z" fill="#A3AABB"/>
<path fill-rule="evenodd" clip-rule="evenodd" d="M15.4651 10.5845V9.37765C15.4651 9.15692 15.2854 8.97798 15.0638 8.97798C14.8422 8.97798 14.6626 9.15692 14.6626 9.37765V10.5845C14.6626 10.8052 14.8422 10.9842 15.0638 10.9842C15.2854 10.9842 15.4651 10.8052 15.4651 10.5845Z" fill="#A3AABB"/>
<path fill-rule="evenodd" clip-rule="evenodd" d="M8.93639 10.9842C8.7148 10.9842 8.53516 10.8052 8.53516 10.5845V9.37765C8.53516 9.15692 8.7148 8.97798 8.93639 8.97798C9.15798 8.97798 9.33763 9.15692 9.33763 9.37765V10.5845C9.33763 10.8052 9.15798 10.9842 8.93639 10.9842Z" fill="#A3AABB"/>
</svg>
