<svg width="16" height="16" viewBox="0 0 16 16" fill="none" xmlns="http://www.w3.org/2000/svg">
<path d="M9.33325 3.33333C9.33325 2.6 8.73325 2 7.99992 2C7.26659 2 6.66659 2.6 6.66659 3.33333C6.66659 4.06667 7.26659 4.66667 7.99992 4.66667C8.73325 4.66667 9.33325 4.06667 9.33325 3.33333Z" fill="#F1F2F7"/>
<path d="M9.33325 12.6668C9.33325 11.9335 8.73325 11.3335 7.99992 11.3335C7.26659 11.3335 6.66659 11.9335 6.66659 12.6668C6.66659 13.4002 7.26659 14.0002 7.99992 14.0002C8.73325 14.0002 9.33325 13.4002 9.33325 12.6668Z" fill="#F1F2F7"/>
<path d="M9.33325 7.99984C9.33325 7.2665 8.73325 6.6665 7.99992 6.6665C7.26659 6.6665 6.66659 7.2665 6.66659 7.99984C6.66659 8.73317 7.26659 9.33317 7.99992 9.33317C8.73325 9.33317 9.33325 8.73317 9.33325 7.99984Z" fill="#F1F2F7"/>
</svg>
