<svg width="24" height="24" viewBox="0 0 24 24" fill="none" xmlns="http://www.w3.org/2000/svg">
<g clip-path="url(#clip0_2968_6999)">
<path fill-rule="evenodd" clip-rule="evenodd" d="M6.58964 4.98942C6.17385 5.40522 5.95002 6.18516 5.95002 7.8498V16.1498C5.95002 17.8145 6.17385 18.5944 6.58964 19.0102C7.00544 19.426 7.78538 19.6498 9.45002 19.6498H14.43C16.0947 19.6498 16.8746 19.426 17.2904 19.0102C17.7062 18.5944 17.93 17.8145 17.93 16.1498V7.8498C17.93 6.18516 17.7062 5.40522 17.2904 4.98942C16.8746 4.57363 16.0947 4.3498 14.43 4.3498H9.45002C7.78538 4.3498 7.00544 4.57363 6.58964 4.98942ZM5.6704 4.07019C6.49961 3.24098 7.79467 3.0498 9.45002 3.0498H14.43C16.0854 3.0498 17.3804 3.24098 18.2096 4.07019C19.0388 4.89939 19.23 6.19445 19.23 7.8498V16.1498C19.23 17.8052 19.0388 19.1002 18.2096 19.9294C17.3804 20.7586 16.0854 20.9498 14.43 20.9498H9.45002C7.79467 20.9498 6.49961 20.7586 5.6704 19.9294C4.8412 19.1002 4.65002 17.8052 4.65002 16.1498V7.8498C4.65002 6.19445 4.8412 4.89939 5.6704 4.07019Z" fill="#3E4552"/>
<path fill-rule="evenodd" clip-rule="evenodd" d="M9.62976 6.60459C9.62976 6.2456 9.92078 5.95459 10.2798 5.95459H13.5998C13.9587 5.95459 14.2498 6.2456 14.2498 6.60459C14.2498 6.96357 13.9587 7.25459 13.5998 7.25459H10.2798C9.92078 7.25459 9.62976 6.96357 9.62976 6.60459Z" fill="#3E4552"/>
<path fill-rule="evenodd" clip-rule="evenodd" d="M11.94 15.9699C11.5884 15.9699 11.3035 16.2549 11.3035 16.6064C11.3035 16.958 11.5885 17.2429 11.94 17.2429C12.2915 17.2429 12.5765 16.958 12.5765 16.6064C12.5765 16.2549 12.2915 15.9699 11.94 15.9699ZM10.0035 16.6064C10.0035 15.5369 10.8705 14.6699 11.94 14.6699C13.0095 14.6699 13.8765 15.5369 13.8765 16.6064C13.8765 17.6759 13.0095 18.5429 11.94 18.5429C10.8705 18.5429 10.0035 17.6759 10.0035 16.6064Z" fill="#3E4552"/>
</g>
<defs>
<clipPath id="clip0_2968_6999">
<rect width="24" height="24" fill="white"/>
</clipPath>
</defs>
</svg>
