<svg width="24" height="25" viewBox="0 0 24 25" fill="none" xmlns="http://www.w3.org/2000/svg">
<defs>
<linearGradient id="paint0_linear_6033_24455" x1="16.406" y1="3.5" x2="16.406" y2="12.6944" gradientUnits="userSpaceOnUse">
<stop stop-color="#2196F3"/>
<stop offset="1" stop-color="#6FB6ED"/>
</linearGradient>
<linearGradient id="paint1_linear_6033_24455" x1="10.2625" y1="7.04297" x2="10.2625" y2="21.4971" gradientUnits="userSpaceOnUse">
<stop stop-color="#2196F3"/>
<stop offset="1" stop-color="#6FB6ED"/>
</linearGradient>
<clipPath id="clip0_6033_24455">
<rect width="24" height="24" fill="white" transform="translate(0 0.5)"/>
</clipPath>
</defs>
<g clip-path="url(#clip0_6033_24455)">
<rect width="24" height="24" transform="translate(0 0.5)" fill="white" fill-opacity="0.01"/>
<path d="M20.02 11.2004L17.9 12.5404C17.5 12.7904 16.99 12.7304 16.66 12.4004L12.13 7.87041C11.8 7.54041 11.74 7.03041 11.99 6.63041L13.33 4.51041C14.15 3.22041 15.79 3.16041 17 4.36041L20.18 7.54041C21.3 8.67041 21.23 10.4304 20.02 11.2004Z" fill="url(#paint0_linear_6033_24455)"/>
<path d="M14.71 20.4498L5.99 21.4698C5.91232 21.4801 5.83565 21.4874 5.76005 21.4919C5.07492 21.5323 4.90505 20.7247 5.39035 20.2394L7.98 17.6498C8.3 17.3398 8.3 16.8498 7.98 16.5398C7.68 16.2298 7.19 16.2298 6.87 16.5398L4.28035 19.1294C3.79505 19.6147 2.99492 19.4441 3.03133 18.7588C3.03515 18.6868 3.04136 18.6138 3.05 18.5398L4.08 9.81975C4.34 7.63975 5.14 6.91975 7.44 7.05975L8.94 7.14975C9.43 7.17975 9.89 7.38975 10.24 7.73975L16.79 14.2898C17.14 14.6398 17.35 15.0998 17.37 15.5898L17.46 17.0898C17.69 19.3998 16.9 20.1998 14.71 20.4498Z" fill="url(#paint1_linear_6033_24455)"/>
</g>
</svg>
