<svg width="24" height="25" viewBox="0 0 24 25" fill="none" xmlns="http://www.w3.org/2000/svg">
    <defs>
        <linearGradient id="paint0_linear_5654_31873" x1="12" y1="2.5" x2="12.0005" y2="10.0841" gradientUnits="userSpaceOnUse">
            <stop stop-color="#EF5350"/>
            <stop offset="1" stop-color="#F44336"/>
        </linearGradient>
        <linearGradient id="paint1_linear_5654_31873" x1="12" y1="13.2559" x2="12.0004" y2="20.6442" gradientUnits="userSpaceOnUse">
            <stop stop-color="#EF5350"/>
            <stop offset="1" stop-color="#F44336"/>
        </linearGradient>
    </defs>
<path opacity="0.4" d="M12 2.5C9.38 2.5 7.25 4.63 7.25 7.25C7.25 9.82 9.26 11.9 11.88 11.99C11.96 11.98 12.04 11.98 12.1 11.99C12.12 11.99 12.13 11.99 12.15 11.99C12.16 11.99 12.16 11.99 12.17 11.99C14.73 11.9 16.74 9.82 16.75 7.25C16.75 4.63 14.62 2.5 12 2.5Z" fill="url(#paint0_linear_5654_31873)"/>
<path d="M17.08 14.6509C14.29 12.7909 9.74002 12.7909 6.93002 14.6509C5.66002 15.5009 4.96002 16.6509 4.96002 17.8809C4.96002 19.1109 5.66002 20.2509 6.92002 21.0909C8.32002 22.0309 10.16 22.5009 12 22.5009C13.84 22.5009 15.68 22.0309 17.08 21.0909C18.34 20.2409 19.04 19.1009 19.04 17.8609C19.03 16.6309 18.34 15.4909 17.08 14.6509Z" fill="url(#paint1_linear_5654_31873)"/>
</svg>
