<svg width="40" height="40" viewBox="0 0 40 40" fill="none" xmlns="http://www.w3.org/2000/svg">
<g clip-path="url(#clip0_556_6023)">
<path d="M4.99988 15.5V11.75C4.99988 8.015 8.01488 5 11.7499 5H15.4999" stroke="#3E4552" stroke-width="1.5" stroke-linecap="round" stroke-linejoin="round"/>
<path d="M24.5 5H28.25C31.985 5 35 8.015 35 11.75V15.5" stroke="#3E4552" stroke-width="1.5" stroke-linecap="round" stroke-linejoin="round"/>
<path d="M35.0001 26V28.25C35.0001 31.985 31.9851 35 28.2501 35H26.0001" stroke="#3E4552" stroke-width="1.5" stroke-linecap="round" stroke-linejoin="round"/>
<path d="M15.4999 35H11.7499C8.01488 35 4.99988 31.985 4.99988 28.25V24.5" stroke="#3E4552" stroke-width="1.5" stroke-linecap="round" stroke-linejoin="round"/>
<path d="M27.5001 16.25V23.75C27.5001 26.75 26.0001 28.25 23.0001 28.25H17.0001C14.0001 28.25 12.5001 26.75 12.5001 23.75V16.25C12.5001 13.25 14.0001 11.75 17.0001 11.75H23.0001C26.0001 11.75 27.5001 13.25 27.5001 16.25Z" stroke="#3E4552" stroke-width="1.5" stroke-linecap="round" stroke-linejoin="round"/>
<path d="M30.4999 20H9.49988" stroke="#3E4552" stroke-width="1.5" stroke-linecap="round" stroke-linejoin="round"/>
</g>
<defs>
<clipPath id="clip0_556_6023">
<rect width="40" height="40" fill="white"/>
</clipPath>
</defs>
</svg>
