<svg width="100" height="100" viewBox="0 0 100 100" fill="none" xmlns="http://www.w3.org/2000/svg">
<path d="M75.0002 54.1667C71.0835 54.1667 67.4585 55.5418 64.5835 57.8334C60.7502 60.8751 58.3335 65.5834 58.3335 70.8334C58.3335 73.9584 59.2084 76.9167 60.7501 79.4167C63.6251 84.2501 68.9168 87.5001 75.0002 87.5001C79.2085 87.5001 83.0419 85.9584 85.9585 83.3334C87.2502 82.2501 88.3752 80.9167 89.2502 79.4167C90.7919 76.9167 91.6668 73.9584 91.6668 70.8334C91.6668 61.6251 84.2085 54.1667 75.0002 54.1667ZM83.6252 69.0418L74.7502 77.25C74.1668 77.7917 73.3751 78.0834 72.6251 78.0834C71.8335 78.0834 71.0418 77.7918 70.4168 77.1668L66.2918 73.0419C65.0835 71.8335 65.0835 69.8333 66.2918 68.625C67.5002 67.4166 69.5002 67.4166 70.7085 68.625L72.7085 70.6251L79.3751 64.4583C80.6251 63.2916 82.6251 63.3751 83.7918 64.6251C84.9584 65.8751 84.8752 67.8334 83.6252 69.0418Z" fill="#4CAF50"/>
<path opacity="0.4" d="M87.875 89.5833C87.875 90.7499 86.9583 91.6666 85.7916 91.6666H14.2083C13.0417 91.6666 12.125 90.7499 12.125 89.5833C12.125 72.3333 29.125 58.3333 50 58.3333C54.2916 58.3333 58.4584 58.9165 62.2917 60.0415C59.8334 62.9581 58.3333 66.7499 58.3333 70.8333C58.3333 73.9583 59.2083 76.9166 60.7499 79.4166C61.5833 80.8332 62.6666 82.1248 63.9166 83.2081C66.8333 85.8748 70.7083 87.4999 75 87.4999C79.6666 87.4999 83.875 85.5832 86.875 82.4999C87.5417 84.7499 87.875 87.1249 87.875 89.5833Z" fill="white"/>
<path d="M49.9998 49.9999C61.5058 49.9999 70.8332 40.6725 70.8332 29.1666C70.8332 17.6607 61.5058 8.33325 49.9998 8.33325C38.4939 8.33325 29.1665 17.6607 29.1665 29.1666C29.1665 40.6725 38.4939 49.9999 49.9998 49.9999Z" fill="#F1F2F7"/>
</svg>
