<svg width="56" height="56" viewBox="0 0 56 56" fill="none" xmlns="http://www.w3.org/2000/svg">
<rect width="56" height="56" rx="20" fill="white" fill-opacity="0.06"/>
<rect x="0.5" y="0.5" width="55" height="55" rx="19.5" stroke="white" stroke-opacity="0.06"/>
<path d="M37.8335 22.6665C40.0426 22.6665 41.8335 20.8756 41.8335 18.6665C41.8335 16.4574 40.0426 14.6665 37.8335 14.6665C35.6244 14.6665 33.8335 16.4574 33.8335 18.6665C33.8335 20.8756 35.6244 22.6665 37.8335 22.6665Z" fill="white"/>
<path opacity="0.25" d="M37.8332 24.6667C34.5265 24.6667 31.8332 21.9733 31.8332 18.6667C31.8332 18.2699 31.8764 17.8845 31.9555 17.5115C32.1089 16.787 31.6208 16 30.8803 16H22.5265C17.9265 16 15.1665 18.7467 15.1665 23.36V33.96C15.1665 38.5867 17.9265 41.3333 22.5265 41.3333H33.1265C37.7398 41.3333 40.4865 38.5867 40.4865 33.9733V25.6314C40.4865 24.888 39.6923 24.3977 38.9645 24.5492C38.5995 24.6251 38.2218 24.6667 37.8332 24.6667Z" fill="white"/>
<path d="M28.1667 30.6665H21.5C20.9533 30.6665 20.5 30.2132 20.5 29.6665C20.5 29.1198 20.9533 28.6665 21.5 28.6665H28.1667C28.7133 28.6665 29.1667 29.1198 29.1667 29.6665C29.1667 30.2132 28.7133 30.6665 28.1667 30.6665Z" fill="white"/>
<path d="M33.5 36H21.5C20.9533 36 20.5 35.5467 20.5 35C20.5 34.4533 20.9533 34 21.5 34H33.5C34.0467 34 34.5 34.4533 34.5 35C34.5 35.5467 34.0467 36 33.5 36Z" fill="white" fill-opacity="0.2"/>
</svg>
