<svg width="25" height="24" viewBox="0 0 25 24" fill="none" xmlns="http://www.w3.org/2000/svg">
<path d="M18.5 18.85H17.74C16.94 18.85 16.18 19.16 15.62 19.72L13.91 21.41C13.13 22.18 11.86 22.18 11.08 21.41L9.37 19.72C8.81 19.16 8.04 18.85 7.25 18.85H6.5C4.84 18.85 3.5 17.52 3.5 15.88V4.96997C3.5 3.32997 4.84 2 6.5 2H18.5C20.16 2 21.5 3.32997 21.5 4.96997V15.88C21.5 17.51 20.16 18.85 18.5 18.85Z" stroke="white" stroke-width="1.5" stroke-miterlimit="10" stroke-linecap="round" stroke-linejoin="round"/>
<path d="M13.2151 15H9.78494C8.06988 15 7.5 13.8777 7.5 12.75V8.25C7.5 6.56116 8.06988 6 9.78494 6H13.2151C14.9301 6 15.5 6.56116 15.5 8.25V12.75C15.5 14.4388 14.9247 15 13.2151 15Z" stroke="white" stroke-width="1.5" stroke-linecap="round" stroke-linejoin="round"/>
<path d="M17.0856 12.7918L15.5 11.9158V9.0811L17.0856 8.20509C17.8612 7.77832 18.5 8.03888 18.5 8.7891V12.2123C18.5 12.9625 17.8612 13.2231 17.0856 12.7918Z" stroke="white" stroke-width="1.5" stroke-linecap="round" stroke-linejoin="round"/>
</svg>
