<svg width="105" height="104" viewBox="0 0 105 104" fill="none" xmlns="http://www.w3.org/2000/svg">
<defs>
<linearGradient id="paint0_linear_3250_51483" x1="52.4783" y1="8.66602" x2="52.4783" y2="95.3328" gradientUnits="userSpaceOnUse">
<stop stop-color="#F06930"/>
<stop offset="1" stop-color="#FC996E"/>
</linearGradient>
<linearGradient id="paint1_linear_3250_51483" x1="52.5" y1="30.334" x2="52.5" y2="59.584" gradientUnits="userSpaceOnUse">
<stop stop-color="#F06930"/>
<stop offset="1" stop-color="#FC996E"/>
</linearGradient>
<linearGradient id="paint2_linear_3250_51483" x1="52.5" y1="66.0879" x2="52.5" y2="74.7497" gradientUnits="userSpaceOnUse">
<stop stop-color="#F06930"/>
<stop offset="1" stop-color="#FC996E"/>
</linearGradient>
<clipPath id="clip0_3250_51483">
<rect width="104" height="104" fill="white" transform="translate(0.5)"/>
</clipPath>
</defs>
<g clip-path="url(#clip0_3250_51483)">
<rect width="104" height="104" transform="translate(0.5)" fill="white" fill-opacity="0.01"/>
<path opacity="0.4" d="M91.8467 37.1795V66.8194C91.8467 71.6727 89.2467 76.1795 85.0434 78.6495L59.3033 93.5128C55.1 95.9395 49.8999 95.9395 45.6532 93.5128L19.9132 78.6495C15.7099 76.2229 13.1099 71.716 13.1099 66.8194V37.1795C13.1099 32.3262 15.7099 27.8193 19.9132 25.3493L45.6532 10.486C49.8566 8.05935 55.0567 8.05935 59.3033 10.486L85.0434 25.3493C89.2467 27.8193 91.8467 32.2828 91.8467 37.1795Z" fill="url(#paint0_linear_3250_51483)"/>
<path d="M52.5 59.584C50.7233 59.584 49.25 58.1106 49.25 56.334V33.584C49.25 31.8073 50.7233 30.334 52.5 30.334C54.2767 30.334 55.75 31.8073 55.75 33.584V56.334C55.75 58.1106 54.2767 59.584 52.5 59.584Z" fill="url(#paint1_linear_3250_51483)"/>
<path d="M52.5 74.7497C51.9366 74.7497 51.3733 74.6196 50.8533 74.403C50.2899 74.1863 49.8565 73.8831 49.4232 73.4931C49.0332 73.0598 48.73 72.5831 48.47 72.0631C48.2533 71.5431 48.1666 70.9797 48.1666 70.4164C48.1666 69.2897 48.5999 68.1629 49.4232 67.3396C49.8565 66.9496 50.2899 66.6465 50.8533 66.4298C52.4566 65.7365 54.3634 66.1263 55.5767 67.3396C55.9667 67.7729 56.2699 68.2064 56.4865 68.7697C56.7032 69.2897 56.8333 69.853 56.8333 70.4164C56.8333 70.9797 56.7032 71.5431 56.4865 72.0631C56.2699 72.5831 55.9667 73.0598 55.5767 73.4931C54.7534 74.3165 53.67 74.7497 52.5 74.7497Z" fill="url(#paint2_linear_3250_51483)"/>
</g>
</svg>
