<svg width="121" height="120" viewBox="0 0 121 120" fill="none" xmlns="http://www.w3.org/2000/svg">
<path d="M98.0501 29.25L68.3501 12.1C63.5001 9.3 57.5001 9.3 52.6001 12.1L22.9501 29.25C18.1001 32.05 15.1001 37.25 15.1001 42.9V77.1C15.1001 82.7 18.1001 87.9 22.9501 90.75L52.6501 107.9C57.5001 110.7 63.5001 110.7 68.4001 107.9L98.1001 90.75C102.95 87.95 105.95 82.75 105.95 77.1V42.9C105.9 37.25 102.9 32.1 98.0501 29.25ZM56.7501 38.75C56.7501 36.7 58.4501 35 60.5001 35C62.5501 35 64.2501 36.7 64.2501 38.75V65C64.2501 67.05 62.5501 68.75 60.5001 68.75C58.4501 68.75 56.7501 67.05 56.7501 65V38.75ZM65.1001 83.15C64.8501 83.75 64.5001 84.3 64.0501 84.8C63.1001 85.75 61.8501 86.25 60.5001 86.25C59.8501 86.25 59.2001 86.1 58.6001 85.85C57.9501 85.6 57.4501 85.25 56.9501 84.8C56.5001 84.3 56.1501 83.75 55.8501 83.15C55.6001 82.55 55.5001 81.9 55.5001 81.25C55.5001 79.95 56.0001 78.65 56.9501 77.7C57.4501 77.25 57.9501 76.9 58.6001 76.65C60.4501 75.85 62.6501 76.3 64.0501 77.7C64.5001 78.2 64.8501 78.7 65.1001 79.35C65.3501 79.95 65.5001 80.6 65.5001 81.25C65.5001 81.9 65.3501 82.55 65.1001 83.15Z" fill="url(#paint0_linear_2662_10804)"/>
<defs>
<linearGradient id="paint0_linear_2662_10804" x1="60.5251" y1="10" x2="60.5251" y2="110" gradientUnits="userSpaceOnUse">
<stop stop-color="#F57F17"/>
<stop offset="1" stop-color="#F79945"/>
</linearGradient>
</defs>
</svg>
