<svg width="105" height="104" viewBox="0 0 105 104" fill="none" xmlns="http://www.w3.org/2000/svg">
<defs>
<linearGradient id="paint0_linear_3246_51018" x1="52.4784" y1="8.66602" x2="52.4834" y2="77.9271" gradientUnits="userSpaceOnUse">
<stop stop-color="#EF5350"/>
<stop offset="1" stop-color="#F44336"/>
</linearGradient>
<linearGradient id="paint1_linear_3246_51018" x1="52.5" y1="52.9961" x2="52.5012" y2="86.8301" gradientUnits="userSpaceOnUse">
<stop stop-color="#EF5350"/>
<stop offset="1" stop-color="#F44336"/>
</linearGradient>
<clipPath id="clip0_3246_51018">
<rect width="104" height="104" fill="white" transform="translate(0.5)"/>
</clipPath>
</defs>
<g clip-path="url(#clip0_3246_51018)">
<rect width="104" height="104" transform="translate(0.5)" fill="white" fill-opacity="0.01"/>
<g opacity="0.77">
<path opacity="0.4" d="M70.6566 8.66602H34.3433C18.57 8.66602 9.16663 18.0693 9.16663 33.8427V70.1127C9.16663 85.9294 18.57 95.3327 34.3433 95.3327H70.6133C86.3866 95.3327 95.79 85.9294 95.79 70.156V33.8427C95.8333 18.0693 86.43 8.66602 70.6566 8.66602Z" fill="url(#paint0_linear_3246_51018)"/>
<path d="M92.8 52.9961H77.72C73.4733 52.9961 69.7033 55.3361 67.7966 59.1494L64.1566 66.3428C63.29 68.0761 61.5566 69.1594 59.65 69.1594H45.4366C44.0933 69.1594 42.1866 68.8561 40.93 66.3428L37.29 59.1928C35.3833 55.4228 31.57 53.0394 27.3666 53.0394H12.2C10.51 53.0394 9.16663 54.3828 9.16663 56.0728V70.1994C9.16663 85.9294 18.6133 95.3328 34.3866 95.3328H70.7C85.5633 95.3328 94.7066 87.1861 95.8333 72.7128V56.0294C95.8333 54.3828 94.49 52.9961 92.8 52.9961Z" fill="url(#paint1_linear_3246_51018)"/>
</g>
</g>
</svg>
