<svg width="26" height="26" viewBox="0 0 26 26" fill="none" xmlns="http://www.w3.org/2000/svg">
<rect width="26" height="26" rx="9" fill="#F7FAFC"/>
<path fill-rule="evenodd" clip-rule="evenodd" d="M20 8H13V18H20C20.5523 18 21 17.5523 21 17V9C21 8.44771 20.5523 8 20 8ZM13 6H11H6C4.34315 6 3 7.34315 3 9V17C3 18.6569 4.34315 20 6 20H11H13H20C21.6569 20 23 18.6569 23 17V9C23 7.34315 21.6569 6 20 6H13ZM6 18H11V8H6C5.44772 8 5 8.44772 5 9V17C5 17.5523 5.44772 18 6 18ZM8 13C9.10457 13 10 12.1046 10 11C10 9.89543 9.10457 9 8 9C6.89543 9 6 9.89543 6 11C6 12.1046 6.89543 13 8 13Z" fill="#3E4552"/>
</svg>