<svg width="26" height="26" viewBox="0 0 26 26" fill="none" xmlns="http://www.w3.org/2000/svg">
<defs>
<linearGradient id="paint0_linear_3095_47407" x1="13" y1="0" x2="13" y2="26" gradientUnits="userSpaceOnUse">
<stop stop-color="#F44336"/>
<stop offset="1" stop-color="#F2918F"/>
</linearGradient>
<clipPath id="clip0_3095_47407">
<rect width="24" height="24" fill="white" transform="translate(1 1)"/>
</clipPath>
</defs>
<rect width="26" height="26" rx="9" fill="url(#paint0_linear_3095_47407)"/>
<g clip-path="url(#clip0_3095_47407)">
<path fill-rule="evenodd" clip-rule="evenodd" d="M12.1958 6.27562C11.509 6.83289 11.0816 7.73433 10.9554 9.20046C10.9246 9.55812 10.6096 9.82309 10.252 9.79229C9.89433 9.7615 9.62935 9.44659 9.66015 9.08893C9.80311 7.42873 10.3136 6.12873 11.3767 5.26613C12.4218 4.4181 13.8826 4.0918 15.7006 4.0918H15.8135C17.8188 4.0918 19.3917 4.48933 20.447 5.54464C21.5023 6.59996 21.8999 8.17291 21.8999 10.1781V15.8402C21.8999 17.8454 21.5023 19.4184 20.447 20.4737C19.3917 21.529 17.8188 21.9265 15.8135 21.9265H15.7006C13.8958 21.9265 12.4438 21.6046 11.4008 20.7702C10.339 19.9208 9.82178 18.6397 9.66924 17.0034C9.63592 16.646 9.89867 16.3292 10.2561 16.2959C10.6135 16.2626 10.9303 16.5253 10.9636 16.8828C11.0977 18.3207 11.527 19.2064 12.2129 19.7551C12.9176 20.3188 14.0145 20.6265 15.7006 20.6265H15.8135C17.6902 20.6265 18.8354 20.2468 19.5278 19.5544C20.2202 18.8621 20.5999 17.7169 20.5999 15.8402V10.1781C20.5999 8.30148 20.2202 7.15627 19.5278 6.46388C18.8354 5.7715 17.6902 5.3918 15.8135 5.3918H15.7006C14.0016 5.3918 12.9005 5.70379 12.1958 6.27562Z" fill="white"/>
<path fill-rule="evenodd" clip-rule="evenodd" d="M5.07275 13.0006C5.07275 12.6416 5.36377 12.3506 5.72275 12.3506H15.6054C15.9644 12.3506 16.2554 12.6416 16.2554 13.0006C16.2554 13.3596 15.9644 13.6506 15.6054 13.6506H5.72275C5.36377 13.6506 5.07275 13.3596 5.07275 13.0006Z" fill="white"/>
<path fill-rule="evenodd" clip-rule="evenodd" d="M8.11893 9.63179C8.37277 9.88563 8.37277 10.2972 8.11893 10.551L5.66934 13.0006L8.11893 15.4502C8.37277 15.704 8.37277 16.1156 8.11893 16.3694C7.86509 16.6233 7.45353 16.6233 7.19969 16.3694L4.29048 13.4602C4.03664 13.2064 4.03664 12.7948 4.29048 12.541L7.19969 9.63179C7.45353 9.37795 7.86509 9.37795 8.11893 9.63179Z" fill="white"/>
</g>
</svg>
