<svg width="90" height="20" viewBox="0 0 90 20" fill="none" xmlns="http://www.w3.org/2000/svg">
<g clip-path="url(#clip0_2936_3534)">
<path fill-rule="evenodd" clip-rule="evenodd" d="M0.0002199 13.0632V1.64388C-0.00250498 1.46838 0.0298481 1.29411 0.0953808 1.13129C0.160913 0.968464 0.258306 0.820368 0.381843 0.695691C0.502334 0.57106 0.647044 0.472392 0.807077 0.405754C0.967109 0.339116 1.13908 0.305916 1.31242 0.308196H2.58645V5.055H7.75598V0.308196H10.3804V13.0632H7.75598V7.38878H2.58645V13.0632H0.0002199Z" fill="#DA2028"/>
<path fill-rule="evenodd" clip-rule="evenodd" d="M14.2231 10.7618H15.8935C17.1068 10.7618 17.9963 10.4409 18.5619 9.79894C19.105 9.21183 19.378 8.1697 19.378 6.68431C19.376 5.25175 19.1157 4.19788 18.5971 3.5227C18.1069 2.86514 17.3201 2.53342 16.2281 2.53342H14.2231V10.753V10.7618ZM11.6692 13.0633V1.64394C11.6668 1.46813 11.6997 1.29363 11.7658 1.1307C11.8319 0.967775 11.9299 0.819721 12.0541 0.695257C12.1783 0.570793 12.3261 0.472434 12.4889 0.405972C12.6517 0.339509 12.8261 0.306287 13.0019 0.308261H16.2311C18.1881 0.308261 19.6451 0.827856 20.6021 1.86705C21.5708 2.95027 22.0493 4.55896 22.0493 6.68431C22.0645 7.73285 21.8885 8.77539 21.5297 9.76078C21.2043 10.6027 20.6638 11.3446 19.9622 11.9125C19.4442 12.3158 18.8531 12.6148 18.2214 12.7932C17.3345 12.9982 16.4245 13.0861 15.5148 13.0545L11.6692 13.0633Z" fill="#DA2028"/>
<path d="M29.8752 13.21C29.1596 13.1962 28.4583 13.007 27.8329 12.6589C27.2074 12.3109 26.677 11.8147 26.288 11.2138C26.2381 11.1111 26.1911 11.0289 26.1471 10.9467C26.0106 10.7415 25.9204 10.5091 25.8829 10.2656V10.1541L26.9514 9.71375L27.3008 10.3273C27.5524 10.7884 27.9208 11.1754 28.369 11.4494C28.8172 11.7235 29.3295 11.8751 29.8547 11.889H29.9046C30.428 11.8817 30.9385 11.7261 31.3771 11.4403C31.8156 11.1545 32.1641 10.7503 32.3822 10.2744C32.5043 9.90992 32.5256 9.51919 32.444 9.14354C32.3623 8.76789 32.1807 8.42127 31.9184 8.14029C31.3313 7.62363 30.6091 7.42988 29.843 7.22439C29.4306 7.12381 29.0255 6.99532 28.6306 6.83983C28.042 6.61008 27.5322 6.2153 27.1625 5.7029C26.7927 5.1905 26.5788 4.58226 26.5463 3.95124C26.5196 3.32251 26.6706 2.69898 26.9822 2.15222C27.2937 1.60545 27.7531 1.15761 28.3077 0.860091C28.8353 0.557621 29.4345 0.402498 30.0426 0.410949C30.7998 0.401388 31.5399 0.636089 32.1532 1.08026C32.7155 1.46263 33.1477 2.00746 33.392 2.64198L33.442 2.77995L32.2912 3.22909L32.2266 3.1146C31.9434 2.58068 31.4985 2.15012 30.9555 1.8846C30.6923 1.77131 30.4084 1.71431 30.1218 1.71728C29.549 1.71667 28.9956 1.92547 28.566 2.30439C28.2726 2.55872 28.0563 2.89015 27.9416 3.26113C27.8269 3.6321 27.8185 4.02778 27.9172 4.40332C28.3693 5.54819 29.385 5.81532 30.4712 6.0942C31.3342 6.3173 32.2325 6.54921 32.8783 7.25081C33.3374 7.73976 33.645 8.35129 33.7638 9.01138C33.8825 9.67148 33.8075 10.3519 33.5476 10.9702C33.2052 11.6469 32.6811 12.2149 32.034 12.6105C31.3869 13.0062 30.6425 13.2137 29.884 13.21H29.8752Z" fill="#354D8B"/>
<path d="M58.4385 13.21C57.723 13.1957 57.0221 13.0059 56.3971 12.6573C55.7721 12.3087 55.2423 11.8121 54.8541 11.2109C54.8072 11.1111 54.7602 11.0289 54.7132 10.9496C54.5771 10.7429 54.4861 10.5099 54.4461 10.2656V10.1541L55.5205 9.71083L55.8816 10.3244C56.1312 10.7837 56.4966 11.1698 56.9415 11.4443C57.3864 11.7187 57.8954 11.8721 58.4179 11.889H58.4678C59.5657 11.8509 60.5873 11.1874 60.9455 10.2715C61.0667 9.90627 61.0868 9.51499 61.0036 9.13924C60.9204 8.76348 60.737 8.41727 60.4728 8.13736C59.8857 7.63245 59.1724 7.42696 58.4179 7.22147C58.0047 7.12046 57.5987 6.99199 57.2026 6.83691C56.6145 6.60671 56.1054 6.21173 55.7362 5.69936C55.367 5.187 55.1535 4.579 55.1213 3.94831C55.0952 3.31971 55.2466 2.69645 55.5581 2.14982C55.8695 1.60318 56.3286 1.15522 56.8826 0.857165C57.4102 0.554695 58.0094 0.399572 58.6175 0.408024C59.3748 0.398462 60.1149 0.633163 60.7282 1.07733C61.2877 1.4618 61.7167 2.00758 61.9582 2.64199L62.0081 2.77996L60.8486 3.2291L60.784 3.11755C60.5019 2.58204 60.0567 2.15022 59.5129 1.88461C59.2508 1.77097 58.9677 1.71395 58.6821 1.71729C58.109 1.71504 57.5551 1.92405 57.1263 2.3044C56.8336 2.55918 56.6183 2.8909 56.5046 3.26191C56.391 3.63292 56.3836 4.02835 56.4834 4.40333C56.9355 5.5482 57.9512 5.8124 59.0344 6.09421C59.9151 6.31732 60.7957 6.54922 61.4445 7.25082C61.9049 7.739 62.2133 8.35057 62.3322 9.01099C62.451 9.67141 62.3751 10.3521 62.1138 10.9702C61.7712 11.6474 61.2466 12.2157 60.599 12.6113C59.9513 13.007 59.2062 13.2143 58.4473 13.21H58.4385Z" fill="#354D8B"/>
<path d="M42.8918 7.65887L41.1304 3.37881L39.3691 7.65887H42.8918ZM45.0435 12.8812L43.4466 8.99455H38.8113L37.2056 12.8812H35.7701L41.1246 0.15263L46.482 12.8812H45.0435Z" fill="#354D8B"/>
<path d="M49.0714 0.551888H50.5215V12.8225H49.0714V0.551888Z" fill="#354D8B"/>
<path d="M71.5223 5.41907C71.1823 5.42062 70.8568 5.55677 70.6169 5.79774C70.3771 6.0387 70.2424 6.36485 70.2424 6.70485C70.2403 7.05331 70.3718 7.38934 70.6099 7.6438C70.8479 7.89826 71.1745 8.0518 71.5223 8.07282C71.7035 8.0804 71.8842 8.05011 72.0529 7.98389C72.2217 7.91767 72.3748 7.81697 72.5024 7.68823C72.6301 7.55948 72.7294 7.40553 72.7942 7.23621C72.859 7.06688 72.8877 6.88591 72.8786 6.70485C72.8598 6.35775 72.7087 6.03104 72.4565 5.79188C72.2042 5.55273 71.8699 5.41931 71.5223 5.41907ZM71.5223 9.34686C71.1865 9.34729 70.8541 9.2805 70.5445 9.15042C70.235 9.02035 69.9546 8.82962 69.7199 8.58948C69.4768 8.34105 69.2865 8.04603 69.1604 7.72216C69.0342 7.39828 68.9749 7.05224 68.986 6.70485C68.9721 6.37864 69.0271 6.05317 69.1475 5.74967C69.2679 5.44617 69.4509 5.17148 69.6847 4.94351C69.9235 4.69098 70.2104 4.4887 70.5285 4.34856C70.8466 4.20842 71.1895 4.13324 71.537 4.12742C71.8925 4.11896 72.246 4.18131 72.5772 4.31083C72.9083 4.44036 73.2103 4.63447 73.4657 4.88186C73.8356 5.25253 74.0857 5.7257 74.1837 6.24013C74.2817 6.75455 74.223 7.28654 74.0152 7.76723C73.8074 8.24792 73.4601 8.65518 73.0183 8.93628C72.5765 9.21739 72.0604 9.35939 71.537 9.34392L71.5223 9.34686Z" fill="#354D8B"/>
<path d="M71.5223 1.73789C70.206 1.74022 68.9443 2.26437 68.0138 3.19543C67.0832 4.1265 66.5598 5.38853 66.5583 6.70486C66.5583 9.46136 68.8304 11.7922 71.5223 11.7922C72.8635 11.7716 74.1438 11.2285 75.0906 10.2784C76.0374 9.32825 76.5761 8.04613 76.592 6.70486C76.5765 5.37451 76.0342 4.10458 75.0838 3.17349C74.1335 2.2424 72.8527 1.72614 71.5223 1.73789ZM71.5223 13.1044C70.2689 13.0968 69.0456 12.7188 68.0065 12.0178C66.9673 11.3168 66.1586 10.3242 65.6822 9.1648C65.2057 8.00539 65.0827 6.73099 65.3287 5.50187C65.5747 4.27275 66.1786 3.14382 67.0646 2.25706C67.9505 1.3703 69.0789 0.765329 70.3078 0.518228C71.5367 0.271127 72.8112 0.392936 73.971 0.868334C75.1309 1.34373 76.1242 2.15149 76.8262 3.19C77.5281 4.22851 77.9073 5.45141 77.916 6.70486C77.8947 8.3945 77.2144 10.009 76.0201 11.2044C74.8258 12.3998 73.2119 13.0816 71.5223 13.1044Z" fill="#354D8B"/>
<path d="M82.4251 3.78688V12.5055H81.1364V0L88.5398 9.35858V0.349332H89.8286V13.1455L82.4251 3.78688Z" fill="#354D8B"/>
<path fill-rule="evenodd" clip-rule="evenodd" d="M0 20H89.6874V14.6367H0V20Z" fill="#DA2028"/>
<path fill-rule="evenodd" clip-rule="evenodd" d="M17.966 20L20.4876 14.6103H14.2877L11.8835 20H14.9981H17.966Z" fill="#ED8536"/>
<path fill-rule="evenodd" clip-rule="evenodd" d="M12.8343 20L14.261 14.6103H0V20H12.8343Z" fill="#FAD328"/>
<path fill-rule="evenodd" clip-rule="evenodd" d="M14.2614 20V14.6103H10.0313L6.87262 20H14.5579H14.2614Z" fill="#F5AF31"/>
<path d="M26.077 15.7992H27.6446V16.3306H27.128V18.635H26.5819V16.3306H26.077V15.7992Z" fill="white"/>
<path d="M30.1339 16.9705C30.0577 16.9683 29.9819 16.9823 29.9116 17.0117C29.8412 17.041 29.7779 17.085 29.7259 17.1407C29.6184 17.2628 29.5617 17.4214 29.5674 17.584C29.5602 17.7482 29.6182 17.9086 29.7288 18.0302C29.7815 18.0855 29.8448 18.1294 29.9149 18.1595C29.9851 18.1895 30.0606 18.205 30.1369 18.205C30.2132 18.205 30.2887 18.1895 30.3588 18.1595C30.429 18.1294 30.4923 18.0855 30.5449 18.0302C30.6007 17.9694 30.6439 17.8981 30.6721 17.8205C30.7003 17.743 30.713 17.6606 30.7093 17.5781C30.7124 17.4971 30.6995 17.4162 30.6713 17.3401C30.6431 17.2641 30.6001 17.1943 30.5449 17.1349C30.4917 17.0801 30.4277 17.0369 30.357 17.0081C30.2862 16.9793 30.2103 16.9655 30.1339 16.9675V16.9705ZM30.0752 15.397L30.5302 16.1456H30.1545L29.447 15.3882H30.0694L30.0752 15.397ZM30.6858 16.536H31.2113V18.6349H30.6858V18.4148C30.6013 18.5014 30.5019 18.572 30.3923 18.6232C30.2852 18.6671 30.1704 18.6891 30.0547 18.6878C29.9222 18.688 29.7911 18.6602 29.6702 18.606C29.5492 18.5519 29.4411 18.4727 29.3531 18.3737C29.1553 18.1616 29.0497 17.8797 29.0595 17.5899C29.0498 17.2966 29.1551 17.011 29.3531 16.7943C29.4404 16.6953 29.5479 16.6163 29.6685 16.5626C29.7891 16.5089 29.9198 16.4818 30.0517 16.4832C30.1737 16.4824 30.2945 16.5064 30.407 16.5536C30.5165 16.6075 30.6158 16.68 30.7005 16.7679V16.536H30.6858Z" fill="white"/>
<path d="M32.8788 16.536H33.4043V18.635H32.8788V16.536ZM33.143 15.673C33.1869 15.6728 33.2303 15.6815 33.2707 15.6987C33.3111 15.7159 33.3475 15.7411 33.3778 15.7728C33.4411 15.8375 33.4766 15.9244 33.4766 16.015C33.4766 16.1055 33.4411 16.1924 33.3778 16.2572C33.3475 16.2889 33.3111 16.3141 33.2707 16.3312C33.2303 16.3484 33.1869 16.3572 33.143 16.357C33.098 16.3572 33.0534 16.3483 33.012 16.3306C32.9706 16.3129 32.9332 16.2869 32.9023 16.2542C32.8708 16.222 32.8461 16.1839 32.8295 16.1421C32.8128 16.1003 32.8047 16.0556 32.8054 16.0106C32.805 15.9664 32.8134 15.9225 32.83 15.8816C32.8467 15.8407 32.8713 15.8034 32.9024 15.772C32.9335 15.7406 32.9705 15.7157 33.0113 15.6987C33.0521 15.6817 33.0959 15.673 33.1401 15.673H33.143Z" fill="white"/>
<path d="M39.3897 16.9617L38.9523 17.2024C38.8842 17.1268 38.8012 17.0659 38.7087 17.0234C38.615 16.9878 38.5153 16.9709 38.4151 16.9735C38.3281 16.9695 38.2412 16.9831 38.1595 17.0134C38.0778 17.0436 38.003 17.0899 37.9396 17.1496C37.8281 17.2691 37.7662 17.4265 37.7662 17.5899C37.7662 17.7534 37.8281 17.9107 37.9396 18.0303C38.0652 18.1444 38.2308 18.2046 38.4005 18.1976C38.5049 18.2034 38.6092 18.1846 38.705 18.1428C38.8008 18.101 38.8855 18.0373 38.9523 17.9569L39.3663 18.2504C39.2551 18.395 39.1104 18.5104 38.9447 18.5866C38.779 18.6628 38.5973 18.6975 38.4151 18.6878C38.2536 18.699 38.0916 18.6758 37.9398 18.6196C37.7879 18.5634 37.6498 18.4756 37.5345 18.362C37.4142 18.2412 37.324 18.0939 37.2711 17.9319C37.2181 17.7699 37.2039 17.5978 37.2296 17.4293C37.2553 17.2609 37.3202 17.1008 37.419 16.9619C37.5179 16.8231 37.6479 16.7094 37.7987 16.63C37.9798 16.5373 38.1796 16.487 38.3831 16.4829C38.5865 16.4789 38.7882 16.5211 38.9729 16.6065C39.1396 16.6878 39.283 16.81 39.3897 16.9617Z" fill="white"/>
<path d="M41.0485 15.7288H41.5681V16.7504C41.6609 16.6682 41.7659 16.6009 41.8793 16.5507C41.9794 16.5074 42.0872 16.4845 42.1963 16.4832C42.2942 16.4811 42.3914 16.4993 42.4818 16.5367C42.5723 16.5741 42.654 16.6299 42.7218 16.7005C42.7878 16.7749 42.8382 16.8619 42.87 16.9562C42.9018 17.0505 42.9143 17.1502 42.9067 17.2494V18.635H42.3871V17.7132C42.3935 17.548 42.3817 17.3827 42.3519 17.22C42.3356 17.1449 42.2942 17.0776 42.2345 17.0292C42.1745 16.9844 42.1009 16.9616 42.0261 16.9647C41.9247 16.9628 41.8267 17.0008 41.7531 17.0703C41.6719 17.1504 41.6158 17.2524 41.5916 17.3639C41.571 17.5068 41.5631 17.6512 41.5681 17.7954V18.6379H41.0485V15.7317V15.7288Z" fill="white"/>
<path d="M44.5356 16.536H45.064V18.6349H44.5356V16.536ZM44.8908 15.397H45.5014L44.8057 16.1456H44.4299L44.8908 15.3882V15.397Z" fill="white"/>
<path d="M46.7229 16.536H47.263V16.7532C47.3601 16.6678 47.4688 16.5967 47.586 16.5419C47.6793 16.5042 47.7789 16.4843 47.8795 16.4832C47.9777 16.4817 48.0752 16.5002 48.166 16.5376C48.2568 16.5749 48.3391 16.6303 48.4079 16.7004C48.473 16.7754 48.5226 16.8624 48.5538 16.9567C48.5851 17.0509 48.5973 17.1504 48.5899 17.2494V18.6349H48.0703V17.7161C48.0762 17.5491 48.0654 17.3819 48.038 17.2171C48.0201 17.1434 47.9789 17.0776 47.9206 17.0292C47.8599 16.9858 47.7868 16.9631 47.7122 16.9646C47.6105 16.9639 47.5126 17.0028 47.4392 17.0732C47.3582 17.1531 47.303 17.2553 47.2807 17.3668C47.259 17.5076 47.2511 17.6501 47.2572 17.7924V18.6349H46.7317V16.5389L46.7229 16.536Z" fill="white"/>
<path d="M50.2747 15.7288H50.7855V16.7504C50.8778 16.6676 50.9829 16.6002 51.0966 16.5507C51.1968 16.5074 51.3046 16.4845 51.4137 16.4832C51.5115 16.4811 51.6088 16.4993 51.6992 16.5367C51.7896 16.5741 51.8714 16.6299 51.9391 16.7005C52.0052 16.7749 52.0556 16.8619 52.0873 16.9562C52.1191 17.0505 52.1316 17.1502 52.1241 17.2494V18.635H51.6045V17.7132C51.6108 17.548 51.599 17.3827 51.5693 17.22C51.553 17.1449 51.5116 17.0776 51.4518 17.0292C51.3919 16.9844 51.3183 16.9616 51.2434 16.9647C51.1421 16.9628 51.0441 17.0008 50.9704 17.0703C50.8892 17.1504 50.8331 17.2524 50.809 17.3639C50.7883 17.5068 50.7805 17.6512 50.7855 17.7954V18.6379H50.2659V15.7317L50.2747 15.7288Z" fill="white"/>
<path d="M56.1691 15.764H56.6975V16.539H57.0086V16.9911H56.6975V18.635H56.1691V16.9911H55.899V16.539H56.1691V15.764Z" fill="white"/>
<path d="M58.4177 16.536H58.9461V18.6349H58.4177V16.536ZM58.6819 15.673C58.7262 15.673 58.77 15.6819 58.8108 15.699C58.8516 15.7162 58.8886 15.7412 58.9197 15.7728C58.9515 15.8048 58.9767 15.8428 58.9939 15.8846C59.011 15.9265 59.0197 15.9712 59.0195 16.0164C59.0196 16.0612 59.0109 16.1055 58.9938 16.1468C58.9766 16.1881 58.9514 16.2256 58.9197 16.2571C58.8894 16.2889 58.8529 16.3141 58.8125 16.3312C58.7722 16.3484 58.7287 16.3571 58.6848 16.3569C58.6402 16.3575 58.596 16.3487 58.555 16.331C58.514 16.3133 58.4772 16.2871 58.4471 16.2542C58.4147 16.2226 58.3891 16.1846 58.3719 16.1427C58.3548 16.1008 58.3464 16.0558 58.3472 16.0105C58.3463 15.9664 58.3544 15.9225 58.371 15.8816C58.3877 15.8407 58.4126 15.8037 58.4441 15.7728C58.4752 15.7412 58.5122 15.7162 58.553 15.699C58.5938 15.6819 58.6376 15.673 58.6819 15.673Z" fill="white"/>
<path d="M62.1725 17.3198C62.1396 17.2013 62.0671 17.0977 61.967 17.0263C61.8635 16.9526 61.7389 16.9145 61.6118 16.9177C61.4727 16.9153 61.3366 16.9586 61.2243 17.0409C61.1386 17.1138 61.0721 17.2065 61.0306 17.311L62.1725 17.3198ZM60.8104 16.1456L61.3975 15.5996H61.8173L62.4044 16.1456H61.8173L61.6089 15.8931L61.3975 16.1456H60.8104ZM62.698 17.7308H61.0071C61.0283 17.8688 61.0981 17.9948 61.2038 18.086C61.3186 18.1773 61.4624 18.2242 61.6089 18.2181C61.7029 18.219 61.7962 18.2013 61.8833 18.1661C61.9705 18.1308 62.0498 18.0786 62.1168 18.0126L62.56 18.221C62.4585 18.3674 62.3224 18.4864 62.1637 18.5674C61.9918 18.6464 61.8039 18.6845 61.6148 18.679C61.4665 18.6853 61.3185 18.661 61.1801 18.6074C61.0417 18.5539 60.9158 18.4723 60.8104 18.3678C60.7107 18.2693 60.6318 18.1517 60.5784 18.0221C60.5249 17.8925 60.498 17.7536 60.4993 17.6134C60.4928 17.4675 60.5154 17.3217 60.5658 17.1846C60.6162 17.0476 60.6934 16.9219 60.7928 16.8149C60.8936 16.7113 61.0147 16.6296 61.1486 16.575C61.2825 16.5205 61.4262 16.4942 61.5707 16.4979C61.7195 16.4921 61.8677 16.5173 62.0062 16.5719C62.1447 16.6265 62.2703 16.7092 62.3751 16.8149C62.4806 16.9262 62.5626 17.0577 62.616 17.2015C62.6695 17.3452 62.6934 17.4983 62.6862 17.6515V17.7543L62.698 17.7308Z" fill="white"/>
<path d="M64.3037 16.536H64.835V17.5488C64.8287 17.6861 64.8425 17.8236 64.8761 17.9568C64.8999 18.0291 64.9462 18.0919 65.0082 18.1359C65.0731 18.1799 65.1501 18.2024 65.2284 18.2005C65.3078 18.2035 65.386 18.1808 65.4515 18.1359C65.5149 18.0913 65.5622 18.0275 65.5865 17.9539C65.6172 17.8272 65.6291 17.6966 65.6218 17.5664V16.539H66.1472V17.4196C66.1626 17.6734 66.1328 17.9278 66.0592 18.1711C65.9977 18.3276 65.8889 18.4611 65.748 18.5528C65.5888 18.6452 65.4064 18.69 65.2225 18.6819C65.0252 18.6912 64.8299 18.6377 64.6648 18.5293C64.5235 18.4216 64.4206 18.2713 64.3712 18.1007C64.32 17.8725 64.2993 17.6386 64.3096 17.4049V16.5243L64.3037 16.536Z" fill="white"/>
<path d="M71.1351 16.9705C71.0593 16.9686 70.9841 16.9827 70.9142 17.0121C70.8444 17.0414 70.7816 17.0853 70.73 17.1408C70.6214 17.2624 70.5636 17.4211 70.5685 17.5841C70.5624 17.7486 70.6215 17.909 70.7329 18.0303C70.7855 18.0855 70.8489 18.1295 70.919 18.1595C70.9891 18.1896 71.0646 18.2051 71.1409 18.2051C71.2173 18.2051 71.2928 18.1896 71.3629 18.1595C71.433 18.1295 71.4963 18.0855 71.549 18.0303C71.6047 17.9694 71.648 17.8982 71.6762 17.8206C71.7044 17.743 71.717 17.6606 71.7134 17.5782C71.7165 17.4971 71.7036 17.4162 71.6754 17.3402C71.6472 17.2641 71.6042 17.1944 71.549 17.1349C71.4955 17.0797 71.431 17.0363 71.3597 17.0075C71.2884 16.9787 71.2119 16.9651 71.1351 16.9676V16.9705ZM71.6899 15.7288H72.2154V18.635H71.6899V18.4148C71.601 18.5029 71.4965 18.5736 71.3817 18.6232C71.2746 18.6672 71.1598 18.6892 71.0441 18.6878C70.9116 18.6881 70.7805 18.6602 70.6596 18.6061C70.5386 18.5519 70.4305 18.4727 70.3425 18.3737C70.145 18.1615 70.0394 17.8797 70.0489 17.5899C70.0395 17.2966 70.1448 17.0113 70.3425 16.7944C70.4294 16.6949 70.5369 16.6156 70.6575 16.5618C70.7782 16.5081 70.9091 16.4813 71.0411 16.4832C71.1622 16.4823 71.2821 16.5062 71.3934 16.5537C71.5085 16.6055 71.613 16.6782 71.7016 16.768V15.7288H71.6899Z" fill="white"/>
<path d="M74.7606 15.397L75.2215 16.1456H74.8574L74.1529 15.3882L74.7606 15.397ZM73.9269 16.536H74.4582V17.5488C74.4519 17.6861 74.4657 17.8236 74.4993 17.9568C74.5231 18.0283 74.5682 18.0907 74.6285 18.1359C74.6963 18.1805 74.7763 18.2031 74.8574 18.2005C74.9368 18.2035 75.015 18.1808 75.0805 18.1359C75.1431 18.0904 75.1902 18.0269 75.2156 17.9539C75.2447 17.8269 75.2556 17.6964 75.2479 17.5664V16.5389H75.7763V17.4196C75.7917 17.6734 75.7618 17.9278 75.6882 18.1711C75.6258 18.327 75.5172 18.4602 75.377 18.5527C75.2178 18.6451 75.0355 18.69 74.8516 18.6819C74.6542 18.6916 74.4588 18.6381 74.2938 18.5293C74.1508 18.4233 74.0474 18.2724 74.0003 18.1007C73.949 17.8725 73.9283 17.6386 73.9386 17.4049V16.5243L73.9269 16.536Z" fill="white"/>
<path d="M77.4785 16.5361H78.0039V16.7533C78.1015 16.6685 78.2101 16.5974 78.3268 16.5419C78.4203 16.5046 78.5198 16.4847 78.6204 16.4832C78.7186 16.4814 78.8162 16.4998 78.9071 16.5371C78.998 16.5745 79.0802 16.6301 79.1488 16.7005C79.2139 16.7754 79.2635 16.8625 79.2947 16.9567C79.326 17.0509 79.3382 17.1504 79.3308 17.2494V18.635H78.8112V17.7162C78.8171 17.5492 78.8063 17.382 78.7789 17.2171C78.7648 17.1439 78.7278 17.0771 78.6732 17.0263C78.6125 16.9829 78.5394 16.9602 78.4648 16.9617C78.3631 16.961 78.2652 17 78.1918 17.0703C78.1108 17.1502 78.0556 17.2524 78.0333 17.3639C78.0116 17.5047 78.0038 17.6472 78.0098 17.7896V18.6321H77.4843V16.539L77.4785 16.5361Z" fill="white"/>
<path d="M82.0314 16.9764C81.9553 16.9745 81.8796 16.988 81.809 17.0163C81.7383 17.0446 81.6742 17.0869 81.6204 17.1408C81.5672 17.1967 81.5256 17.2626 81.4979 17.3346C81.4702 17.4066 81.4569 17.4834 81.4589 17.5606C81.4561 17.6401 81.4695 17.7193 81.4983 17.7935C81.527 17.8677 81.5706 17.9352 81.6263 17.9921C81.68 18.047 81.7445 18.0902 81.8157 18.119C81.887 18.1478 81.9634 18.1615 82.0402 18.1594C82.1154 18.1616 82.1903 18.1481 82.26 18.1198C82.3297 18.0915 82.3928 18.049 82.4453 17.995C82.5484 17.876 82.6051 17.7239 82.6051 17.5664C82.6051 17.409 82.5484 17.2568 82.4453 17.1378C82.3918 17.0835 82.3277 17.0409 82.257 17.0126C82.1863 16.9843 82.1104 16.971 82.0343 16.9734L82.0314 16.9764ZM82.5774 16.539H83.1029V18.3355C83.1242 18.6128 83.0485 18.8889 82.8886 19.1164C82.7788 19.2343 82.6441 19.3261 82.4942 19.385C82.3444 19.4439 82.1832 19.4685 82.0226 19.4569C81.8463 19.4609 81.6706 19.4351 81.503 19.3806C81.37 19.3311 81.249 19.254 81.1478 19.1546C81.0506 19.0508 80.9783 18.9264 80.9364 18.7906H81.5235C81.5777 18.8509 81.6464 18.8964 81.7231 18.9227C81.8171 18.957 81.9167 18.973 82.0167 18.9696C82.1339 18.9742 82.2506 18.9511 82.3572 18.9021C82.4344 18.8675 82.4983 18.8088 82.5392 18.7348C82.5815 18.6203 82.5994 18.4984 82.5921 18.3766C82.5084 18.4619 82.4086 18.5298 82.2985 18.5763C82.1875 18.6164 82.0702 18.6363 81.9521 18.635C81.8193 18.6389 81.6871 18.6149 81.5641 18.5643C81.4412 18.5137 81.3303 18.4377 81.2388 18.3414C81.0473 18.1237 80.9431 17.8427 80.9463 17.5528C80.9496 17.2628 81.06 16.9843 81.2564 16.7709C81.3431 16.6823 81.4468 16.6122 81.5614 16.5648C81.6759 16.5174 81.7988 16.4936 81.9228 16.4949C82.0406 16.4946 82.1573 16.5176 82.2662 16.5625C82.3866 16.6151 82.4962 16.6897 82.5891 16.7826V16.5507L82.5774 16.539Z" fill="white"/>
</g>
<defs>
<clipPath id="clip0_2936_3534">
<rect width="89.8283" height="20" fill="white"/>
</clipPath>
</defs>
</svg>
