<svg width="101" height="100" viewBox="0 0 101 100" fill="none" xmlns="http://www.w3.org/2000/svg">
<defs>
<linearGradient id="paint0_linear_4144_63959" x1="72.4375" y1="41" x2="72.4375" y2="89.4583" gradientUnits="userSpaceOnUse">
<stop stop-color="#F44336"/>
<stop offset="1" stop-color="#F2918F"/>
</linearGradient>
<linearGradient id="paint1_linear_4144_63959" x1="72.3708" y1="73.959" x2="72.3708" y2="78.1256" gradientUnits="userSpaceOnUse">
<stop stop-color="#F44336"/>
<stop offset="1" stop-color="#F2918F"/>
</linearGradient>
</defs>
<path d="M42.1666 70.6244H26.375C12.3333 70.6244 8.83331 67.1244 8.83331 53.0827V28.0827C8.83331 14.041 12.3333 10.541 26.375 10.541H70.25C84.2916 10.541 87.7916 14.041 87.7916 28.0827" stroke="#B7C3CE" stroke-width="6" stroke-linecap="round" stroke-linejoin="round"/>
<path d="M42.1667 89.4583V70.625" stroke="#B7C3CE" stroke-width="6" stroke-linecap="round" stroke-linejoin="round"/>
<path d="M8.83331 53.959H42.1666" stroke="#B7C3CE" stroke-width="6" stroke-linecap="round" stroke-linejoin="round"/>
<path d="M28.5833 89.459H42.1666" stroke="#B7C3CE" stroke-width="6" stroke-linecap="round" stroke-linejoin="round"/>
<path d="M92.1666 53.3333V77.125C92.1666 87 89.7083 89.4583 79.8333 89.4583H65.0416C55.1666 89.4583 52.7083 87 52.7083 77.125V53.3333C52.7083 43.4583 55.1666 41 65.0416 41H79.8333C89.7083 41 92.1666 43.4583 92.1666 53.3333Z" stroke="url(#paint0_linear_4144_63959)" stroke-width="6" stroke-linecap="round" stroke-linejoin="round"/>
<path d="M72.3521 76.0423H72.3896" stroke="url(#paint1_linear_4144_63959)" stroke-width="6" stroke-linecap="round" stroke-linejoin="round"/>
</svg>
