<svg width="24" height="24" viewBox="0 0 24 24" fill="none" xmlns="http://www.w3.org/2000/svg">
<g clip-path="url(#clip0_3059_28422)">
<path fill-rule="evenodd" clip-rule="evenodd" d="M6.39775 9.42601C6.39775 6.32635 8.91611 3.80798 12.0158 3.80798C15.1071 3.80798 17.6338 6.33468 17.6338 9.42601V11.8334C17.6338 12.0129 17.6744 12.2753 17.7513 12.5555C17.8272 12.8323 17.9253 13.0785 18.0147 13.235L18.9694 14.8206C19.7222 16.0752 19.1209 17.7104 17.7341 18.1695C14.0166 19.4113 10.0056 19.4112 6.28818 18.1692L6.28588 18.1684C5.58536 17.9313 5.06027 17.4412 4.82551 16.8072C4.59049 16.1725 4.67037 15.4579 5.05374 14.8207L6.01039 13.2319C6.01059 13.2315 6.01079 13.2312 6.01099 13.2309C6.1025 13.077 6.20258 12.8317 6.27977 12.5536C6.35718 12.2748 6.39775 12.0127 6.39775 11.8334V9.42601ZM12.0158 5.04805C9.60098 5.04805 7.63781 7.01122 7.63781 9.42601V11.8334C7.63781 12.1622 7.57009 12.5415 7.47465 12.8853C7.37916 13.2293 7.2421 13.5875 7.07554 13.8669L7.07415 13.8692L6.11629 15.4601C6.11626 15.4601 6.11633 15.46 6.11629 15.4601C5.90833 15.8058 5.8965 16.1284 5.98842 16.3766C6.08053 16.6254 6.30064 16.8639 6.68237 16.9934C10.1447 18.1499 13.8798 18.1498 17.3421 16.993L17.344 16.9924C17.9723 16.7847 18.2531 16.0373 17.9067 15.4597C17.9066 15.4596 17.9067 15.4598 17.9067 15.4597L16.9431 13.8593C16.7833 13.5824 16.6495 13.2267 16.5554 12.8835C16.4614 12.541 16.3937 12.162 16.3937 11.8334V9.42601C16.3937 7.01955 14.4222 5.04805 12.0158 5.04805Z" fill="#9194AB"/>
<path fill-rule="evenodd" clip-rule="evenodd" d="M9.89774 4.44338C10.2298 3.59607 11.0542 3 12.0161 3C12.978 3 13.8024 3.59607 14.1344 4.44338C14.2206 4.66334 14.1743 4.91318 14.015 5.08766C13.8557 5.26214 13.6111 5.33093 13.3843 5.26506C13.153 5.19791 12.9195 5.14722 12.6828 5.11854L12.6805 5.11826C11.9599 5.02817 11.2789 5.08163 10.6481 5.265C10.4212 5.33096 10.1765 5.26222 10.0172 5.08774C9.85785 4.91326 9.81152 4.66338 9.89774 4.44338Z" fill="#9194AB"/>
<path fill-rule="evenodd" clip-rule="evenodd" d="M10.1365 17.881C10.1365 18.3925 10.3493 18.8699 10.688 19.2085C11.0266 19.5472 11.504 19.7599 12.0155 19.7599C13.0475 19.7599 13.8945 18.913 13.8945 17.881H15.1345C15.1345 19.5979 13.7324 21 12.0155 21C11.1609 21 10.3721 20.6464 9.81113 20.0854C9.25014 19.5244 8.89648 18.7356 8.89648 17.881H10.1365Z" fill="#9194AB"/>
</g>
<defs>
<clipPath id="clip0_3059_28422">
<rect width="24" height="24" fill="white"/>
</clipPath>
</defs>
</svg>
