<svg width="375" height="300" viewBox="0 0 375 300" fill="none" xmlns="http://www.w3.org/2000/svg">
<path d="M125.454 195.391C127.99 193.706 128.29 189.697 126.124 186.437C123.957 183.176 120.146 181.899 117.61 183.584C115.074 185.269 114.775 189.278 116.941 192.538C119.107 195.798 122.919 197.075 125.454 195.391Z" fill="#F44336"/>
<path d="M205.263 70.9754C204.413 70.9754 203.613 70.7754 202.875 70.4004C199.863 68.8254 199 64.4629 200.975 60.6879C202.95 56.9004 207.013 55.1129 210.025 56.6879C213.038 58.2629 213.9 62.6254 211.925 66.4004C210.988 68.2004 209.538 69.6254 207.875 70.3879C207 70.7754 206.113 70.9754 205.263 70.9754ZM207.638 57.4129C205.6 57.4129 203.4 58.8879 202.138 61.2879C200.5 64.4379 201.1 67.9754 203.475 69.2129C204.6 69.7879 205.963 69.7754 207.313 69.1629C208.725 68.5129 209.95 67.3129 210.738 65.7754C212.375 62.6254 211.775 59.0879 209.4 57.8504C208.863 57.5504 208.25 57.4129 207.638 57.4129Z" fill="#3E4552"/>
<path d="M160.05 177.938C158.075 177.938 156.475 176.338 156.475 174.363C156.475 172.388 158.075 170.788 160.05 170.788C162.025 170.788 163.625 172.388 163.625 174.363C163.625 176.338 162.025 177.938 160.05 177.938ZM160.05 172.1C158.813 172.1 157.8 173.113 157.8 174.35C157.8 175.588 158.813 176.6 160.05 176.6C161.288 176.6 162.3 175.588 162.3 174.35C162.3 173.113 161.3 172.1 160.05 172.1Z" fill="#3E4552"/>
<path d="M72.7626 63.9003C69.5001 63.9003 66.8376 61.2503 66.8376 57.9753C66.8376 54.7003 69.4876 52.0503 72.7626 52.0503C76.0377 52.0503 78.6877 54.7003 78.6877 57.9753C78.6877 61.2503 76.0252 63.9003 72.7626 63.9003ZM72.7626 53.4003C70.2251 53.4003 68.1626 55.4753 68.1626 58.0003C68.1626 60.5253 70.2376 62.6003 72.7626 62.6003C75.3002 62.6003 77.3627 60.5253 77.3627 58.0003C77.3627 55.4753 75.2877 53.4003 72.7626 53.4003Z" fill="#3E4552"/>
<path d="M138.763 116.125C138.513 116.125 138.263 115.975 138.15 115.725L134.763 108C134.613 107.675 134.763 107.275 135.113 107.125C135.438 106.975 135.838 107.125 135.988 107.475L139.375 115.2C139.525 115.525 139.375 115.925 139.025 116.075C138.938 116.113 138.85 116.125 138.763 116.125Z" fill="#3E4552"/>
<path d="M133.3 114.013C133.05 114.013 132.8 113.863 132.688 113.613C132.538 113.288 132.688 112.888 133.038 112.738L140.613 109.413C140.938 109.263 141.338 109.413 141.488 109.763C141.638 110.088 141.488 110.488 141.138 110.638L133.563 113.963C133.488 113.988 133.388 114.013 133.3 114.013Z" fill="#3E4552"/>
<path d="M33.5252 152.025C31.5502 152.025 29.9502 150.425 29.9502 148.45C29.9502 146.475 31.5502 144.875 33.5252 144.875C35.5002 144.875 37.1002 146.475 37.1002 148.45C37.1002 150.425 35.5002 152.025 33.5252 152.025ZM33.5252 146.2C32.2877 146.2 31.2752 147.212 31.2752 148.45C31.2752 149.687 32.2877 150.7 33.5252 150.7C34.7627 150.7 35.7752 149.687 35.7752 148.45C35.7752 147.212 34.7752 146.2 33.5252 146.2Z" fill="#3E4552"/>
<path d="M41.5749 151.7C41.5124 151.7 41.4249 151.688 41.3624 151.663C41.0124 151.55 40.8374 151.163 40.9499 150.813L42.7499 145.663C42.8624 145.313 43.2499 145.138 43.5999 145.25C43.9499 145.363 44.1249 145.75 44.0124 146.1L42.2124 151.25C42.0999 151.525 41.8374 151.7 41.5749 151.7Z" fill="#3E4552"/>
<path d="M141.95 119.65C141.663 119.65 141.4 119.463 141.325 119.175C141.225 118.825 141.425 118.463 141.775 118.35L147.025 116.825C147.375 116.725 147.738 116.925 147.85 117.275C147.95 117.625 147.75 117.988 147.4 118.1L142.15 119.625C142.075 119.65 142.013 119.65 141.95 119.65Z" fill="#3E4552"/>
<path d="M337.163 109.013L344.725 109.325L340.65 101.913L337.163 109.013Z" fill="#F44336"/>
<path d="M103.525 60.1626L103 73.2626L115.838 66.1876L103.525 60.1626Z" fill="#F44336"/>
<path d="M91.7129 266.288H25.6629C25.4254 266.288 25.2129 266.175 25.1004 265.975C20.3629 258.313 19.3379 250.025 19.3254 244.387C19.2879 237.337 20.8254 230.5 23.5504 225.65C25.8629 221.512 28.8254 219.225 31.9254 219.225C36.4379 219.225 41.1129 224.275 45.7629 234.2C47.6379 238.187 49.1254 242.212 50.1004 245.025C50.4504 227.7 53.0629 213.163 57.7254 202.812C62.9754 191.163 70.7504 185 80.2254 185C83.0004 185 85.6254 186.263 88.0004 188.738C93.4129 194.4 96.5629 205.275 98.2254 213.4C100.313 223.5 101 233.4 100.763 238.725C100.338 248.363 98.0379 255.25 96.2004 259.337C94.1754 263.812 92.2754 265.963 92.2129 266.038C92.0754 266.2 91.8879 266.288 91.7129 266.288ZM26.0379 264.962H91.4004C92.5379 263.525 98.7004 255.05 99.4504 238.7C99.6879 233.45 99.0004 223.687 96.9379 213.712C95.2879 205.75 92.2379 195.125 87.0379 189.7C84.9254 187.487 82.6379 186.375 80.2129 186.375C71.3129 186.375 63.9379 192.263 58.9254 203.413C53.9879 214.388 51.3754 230.188 51.3754 249.125C51.3754 249.45 51.1254 249.738 50.8129 249.788C50.4879 249.838 50.1879 249.637 50.0879 249.325C50.0754 249.262 47.9254 241.975 44.5629 234.812C40.2129 225.513 35.8379 220.613 31.9379 220.613C29.3379 220.613 26.7754 222.65 24.7254 226.35C19.5004 235.65 18.5879 252.6 26.0379 264.962Z" fill="#3E4552"/>
<path d="M137.063 265.462H114.55C114.188 265.462 113.888 265.163 113.888 264.8C113.888 251.025 118.838 242.163 122.975 237.125C128.013 231.012 133.713 228.25 136.9 228.25C142.4 228.25 145.425 233.975 145.425 244.35C145.425 252.538 137.963 264.625 137.65 265.137C137.513 265.337 137.3 265.462 137.063 265.462ZM115.213 264.137H136.675C137.85 262.187 144.075 251.463 144.075 244.363C144.075 238.838 143.15 229.587 136.875 229.587C133.913 229.587 128.538 232.463 123.975 237.975C120.063 242.738 115.375 251.137 115.213 264.137Z" fill="#3E4552"/>
<path d="M201.538 127.825L192.863 104.025C191.925 101.425 192.95 98.7754 195.025 98.4129L210.1 95.8129C211.825 95.5129 213.688 96.8879 214.475 99.0379L221.763 119.038C222.588 121.288 221.925 123.65 220.275 124.438L206.588 130.863C204.763 131.7 202.438 130.313 201.538 127.825Z" fill="#F44336"/>
<path d="M220.363 115.925C220.1 115.925 219.838 115.762 219.738 115.475C219.625 115.125 219.8 114.75 220.138 114.625C220.175 114.612 220.225 114.587 220.25 114.575C221.925 113.95 223.263 112.7 224.013 111.063C224.763 109.425 224.825 107.6 224.2 105.938C223.575 104.263 222.325 102.925 220.688 102.175C219.05 101.425 217.225 101.363 215.563 101.988C215.213 102.125 214.838 101.938 214.713 101.613C214.575 101.263 214.763 100.888 215.088 100.763C217.088 100.013 219.275 100.088 221.225 100.975C223.175 101.875 224.663 103.463 225.413 105.463C226.163 107.463 226.088 109.65 225.2 111.6C224.3 113.55 222.713 115.037 220.713 115.8C220.663 115.812 220.613 115.837 220.563 115.85C220.513 115.912 220.438 115.925 220.363 115.925Z" fill="#3E4552"/>
<path d="M276.988 57.6001C276.988 57.6001 274.325 80.9376 285.15 80.9376C295.975 80.9376 297.65 67.7751 297.65 67.7751C297.65 67.7751 288.838 77.3251 276.988 57.6001Z" fill="#F44336"/>
<path d="M268.325 248.9V270.413H320.3C320.3 270.413 319.7 266.575 318.263 265.75C316.825 264.925 302.45 262.825 300 252.563C297.55 242.3 268.325 248.9 268.325 248.9Z" fill="#F44336"/>
<path d="M186.95 195.2L165.538 199.288V247.1C165.538 247.1 169.363 246.5 170.175 245.063C170.988 243.625 173.075 229.288 183.338 226.825C193.6 224.363 186.95 195.2 186.95 195.2Z" fill="#F44336"/>
<path d="M235.2 118.713C235.2 118.713 225.413 128.5 225.413 149.537C225.413 164.35 213.563 192.8 184.813 192.8C184.813 192.8 180.075 232.212 186 234.575C191.925 236.937 249.113 211.762 263.35 174.725C263.35 174.725 271.938 227.762 265.125 248.212C265.125 248.212 292.388 258.587 308.975 251.475C308.975 251.475 314.3 158.737 288.538 136.8C262.763 114.863 235.2 118.713 235.2 118.713Z" fill="white"/>
<path d="M294.8 254.6C289.788 254.6 284.825 253.938 280.713 253.138C271.875 251.45 264.975 248.838 264.9 248.813C264.575 248.675 264.388 248.313 264.5 247.988C267.263 239.713 267.825 224.45 266.138 203.838C265.175 192.088 263.725 181.663 263.063 177.15C260.625 182.75 257.125 188.325 252.6 193.8C248.1 199.263 242.588 204.625 236.213 209.75C225.913 218.038 213.25 225.738 201.45 230.9C198.5 232.188 188.638 236.313 185.738 235.15C184.1 234.488 183.1 231.925 182.638 227.075C182.288 223.488 182.238 218.65 182.5 212.725C182.95 202.663 184.125 192.775 184.138 192.675C184.175 192.35 184.45 192.1 184.8 192.1C200.488 192.1 210.075 183.513 215.338 176.288C222.275 166.8 224.725 155.925 224.725 149.488C224.725 138.5 227.425 130.6 229.675 125.9C232.138 120.788 234.588 118.3 234.688 118.2C234.788 118.1 234.925 118.038 235.063 118.013C235.35 117.975 242.175 117.05 252.275 118.838C258.2 119.875 264.013 121.638 269.55 124.063C276.463 127.088 282.988 131.2 288.913 136.25C294.9 141.35 299.7 150.6 303.2 163.763C305.975 174.225 307.938 187.188 309.038 202.275C310.913 227.95 309.6 251.238 309.6 251.463C309.588 251.713 309.438 251.925 309.2 252.025C304.888 253.938 299.8 254.6 294.8 254.6ZM265.95 247.8C267.788 248.463 273.713 250.463 280.975 251.85C288.875 253.35 299.963 254.413 308.338 251C308.5 247.775 309.5 226.088 307.763 202.375C306.675 187.363 304.713 174.488 301.975 164.113C298.55 151.213 293.9 142.2 288.125 137.288C274.938 126.063 261.3 121.8 252.163 120.188C243.263 118.613 236.8 119.2 235.55 119.338C234.988 119.95 232.938 122.35 230.913 126.588C228.725 131.138 226.113 138.825 226.113 149.525C226.113 156.163 223.575 167.363 216.463 177.1C211.063 184.463 201.338 193.238 185.45 193.438C185.188 195.688 184.275 204.2 183.9 212.825C183.125 230.713 185.325 233.563 186.3 233.963C187.563 234.463 192.675 233.35 200.988 229.725C219.1 221.813 252.5 201.288 262.788 174.475C262.888 174.188 263.163 174.025 263.463 174.063C263.763 174.1 263.988 174.325 264.038 174.613C264.05 174.75 266.2 188.088 267.475 203.75C269.15 224.313 268.638 239.138 265.95 247.8Z" fill="#3E4552"/>
<path d="M190.275 198.238C189.913 198.238 189.613 197.938 189.613 197.575C189.613 197.213 189.913 196.913 190.275 196.913C191.763 196.913 193.238 196.825 194.663 196.675C195.025 196.638 195.363 196.888 195.388 197.25C195.425 197.613 195.175 197.95 194.813 197.975C193.338 198.163 191.813 198.238 190.275 198.238ZM199.138 197.263C198.838 197.263 198.563 197.05 198.488 196.75C198.4 196.388 198.625 196.038 198.988 195.95C200.413 195.625 201.838 195.2 203.175 194.713C203.525 194.575 203.9 194.763 204.025 195.113C204.163 195.463 203.975 195.838 203.625 195.963C202.213 196.475 200.75 196.925 199.275 197.25C199.238 197.263 199.188 197.263 199.138 197.263ZM207.488 194.188C207.25 194.188 207.025 194.05 206.913 193.838C206.75 193.513 206.863 193.113 207.2 192.938C208.475 192.275 209.75 191.5 210.938 190.675C211.238 190.463 211.65 190.538 211.863 190.838C212.075 191.138 212 191.55 211.7 191.763C210.463 192.625 209.15 193.413 207.813 194.113C207.688 194.163 207.588 194.188 207.488 194.188ZM214.813 189.1C214.625 189.1 214.45 189.013 214.313 188.888C214.063 188.625 214.1 188.188 214.363 187.963C215.438 187 216.475 185.963 217.475 184.863C217.725 184.6 218.138 184.563 218.4 184.813C218.663 185.063 218.7 185.475 218.45 185.738C217.425 186.875 216.35 187.95 215.238 188.95C215.125 189.05 214.95 189.1 214.813 189.1ZM220.788 182.488C220.65 182.488 220.525 182.438 220.388 182.35C220.088 182.138 220.025 181.725 220.238 181.425C221.088 180.263 221.913 179.025 222.675 177.75C222.863 177.438 223.275 177.338 223.588 177.513C223.9 177.7 224 178.113 223.825 178.425C223.05 179.738 222.2 181.013 221.325 182.2C221.175 182.388 220.975 182.488 220.788 182.488ZM225.388 174.838C225.288 174.838 225.188 174.825 225.088 174.775C224.763 174.613 224.625 174.213 224.788 173.875C225.438 172.563 226.025 171.213 226.575 169.838C226.713 169.488 227.088 169.325 227.438 169.463C227.788 169.6 227.95 169.975 227.813 170.325C227.25 171.738 226.638 173.125 225.988 174.463C225.863 174.688 225.638 174.838 225.388 174.838ZM228.663 166.513C228.6 166.513 228.525 166.5 228.463 166.475C228.113 166.363 227.913 166 228.038 165.65C228.463 164.225 228.863 162.8 229.175 161.375C229.263 161.013 229.6 160.8 229.975 160.875C230.338 160.963 230.55 161.3 230.475 161.675C230.15 163.138 229.763 164.6 229.313 166.05C229.213 166.325 228.938 166.513 228.663 166.513ZM230.6 157.788C230.563 157.788 230.538 157.788 230.513 157.788C230.15 157.738 229.9 157.413 229.95 157.038C230.088 156.1 230.163 155.15 230.213 154.275C230.25 153.75 230.3 153.188 230.35 152.6C230.388 152.238 230.713 151.975 231.075 152C231.438 152.038 231.7 152.363 231.675 152.725C231.625 153.288 231.575 153.838 231.538 154.35C231.488 155.263 231.388 156.225 231.25 157.213C231.213 157.55 230.925 157.788 230.6 157.788ZM231.588 148.9C231.55 148.9 231.525 148.9 231.488 148.888C231.125 148.825 230.875 148.488 230.938 148.125C231.175 146.7 231.45 145.213 231.763 143.7C231.85 143.338 232.188 143.125 232.538 143.188C232.9 143.275 233.113 143.613 233.05 143.963C232.738 145.45 232.45 146.925 232.225 148.338C232.2 148.663 231.925 148.9 231.588 148.9ZM233.45 140.163C233.4 140.163 233.338 140.163 233.288 140.15C232.938 140.05 232.725 139.7 232.813 139.338C233.188 137.85 233.613 136.388 234.038 135C234.15 134.65 234.513 134.45 234.863 134.575C235.213 134.675 235.413 135.05 235.288 135.4C234.875 136.763 234.463 138.2 234.075 139.675C234.013 139.963 233.738 140.163 233.45 140.163ZM236.088 131.625C236 131.625 235.925 131.613 235.85 131.575C235.5 131.438 235.338 131.063 235.475 130.713C236.1 129.063 236.738 127.65 237.325 126.538C237.513 126.225 237.9 126.088 238.225 126.275C238.538 126.463 238.675 126.85 238.488 127.175C237.913 128.238 237.313 129.575 236.7 131.175C236.625 131.45 236.375 131.625 236.088 131.625Z" fill="#3E4552"/>
<path d="M175.1 235C174.95 235 174.788 234.95 174.675 234.838L171.475 232.038C171.188 231.788 171.175 231.375 171.413 231.113C171.663 230.825 172.075 230.813 172.338 231.05L175.538 233.85C175.825 234.1 175.838 234.513 175.6 234.775C175.463 234.938 175.275 235 175.1 235Z" fill="white"/>
<path d="M178.575 231.2C178.425 231.2 178.263 231.15 178.15 231.038L174.95 228.238C174.663 227.988 174.65 227.575 174.888 227.313C175.138 227.025 175.55 227.013 175.813 227.25L179.013 230.05C179.3 230.3 179.313 230.713 179.075 230.975C178.938 231.125 178.763 231.2 178.575 231.2Z" fill="white"/>
<path d="M303.313 264.663C303.163 264.663 303 264.613 302.888 264.5C302.6 264.263 302.575 263.838 302.825 263.575L305.925 260C306.163 259.713 306.588 259.688 306.85 259.938C307.138 260.175 307.163 260.6 306.913 260.863L303.813 264.438C303.675 264.575 303.488 264.663 303.313 264.663Z" fill="white"/>
<path d="M307.45 266.488C307.3 266.488 307.138 266.438 307.025 266.325C306.738 266.088 306.713 265.663 306.963 265.4L310.063 261.825C310.3 261.538 310.725 261.513 310.988 261.763C311.275 262 311.3 262.425 311.05 262.688L307.95 266.263C307.813 266.4 307.625 266.488 307.45 266.488Z" fill="white"/>
<path d="M356.525 61.7005H318.425C316.95 61.7005 315.663 62.838 315.663 64.338V89.913C315.7 91.413 316.925 92.638 318.425 92.6755H319.838L318.863 96.7255L324.388 92.6755H356.538C358.013 92.6755 359.2 91.4005 359.2 89.913V64.3255C359.2 62.888 358.025 61.713 356.588 61.688C356.563 61.7005 356.538 61.7005 356.525 61.7005Z" fill="white"/>
<path d="M318.863 97.3754C318.725 97.3754 318.613 97.3379 318.5 97.2629C318.263 97.1129 318.15 96.8379 318.213 96.5504L318.988 93.3004H318.413C316.525 93.2629 315.025 91.7629 314.988 89.8879V64.3254C314.988 62.5004 316.525 61.0254 318.413 61.0254H356.563C358.363 61.0254 359.838 62.5004 359.838 64.3254V89.9004C359.838 91.7879 358.35 93.3254 356.513 93.3254H324.6L319.25 97.2504C319.15 97.3254 319 97.3754 318.863 97.3754ZM319.825 92.0004C320.025 92.0004 320.225 92.1004 320.338 92.2504C320.475 92.4129 320.5 92.6129 320.475 92.8129L319.925 95.1129L324 92.1254C324.113 92.0379 324.25 91.9879 324.4 91.9879H356.55C357.638 91.9879 358.55 91.0254 358.55 89.8879V64.3254C358.55 63.2504 357.675 62.3504 356.6 62.3504H356.563C356.563 62.3504 356.563 62.3504 356.55 62.3504H318.45C317.288 62.3504 316.35 63.2254 316.35 64.3254V89.9004C316.388 91.0379 317.313 91.9754 318.463 92.0004H319.825Z" fill="#3E4552"/>
<path d="M356.05 68.1629H351.575C351.213 68.1629 350.913 67.8629 350.913 67.5004C350.913 67.1379 351.213 66.8379 351.575 66.8379H356.05C356.413 66.8379 356.713 67.1379 356.713 67.5004C356.713 67.8629 356.413 68.1629 356.05 68.1629ZM347.1 68.1629H342.625C342.263 68.1629 341.963 67.8629 341.963 67.5004C341.963 67.1379 342.263 66.8379 342.625 66.8379H347.1C347.463 66.8379 347.763 67.1379 347.763 67.5004C347.763 67.8629 347.475 68.1629 347.1 68.1629ZM338.163 68.1629H333.688C333.325 68.1629 333.025 67.8629 333.025 67.5004C333.025 67.1379 333.325 66.8379 333.688 66.8379H338.163C338.525 66.8379 338.825 67.1379 338.825 67.5004C338.825 67.8629 338.538 68.1629 338.163 68.1629ZM329.225 68.1629H324.75C324.388 68.1629 324.088 67.8629 324.088 67.5004C324.088 67.1379 324.388 66.8379 324.75 66.8379H329.225C329.588 66.8379 329.888 67.1379 329.888 67.5004C329.888 67.8629 329.6 68.1629 329.225 68.1629ZM320.288 68.1629H315.813C315.45 68.1629 315.15 67.8629 315.15 67.5004C315.15 67.1379 315.45 66.8379 315.813 66.8379H320.288C320.65 66.8379 320.95 67.1379 320.95 67.5004C320.95 67.8629 320.65 68.1629 320.288 68.1629Z" fill="#3E4552"/>
<path d="M356.05 88.6878H351.575C351.213 88.6878 350.913 88.3878 350.913 88.0253C350.913 87.6628 351.213 87.3628 351.575 87.3628H356.05C356.413 87.3628 356.713 87.6628 356.713 88.0253C356.713 88.3878 356.413 88.6878 356.05 88.6878ZM347.1 88.6878H342.625C342.263 88.6878 341.963 88.3878 341.963 88.0253C341.963 87.6628 342.263 87.3628 342.625 87.3628H347.1C347.463 87.3628 347.763 87.6628 347.763 88.0253C347.763 88.3878 347.475 88.6878 347.1 88.6878ZM338.163 88.6878H333.688C333.325 88.6878 333.025 88.3878 333.025 88.0253C333.025 87.6628 333.325 87.3628 333.688 87.3628H338.163C338.525 87.3628 338.825 87.6628 338.825 88.0253C338.825 88.3878 338.538 88.6878 338.163 88.6878ZM329.225 88.6878H324.75C324.388 88.6878 324.088 88.3878 324.088 88.0253C324.088 87.6628 324.388 87.3628 324.75 87.3628H329.225C329.588 87.3628 329.888 87.6628 329.888 88.0253C329.888 88.3878 329.6 88.6878 329.225 88.6878ZM320.288 88.6878H315.813C315.45 88.6878 315.15 88.3878 315.15 88.0253C315.15 87.6628 315.45 87.3628 315.813 87.3628H320.288C320.65 87.3628 320.95 87.6628 320.95 88.0253C320.95 88.3878 320.65 88.6878 320.288 88.6878Z" fill="#3E4552"/>
<path d="M324.601 72.3628H321.401V75.3753H324.601V72.3628Z" fill="#F44336"/>
<path d="M343.138 74.45H326.251C325.888 74.45 325.588 74.15 325.588 73.7875C325.588 73.425 325.888 73.125 326.251 73.125H343.138C343.501 73.125 343.801 73.425 343.801 73.7875C343.801 74.15 343.501 74.45 343.138 74.45Z" fill="#3E4552"/>
<path d="M324.601 76.125H321.401V79.1375H324.601V76.125Z" fill="#F44336"/>
<path d="M343.138 78.2503H326.251C325.888 78.2503 325.588 77.9503 325.588 77.5878C325.588 77.2253 325.888 76.9253 326.251 76.9253H343.138C343.501 76.9253 343.801 77.2253 343.801 77.5878C343.801 77.9503 343.501 78.2503 343.138 78.2503Z" fill="#3E4552"/>
<path d="M324.601 79.875H321.401V82.8875H324.601V79.875Z" fill="#F44336"/>
<path d="M343.138 82.0628H326.251C325.888 82.0628 325.588 81.7628 325.588 81.4003C325.588 81.0378 325.888 80.7378 326.251 80.7378H343.138C343.501 80.7378 343.801 81.0378 343.801 81.4003C343.801 81.7628 343.501 82.0628 343.138 82.0628Z" fill="#3E4552"/>
<path d="M349.55 72.3753V73.2378H349.563C349.938 73.2378 350.325 73.3003 350.688 73.4003C351.238 73.5503 351.513 73.7253 351.513 73.9628C351.55 74.1753 351.4 74.3753 351.163 74.4128C351.125 74.4128 351.075 74.4128 351.05 74.4128C350.8 74.4003 350.575 74.3628 350.325 74.3003C350.063 74.2378 349.8 74.2003 349.525 74.2003V76.2878C350.275 76.3503 350.863 76.6003 351.3 77.0378C351.675 77.4128 351.875 77.9378 351.875 78.4628C351.888 79.1128 351.625 79.7253 351.163 80.1628C350.7 80.5753 350.138 80.8628 349.525 80.9378V82.3003C349.525 82.5503 349.338 82.7503 349.1 82.7628C349.088 82.7628 349.088 82.7628 349.063 82.7628C348.85 82.8003 348.65 82.6503 348.613 82.4378C348.613 82.4003 348.613 82.3503 348.613 82.3253V81.0003C346.938 80.9878 346.113 80.5503 346.113 79.7128C346.113 79.4128 346.263 79.2503 346.538 79.2503C346.7 79.2503 346.863 79.3128 347 79.4378C347.15 79.5753 347.313 79.7003 347.5 79.8003C347.85 79.9503 348.225 80.0378 348.613 80.0378V77.1253H348.575C348.1 77.1253 347.613 76.9878 347.2 76.7503C346.75 76.5003 346.475 76.0378 346.488 75.5253C346.488 75.0628 346.7 74.6128 347.138 74.2003C347.55 73.8253 348.063 73.5253 348.613 73.3753V72.4003C348.613 72.2878 348.663 72.1503 348.75 72.0753C348.838 72.0003 348.963 71.9378 349.075 71.9378C349.288 71.9003 349.488 72.0378 349.525 72.2503C349.55 72.3003 349.55 72.3253 349.55 72.3753ZM348.65 76.2003V74.3628C347.975 74.6128 347.625 75.0128 347.625 75.5503C347.625 75.8878 347.963 76.1003 348.65 76.2003ZM349.55 77.2753V79.9378C349.9 79.8253 350.2 79.6378 350.463 79.3878C350.713 79.1503 350.863 78.8378 350.863 78.5128C350.863 77.9253 350.438 77.5128 349.55 77.2753Z" fill="#3E4552"/>
<path d="M277.5 60.9254L275.413 55.8379C275.413 55.8379 239.463 62.5379 239.463 86.1129C239.463 94.6254 241.25 99.0879 241.25 99.0879C241.25 99.0879 234.825 112.813 234.25 115.938C233.675 119.063 246.188 139.363 279.438 139.363C289.288 139.363 290.925 135.413 290.925 135.413L290.625 129.075H294.8C294.8 129.075 298.838 113.313 297.8 109.875C297.8 109.875 306.163 110.3 306.013 103.288C306.013 103.288 304.975 104.463 304.975 92.7004C304.975 80.9379 306.188 73.4504 297.675 67.7879C297.675 67.7879 295.363 80.9504 285.175 80.9504C274.988 80.9379 277.5 60.9254 277.5 60.9254Z" fill="#F44336"/>
<path d="M317.413 114.475H304.5L312.513 98.1504H325.425L317.413 114.475Z" fill="white"/>
<path d="M317.4 115.138H304.5C304.263 115.138 304.05 115.025 303.938 114.825C303.825 114.625 303.8 114.4 303.9 114.175L311.913 97.8503C312.025 97.6128 312.263 97.4878 312.513 97.4878H325.413C325.65 97.4878 325.863 97.6003 325.975 97.8003C326.088 98.0003 326.113 98.2253 326.013 98.4503L318 114.775C317.888 114.988 317.663 115.138 317.4 115.138ZM305.563 113.813H316.988L324.35 98.8128H312.925L305.563 113.813Z" fill="#3E4552"/>
<path d="M319.95 112.601C321.213 111.676 321.6 109.851 321.075 108.401C320.55 106.938 319.175 105.863 317.688 105.451C317.175 105.301 316.563 105.251 316.175 105.638C315.888 105.926 315.85 106.338 315.813 106.713C315.775 107.176 315.763 107.626 315.763 108.088C315.75 108.401 315.8 108.713 315.913 109.001C316.063 109.238 316.238 109.451 316.475 109.613L320 112.538" fill="white"/>
<path d="M319.95 113.263C319.75 113.263 319.55 113.163 319.425 113C319.388 112.95 319.363 112.9 319.338 112.838L316.075 110.125C315.775 109.913 315.55 109.65 315.35 109.325C315.338 109.288 315.313 109.275 315.3 109.238C315.138 108.863 315.063 108.463 315.088 108.05C315.088 107.588 315.1 107.125 315.138 106.663C315.175 106.263 315.238 105.625 315.7 105.175C316.05 104.85 316.688 104.513 317.85 104.825C319.638 105.338 321.113 106.613 321.688 108.188C322.35 110.013 321.788 112.088 320.325 113.15C320.213 113.213 320.075 113.263 319.95 113.263ZM316.488 108.675C316.588 108.825 316.7 108.963 316.85 109.05C316.863 109.063 316.863 109.063 316.888 109.088L319.988 111.65C320.638 110.875 320.838 109.663 320.45 108.625C320.025 107.45 318.9 106.475 317.5 106.088C317.1 105.975 316.775 105.975 316.638 106.1C316.525 106.213 316.488 106.563 316.475 106.763C316.438 107.188 316.425 107.638 316.425 108.075C316.425 108.088 316.425 108.113 316.425 108.125C316.4 108.3 316.425 108.5 316.488 108.675Z" fill="#3E4552"/>
<path d="M314.85 113.463C314.388 113.5 314.25 113.888 313.813 113.838C313.363 113.788 312.688 114.45 312.35 114.763C312.1 115.013 311.95 115.363 311.938 115.7C311.888 116.813 312.838 117.675 313.688 118.363L317.413 121.375C317.513 121.475 317.625 121.525 317.763 121.563C317.9 121.563 318.05 121.525 318.138 121.45C319.463 120.65 320.088 119.088 319.663 117.588C319.65 117.538 319.613 117.475 319.563 117.45C319.513 117.425 319.45 117.538 319.513 117.55" fill="white"/>
<path d="M317.763 122.238C317.75 122.238 317.725 122.238 317.713 122.238C317.675 122.238 317.625 122.238 317.6 122.225C317.363 122.175 317.15 122.063 316.975 121.9L313.263 118.9C312.55 118.325 311.213 117.225 311.263 115.7C311.275 115.175 311.5 114.675 311.875 114.288L311.888 114.275C311.925 114.238 311.975 114.213 312 114.163C312.475 113.713 313.138 113.1 313.85 113.175C313.863 113.175 313.938 113.125 313.963 113.113C314.125 113 314.388 112.825 314.788 112.8C315.15 112.788 315.463 113.063 315.488 113.425C315.5 113.788 315.225 114.1 314.863 114.125C314.825 114.125 314.8 114.138 314.7 114.213C314.513 114.325 314.2 114.538 313.738 114.513C313.538 114.563 313.038 115.013 312.888 115.163C312.838 115.2 312.8 115.25 312.775 115.275C312.638 115.413 312.575 115.575 312.575 115.75V115.763C312.538 116.525 313.288 117.238 314.075 117.875L317.8 120.888C318.738 120.313 319.238 119.2 319.075 118.113C318.863 117.95 318.75 117.663 318.825 117.388C318.925 117.013 319.3 116.763 319.688 116.838C319.85 116.875 320.15 117 320.288 117.413V117.425C320.788 119.175 320.037 121.063 318.488 122.025C318.275 122.163 318.025 122.238 317.763 122.238Z" fill="#3E4552"/>
<path d="M321.9 114.95C321.763 115.55 321.575 116.125 321.325 116.688C321.238 116.888 321.138 117.088 321 117.238C320.638 117.638 320.025 117.663 319.475 117.588C318.2 117.375 317.088 116.6 316.213 115.65C314.75 114.113 313.775 112.063 313.763 109.938C313.763 109.413 313.875 108.775 314.338 108.55C314.8 108.313 315.4 108.6 315.863 108.875C317.613 109.963 319.388 111.138 320.625 112.8C321.1 113.513 321.538 114.225 321.9 114.95Z" fill="white"/>
<path d="M319.913 118.313C319.725 118.313 319.55 118.3 319.35 118.263C318.075 118.05 316.85 117.338 315.713 116.125C314.063 114.375 313.1 112.138 313.075 109.963C313.075 108.7 313.588 108.188 314.013 107.975C314.888 107.525 315.838 108.113 316.175 108.338C318.05 109.513 319.838 110.7 321.125 112.425L321.138 112.438C321.613 113.15 322.05 113.9 322.425 114.65C322.488 114.788 322.513 114.95 322.476 115.1C322.326 115.725 322.125 116.363 321.863 116.95C321.763 117.213 321.613 117.463 321.413 117.675L321.4 117.688C321.088 118.1 320.563 118.313 319.913 118.313ZM314.725 109.138C314.675 109.138 314.638 109.15 314.625 109.15C314.525 109.2 314.413 109.45 314.413 109.963C314.425 111.788 315.263 113.7 316.675 115.213C317.325 115.888 318.325 116.738 319.575 116.95C319.988 117.013 320.338 116.963 320.5 116.8C320.588 116.7 320.651 116.588 320.701 116.45C320.701 116.438 320.7 116.438 320.713 116.413C320.913 115.963 321.075 115.488 321.188 115.025C320.863 114.4 320.488 113.788 320.1 113.2C318.938 111.663 317.275 110.55 315.513 109.463C315.1 109.213 314.863 109.138 314.725 109.138Z" fill="#3E4552"/>
<path d="M312.563 117.638C312.063 117.588 311.6 117.938 311.25 118.313C310.9 118.688 310.638 119.138 310.675 119.638C310.713 120.238 311.175 120.713 311.6 121.113C312.613 122.075 313.675 123.05 314.938 123.6C315.15 123.7 315.363 123.763 315.613 123.788C316.175 123.825 316.688 123.425 316.975 122.938C317.263 122.463 317.338 121.875 317.4 121.338" fill="white"/>
<path d="M315.675 124.425C315.638 124.425 315.625 124.425 315.588 124.425C315.575 124.425 315.575 124.425 315.55 124.425C315.238 124.387 314.938 124.325 314.675 124.187C313.263 123.587 312.138 122.512 311.15 121.587C310.738 121.212 310.063 120.562 310.013 119.662C309.975 119.062 310.225 118.45 310.763 117.862C311.325 117.237 311.988 116.925 312.613 116.962C312.975 117 313.238 117.325 313.213 117.687C313.175 118.05 312.85 118.312 312.488 118.287C312.288 118.275 312.013 118.437 311.738 118.737C311.45 119.05 311.313 119.35 311.325 119.587C311.338 119.937 311.688 120.287 312.05 120.612C313.013 121.525 314 122.462 315.2 122.962C315.213 122.962 315.213 122.962 315.238 122.975C315.375 123.037 315.525 123.075 315.663 123.087C315.913 123.087 316.213 122.875 316.388 122.575C316.6 122.2 316.688 121.712 316.75 121.2C316.8 120.837 317.125 120.587 317.5 120.625C317.863 120.675 318.113 121 318.075 121.375C317.988 121.987 317.888 122.65 317.563 123.225C317.15 123.975 316.425 124.425 315.675 124.425Z" fill="#3E4552"/>
<path d="M317.65 100.762H313.838C313.475 100.762 313.175 100.462 313.175 100.1C313.175 99.7375 313.475 99.4375 313.838 99.4375H317.65C318.013 99.4375 318.313 99.7375 318.313 100.1C318.313 100.462 318.013 100.762 317.65 100.762Z" fill="#3E4552"/>
<path d="M297.85 108.838C299.95 109.65 302.3 108.925 304.4 108.113C306.5 107.3 308.7 106.338 310.925 106.738C311.488 106.838 312.1 107.05 312.313 107.588C313.013 109.288 311.85 110.35 311.25 110.463C310.688 110.575 308.1 111.825 305.875 112.438C307.575 112.275 308.9 111.063 310.513 110.688C311.275 110.525 312.05 110.388 312.813 110.55C313.575 110.713 314.288 111.25 314.463 112.013C314.55 112.438 314.513 112.888 314.363 113.288C313.9 114.613 312.713 115.575 311.4 116.063C310.088 116.563 308.675 116.663 307.275 116.725L310.238 116.588C310.763 116.575 311.375 116.575 311.738 116.95C311.95 117.213 312.063 117.55 312.063 117.888C312.1 118.975 311.5 119.988 310.538 120.525C309.675 120.975 308.6 120.975 307.825 121.563C308.638 121.2 309.5 120.938 310.363 120.738C310.663 120.675 310.975 120.625 311.263 120.738C311.525 120.875 311.713 121.113 311.763 121.4C311.913 121.975 311.65 122.613 311.238 123.05C310.825 123.5 310.3 123.775 309.763 124.063C308.388 124.813 306.988 125.55 305.425 125.813C304.525 125.963 303.6 125.95 302.713 126.025C300.15 126.238 297.725 127.6 295.275 126.8C297.025 121.525 297.85 108.838 297.85 108.838Z" fill="white"/>
<path d="M296.9 127.725C296.288 127.725 295.675 127.638 295.063 127.438C294.9 127.388 294.75 127.275 294.688 127.113C294.6 126.963 294.588 126.763 294.65 126.6C296.35 121.438 297.188 108.925 297.188 108.788C297.2 108.575 297.325 108.388 297.488 108.275C297.675 108.163 297.888 108.138 298.088 108.213C299.963 108.925 302.113 108.275 304.163 107.488L304.513 107.35C306.6 106.525 308.763 105.675 311.038 106.075C312.263 106.288 312.738 106.875 312.925 107.313C313.388 108.475 313.163 109.338 312.875 109.875C312.913 109.875 312.938 109.888 312.975 109.888C314.05 110.138 314.9 110.9 315.125 111.825V111.838C315.238 112.388 315.188 112.963 314.988 113.475C314.563 114.7 313.55 115.763 312.175 116.4C312.188 116.413 312.213 116.438 312.238 116.463C312.25 116.475 312.25 116.475 312.275 116.5C312.588 116.875 312.775 117.363 312.75 117.863C312.763 118.775 312.45 119.638 311.85 120.3C312.138 120.538 312.325 120.85 312.413 121.225C312.6 121.975 312.325 122.813 311.738 123.475C311.263 123.988 310.663 124.325 310.138 124.6L310.088 124.638C308.75 125.35 307.225 126.175 305.55 126.463C304.925 126.575 304.313 126.6 303.713 126.625C303.388 126.638 303.088 126.663 302.775 126.675C301.925 126.738 301.05 126.963 300.213 127.175C299.138 127.463 298.025 127.725 296.9 127.725ZM296.113 126.338C297.325 126.538 298.575 126.225 299.888 125.913C300.788 125.7 301.688 125.463 302.65 125.388C302.975 125.35 303.313 125.338 303.625 125.325C304.2 125.288 304.763 125.275 305.313 125.175C306.775 124.925 308.125 124.188 309.438 123.488L309.488 123.45C309.963 123.188 310.413 122.95 310.75 122.588C311 122.325 311.213 121.913 311.125 121.525C311.125 121.513 311.125 121.513 311.125 121.488C311.113 121.4 311.063 121.338 310.988 121.288C310.875 121.25 310.625 121.3 310.525 121.338C309.7 121.525 308.888 121.788 308.113 122.138C307.8 122.275 307.45 122.15 307.288 121.875C307.125 121.588 307.188 121.213 307.45 121.013C308 120.6 308.638 120.438 309.2 120.263C309.575 120.163 309.95 120.063 310.263 119.9C311.013 119.5 311.45 118.725 311.425 117.875C311.425 117.863 311.425 117.863 311.425 117.838C311.425 117.65 311.375 117.488 311.263 117.363C311.075 117.2 310.688 117.2 310.275 117.213L307.313 117.35C306.95 117.363 306.638 117.088 306.613 116.725C306.6 116.363 306.875 116.05 307.238 116.025C308.675 115.963 309.963 115.863 311.163 115.413C312.438 114.938 313.375 114.05 313.725 113.05V113.038C313.838 112.75 313.863 112.438 313.813 112.138C313.675 111.625 313.138 111.288 312.65 111.175C312.088 111.038 311.475 111.125 310.913 111.238C310.663 111.338 310.363 111.45 310.088 111.563C309.613 111.763 309.063 111.975 308.488 112.213C307.713 112.588 306.9 112.963 305.95 113.063C305.625 113.1 305.3 112.863 305.238 112.513C305.175 112.188 305.388 111.85 305.713 111.75C306.438 111.55 307.213 111.275 307.963 110.988C308.05 110.95 308.125 110.9 308.213 110.85C308.888 110.5 309.588 110.15 310.375 109.975C310.438 109.963 310.488 109.938 310.563 109.938C310.825 109.838 311.013 109.775 311.138 109.75C311.225 109.738 311.513 109.563 311.713 109.2C311.925 108.788 311.925 108.288 311.713 107.763C311.625 107.563 311.313 107.413 310.838 107.338C308.938 107.013 306.95 107.788 305.025 108.55L304.675 108.688C302.65 109.488 300.525 110.125 298.488 109.675C298.25 112.5 297.5 121.525 296.113 126.338Z" fill="#3E4552"/>
<path d="M299.012 109.187C300.475 108.275 300.587 106.063 301.975 105.05C302.825 104.45 303.925 104.425 304.8 104.963C305.362 103.9 306.125 102.925 307.137 102.3C308.15 101.675 309.475 101.438 310.562 101.925C311.112 103.563 310.812 105.35 309.762 106.725C308.725 106.325 307.562 106.762 306.537 107.2C304.075 108.275 301.475 109.437 298.775 109.225" fill="white"/>
<path d="M299.45 109.925C299.2 109.925 298.975 109.913 298.725 109.888C298.363 109.85 298.1 109.538 298.112 109.175C298.15 108.85 298.412 108.575 298.737 108.563C299.262 108.188 299.6 107.5 299.95 106.788C300.35 105.963 300.775 105.1 301.575 104.5C302.45 103.888 303.562 103.738 304.525 104.1C305.175 103.063 305.938 102.263 306.788 101.738C308.075 100.938 309.588 100.775 310.825 101.313C311.013 101.375 311.138 101.525 311.188 101.713C311.8 103.55 311.475 105.588 310.288 107.125C310.1 107.363 309.787 107.438 309.525 107.338C308.725 107.025 307.737 107.4 306.8 107.813L306.663 107.863C304.375 108.875 302 109.925 299.45 109.925ZM303.438 105.25C303.063 105.25 302.675 105.363 302.35 105.6C301.825 105.975 301.488 106.663 301.138 107.388C300.95 107.763 300.762 108.163 300.525 108.525C302.425 108.275 304.3 107.463 306.138 106.675L306.275 106.625C307.262 106.2 308.388 105.763 309.5 105.975C310.15 104.938 310.35 103.663 310.025 102.45C309.25 102.238 308.288 102.388 307.475 102.9C306.675 103.4 305.963 104.213 305.375 105.313C305.288 105.475 305.137 105.6 304.962 105.638C304.775 105.688 304.6 105.65 304.45 105.55C304.138 105.35 303.788 105.25 303.438 105.25Z" fill="#3E4552"/>
<path d="M302.55 56.6003C302.55 56.6003 303.275 71.0003 289.413 71.0003C282.475 71.0003 279.763 62.8878 279.763 62.8878C279.763 62.8878 275.525 52.3628 284.15 56.0128C284.138 56.0253 300.5 39.5878 302.55 56.6003Z" fill="white"/>
<path d="M289.388 71.6627C282.15 71.6627 279.313 63.6877 279.125 63.1252C278.863 62.4627 276.925 57.3877 278.975 55.3627C279.963 54.3877 281.663 54.3377 283.975 55.2502C284.175 55.0627 284.45 54.8252 284.838 54.4752C285.5 53.8752 286.563 52.9752 287.8 52.0627C291.05 49.6752 293.888 48.3877 296.238 48.2502C298.938 48.0877 302.35 49.3877 303.188 56.5377C303.188 56.5502 303.188 56.5752 303.188 56.5877C303.2 56.8752 303.488 63.4877 299.275 67.9127C296.925 70.3877 293.6 71.6627 289.388 71.6627ZM281.1 55.9127C280.625 55.9127 280.2 56.0252 279.913 56.3127C278.825 57.3877 279.613 60.7627 280.375 62.6502C280.375 62.6627 280.388 62.6877 280.388 62.6877C280.425 62.7752 283.038 70.3502 289.413 70.3502C293.225 70.3502 296.238 69.2252 298.35 66.9877C302.063 63.1002 301.913 57.0627 301.888 56.6627C301.425 52.7752 300.15 50.4752 298.125 49.7752C293.85 48.3377 286.775 54.2752 284.613 56.4752C284.575 56.5127 284.55 56.5377 284.5 56.5752C284.313 56.6877 284.088 56.7252 283.875 56.6252C283 56.2752 281.963 55.9127 281.1 55.9127Z" fill="#3E4552"/>
<path d="M297.737 49.8252C297.737 49.8252 300.65 56.6127 302.55 56.6127C304.45 56.6127 304.087 38.3502 288.087 38.3502C288.087 38.3502 289.175 37.2627 289.175 35.0502C289.175 32.8377 286.687 29.5752 279.612 29.5752C272.525 29.5752 269.237 37.6877 269.237 41.4127C269.237 45.1377 270.925 46.3752 270.925 46.3752C270.925 46.3752 268.812 47.7627 268.812 50.1002C268.812 52.4377 273.262 54.1252 275.6 51.7752C275.6 51.7752 274 58.7127 279.9 63.4002C279.9 63.4002 278.875 59.8252 278.875 57.1877C278.875 54.5502 283.787 55.5002 284.3 57.4752C284.312 57.4877 297.737 59.0252 297.737 49.8252Z" fill="#3E4552"/>
<path d="M290.263 107.388C289.9 107.388 289.6 107.1 289.6 106.738C289.5 101.375 287.525 94.1628 287.513 94.0878C287.413 93.7378 287.625 93.3753 287.975 93.2753C288.325 93.1753 288.688 93.3878 288.788 93.7378C288.875 94.0378 290.825 101.188 290.925 106.713C290.925 107.075 290.65 107.375 290.263 107.388Z" fill="white"/>
<path d="M294.288 129.65C291.925 129.65 281.575 129.538 265.088 127.7C260.613 127.2 256.475 125.288 252.788 122C249.863 119.4 247.188 115.925 244.875 111.7C240.95 104.538 239.325 97.5375 239.313 97.45C239.225 97.0875 239.463 96.7376 239.813 96.6501C240.175 96.5626 240.525 96.8001 240.613 97.1501C240.625 97.2126 242.2 104.063 246.063 111.088C249.575 117.475 255.75 125.325 265.25 126.388C281.675 128.225 291.963 128.338 294.3 128.338C294.313 128.338 294.313 128.338 294.338 128.338C297.813 117.525 297.488 110.675 297.313 108.825C290.3 108.213 284.35 106.488 279.638 103.675C275.738 101.363 272.675 98.3126 270.5 94.6001C266.813 88.2875 267.063 82.3876 267.075 82.1251C267.088 81.7626 267.388 81.4751 267.775 81.5001C268.138 81.5126 268.425 81.8251 268.4 82.2001C268.4 82.2501 268.163 88.0251 271.675 94.0001C276.313 101.9 285.4 106.575 297.938 107.55C298.238 107.563 298.488 107.8 298.538 108.1C298.588 108.413 299.8 115.863 295.425 129.2C295.338 129.463 295.1 129.65 294.813 129.663C294.8 129.65 294.625 129.65 294.288 129.65Z" fill="white"/>
<path d="M263.35 175.363C263.238 175.363 263.138 175.325 263.038 175.275C262.725 175.088 262.613 174.7 262.775 174.375C262.825 174.288 267.712 165.375 267.712 156.75C267.712 156.388 268.012 156.088 268.375 156.088C268.737 156.088 269.037 156.388 269.037 156.75C269.037 165.738 264.15 174.638 263.937 175.025C263.812 175.25 263.587 175.363 263.35 175.363Z" fill="#3E4552"/>
<path d="M293.2 66.2753C293.113 66.2753 293.038 66.2628 292.95 66.2253C292.688 66.1253 292.5 65.8628 292.5 65.5753C292.5 65.3128 292.662 65.0753 292.9 64.9628C293.462 64.3003 293.937 63.5753 294.362 62.8128C294.475 62.6128 294.575 62.4003 294.675 62.1878C294.937 61.6628 295.225 61.1128 295.587 60.6128C295.8 60.3128 296.212 60.2503 296.512 60.4628C296.812 60.6753 296.875 61.0878 296.662 61.3878C296.362 61.8128 296.112 62.2878 295.862 62.8003C295.75 63.0128 295.65 63.2503 295.537 63.4628C295.037 64.3878 294.45 65.2503 293.75 66.0503C293.6 66.1878 293.4 66.2753 293.2 66.2753Z" fill="#3E4552"/>
<path d="M298.3 64.4377C298.063 64.4377 297.85 64.4252 297.625 64.3752C297.075 64.2752 296.613 63.9127 296.388 63.4002C296.238 63.0752 296.388 62.6752 296.713 62.5252C297.038 62.3752 297.438 62.5252 297.588 62.8502C297.638 62.9627 297.75 63.0502 297.875 63.0627C298.125 63.1127 298.388 63.1127 298.65 63.0752C299.013 63.0252 299.35 63.2752 299.4 63.6377C299.45 64.0002 299.2 64.3377 298.838 64.3877C298.638 64.4127 298.463 64.4377 298.3 64.4377Z" fill="#3E4552"/>
<path d="M292.05 62.1504C291.175 62.1504 290.35 61.6379 289.963 60.7879C289.813 60.4629 289.963 60.0629 290.288 59.9129C290.613 59.7629 291.013 59.9129 291.163 60.2379C291.363 60.6879 291.863 60.9004 292.325 60.7629C292.675 60.6629 293.038 60.8629 293.15 61.2129C293.25 61.5629 293.063 61.9254 292.7 62.0379C292.488 62.1129 292.275 62.1504 292.05 62.1504Z" fill="#3E4552"/>
<path d="M293.2 68.4378C293.063 68.4378 292.938 68.4003 292.825 68.3253C292.275 67.9503 291.588 67.8003 290.925 67.9128C290.563 67.9753 290.213 67.7503 290.15 67.3878C290.088 67.0253 290.313 66.6753 290.675 66.6128C291.688 66.4253 292.75 66.6628 293.575 67.2378C293.875 67.4503 293.95 67.8628 293.738 68.1628C293.613 68.3378 293.413 68.4378 293.2 68.4378Z" fill="#3E4552"/>
<path d="M282.637 61.2629C282.587 61.2629 282.537 61.2629 282.5 61.2504C282.137 61.1629 281.925 60.8254 281.987 60.4504C282.05 60.1004 282.025 59.7504 281.85 59.4379C281.65 59.0379 281.4 58.6629 281.125 58.3254L281.112 58.3129L280.462 57.4504C280.25 57.1504 280.3 56.7379 280.6 56.5254C280.9 56.3129 281.312 56.3629 281.525 56.6629L282.175 57.5129C282.525 57.9254 282.8 58.3879 283.05 58.8754C283.337 59.4504 283.412 60.1129 283.287 60.7504C283.212 61.0379 282.95 61.2629 282.637 61.2629Z" fill="#3E4552"/>
<path d="M207.313 120.413C202.813 120.413 199.138 116.738 199.138 112.238C199.138 107.738 202.813 104.062 207.313 104.062C211.813 104.062 215.488 107.738 215.488 112.238C215.488 116.738 211.825 120.413 207.313 120.413ZM207.313 105.388C203.538 105.388 200.463 108.463 200.463 112.238C200.463 116.013 203.538 119.088 207.313 119.088C211.088 119.088 214.163 116.013 214.163 112.238C214.163 108.463 211.088 105.388 207.313 105.388Z" fill="white"/>
<path d="M68.8752 266.288C68.8127 266.288 68.7377 266.275 68.6752 266.25C68.3252 266.15 68.1252 265.775 68.2252 265.425C73.4377 248.163 76.1252 205.425 76.1377 205C76.1502 204.638 76.4627 204.35 76.8377 204.388C77.2002 204.4 77.4877 204.713 77.4502 205.088C77.4127 205.513 74.7377 248.4 69.4752 265.813C69.4127 266.1 69.1502 266.288 68.8752 266.288Z" fill="#3E4552"/>
<path d="M72.5127 250.725C72.2627 250.725 72.0377 250.588 71.9127 250.363C71.7502 250.038 71.8752 249.638 72.2127 249.463C72.3252 249.4 84.6127 243.2 87.1377 237.863C87.2877 237.538 87.6877 237.388 88.0127 237.55C88.3377 237.7 88.4877 238.1 88.3252 238.425C85.6127 244.2 73.3127 250.388 72.8002 250.663C72.7127 250.713 72.6127 250.725 72.5127 250.725Z" fill="#3E4552"/>
<path d="M74.9877 226.563C74.8877 226.563 74.8002 226.55 74.7002 226.5C70.6002 224.613 64.4002 214.263 64.1377 213.825C63.9502 213.513 64.0502 213.1 64.3752 212.913C64.6877 212.725 65.1002 212.825 65.2877 213.15C65.3502 213.25 71.5127 223.6 75.2502 225.3C75.5752 225.45 75.7252 225.85 75.5752 226.175C75.4877 226.413 75.2377 226.563 74.9877 226.563Z" fill="#3E4552"/>
<path d="M39.3126 266.1C39.1126 266.1 38.9376 266.013 38.8001 265.85C32.5376 257.975 32.4751 245.375 32.4751 244.85C32.4751 244.488 32.7751 244.188 33.1376 244.188C33.5001 244.188 33.8001 244.488 33.8001 244.85C33.8001 244.988 33.8876 257.513 39.8376 265.025C40.0751 265.313 40.0251 265.725 39.7251 265.95C39.6001 266.05 39.4501 266.1 39.3126 266.1Z" fill="#3E4552"/>
<path d="M125.275 265.325C125.175 265.325 125.075 265.313 124.975 265.263C124.65 265.1 124.513 264.7 124.675 264.363C124.738 264.225 131.175 251.3 131.275 247.625C131.288 247.262 131.588 246.962 131.95 246.975C132.313 246.987 132.6 247.287 132.6 247.65C132.488 251.625 126.113 264.4 125.85 264.95C125.763 265.188 125.525 265.325 125.275 265.325Z" fill="#3E4552"/>
<path d="M131.55 257.4C131.288 257.4 131.038 257.25 130.938 256.988C130.8 256.663 130.95 256.263 131.3 256.125C131.338 256.113 134.013 254.963 134.463 252.95C134.55 252.588 134.888 252.375 135.263 252.438C135.625 252.525 135.838 252.863 135.775 253.238C135.175 255.95 131.963 257.313 131.838 257.363C131.713 257.375 131.638 257.4 131.55 257.4Z" fill="#3E4552"/>
<path d="M313.575 158.875C312.388 158.875 311.225 158.725 310.1 158.413C309.75 158.313 309.538 157.95 309.638 157.6C309.738 157.25 310.1 157.038 310.45 157.138C311.788 157.5 313.213 157.613 314.65 157.5C315.013 157.463 315.325 157.738 315.363 158.113C315.4 158.475 315.113 158.788 314.75 158.825C314.363 158.863 313.975 158.875 313.575 158.875ZM319.038 157.788C318.775 157.788 318.525 157.638 318.425 157.375C318.288 157.05 318.463 156.65 318.788 156.513C320.113 155.988 321.35 155.275 322.5 154.4C322.8 154.188 323.213 154.238 323.425 154.513C323.638 154.813 323.588 155.225 323.313 155.438C322.075 156.375 320.713 157.163 319.288 157.738C319.2 157.775 319.113 157.788 319.038 157.788ZM326.05 152.425C325.9 152.425 325.763 152.375 325.65 152.288C325.35 152.075 325.3 151.638 325.538 151.363C326.4 150.25 327.138 149.013 327.75 147.675C327.9 147.35 328.3 147.2 328.625 147.35C328.95 147.5 329.1 147.9 328.95 148.225C328.288 149.65 327.488 150.988 326.588 152.175C326.45 152.338 326.25 152.425 326.05 152.425ZM327.488 145.188C326.563 145.188 325.688 145.038 324.85 144.738C324.5 144.625 324.325 144.238 324.45 143.888C324.563 143.538 324.95 143.363 325.3 143.488C326.463 143.9 327.788 143.963 329.138 143.675C329.138 143.638 329.15 143.588 329.15 143.563C329.5 142.188 329.725 140.738 329.863 139.263C329.9 138.9 330.213 138.638 330.575 138.65C330.938 138.688 331.2 139 331.188 139.363C331.05 140.9 330.813 142.425 330.438 143.875C330.388 144.063 330.275 144.188 330.138 144.288C330.138 144.588 329.925 144.85 329.625 144.913C328.913 145.113 328.2 145.188 327.488 145.188ZM333.5 143.063C333.3 143.063 333.1 142.963 332.975 142.8C332.763 142.5 332.813 142.088 333.113 141.875C334.038 141.175 334.863 140.325 335.463 139.413C335.613 139.2 335.75 138.988 335.875 138.75C336.063 138.438 336.475 138.338 336.788 138.513C337.1 138.7 337.2 139.113 337.025 139.425C336.875 139.675 336.725 139.925 336.563 140.15C335.863 141.188 334.963 142.138 333.9 142.925C333.788 143.013 333.638 143.063 333.5 143.063ZM321.738 141.975C321.5 141.975 321.275 141.838 321.163 141.625C320.763 140.863 320.55 140.038 320.55 139.263C320.55 138.975 320.588 138.713 320.638 138.45C320.75 137.85 320.988 137.275 321.35 136.725C321.55 136.425 321.963 136.325 322.263 136.525C322.563 136.725 322.663 137.138 322.463 137.438C322.2 137.838 322.038 138.25 321.95 138.675C321.913 138.863 321.9 139.05 321.9 139.238C321.9 139.813 322.063 140.413 322.363 140.988C322.525 141.313 322.413 141.713 322.075 141.888C321.95 141.963 321.85 141.975 321.738 141.975ZM329.688 135.788C329.538 135.788 329.375 135.738 329.263 135.625C328.763 135.2 328 134.95 327.113 134.95C326.638 134.95 326.1 135.013 325.625 135.163C325.275 135.263 324.913 135.063 324.813 134.7C324.713 134.35 324.913 133.988 325.275 133.888C325.888 133.725 326.513 133.625 327.125 133.625C328.338 133.625 329.413 133.988 330.138 134.638C330.425 134.888 330.438 135.3 330.2 135.563C330.063 135.713 329.875 135.788 329.688 135.788ZM338.15 135.625C338.088 135.625 338.038 135.625 337.963 135.613C337.613 135.513 337.4 135.15 337.5 134.8C337.85 133.538 338.113 132.138 338.3 130.513C338.35 130.15 338.663 129.888 339.025 129.938C339.388 129.988 339.65 130.3 339.6 130.663C339.4 132.363 339.138 133.825 338.775 135.15C338.7 135.425 338.438 135.625 338.15 135.625ZM339.313 126.775C339.3 126.775 339.3 126.775 339.275 126.775C338.913 126.763 338.625 126.45 338.65 126.075L338.663 125.713L338.875 121.613C338.888 121.25 339.2 120.963 339.575 120.988C339.938 121 340.225 121.313 340.2 121.688L339.963 126.163C339.938 126.5 339.663 126.775 339.313 126.775ZM339.775 117.85C339.763 117.85 339.763 117.85 339.738 117.85C339.375 117.838 339.088 117.525 339.113 117.15L339.263 114.238C339.275 113.875 339.588 113.588 339.963 113.613C340.325 113.625 340.613 113.938 340.588 114.313L340.438 117.225C340.425 117.563 340.125 117.85 339.775 117.85Z" fill="#3E4552"/>
<path d="M33.4127 170.963C27.4377 170.963 21.4752 170.213 15.6252 168.45C15.2752 168.35 15.0752 167.975 15.1752 167.625C15.2752 167.275 15.6502 167.075 16.0002 167.175C36.6752 173.413 59.0127 166.65 78.1502 159.213C87.8127 155.45 98.4127 150.875 106.175 143.275C104.388 141.525 102.975 139.513 102.075 137.338C100.388 133.338 100.638 129.05 102.738 126.15C104.013 124.4 106.125 123.2 108.4 123C110.338 122.813 112.088 123.4 113.363 124.588C116.838 127.9 115.238 133.513 112.788 137.3C111.45 139.388 109.888 141.338 108.1 143.213C109.7 144.588 111.588 145.775 113.713 146.725C117.613 148.475 122.125 149.425 128.3 149.788C138.363 150.4 146.7 149.213 153.788 146.15C156.85 144.825 160 143.025 163.675 140.45C173.075 133.9 181.275 125.863 188.013 116.588C188.225 116.288 188.638 116.225 188.938 116.438C189.238 116.65 189.3 117.063 189.088 117.363C182.25 126.75 173.963 134.875 164.425 141.538C160.663 144.15 157.463 146.013 154.313 147.363C147.025 150.513 138.488 151.738 128.213 151.1C124.275 150.863 118.45 150.275 113.188 147.925C110.925 146.913 108.9 145.638 107.175 144.15C104.513 146.75 101.363 149.163 97.7127 151.413C91.4877 155.238 84.5877 158.113 78.6627 160.413C64.6752 165.888 48.9877 170.963 33.4127 170.963ZM109.088 124.3C108.9 124.3 108.713 124.313 108.525 124.338C106.65 124.5 104.85 125.513 103.813 126.938C101.625 129.95 102.113 134.025 103.3 136.838C104.163 138.863 105.45 140.713 107.125 142.35C108.8 140.6 110.338 138.688 111.675 136.625C114.013 132.988 115.163 128.163 112.45 125.588C111.588 124.75 110.413 124.3 109.088 124.3Z" fill="#3E4552"/>
<path d="M62.6626 137.4C62.3126 137.4 62.0376 137.138 62.0001 136.788C61.9501 136.138 61.9001 135.5 61.8876 134.838C61.8876 134.775 61.8876 134.688 61.9001 134.625L61.8876 134.213C61.8751 133.85 62.1501 133.538 62.5126 133.513C62.8751 133.5 63.1876 133.775 63.2126 134.138L63.3251 136.688C63.3376 137.05 63.0626 137.35 62.7126 137.388C62.7001 137.4 62.6751 137.4 62.6626 137.4ZM62.5251 131.013C62.5126 131.013 62.5126 131.013 62.4876 131.013C62.1251 131 61.8376 130.7 61.8626 130.313C61.9126 128.838 62.0501 127.313 62.2126 125.813C62.2626 125.45 62.5751 125.188 62.9376 125.238C63.3001 125.288 63.5626 125.6 63.5126 125.963C63.3501 127.438 63.2251 128.925 63.1626 130.363C63.1751 130.725 62.8876 131.013 62.5251 131.013ZM63.5376 122.138C63.5001 122.138 63.4501 122.138 63.4251 122.125C63.0626 122.063 62.8251 121.713 62.9001 121.35C63.1626 119.913 63.5001 118.425 63.8626 116.95C63.9501 116.6 64.3126 116.388 64.6626 116.475C65.0126 116.563 65.2251 116.925 65.1376 117.275C64.7751 118.738 64.4626 120.188 64.2001 121.6C64.1376 121.925 63.8501 122.138 63.5376 122.138ZM65.6876 113.475C65.6251 113.475 65.5501 113.463 65.4876 113.438C65.1376 113.338 64.9376 112.963 65.0626 112.613C65.4876 111.225 65.9751 109.788 66.4876 108.338C66.6001 107.988 66.9876 107.813 67.3376 107.938C67.6876 108.05 67.8626 108.438 67.7376 108.788C67.2251 110.213 66.7626 111.613 66.3251 112.988C66.2376 113.3 65.9751 113.475 65.6876 113.475ZM68.7001 105.05C68.6126 105.05 68.5376 105.038 68.4501 105C68.1251 104.863 67.9501 104.475 68.0876 104.138C68.6376 102.8 69.2251 101.413 69.8626 100C70.0126 99.6752 70.4126 99.5252 70.7376 99.6752C71.0626 99.8252 71.2126 100.225 71.0626 100.55C70.4501 101.938 69.8501 103.313 69.3126 104.638C69.2126 104.9 68.9626 105.05 68.7001 105.05ZM72.3501 96.8877C72.2501 96.8877 72.1501 96.8752 72.0626 96.8252C71.7376 96.6627 71.6001 96.2627 71.7501 95.9502C72.4501 94.4877 73.1126 93.1877 73.7751 91.9252C73.9376 91.6002 74.3376 91.4752 74.6751 91.6377C75.0126 91.8002 75.1251 92.2002 74.9626 92.5377C74.3126 93.7752 73.6501 95.0752 72.9751 96.5127C72.8376 96.7627 72.5876 96.8877 72.3501 96.8877ZM76.5126 89.0002C76.4001 89.0002 76.2751 88.9627 76.1876 88.9127C75.8751 88.7252 75.7626 88.3127 75.9501 88.0002C76.7251 86.6627 77.5376 85.3627 78.3376 84.1752C78.5376 83.8752 78.9501 83.8002 79.2501 83.9877C79.5501 84.1877 79.6251 84.6002 79.4376 84.9002C78.6626 86.0752 77.8626 87.3502 77.1001 88.6627C76.9626 88.8627 76.7501 89.0002 76.5126 89.0002ZM81.4876 81.5627C81.3376 81.5627 81.2001 81.5127 81.0751 81.4252C80.7876 81.1877 80.7251 80.7752 80.9626 80.5002C81.8126 79.4127 82.6876 78.3627 83.5626 77.4002C83.6626 77.2877 83.7751 77.1627 83.8751 77.0502C84.1251 76.7877 84.5376 76.7627 84.8126 77.0127C85.0751 77.2627 85.1001 77.6752 84.8501 77.9502C84.7501 78.0627 84.6376 78.1877 84.5376 78.3002C83.6751 79.2377 82.8126 80.2752 82.0001 81.3252C81.8751 81.4877 81.6751 81.5627 81.4876 81.5627ZM87.5751 75.0501C87.3876 75.0501 87.2126 74.9627 87.0751 74.8127C86.8251 74.5252 86.8626 74.1127 87.1376 73.8877C88.3001 72.8752 89.4876 71.9377 90.7126 71.0877C91.0126 70.8752 91.4251 70.9501 91.6376 71.2501C91.8501 71.5501 91.7751 71.9626 91.4751 72.1751C90.3001 73.0001 89.1376 73.9127 88.0126 74.8877C87.8876 75.0002 87.7251 75.0501 87.5751 75.0501ZM94.9001 69.9627C94.6626 69.9627 94.4376 69.8251 94.3251 69.6126C94.1626 69.2876 94.2751 68.8877 94.6126 68.7127C95.9876 68.0002 97.3876 67.3751 98.7876 66.8751C99.1376 66.7626 99.5126 66.9252 99.6376 67.2752C99.7626 67.6252 99.5876 68.0001 99.2376 68.1251C97.9001 68.6001 96.5376 69.2001 95.2376 69.8751C95.1001 69.9501 95.0001 69.9627 94.9001 69.9627Z" fill="#3E4552"/>
<path d="M190.212 98.4375C190.125 98.4375 190.025 98.425 189.95 98.3875L176.4 92.4C176.075 92.25 175.925 91.85 176.075 91.525C176.225 91.2 176.625 91.05 176.95 91.2L190.5 97.1875C190.825 97.3375 190.975 97.7375 190.825 98.0625C190.712 98.2875 190.462 98.4375 190.212 98.4375Z" fill="#3E4552"/>
<path d="M197.825 94.6129C197.588 94.6129 197.363 94.4754 197.25 94.2629L193.3 86.7629C193.138 86.4379 193.25 86.0379 193.588 85.8629C193.913 85.7004 194.313 85.8129 194.488 86.1504L198.438 93.6504C198.6 93.9754 198.488 94.3754 198.15 94.5504C198.038 94.5879 197.925 94.6129 197.825 94.6129Z" fill="#3E4552"/>
<path d="M208.238 93.3128C207.875 93.3128 207.575 93.0128 207.575 92.6503V87.0253C207.575 86.6628 207.875 86.3628 208.238 86.3628C208.6 86.3628 208.9 86.6628 208.9 87.0253V92.6503C208.9 93.0253 208.6 93.3128 208.238 93.3128Z" fill="#3E4552"/>
<path d="M141.862 216.15C141.512 216.15 141.212 215.863 141.2 215.525C141.187 215.163 141.462 214.85 141.825 214.825L159.237 214.063C159.6 214.05 159.912 214.325 159.937 214.688C159.95 215.05 159.675 215.363 159.312 215.388L141.9 216.15C141.9 216.15 141.875 216.15 141.862 216.15Z" fill="#3E4552"/>
<path d="M158.313 204.613C158.275 204.613 158.225 204.613 158.2 204.6L145.675 202.25C145.313 202.188 145.075 201.838 145.15 201.475C145.213 201.113 145.563 200.875 145.925 200.95L158.45 203.3C158.813 203.363 159.05 203.713 158.975 204.075C158.913 204.4 158.625 204.613 158.313 204.613Z" fill="#3E4552"/>
<path d="M161.775 195.988C161.538 195.988 161.313 195.875 161.2 195.663L156.875 187.988C156.688 187.675 156.813 187.263 157.125 187.088C157.438 186.9 157.85 187.025 158.025 187.338L162.35 195.013C162.538 195.325 162.413 195.738 162.1 195.913C161.988 195.963 161.875 195.988 161.775 195.988Z" fill="#3E4552"/>
</svg>
