<svg width="375" height="300" viewBox="0 0 375 300" fill="none" xmlns="http://www.w3.org/2000/svg">
<path fill-rule="evenodd" clip-rule="evenodd" d="M262.179 181.217C262.093 181.217 262.024 181.286 262.024 181.371C262.024 181.456 262.093 181.525 262.179 181.525C262.265 181.525 262.334 181.456 262.334 181.371C262.334 181.286 262.265 181.217 262.179 181.217ZM261.068 181.371C261.068 180.762 261.566 180.269 262.179 180.269C262.793 180.269 263.29 180.762 263.29 181.371C263.29 181.98 262.793 182.473 262.179 182.473C261.566 182.473 261.068 181.98 261.068 181.371Z" fill="#3E4552"/>
<path fill-rule="evenodd" clip-rule="evenodd" d="M175.2 0.948284C175.114 0.948284 175.045 1.01727 175.045 1.10238C175.045 1.18749 175.114 1.25648 175.2 1.25648C175.286 1.25648 175.355 1.18748 175.355 1.10238C175.355 1.01728 175.286 0.948284 175.2 0.948284ZM174.089 1.10238C174.089 0.493561 174.586 0 175.2 0C175.813 0 176.311 0.493546 176.311 1.10238C176.311 1.71121 175.813 2.20476 175.2 2.20476C174.586 2.20476 174.089 1.7112 174.089 1.10238Z" fill="#3E4552"/>
<path fill-rule="evenodd" clip-rule="evenodd" d="M46.2579 115.477C46.1722 115.477 46.1027 115.546 46.1027 115.631C46.1027 115.716 46.1722 115.785 46.2579 115.785C46.3437 115.785 46.4132 115.716 46.4132 115.631C46.4132 115.546 46.3437 115.477 46.2579 115.477ZM45.1471 115.631C45.1471 115.022 45.6444 114.529 46.2579 114.529C46.8715 114.529 47.3688 115.022 47.3688 115.631C47.3688 116.24 46.8714 116.734 46.2579 116.734C45.6444 116.734 45.1471 116.24 45.1471 115.631Z" fill="#3E4552"/>
<path fill-rule="evenodd" clip-rule="evenodd" d="M285.902 57.2525C285.816 57.2525 285.746 57.3215 285.746 57.4066C285.746 57.4917 285.816 57.5607 285.902 57.5607C285.988 57.5607 286.057 57.4917 286.057 57.4066C286.057 57.3215 285.988 57.2525 285.902 57.2525ZM284.791 57.4066C284.791 56.7977 285.288 56.3042 285.902 56.3042C286.515 56.3042 287.013 56.7977 287.013 57.4066C287.013 58.0154 286.515 58.509 285.902 58.509C285.288 58.509 284.791 58.0154 284.791 57.4066Z" fill="#3E4552"/>
<path fill-rule="evenodd" clip-rule="evenodd" d="M326.593 193.242C326.748 193.03 327.047 192.984 327.261 193.138L330.772 195.674C330.986 195.828 331.033 196.125 330.877 196.337C330.722 196.548 330.423 196.595 330.21 196.441L326.698 193.904C326.485 193.75 326.438 193.454 326.593 193.242Z" fill="#3E4552"/>
<path fill-rule="evenodd" clip-rule="evenodd" d="M48.4291 211.753C48.5801 211.968 48.5272 212.263 48.3108 212.413L44.7513 214.879C44.5349 215.029 44.2371 214.976 44.086 214.761C43.935 214.547 43.988 214.251 44.2044 214.101L47.7639 211.636C47.9802 211.486 48.2781 211.538 48.4291 211.753Z" fill="#3E4552"/>
<path fill-rule="evenodd" clip-rule="evenodd" d="M221.32 8.05261C221.417 8.29628 221.296 8.57155 221.05 8.66743L217.013 10.244C216.768 10.3398 216.49 10.22 216.394 9.97636C216.297 9.73268 216.418 9.45742 216.663 9.36153L220.7 7.78501C220.946 7.68912 221.223 7.80893 221.32 8.05261Z" fill="#3E4552"/>
<path fill-rule="evenodd" clip-rule="evenodd" d="M302.099 186.377C302.541 187.685 302.798 189.147 302.863 190.511L302.863 190.52L302.863 190.528C302.906 194.071 302.202 199.487 299.93 204.247C298.534 207.172 296.534 209.869 293.738 211.72C294.176 213.052 294.622 214.243 295.036 215.236C297.244 220.009 302.981 226.892 311.933 227.851C312.195 227.879 312.385 228.113 312.357 228.374C312.328 228.634 312.093 228.822 311.83 228.794C302.417 227.786 296.449 220.571 294.164 215.624L294.16 215.616L294.156 215.608C293.755 214.647 293.326 213.506 292.903 212.234C291.327 213.132 289.519 213.771 287.45 214.058C286.036 214.255 284.765 214.196 283.633 213.906C283.377 213.84 283.224 213.581 283.29 213.328C283.356 213.074 283.616 212.922 283.872 212.987C284.865 213.242 286.007 213.302 287.317 213.119L287.317 213.119C289.329 212.84 291.081 212.206 292.603 211.309C291.678 208.37 290.818 204.847 290.386 201.263C289.715 195.692 290.064 189.851 292.943 185.849L292.943 185.848C294.354 183.895 295.672 182.781 296.903 182.373C298.182 181.949 299.294 182.309 300.171 183.108C301.024 183.885 301.66 185.077 302.099 186.377ZM293.437 210.776C292.557 207.938 291.747 204.57 291.335 201.15C290.671 195.635 291.058 190.102 293.721 186.4C295.087 184.507 296.258 183.586 297.206 183.272C298.106 182.974 298.863 183.204 299.524 183.806C300.209 184.43 300.779 185.452 301.193 186.678C301.604 187.893 301.847 189.265 301.908 190.548C301.948 193.986 301.26 199.246 299.066 203.841C297.764 206.57 295.941 209.045 293.437 210.776ZM277.715 186.868C277.974 186.917 278.144 187.166 278.094 187.423C277.543 190.266 277.102 193.938 277.093 197.622C277.084 201.313 277.51 204.977 278.665 207.829C278.764 208.072 278.645 208.348 278.4 208.446C278.155 208.543 277.877 208.426 277.778 208.183C276.557 205.167 276.128 201.363 276.137 197.619C276.147 193.868 276.595 190.137 277.155 187.244C277.205 186.987 277.456 186.818 277.715 186.868ZM278.611 209.907L279.41 209.388L280.604 211.036L279.859 211.627C279.381 211.091 278.97 210.509 278.611 209.907ZM280.713 212.426L281.257 211.65L283.275 212.811L282.867 213.665C282.089 213.374 281.362 212.956 280.713 212.426ZM322.007 226.539L326.761 224.429L327.185 225.278C325.633 226.12 324.021 226.829 322.363 227.418L322.007 226.539ZM321.869 227.088C321.949 227.338 321.81 227.605 321.558 227.684C320.762 227.936 319.995 228.153 319.224 228.323C318.966 228.38 318.711 228.219 318.654 227.963C318.596 227.708 318.759 227.454 319.016 227.398C319.75 227.236 320.488 227.027 321.269 226.78C321.52 226.701 321.789 226.839 321.869 227.088ZM315.89 227.9L318.147 227.592L318.299 228.528C317.506 228.674 316.739 228.77 316.002 228.842L315.89 227.9ZM313.717 227.979L315.007 227.967L315.024 228.915L315 228.916C314.569 228.927 314.133 228.939 313.707 228.927L313.717 227.979Z" fill="#3E4552"/>
<path fill-rule="evenodd" clip-rule="evenodd" d="M72.1125 51.6889C72.3167 52.2932 72.4344 52.9652 72.4631 53.5921L72.4634 53.6001L72.4635 53.6081C72.4821 55.2075 72.1635 57.6476 71.1349 59.7998C70.5308 61.064 69.671 62.2471 68.4792 63.0921C68.6504 63.6014 68.8226 64.0593 68.9839 64.4481C69.9383 66.5071 72.4141 69.4654 76.2406 69.8674C76.503 69.895 76.6932 70.1285 76.6654 70.3889C76.6376 70.6493 76.4024 70.838 76.14 70.8105C71.8492 70.3596 69.1426 67.0667 68.1114 64.835L68.1076 64.8266L68.104 64.8181C67.9561 64.4621 67.7997 64.0515 67.643 63.5984C66.9879 63.9323 66.2496 64.1721 65.4193 64.2879C64.8156 64.3931 64.2132 64.3654 63.6281 64.2202C63.4914 64.1863 63.3833 64.0971 63.322 63.9826L63.2675 64.0982C62.9041 63.9646 62.5405 63.7728 62.2253 63.5027L62.7752 62.7325L63.6711 63.2422L63.6457 63.2961C63.7143 63.2818 63.7872 63.2822 63.8599 63.3002C64.3231 63.4152 64.7926 63.4353 65.261 63.3527L65.2698 63.3511L65.2786 63.3499C66.0547 63.2426 66.7402 63.0101 67.3449 62.6808C66.9571 61.4097 66.6031 59.9161 66.42 58.3965C66.1211 55.9154 66.2628 53.2459 67.5953 51.3944C68.229 50.5109 68.8517 49.9623 69.4748 49.7538C70.1457 49.5293 70.7372 49.7237 71.1858 50.1318C71.6105 50.5181 71.9112 51.0931 72.1125 51.6889ZM68.177 62.1303C67.8364 60.9688 67.5316 59.6349 67.3688 58.2839C67.0765 55.8577 67.2572 53.4956 68.3731 51.9452L68.3736 51.9446C68.9641 51.1213 69.4403 50.7661 69.7801 50.6524C70.0723 50.5546 70.3079 50.6196 70.5401 50.8308C70.7963 51.0638 71.0301 51.4682 71.2065 51.9904C71.3793 52.5016 71.4824 53.0828 71.5081 53.6272C71.5242 55.1217 71.2211 57.4065 70.2715 59.3935C69.7648 60.4539 69.083 61.4141 68.177 62.1303ZM61.1344 51.7374C61.3936 51.7866 61.5634 52.0351 61.5138 52.2922C61.2737 53.536 61.0803 55.145 61.0759 56.7575C61.0715 58.3776 61.2582 59.961 61.7506 61.1772C61.849 61.4202 61.7303 61.6963 61.4855 61.7939C61.2406 61.8915 60.9624 61.7737 60.864 61.5307C60.3053 60.151 60.1158 58.4273 60.1203 56.755C60.1249 55.0752 60.3257 53.4067 60.5753 52.1138C60.6249 51.8566 60.8753 51.6881 61.1344 51.7374ZM61.2343 62.3041L62.0412 61.7997L62.5668 62.5227L61.8232 63.1163C61.6024 62.8714 61.3995 62.6047 61.2343 62.3041ZM80.6184 69.4341L80.5694 69.3137L82.6717 68.3773L83.0987 69.2247C82.4045 69.606 81.6761 69.9242 80.9272 70.1923L80.8639 70.0369C80.8128 70.1667 80.7048 70.2731 80.5603 70.3176C80.2083 70.426 79.8583 70.5256 79.5035 70.6011C79.3293 70.6381 79.157 70.5758 79.0464 70.4527L79.089 70.6833C78.7424 70.7597 78.3846 70.8103 78.028 70.8356L77.9255 69.8934L78.9169 69.7512L78.957 69.9682C79.0129 69.8234 79.1391 69.7087 79.3033 69.6738C79.6174 69.607 79.9362 69.5169 80.2771 69.412C80.3943 69.3758 80.515 69.3868 80.6184 69.4341ZM76.9926 69.9242L77.5659 69.9123L77.6039 70.8597C77.3868 70.8724 77.1958 70.8724 77.0076 70.8724H77.0025L76.9926 69.9242Z" fill="#3E4552"/>
<path d="M175.665 34.9087C177.433 33.8537 178.604 31.8386 178.986 31.0089C178.317 32.289 176.119 34.2804 172.596 32.0283C169.072 29.7761 168.236 24.845 168.248 22.6521C168.929 21.3838 169.836 19.0486 170.207 18.0411C174.578 22.6403 178.986 23.4937 180.646 23.3396C180.646 23.3396 181.518 22.498 182.486 22.498C184.934 22.6521 184.875 25.9355 183.155 26.303C181.781 26.5875 181.1 26.1845 180.885 26.1845L180.276 28.6381L181.709 34.9798L194.383 35.2169C197.225 33.5692 201.729 32.9291 203.58 32.858C205.67 29.6813 208.919 22.984 205.145 21.5734C200.438 19.8073 201.549 18.5152 199.232 15.8008C196.915 13.0744 192.961 15.9786 190.548 17.4721C188.136 18.9657 184.457 18.3374 183.071 15.1725C180.921 9.44725 177.373 8.55824 175.857 8.83087C173.551 9.02053 168.558 11.3912 167.018 19.3687C165.477 27.3461 169.729 33.0477 172.034 34.885L175.665 34.9087Z" fill="#3E4552"/>
<path fill-rule="evenodd" clip-rule="evenodd" d="M170.511 23.9755C169.748 23.0094 168.591 22.8274 167.645 23.0853C167.391 23.1547 167.128 23.0062 167.058 22.7537C166.988 22.5012 167.138 22.2403 167.392 22.1709C168.62 21.8362 170.21 22.0572 171.263 23.3903C172.365 24.7819 172.759 26.7519 172.214 28.5205C172.633 28.269 173.102 27.8959 173.485 27.3659C173.639 27.1531 173.937 27.1042 174.152 27.2568C174.366 27.4094 174.415 27.7056 174.262 27.9184C173.727 28.6592 173.063 29.1438 172.515 29.4429C172.241 29.5928 171.992 29.6983 171.796 29.7674C171.699 29.8019 171.612 29.8283 171.539 29.8467C171.484 29.8608 171.391 29.8825 171.305 29.8825H170.473L170.893 29.1691C171.863 27.5214 171.628 25.3849 170.512 23.9761L170.511 23.9755Z" fill="#3E4552"/>
<path fill-rule="evenodd" clip-rule="evenodd" d="M174.849 21.4196C174.299 21.4786 173.83 21.7455 173.581 21.9642C173.383 22.1377 173.081 22.1194 172.906 21.9232C172.732 21.7271 172.75 21.4274 172.948 21.2539C173.32 20.9273 173.968 20.5602 174.746 20.4768C175.549 20.391 176.461 20.611 177.301 21.4238C177.49 21.6066 177.493 21.9068 177.309 22.0943C177.125 22.2817 176.822 22.2854 176.633 22.1025C176.004 21.4929 175.376 21.3633 174.849 21.4196Z" fill="#3E4552"/>
<path fill-rule="evenodd" clip-rule="evenodd" d="M176.57 28.4396C176.813 28.5431 176.925 28.822 176.821 29.0625C176.277 30.3153 175.018 30.6503 174.447 30.6649C174.183 30.6716 173.964 30.4648 173.957 30.203C173.95 29.9413 174.159 29.7236 174.422 29.7169C174.783 29.7077 175.602 29.4738 175.943 28.6878C176.047 28.4472 176.328 28.3361 176.57 28.4396Z" fill="#3E4552"/>
<path fill-rule="evenodd" clip-rule="evenodd" d="M175.275 23.1439C174.866 23.3654 174.581 23.7905 174.452 24.1254C174.357 24.37 174.081 24.4924 173.835 24.3989C173.588 24.3054 173.465 24.0313 173.559 23.7867C173.741 23.3155 174.148 22.6738 174.817 22.3115C175.527 21.9269 176.442 21.9056 177.492 22.5442C177.717 22.6811 177.787 22.973 177.65 23.1963C177.512 23.4195 177.218 23.4896 176.993 23.3527C176.191 22.8653 175.643 22.9447 175.275 23.1439Z" fill="#3E4552"/>
<path fill-rule="evenodd" clip-rule="evenodd" d="M169.301 24.7788C168.872 24.9635 168.548 25.3623 168.39 25.6823C168.273 25.9173 167.987 26.014 167.75 25.8983C167.513 25.7826 167.416 25.4984 167.532 25.2635C167.756 24.8131 168.221 24.2103 168.921 23.9089C169.664 23.5889 170.578 23.6489 171.567 24.3818C171.779 24.5384 171.822 24.8355 171.665 25.0454C171.507 25.2552 171.207 25.2983 170.996 25.1416C170.241 24.5825 169.686 24.6128 169.301 24.7788Z" fill="#3E4552"/>
<path d="M175.593 24.0742C175.976 24.0742 176.286 23.7664 176.286 23.3867C176.286 23.007 175.976 22.6992 175.593 22.6992C175.211 22.6992 174.9 23.007 174.9 23.3867C174.9 23.7664 175.211 24.0742 175.593 24.0742Z" fill="#3E4552"/>
<path d="M169.599 25.7222C169.981 25.7222 170.291 25.4144 170.291 25.0347C170.291 24.655 169.981 24.3472 169.599 24.3472C169.216 24.3472 168.906 24.655 168.906 25.0347C168.906 25.4144 169.216 25.7222 169.599 25.7222Z" fill="#3E4552"/>
<path d="M185.15 5.02577C181.567 3.16476 179.023 7.75209 178.198 10.265L181.411 12.7898C183.812 12.0668 189.641 7.34907 185.15 5.02577Z" fill="#3E4552"/>
<path d="M186.738 99.0717L194.383 35.1811L181.722 34.9796C181.053 36.9117 176.968 37.7533 175.654 34.8848L167.687 34.7544L178.138 99.0599H186.738V99.0717Z" fill="#F44336"/>
<path fill-rule="evenodd" clip-rule="evenodd" d="M157.438 97.6718C157.451 97.9333 157.249 98.1565 156.986 98.1703C127.87 99.6941 106.163 110.147 98.9774 115.16C94.6211 118.471 86.4313 129.068 88.9063 144.729C90.1525 152.621 94.7439 166.975 99.9978 181.753C105.139 196.214 110.899 211.036 114.729 220.499L128.12 210.203C128.146 210.184 128.173 210.167 128.201 210.153L133.132 206.362C133.202 193.429 134.19 179.645 136.845 167.353L117.772 134.602L159.636 128.134C161.004 126.515 162.326 125.009 163.58 123.614L163.579 123.613C165.255 121.748 166.788 120.108 168.095 118.763L168.79 119.414L164.309 124.227L164.309 124.227L164.304 124.233L160.253 128.88L160.253 128.88C160.252 128.881 160.251 128.882 160.251 128.883C156.061 133.833 151.487 139.688 147.588 145.59C143.685 151.498 140.477 157.426 138.991 162.531C138.575 164.111 138.183 165.738 137.827 167.388L137.567 168.592L137.561 168.583C135.074 180.6 134.144 193.996 134.087 206.598L134.087 206.598C134.004 223.146 135.402 238.283 136.674 247.028H184.528L166.879 175.93L206.525 128.422L205.635 98.3034C205.627 98.0416 205.835 97.8232 206.098 97.8155C206.362 97.8079 206.582 98.0138 206.59 98.2756L207.491 128.752L167.921 176.167L185.747 247.976H135.848L135.788 247.571C134.519 239.016 133.103 224.04 133.128 207.565L128.705 210.965C128.68 210.985 128.653 211.001 128.625 211.015L114.314 222.017L114.078 221.435C110.248 211.995 104.351 196.845 99.0967 182.068C93.8483 167.306 89.2244 152.869 87.9623 144.876C85.422 128.802 93.8242 117.877 98.4045 114.401L98.412 114.395L98.4198 114.39C105.743 109.278 127.628 98.7572 156.935 97.2233C157.199 97.2095 157.424 97.4103 157.438 97.6718ZM137.157 165.994C137.443 164.737 137.749 163.498 138.068 162.286L138.069 162.28L138.071 162.274C139.596 157.032 142.866 151.008 146.789 145.07C150.464 139.507 154.727 133.996 158.707 129.237L119.297 135.326L137.157 165.994ZM189.58 103.43C189.839 103.383 190.088 103.554 190.135 103.812C190.592 106.327 191.809 110.351 193.977 114.2C196.147 118.053 199.24 121.679 203.424 123.482C203.666 123.586 203.777 123.866 203.672 124.106C203.567 124.346 203.285 124.456 203.043 124.352C200.277 123.159 197.983 121.231 196.11 118.994L197.437 129.56C197.47 129.82 197.284 130.057 197.022 130.089C196.76 130.121 196.521 129.937 196.489 129.677L194.961 117.516C194.293 116.59 193.688 115.63 193.143 114.662C190.918 110.712 189.669 106.587 189.195 103.98C189.148 103.723 189.32 103.476 189.58 103.43Z" fill="#3E4552"/>
<path fill-rule="evenodd" clip-rule="evenodd" d="M267.917 117.426L267.024 117.646L267.308 117.732L260.186 120.287L256.678 124.144C256.501 124.339 256.517 124.639 256.713 124.814C256.908 124.989 257.211 124.974 257.387 124.78L260.735 121.098L268.829 118.195L270.475 118.697L262.67 121.573L259.207 125.762C259.04 125.964 259.07 126.263 259.274 126.429C259.478 126.595 259.779 126.565 259.946 126.363L263.245 122.373L271.819 119.213L273.114 120.786L266.015 122.752L261.219 126.705C261.016 126.872 260.988 127.171 261.156 127.373C261.325 127.574 261.626 127.602 261.829 127.435L266.469 123.611L273.969 121.534C273.996 121.534 274.023 121.532 274.051 121.527C275.542 121.273 276.031 121.708 276.152 121.959C276.295 122.252 276.154 122.618 275.888 122.75L267.303 125.396L259.319 131.179L259.789 131.998C261.016 131.476 264.147 130.437 266.897 130.436C267.691 130.442 268.152 130.533 268.399 130.64C268.517 130.691 268.56 130.735 268.572 130.751C268.579 130.759 268.579 130.76 268.579 130.767L268.579 130.768C268.578 130.816 268.537 130.948 268.362 131.156C268.206 131.341 267.992 131.527 267.775 131.684L257.96 137.176L243.576 139.429L239.136 129.217C239.032 128.977 238.751 128.866 238.508 128.97C238.266 129.073 238.155 129.352 238.259 129.593L242.993 140.48L258.279 138.086L268.291 132.484L268.313 132.469C268.579 132.279 268.867 132.034 269.094 131.765C269.307 131.513 269.533 131.163 269.534 130.771C269.535 130.559 269.469 130.35 269.326 130.168C269.189 129.993 268.998 129.865 268.781 129.771C268.356 129.587 267.738 129.494 266.902 129.488L266.901 129.488H266.899C265.369 129.488 263.748 129.785 262.365 130.147L267.738 126.255L276.229 123.638L276.254 123.627C277.026 123.288 277.393 122.332 277.014 121.548C276.658 120.813 275.774 120.415 274.448 120.522C274.431 120.135 274.345 119.697 274.129 119.301C273.956 118.983 273.697 118.688 273.327 118.48C273.05 118.325 272.726 118.226 272.354 118.192C272.232 117.859 271.974 117.528 271.538 117.304C270.971 117.012 270.154 116.926 269.022 117.159C268.385 116.388 267.366 116.018 266.364 116.195C265.061 116.411 260.534 117.389 258.445 118.213L258.379 118.239L249.648 125.15L248.36 123.709C248.185 123.513 247.883 123.495 247.686 123.669C247.488 123.842 247.47 124.142 247.645 124.338L249.535 126.453L258.863 119.069C260.887 118.287 265.256 117.34 266.524 117.13L266.527 117.13L266.529 117.129C267.025 117.041 267.523 117.155 267.917 117.426Z" fill="#3E4552"/>
<path d="M193.666 35.5963C197.715 33.2967 208.262 29.7288 217.997 33.8776C227.732 38.0144 228.449 46.2171 227.6 49.8087C231.1 49.702 238.41 51.7171 239.605 60.6429C239.605 65.1117 237.622 67.6483 236.631 68.3595C239.223 69.296 244.275 72.6149 243.75 78.4587C243.355 81.4814 242.256 83.4372 241.767 84.0418C245.219 85.0256 251.537 88.7358 249.208 95.7057C248.145 98.1356 246.389 100.068 245.625 100.862C247.202 101.052 250.45 102.77 251.119 107.038C251.119 109.337 249.853 111.779 249.22 112.704C250.88 113.853 252.947 116.947 247.978 120.088L248.635 124.036L238.375 129.868L234.648 122.068C231.256 122.127 224.782 120.029 226.048 111.234C226.227 110.238 226.955 109.385 227.302 109.076C223.36 108.507 216.54 105.034 220.756 95.7057C217.77 94.5322 212.753 90.6086 216.635 84.3144C214.772 83.1883 211.296 79.9641 212.156 75.9814C211.834 77.3564 210.771 80.2723 208.847 81.6474C210.317 82.2637 213.267 84.2907 213.267 87.4556C213.267 90.6205 211.678 91.8177 210.878 92.0073C211.869 93.9039 212.383 97.78 206.459 98.1949C200.534 98.6098 190.728 99.0009 186.571 99.1432L193.666 35.5963Z" fill="#F44336"/>
<path fill-rule="evenodd" clip-rule="evenodd" d="M220.215 53.3777C218.675 54.0562 216.816 54.73 214.689 55.2713L220.215 53.3777ZM208.774 56.2947L224.756 50.8184L225.209 51.6379C223.225 53.2009 217.26 56.4479 208.975 57.215L208.774 56.2947ZM206.565 66.9073C206.648 67.156 206.511 67.424 206.261 67.5058C204.325 68.1378 198.91 68.9826 192.389 67.5179C192.132 67.4601 191.97 67.2062 192.029 66.9508C192.087 66.6954 192.343 66.5352 192.6 66.593C198.956 68.0206 204.195 67.1821 205.962 66.6051C206.213 66.5232 206.483 66.6585 206.565 66.9073ZM214.995 72.3501L233.64 68.9126L233.899 69.8213C232.122 70.4992 229.062 71.484 225.628 72.2405C222.199 72.9958 218.363 73.5312 215.047 73.2891L214.995 72.3501ZM191.329 82.6601L191.408 81.7183H206.111L206.221 82.654C201.252 83.8142 194.211 83.1368 191.329 82.6601ZM219.908 87.7807L239.032 84.9358L239.353 85.8083C237.009 87.2437 233.259 88.0121 229.597 88.4054C225.912 88.801 222.23 88.8249 219.958 88.7233L219.908 87.7807ZM227.095 87.6704C227.885 87.6174 228.689 87.549 229.494 87.4626C231.474 87.25 233.427 86.9307 235.143 86.4732L227.095 87.6704ZM191.297 93.3338L191.408 92.3983H204.32L204.493 93.3142C202.44 94.1092 199.798 94.2628 197.371 94.1507C194.934 94.0381 192.655 93.6541 191.297 93.3338ZM228.642 102.007L228.711 101.063H243.653L243.816 101.983C242 102.634 239.066 102.755 236.207 102.665C233.324 102.574 230.43 102.264 228.642 102.007ZM232.971 113.642L245.763 112.575L245.89 113.513C243.294 113.988 237.055 114.876 232.977 114.587L232.971 113.642Z" fill="#3E4552"/>
<path d="M179.035 276.851L187.706 271.268L176.956 251.876L161.153 256.914L163.292 262.852C155.814 271.553 145.112 290.447 140.692 298.804L175.881 279.222L177.506 272.596L179.035 276.851Z" fill="#3E4552"/>
<path fill-rule="evenodd" clip-rule="evenodd" d="M176.26 251.603L174.124 247.742L174.961 247.286L177.186 251.308L177.196 251.305L177.381 251.639C177.384 251.644 177.387 251.65 177.39 251.655L188.35 271.426L178.799 277.576L177.603 274.249L176.307 279.535L139.532 300L140.281 298.584C144.662 290.298 155.253 271.591 162.76 262.754L160.716 257.075C160.715 257.074 160.715 257.073 160.714 257.072L160.713 257.069L160.703 257.073L157.311 247.65L158.21 247.331L161.448 256.325L176.26 251.603ZM161.781 257.215L176.739 252.447L187.085 271.111L179.293 276.127L177.43 270.943L175.477 278.909L141.884 297.603C146.677 288.685 156.625 271.354 163.666 263.16L163.846 262.951L161.781 257.215Z" fill="#3E4552"/>
<path d="M134.002 223.747C126.811 233.265 117.889 249.078 113.947 256.522L135.806 244.349C135.232 239.892 134.36 228.761 134.002 223.747Z" fill="#3E4552"/>
<path fill-rule="evenodd" clip-rule="evenodd" d="M133.148 212.494L131.511 208.001L132.41 207.679L134.046 212.171L133.148 212.494ZM134.389 222.446L134.48 223.714C134.838 228.733 135.697 239.859 136.292 244.286L136.335 244.605L112.775 257.719L113.525 256.302C117.468 248.855 126.406 233.014 133.621 223.463L134.389 222.446ZM115.13 255.321L135.303 244.092C134.754 239.809 134.007 230.356 133.619 225.061C127.031 234.03 119.212 247.732 115.13 255.321Z" fill="#3E4552"/>
<path d="M177.195 180.375L207.116 128.658L167.424 176.132L176.693 213.399L186.058 221.08L177.195 180.375Z" fill="#3E4552"/>
<path fill-rule="evenodd" clip-rule="evenodd" d="M245.785 119.892L247.42 119.655L247.558 120.593L246.392 120.762L246.946 124.645L246 124.778L245.446 120.897L243.588 121.16L244.728 125.748L243.8 125.975L242.637 121.295L240.667 121.579L242.341 126.735C242.422 126.984 242.284 127.251 242.033 127.332C241.782 127.412 241.513 127.275 241.432 127.026L239.704 121.706L237.739 121.989L240.085 127.88L239.197 128.228L236.767 122.128L235.372 122.324L235.238 121.385L237.006 121.136L239.959 120.711C239.997 120.705 240.036 120.703 240.073 120.706L242.929 120.295L242.997 120.764L242.93 120.295L245.783 119.892L245.785 119.892Z" fill="#3E4552"/>
<path fill-rule="evenodd" clip-rule="evenodd" d="M96.7197 99.8553C96.8434 99.5265 97.0995 99.2005 97.529 98.9786C98.0971 98.6852 98.9151 98.5998 100.048 98.8359C100.685 98.055 101.709 97.6792 102.718 97.8577C104.02 98.0735 108.547 99.0511 110.637 99.8758L110.703 99.9019L117.388 105.209C117.594 105.373 117.627 105.671 117.463 105.876C117.298 106.08 116.997 106.113 116.791 105.95L110.218 100.731C108.194 99.9493 103.825 99.0023 102.558 98.7926L102.555 98.7922L102.552 98.7916C102.048 98.7018 101.542 98.821 101.145 99.102L102.026 99.3206L101.778 99.3965L108.895 101.95L112.403 105.807C112.58 106.001 112.565 106.301 112.369 106.477C112.173 106.652 111.871 106.637 111.694 106.442L108.346 102.761L100.26 99.8605L98.5923 100.37L106.4 103.247L109.862 107.436C110.029 107.638 110 107.937 109.796 108.103C109.592 108.269 109.291 108.24 109.123 108.037L105.825 104.047L97.2526 100.888L95.9676 102.449L103.066 104.415L107.863 108.368C108.066 108.535 108.094 108.834 107.925 109.035C107.757 109.237 107.455 109.264 107.252 109.097L102.613 105.274L95.0309 103.174C93.5509 102.928 93.0685 103.361 92.949 103.609C92.8084 103.901 92.9497 104.268 93.2176 104.401L101.812 107.049L105.931 110.281C106.138 110.443 106.173 110.741 106.009 110.947C105.846 111.152 105.545 111.187 105.338 111.025L101.359 107.903L92.8768 105.289L92.8514 105.278C92.0816 104.939 91.7085 103.985 92.0869 103.2C92.4397 102.467 93.3163 102.07 94.6343 102.171C94.6523 101.787 94.7393 101.355 94.9522 100.964C95.1256 100.645 95.3844 100.351 95.7549 100.143C96.0299 99.9884 96.3512 99.89 96.7197 99.8553ZM102.193 111.15H102.195C102.654 111.15 103.113 111.175 103.572 111.224C103.834 111.253 104.024 111.486 103.995 111.747C103.967 112.007 103.731 112.195 103.469 112.167C103.044 112.122 102.62 112.099 102.195 112.099C101.519 112.102 101.079 112.167 100.806 112.255C100.672 112.298 100.593 112.342 100.551 112.375C100.53 112.391 100.519 112.403 100.514 112.409C100.511 112.413 100.509 112.415 100.509 112.417C100.508 112.418 100.507 112.419 100.507 112.419C100.507 112.419 100.507 112.419 100.507 112.419C100.507 112.42 100.507 112.421 100.507 112.422C100.506 112.426 100.506 112.434 100.508 112.447C100.513 112.476 100.527 112.524 100.564 112.591C100.638 112.727 100.774 112.889 100.954 113.055C101.148 113.233 101.16 113.532 100.98 113.725C100.801 113.917 100.499 113.929 100.305 113.751C100.085 113.549 99.8672 113.306 99.7234 113.042C99.5824 112.784 99.4739 112.429 99.6204 112.066C99.767 111.703 100.108 111.483 100.511 111.353C100.918 111.222 101.472 111.154 102.192 111.15L102.193 111.15Z" fill="#3E4552"/>
<path d="M170.804 34.6954C166.743 32.3959 156.208 28.8279 146.473 32.9767C136.738 37.1136 136.021 45.3162 136.87 48.9079C133.37 48.8012 126.06 50.8163 124.865 59.742C124.865 64.2108 126.848 66.7474 127.839 67.4587C125.247 68.3951 120.195 71.7141 120.72 77.5579C121.115 80.5805 122.214 82.5364 122.703 83.1409C121.127 83.3306 117.89 85.3101 117.221 89.5892C117.221 91.8888 118.487 94.3306 119.12 95.2552C117.46 96.405 115.393 99.4988 120.362 102.652L120.064 104.288C124.292 102.865 134.6 99.807 143.559 98.669C143.893 97.4955 143.941 96.5117 143.702 94.8166C146.688 93.6431 151.705 89.7196 147.823 83.4254C149.686 82.2993 153.162 79.0751 152.302 75.0923C152.624 76.4674 153.688 79.3833 155.623 80.7583C154.153 81.3747 151.203 83.4017 151.203 86.5666C151.203 89.7315 152.792 90.9287 153.58 91.1183C152.589 93.0149 151.824 98.669 157.749 99.0839C163.673 99.4988 177.923 98.8943 177.923 98.8943L170.804 34.6954Z" fill="#F44336"/>
<path fill-rule="evenodd" clip-rule="evenodd" d="M139.535 50.8674L139.988 50.0479L155.97 55.5242L155.77 56.4445C147.484 55.6774 141.52 52.4304 139.535 50.8674ZM150.056 54.5008C147.929 53.9594 146.07 53.2857 144.53 52.6072L150.056 54.5008ZM158.496 66.7235L158.645 65.799H172.262L172.367 66.7356C165.835 68.2002 160.431 67.3555 158.496 66.7235ZM130.846 69.0508L131.104 68.1421L149.75 71.5796L149.698 72.5186C146.381 72.7606 142.545 72.2253 139.117 71.47C135.683 70.7135 132.623 69.7287 130.846 69.0508ZM158.536 81.8835L158.645 80.9478H173.349L173.427 81.8896C170.546 82.3663 163.505 83.0437 158.536 81.8835ZM125.403 85.0259L125.725 84.1535L144.848 86.9983L144.799 87.9409C142.527 88.0426 138.844 88.0186 135.16 87.623C131.497 87.2298 127.747 86.4613 125.403 85.0259ZM129.614 85.6909C131.329 86.1483 133.283 86.4676 135.263 86.6802C136.067 86.7666 136.872 86.835 137.661 86.8881L129.614 85.6909ZM160.263 92.5437L160.437 91.6278H173.349L173.459 92.5634C172.095 92.8836 169.817 93.2675 167.381 93.3802C164.955 93.4923 162.316 93.3387 160.263 92.5437ZM122.335 96.1266C122.398 95.8722 122.656 95.7162 122.912 95.7782C124.095 96.0643 126.085 96.4546 128.19 96.6863C130.306 96.9191 132.489 96.9856 134.084 96.6521C134.342 96.5981 134.596 96.762 134.65 97.0183C134.704 97.2745 134.539 97.526 134.281 97.58C132.531 97.9459 130.223 97.8641 128.084 97.6288C125.934 97.3922 123.904 96.9942 122.686 96.6995C122.43 96.6375 122.273 96.381 122.335 96.1266Z" fill="#3E4552"/>
<path fill-rule="evenodd" clip-rule="evenodd" d="M122.224 103.527L121.058 103.358L121.196 102.419L122.726 102.641C122.76 102.638 122.796 102.639 122.832 102.645L123.74 102.775C124.001 102.812 124.182 103.053 124.144 103.312C124.106 103.571 123.864 103.751 123.603 103.713L123.171 103.651L123.153 103.783L122.206 103.654L122.224 103.527Z" fill="#3E4552"/>
<path fill-rule="evenodd" clip-rule="evenodd" d="M56.4974 103.312L92.6683 103.742L92.6569 104.69L60.509 104.309L95.6226 117.13L95.2926 118.02L59.8284 105.07L88.997 131.759L88.3492 132.456L56.4974 103.312ZM115.674 104.015L120.201 104.074L120.189 105.022L115.662 104.963L115.674 104.015ZM221.145 106.243L206.489 106.065L206.5 105.117L221.156 105.295L221.145 106.243ZM250.743 105.651L307.662 106.327L244.998 172.189L241.974 273.009L175.975 212.634L176.622 211.936L241.082 270.903L244.038 172.322L188.496 152.052L188.826 151.162L244.395 171.442L305.471 107.25L250.732 106.599L250.743 105.651Z" fill="#3E4552"/>
<path fill-rule="evenodd" clip-rule="evenodd" d="M136.411 131.999C136.504 131.754 136.78 131.63 137.027 131.723L152.412 137.508C152.658 137.601 152.783 137.874 152.689 138.119C152.596 138.364 152.32 138.487 152.073 138.395L136.688 132.61C136.442 132.517 136.317 132.244 136.411 131.999Z" fill="#3E4552"/>
</svg>
