<svg width="375" height="300" viewBox="0 0 375 300" fill="none" xmlns="http://www.w3.org/2000/svg">
<path d="M117.719 190.216C120.152 188.6 120.439 184.753 118.36 181.624C116.281 178.495 112.624 177.269 110.191 178.886C107.758 180.502 107.471 184.349 109.55 187.478C111.628 190.607 115.286 191.833 117.719 190.216Z" fill="#F44336"/>
<path d="M170.932 243.406C170.157 243.406 169.395 243.234 168.694 242.865C165.865 241.389 165.065 237.305 166.91 233.763C168.755 230.221 172.568 228.536 175.397 230.012C176.799 230.737 177.746 232.115 178.066 233.861C178.386 235.559 178.066 237.416 177.181 239.126C176.295 240.811 174.954 242.139 173.38 242.865C172.568 243.209 171.719 243.406 170.932 243.406ZM167.476 234.046L168.029 234.329C166.504 237.256 167.058 240.577 169.272 241.721C170.317 242.262 171.572 242.25 172.851 241.672C174.167 241.069 175.299 239.95 176.049 238.511C176.799 237.072 177.07 235.497 176.812 234.083C176.553 232.718 175.852 231.672 174.807 231.131C172.593 229.987 169.567 231.414 168.042 234.341L167.476 234.046Z" fill="#3E4552"/>
<path d="M180.698 71.157C182.605 76.1262 185.101 79.8039 186.295 79.3611L189.456 78.1557C190.649 77.7129 190.058 73.2972 188.152 68.3157C186.245 63.3342 183.748 59.6565 182.555 60.1116L179.394 61.317C178.226 61.7598 178.804 66.1755 180.698 71.157Z" fill="#F44336"/>
<path d="M294.166 190.123C298.557 193.124 302.714 194.735 303.428 193.677L305.334 190.885C306.048 189.84 303.059 186.543 298.68 183.53C294.289 180.516 290.131 178.917 289.418 179.975L287.512 182.767C286.798 183.813 289.787 187.121 294.166 190.123Z" fill="#F44336"/>
<path d="M254.523 92.559C253.612 95.8923 253.526 98.8074 254.314 99.0165L256.441 99.6069C257.241 99.8283 258.631 97.2699 259.541 93.9366C260.451 90.6033 260.537 87.6882 259.75 87.4791L257.622 86.8887C256.81 86.6796 255.433 89.2257 254.523 92.559Z" fill="#F44336"/>
<path d="M359.897 142.669C357.953 139.791 355.825 137.835 355.149 138.303L353.316 139.545C352.627 140 353.648 142.718 355.592 145.597C357.535 148.475 359.663 150.431 360.34 149.963L362.172 148.721C362.837 148.266 361.816 145.547 359.897 142.669Z" fill="#F44336"/>
<path d="M79.912 204.92C78.0178 204.92 76.4803 203.382 76.4803 201.488C76.4803 199.594 78.0178 198.056 79.912 198.056C81.8062 198.056 83.3437 199.594 83.3437 201.488C83.3437 203.37 81.7939 204.92 79.912 204.92ZM79.912 199.323C78.7189 199.323 77.7472 200.295 77.7472 201.488C77.7472 202.681 78.7189 203.653 79.912 203.653C81.1051 203.653 82.0768 202.681 82.0768 201.488C82.0645 200.295 81.1051 199.323 79.912 199.323Z" fill="#3E4552"/>
<path d="M314.99 162.94C314.756 162.94 314.51 162.792 314.399 162.558L311.226 155.326C311.078 155.006 311.226 154.625 311.558 154.49C311.878 154.342 312.259 154.49 312.394 154.822L315.568 162.054C315.715 162.374 315.568 162.755 315.236 162.89C315.162 162.915 315.064 162.94 314.99 162.94Z" fill="#3E4552"/>
<path d="M309.885 160.947C309.652 160.947 309.406 160.799 309.295 160.566C309.147 160.246 309.295 159.865 309.627 159.729L316.712 156.617C317.032 156.47 317.413 156.617 317.548 156.949C317.696 157.269 317.548 157.651 317.216 157.786L310.131 160.898C310.058 160.935 309.972 160.947 309.885 160.947Z" fill="#3E4552"/>
<path d="M114.069 214.083C113.737 214.083 113.454 213.812 113.43 213.468L113.147 205.362C113.134 205.018 113.405 204.71 113.762 204.71C114.106 204.698 114.414 204.969 114.414 205.325L114.696 213.431C114.709 213.775 114.438 214.083 114.081 214.083C114.094 214.083 114.094 214.083 114.069 214.083Z" fill="#3E4552"/>
<path d="M109.961 210.258C109.629 210.258 109.346 209.987 109.321 209.643C109.309 209.298 109.58 208.991 109.936 208.991L117.882 208.708C118.227 208.696 118.534 208.966 118.534 209.323C118.546 209.667 118.276 209.975 117.919 209.975L109.973 210.258C109.973 210.258 109.973 210.258 109.961 210.258Z" fill="#3E4552"/>
<path d="M325.789 113.358C325.617 113.358 325.42 113.285 325.297 113.137C325.076 112.866 325.1 112.473 325.371 112.251L351.902 90.2097C352.172 89.9883 352.566 90.0129 352.787 90.2835C353.009 90.5541 352.984 90.9477 352.714 91.1691L326.183 113.211C326.084 113.297 325.937 113.358 325.789 113.358Z" fill="#3E4552"/>
<path d="M238.004 88.992C237.684 88.992 237.414 88.7583 237.365 88.4385L233.453 54.1584C233.416 53.814 233.662 53.4942 234.007 53.4573C234.351 53.4081 234.671 53.6664 234.708 54.0108L238.619 88.2909C238.656 88.6353 238.41 88.9551 238.066 88.992C238.053 88.9797 238.016 88.992 238.004 88.992Z" fill="#3E4552"/>
<path d="M177.635 102.325C177.525 102.325 177.414 102.288 177.316 102.251L166.492 95.9292C166.184 95.757 166.098 95.3511 166.27 95.0559C166.442 94.7484 166.848 94.6377 167.143 94.8345L177.967 101.157C178.275 101.329 178.361 101.735 178.189 102.03C178.066 102.215 177.857 102.325 177.635 102.325Z" fill="#3E4552"/>
<path d="M290.697 89.0658C290.684 89.0658 290.648 89.0658 290.635 89.0658C290.291 89.0289 290.033 88.7214 290.082 88.3647L291.509 75.093C291.545 74.7486 291.853 74.4903 292.21 74.5395C292.554 74.5764 292.812 74.8839 292.763 75.2406L291.324 88.5C291.299 88.8198 291.029 89.0658 290.697 89.0658Z" fill="#3E4552"/>
<path d="M306.614 97.233C306.466 97.233 306.331 97.1838 306.22 97.0854C305.95 96.864 305.9 96.4704 306.122 96.1998L311.423 89.6685C311.645 89.3979 312.038 89.3487 312.309 89.5701C312.579 89.7915 312.629 90.1851 312.407 90.4557L307.106 96.987C306.983 97.1469 306.811 97.233 306.614 97.233Z" fill="#3E4552"/>
<path d="M330.5 134.982C330.229 134.982 329.971 134.81 329.897 134.527C329.799 134.195 329.996 133.838 330.328 133.727L335.223 132.3C335.555 132.202 335.912 132.399 336.023 132.731C336.133 133.063 335.924 133.42 335.592 133.53L330.697 134.957C330.611 134.969 330.549 134.982 330.5 134.982Z" fill="#3E4552"/>
<path d="M82.3843 209.84C82.1137 209.84 81.8554 209.667 81.7816 209.384C81.6832 209.052 81.88 208.696 82.2121 208.585L87.2551 207.121C87.5872 207.023 87.9439 207.22 88.0546 207.552C88.153 207.884 87.9562 208.241 87.6241 208.351L82.5811 209.815C82.5196 209.827 82.4458 209.84 82.3843 209.84Z" fill="#3E4552"/>
<path d="M331.103 182.73C330.795 182.73 330.525 182.509 330.488 182.201C330.426 181.857 330.66 181.537 331.017 181.476L354.903 177.392C355.248 177.331 355.567 177.564 355.629 177.921C355.69 178.265 355.457 178.585 355.1 178.647L331.213 182.73C331.176 182.73 331.127 182.73 331.103 182.73Z" fill="#3E4552"/>
<path d="M142.199 215.104C141.609 215.104 141.043 215.092 140.477 215.055C140.133 215.042 139.862 214.735 139.874 214.391C139.887 214.046 140.194 213.776 140.539 213.788C141.068 213.825 141.621 213.825 142.187 213.837C142.986 213.837 143.823 213.8 144.745 213.763C145.09 213.751 145.397 213.997 145.409 214.354C145.422 214.698 145.176 215.006 144.819 215.018C143.884 215.067 143.023 215.104 142.199 215.104ZM149.075 214.575C148.755 214.575 148.484 214.354 148.435 214.034C148.386 213.689 148.632 213.37 148.976 213.32C150.428 213.111 151.818 212.828 153.109 212.496C153.441 212.398 153.798 212.607 153.884 212.951C153.983 213.284 153.773 213.64 153.429 213.726C152.088 214.071 150.649 214.366 149.149 214.587C149.124 214.575 149.099 214.575 149.075 214.575ZM136.283 214.403C136.234 214.403 136.172 214.403 136.111 214.391C135.41 214.194 134.745 213.972 134.106 213.702C133.38 213.394 132.679 213.013 132.027 212.595C131.744 212.398 131.646 212.004 131.83 211.721C132.027 211.439 132.421 211.34 132.704 211.525C133.306 211.918 133.921 212.25 134.573 212.521C135.164 212.755 135.779 212.976 136.418 213.161C136.75 213.259 136.959 213.603 136.861 213.935C136.824 214.231 136.553 214.403 136.283 214.403ZM157.34 212.386C157.082 212.386 156.848 212.238 156.75 211.992C156.627 211.672 156.762 211.291 157.094 211.168C158.312 210.664 159.481 210.073 160.563 209.421C160.661 209.372 160.735 209.311 160.821 209.261C161.129 209.065 161.51 209.163 161.695 209.471C161.891 209.778 161.793 210.159 161.486 210.344C161.387 210.405 161.289 210.455 161.215 210.516C160.083 211.205 158.866 211.82 157.574 212.349C157.513 212.373 157.427 212.386 157.34 212.386ZM129.284 209.741C129.075 209.741 128.891 209.643 128.755 209.471C127.821 208.154 127.267 206.728 127.082 205.227C127.033 204.883 127.292 204.563 127.636 204.526C127.98 204.477 128.3 204.735 128.337 205.079C128.497 206.346 128.977 207.589 129.789 208.733C129.998 209.015 129.911 209.421 129.629 209.618C129.53 209.717 129.407 209.741 129.284 209.741ZM164.536 207.81C164.364 207.81 164.204 207.749 164.081 207.613C163.847 207.355 163.847 206.961 164.093 206.703C165.114 205.731 166.012 204.674 166.775 203.542C166.971 203.259 167.365 203.173 167.66 203.37C167.943 203.567 168.029 203.96 167.832 204.255C167.021 205.448 166.049 206.592 164.966 207.626C164.856 207.749 164.696 207.81 164.536 207.81ZM167.242 202.041C165.827 202.041 164.364 201.291 163.441 200.073C163.232 199.79 163.281 199.385 163.552 199.188C163.835 198.979 164.241 199.028 164.438 199.298C165.126 200.209 166.196 200.762 167.23 200.762C167.353 200.762 167.463 200.762 167.599 200.75C167.943 200.701 168.263 200.959 168.312 201.291C168.361 201.623 168.103 201.955 167.771 202.004C167.586 202.029 167.414 202.041 167.242 202.041ZM169.271 200.738C169.198 200.738 169.124 200.725 169.05 200.701C168.718 200.59 168.546 200.221 168.669 199.889C169.05 198.843 169.308 197.773 169.431 196.715C169.468 196.445 169.481 196.236 169.481 196.027C169.481 195.99 169.481 195.965 169.481 195.928C169.468 195.584 169.751 195.276 170.096 195.276C170.44 195.276 170.747 195.547 170.747 195.891C170.747 195.941 170.747 195.99 170.747 196.039C170.747 196.273 170.735 196.543 170.686 196.863C170.538 198.019 170.268 199.188 169.862 200.307C169.763 200.578 169.53 200.738 169.271 200.738ZM171.449 200.036C171.252 200.036 171.067 199.938 170.944 199.778C170.735 199.495 170.797 199.089 171.067 198.893C172.174 198.068 173.232 197.146 174.216 196.15C174.45 195.891 174.868 195.891 175.126 196.137C175.385 196.371 175.385 196.789 175.139 197.048C174.118 198.118 173.011 199.077 171.83 199.938C171.719 199.987 171.584 200.036 171.449 200.036ZM163.613 196.31C163.503 196.31 163.392 196.273 163.294 196.236C162.986 196.064 162.875 195.658 163.06 195.362C163.884 193.936 165.471 192.964 167.107 192.902C167.451 192.89 167.759 193.161 167.771 193.505C167.783 193.85 167.513 194.157 167.168 194.169C165.975 194.219 164.77 194.944 164.167 196.002C164.044 196.187 163.835 196.31 163.613 196.31ZM177.377 193.886C177.254 193.886 177.119 193.85 177.008 193.776C176.725 193.567 176.639 193.185 176.848 192.89C177.648 191.746 178.337 190.529 178.952 189.262C179.099 188.942 179.48 188.819 179.788 188.954C180.108 189.102 180.231 189.483 180.095 189.791C179.48 191.107 178.73 192.386 177.906 193.591C177.771 193.788 177.586 193.886 177.377 193.886ZM181.055 186.162C180.993 186.162 180.944 186.15 180.883 186.125C180.551 186.027 180.354 185.682 180.452 185.326C180.833 183.973 181.116 182.595 181.264 181.23C181.301 180.885 181.608 180.627 181.965 180.676C182.309 180.713 182.568 181.021 182.519 181.377C182.359 182.829 182.076 184.268 181.658 185.682C181.571 185.99 181.325 186.162 181.055 186.162Z" fill="#3E4552"/>
<path d="M178.029 180.393L185.101 180.689L181.288 173.751L178.029 180.393Z" fill="#F44336"/>
<path d="M146.652 257.342H23.7011C17.6003 257.342 12.6311 252.373 12.6311 246.272V42.2643C12.6311 36.1635 17.6003 31.1943 23.7011 31.1943H146.64C152.74 31.1943 157.71 36.1635 157.71 42.2643V246.26C157.722 252.361 152.753 257.342 146.652 257.342ZM23.7011 32.4612C18.3014 32.4612 13.898 36.8646 13.898 42.2643V246.26C13.898 251.66 18.3014 256.063 23.7011 256.063H146.64C152.039 256.063 156.443 251.66 156.443 246.26V42.2643C156.443 36.8646 152.039 32.4612 146.64 32.4612H23.7011Z" fill="#3E4552"/>
<path d="M148.731 223.48H21.6103C21.2659 223.48 20.9707 223.197 20.9707 222.841C20.9707 222.496 21.2536 222.201 21.6103 222.201H148.731C149.075 222.201 149.37 222.484 149.37 222.841C149.37 223.185 149.075 223.48 148.731 223.48Z" fill="#3E4552"/>
<path d="M148.571 60.7635H21.93C21.5856 60.7635 21.2904 60.4806 21.2904 60.1239C21.2904 59.7672 21.5733 59.4843 21.93 59.4843H148.571C148.915 59.4843 149.21 59.7672 149.21 60.1239C149.21 60.4806 148.915 60.7635 148.571 60.7635Z" fill="#3E4552"/>
<path d="M85.1028 242.262C80.5395 242.262 76.8249 238.548 76.8249 233.984C76.8249 229.421 80.5395 225.707 85.1028 225.707C89.6661 225.707 93.3807 229.421 93.3807 233.984C93.3807 238.535 89.6661 242.262 85.1028 242.262ZM85.1028 226.961C81.2406 226.961 78.0918 230.11 78.0918 233.972C78.0918 237.834 81.2406 240.983 85.1028 240.983C88.965 240.983 92.1138 237.834 92.1138 233.972C92.1138 230.098 88.965 226.961 85.1028 226.961Z" fill="#3E4552"/>
<path d="M131.252 80.9355H39.0885C38.7441 80.9355 38.4489 80.6526 38.4489 80.2959C38.4489 79.9392 38.7318 79.6563 39.0885 79.6563H131.252C131.597 79.6563 131.892 79.9392 131.892 80.2959C131.892 80.6526 131.597 80.9355 131.252 80.9355Z" fill="#3E4552"/>
<path d="M131.252 90.1605H39.0885C38.7441 90.1605 38.4489 89.8776 38.4489 89.5209C38.4489 89.1765 38.7318 88.8813 39.0885 88.8813H131.252C131.597 88.8813 131.892 89.1642 131.892 89.5209C131.88 89.8776 131.597 90.1605 131.252 90.1605Z" fill="#3E4552"/>
<path d="M131.252 99.2133H39.0885C38.7441 99.2133 38.4489 98.9304 38.4489 98.5737C38.4489 98.2293 38.7318 97.9341 39.0885 97.9341H131.252C131.597 97.9341 131.892 98.217 131.892 98.5737C131.88 98.9304 131.597 99.2133 131.252 99.2133Z" fill="#3E4552"/>
<path d="M85.1029 166.642C83.7007 166.642 82.2862 166.531 80.9209 166.298C80.5765 166.236 80.3305 165.916 80.392 165.572C80.4535 165.227 80.7733 164.981 81.1177 165.043C82.4215 165.264 83.7499 165.375 85.0906 165.375H85.2874C85.6318 165.375 85.927 165.658 85.927 166.015C85.927 166.359 85.6441 166.654 85.2874 166.654H85.1029V166.642ZM89.5555 166.236C89.248 166.236 88.9774 166.015 88.9405 165.707C88.879 165.363 89.1004 165.018 89.4448 164.957C90.8101 164.699 92.1631 164.342 93.4669 163.85C93.799 163.727 94.168 163.899 94.2787 164.231C94.4017 164.563 94.2295 164.932 93.8974 165.043C92.5321 165.547 91.1053 165.953 89.6539 166.199C89.6293 166.224 89.5924 166.236 89.5555 166.236ZM76.8742 165.227C76.8127 165.227 76.7266 165.215 76.6651 165.191C75.2875 164.699 73.9468 164.096 72.6553 163.358C72.3478 163.186 72.2371 162.804 72.4216 162.485C72.5938 162.177 72.9751 162.066 73.2949 162.251C74.5003 162.94 75.7918 163.518 77.0956 163.985C77.4277 164.096 77.5999 164.465 77.4769 164.797C77.3785 165.068 77.1325 165.227 76.8742 165.227ZM97.5505 163.272C97.3291 163.272 97.12 163.161 96.997 162.952C96.8248 162.644 96.9232 162.251 97.2184 162.079C98.4115 161.377 99.5554 160.566 100.613 159.668C100.884 159.446 101.277 159.471 101.499 159.742C101.72 160.012 101.696 160.406 101.425 160.627C100.318 161.587 99.1003 162.435 97.8457 163.173C97.7719 163.235 97.6612 163.272 97.5505 163.272ZM69.4327 161.033C69.2851 161.033 69.1498 160.984 69.0391 160.886C67.9075 159.951 66.862 158.918 65.9026 157.798C65.6812 157.528 65.7058 157.134 65.9641 156.913C66.2347 156.691 66.6283 156.716 66.8497 156.974C67.7599 158.02 68.7562 159.004 69.8263 159.902C70.0969 160.123 70.1338 160.516 69.9001 160.787C69.8017 160.947 69.6295 161.033 69.4327 161.033ZM104.057 157.737C103.91 157.737 103.774 157.687 103.639 157.589C103.368 157.368 103.331 156.974 103.565 156.704C104.451 155.633 105.25 154.477 105.951 153.272C106.124 152.964 106.505 152.854 106.825 153.038C107.132 153.21 107.243 153.592 107.058 153.911C106.333 155.178 105.484 156.396 104.549 157.515C104.414 157.663 104.242 157.737 104.057 157.737ZM63.8977 154.539C63.6763 154.539 63.4672 154.428 63.3565 154.219C62.6062 152.964 61.9789 151.624 61.45 150.258C61.327 149.926 61.4992 149.557 61.819 149.434C62.1511 149.311 62.5201 149.483 62.6431 149.803C63.1351 151.107 63.7378 152.362 64.4512 153.567C64.6234 153.875 64.525 154.268 64.2298 154.44C64.1191 154.514 64.0084 154.539 63.8977 154.539ZM108.288 150.32C108.227 150.32 108.141 150.308 108.067 150.283C107.735 150.172 107.563 149.803 107.686 149.471C108.165 148.167 108.51 146.802 108.756 145.437C108.817 145.092 109.137 144.859 109.481 144.908C109.826 144.969 110.06 145.289 110.01 145.634C109.752 147.085 109.395 148.512 108.903 149.889C108.793 150.16 108.559 150.32 108.288 150.32ZM60.8842 146.556C60.5767 146.556 60.3061 146.347 60.2692 146.027C59.9986 144.6 59.851 143.124 59.8387 141.661C59.8387 141.316 60.1093 141.021 60.4783 141.021C60.8227 141.021 61.1179 141.304 61.1179 141.661C61.1302 143.063 61.2778 144.453 61.5361 145.806C61.5976 146.15 61.3762 146.495 61.0318 146.556C60.9703 146.556 60.9211 146.556 60.8842 146.556ZM109.74 141.907C109.395 141.907 109.1 141.624 109.1 141.267C109.1 139.865 108.977 138.475 108.719 137.11C108.657 136.765 108.891 136.421 109.223 136.384C109.568 136.322 109.912 136.556 109.949 136.888C110.207 138.315 110.33 139.791 110.342 141.255C110.367 141.624 110.084 141.907 109.74 141.907ZM60.7981 138.02C60.7612 138.02 60.7366 138.02 60.6997 138.008C60.3553 137.946 60.1093 137.626 60.1708 137.282C60.4045 135.83 60.7735 134.404 61.2532 133.026C61.3639 132.694 61.7329 132.522 62.065 132.632C62.3971 132.743 62.5693 133.112 62.4586 133.444C62.0035 134.748 61.6468 136.113 61.4254 137.479C61.3639 137.798 61.0933 138.02 60.7981 138.02ZM108.227 133.506C107.969 133.506 107.723 133.346 107.624 133.088C107.144 131.784 106.542 130.517 105.841 129.311C105.668 129.004 105.767 128.61 106.062 128.438C106.37 128.266 106.763 128.364 106.935 128.66C107.661 129.926 108.301 131.267 108.805 132.632C108.928 132.965 108.756 133.334 108.424 133.444C108.374 133.493 108.301 133.506 108.227 133.506ZM63.6025 129.963C63.4918 129.963 63.3934 129.926 63.2827 129.89C62.9752 129.717 62.8645 129.336 63.049 129.029C63.7624 127.762 64.6111 126.532 65.5336 125.4C65.755 125.129 66.1486 125.08 66.4192 125.302C66.6898 125.523 66.739 125.917 66.5176 126.187C65.6443 127.27 64.8448 128.426 64.1683 129.631C64.0453 129.84 63.8239 129.963 63.6025 129.963ZM103.934 126.138C103.762 126.138 103.565 126.064 103.442 125.917C102.557 124.847 101.548 123.863 100.49 122.977C100.22 122.756 100.183 122.362 100.416 122.091C100.65 121.821 101.031 121.784 101.302 122.018C102.434 122.952 103.479 123.998 104.414 125.117C104.635 125.388 104.611 125.781 104.34 126.003C104.217 126.089 104.082 126.138 103.934 126.138ZM69.0145 123.358C68.8423 123.358 68.6701 123.284 68.5348 123.137C68.3134 122.866 68.3257 122.473 68.5963 122.251C69.7033 121.292 70.8964 120.419 72.151 119.681C72.4585 119.508 72.8521 119.607 73.0243 119.902C73.1965 120.209 73.0981 120.603 72.8029 120.775C71.6098 121.489 70.4659 122.313 69.4204 123.223C69.3097 123.309 69.1621 123.358 69.0145 123.358ZM97.3906 120.652C97.2799 120.652 97.1692 120.615 97.0708 120.578C95.8654 119.877 94.5862 119.287 93.2947 118.82C92.9626 118.697 92.8027 118.34 92.9134 118.008C93.0364 117.676 93.3931 117.516 93.7252 117.626C95.1028 118.118 96.4435 118.758 97.7104 119.484C98.0179 119.656 98.1286 120.062 97.9441 120.357C97.8211 120.542 97.612 120.652 97.3906 120.652ZM76.333 118.979C76.0747 118.979 75.841 118.82 75.7426 118.561C75.6196 118.229 75.7918 117.86 76.1116 117.737C77.4769 117.208 78.9037 116.815 80.3428 116.544C80.6872 116.483 81.0316 116.704 81.0931 117.048C81.1546 117.393 80.9332 117.737 80.5888 117.799C79.2235 118.057 77.8705 118.438 76.5667 118.943C76.4929 118.967 76.4191 118.979 76.333 118.979ZM89.3587 117.737C89.3218 117.737 89.2849 117.737 89.248 117.725C87.772 117.467 86.2345 117.344 84.7216 117.38C84.3772 117.393 84.082 117.11 84.0697 116.765C84.0697 116.421 84.3403 116.126 84.6847 116.114C86.2714 116.077 87.895 116.212 89.4571 116.495C89.8015 116.556 90.0352 116.888 89.986 117.221C89.9368 117.516 89.6662 117.737 89.3587 117.737Z" fill="#3E4552"/>
<path d="M95.3732 130.738L81.6464 144.465L74.8199 137.651L71.0561 141.415L77.8703 148.241L81.6464 152.005L85.4102 148.241L99.137 134.502L95.3732 130.738Z" fill="#F44336"/>
<path d="M135.188 247.305C135.151 247.305 135.139 247.305 135.115 247.305H35.1524C31.4501 247.305 27.9692 245.854 25.3493 243.234C22.7294 240.614 21.3026 237.133 21.3026 233.419V55.0932C21.3026 47.3565 27.5633 41.0589 35.2385 41.0589H42.1142C42.4217 41.0589 42.6677 41.268 42.7292 41.5509C42.7784 41.7723 42.8522 41.9814 42.9629 42.1659L45.5951 47.2458C46.1978 48.402 47.3786 49.14 48.6578 49.1523H122.433C123.885 49.14 125.152 48.2298 125.656 46.8645L127.562 41.7846C127.562 41.7723 127.575 41.7723 127.575 41.7477C127.587 41.6985 127.624 41.637 127.624 41.5755C127.673 41.268 127.944 41.0466 128.239 41.0466H135.102C142.777 41.0466 149.026 47.3442 149.026 55.0809V233.419V233.517C149.014 237.219 147.55 240.688 144.905 243.296C142.322 245.891 138.866 247.305 135.188 247.305ZM35.2262 246.038H135.127C138.497 246.051 141.658 244.772 144.044 242.398C146.431 240.036 147.759 236.887 147.784 233.517V233.419V55.0932C147.784 48.0576 142.113 42.3381 135.139 42.3381H128.731L126.861 47.3319C126.16 49.1892 124.426 50.4192 122.446 50.4438H48.6578C46.8743 50.4315 45.2753 49.4229 44.4635 47.8485L41.8436 42.7809C41.7698 42.6333 41.696 42.498 41.6345 42.3381H35.2262C28.2398 42.3381 22.5572 48.0576 22.5572 55.0932V233.431C22.5572 236.801 23.861 239.962 26.2472 242.348C28.6334 244.735 31.7945 246.051 35.1647 246.051L35.2262 246.038Z" fill="#3E4552"/>
<path d="M287.02 220.208C287.02 220.208 300.562 229.63 306.232 237.97C306.232 237.97 310.955 237.133 313.366 238.203C315.777 239.286 317.228 237.478 317.228 237.478C317.228 237.478 301.042 214.157 294.633 214.157C292.948 214.145 287.02 220.208 287.02 220.208Z" fill="#3E4552"/>
<path d="M261.952 204.378C261.952 204.378 263.477 225.264 276.503 225.264C281.288 225.264 286.466 218.745 286.466 218.745C286.466 218.745 307.536 231.93 307.536 242.312C307.536 246.137 296.232 268.178 276.687 268.178C257.143 268.178 243.92 256.875 243.92 256.875C243.92 256.875 241.042 258.609 228.791 258.609C216.54 258.609 199.677 252.853 199.677 220.873C199.677 213.788 203.318 195.19 203.318 195.19C203.318 195.19 259.271 196.531 261.952 204.378Z" fill="white"/>
<path d="M276.712 268.806C266.491 268.806 258.028 265.694 252.715 263.086C247.905 260.725 244.806 258.388 243.846 257.6C242.666 258.08 238.779 259.224 228.816 259.224C220.759 259.224 214.166 256.862 209.222 252.188C202.481 245.817 199.05 235.264 199.05 220.848C199.05 213.776 202.543 195.818 202.703 195.055C202.764 194.747 203.035 194.526 203.343 194.551C203.49 194.551 217.512 194.895 231.694 196.199C240.033 196.961 246.786 197.921 251.792 198.991C258.336 200.418 261.854 202.103 262.555 204.157C262.567 204.206 262.592 204.268 262.592 204.317C262.592 204.366 262.985 209.532 264.953 214.6C267.512 221.242 271.411 224.612 276.515 224.612C280.943 224.612 285.925 218.4 285.986 218.339C286.195 218.081 286.54 218.019 286.823 218.191C287.696 218.732 308.2 231.684 308.2 242.299C308.2 244.55 305.051 251.278 299.959 257.096C295.223 262.434 287.388 268.806 276.712 268.806ZM243.945 256.223C244.092 256.223 244.252 256.272 244.363 256.383C244.4 256.42 247.696 259.212 253.33 261.955C258.508 264.501 266.761 267.514 276.724 267.514C286.921 267.514 294.473 261.377 299 256.235C304.215 250.307 306.933 244.021 306.933 242.287C306.933 233.234 289.713 221.561 286.626 219.569C285.322 221.082 280.869 225.879 276.54 225.879C270.931 225.879 266.515 222.127 263.785 215.03C261.878 210.086 261.423 205.239 261.349 204.489C260.66 202.792 255.839 199.68 231.608 197.453C219.037 196.297 206.577 195.891 203.884 195.818C203.293 198.905 200.354 214.55 200.354 220.848C200.354 234.895 203.638 245.128 210.107 251.241C214.806 255.694 221.104 257.945 228.828 257.945C240.599 257.945 243.6 256.321 243.637 256.309C243.723 256.26 243.834 256.223 243.945 256.223Z" fill="#3E4552"/>
<path d="M191.695 111.095C191.695 111.095 191.977 99.0657 197.5 98.1924C203.023 97.3191 202.715 101.058 202.715 101.058C202.715 101.058 206.676 98.0571 207.844 101.501C207.844 101.501 211.067 100.542 211.288 102.903C211.288 102.903 215.323 103.186 213.269 106.716C213.269 106.716 213.269 109.435 212.236 110.308C211.202 111.181 207.02 115.745 207.02 115.745L191.695 111.095Z" fill="white"/>
<path d="M207.02 116.359C206.959 116.359 206.897 116.347 206.824 116.323L191.485 111.698C191.215 111.624 191.03 111.366 191.043 111.083C191.055 110.578 191.424 98.5122 197.365 97.5651C199.579 97.2207 201.215 97.5159 202.248 98.4753C202.777 98.955 203.023 99.5085 203.171 99.9882C204.032 99.5085 205.385 98.955 206.59 99.3363C207.291 99.5577 207.832 100.037 208.189 100.763C208.89 100.64 210.083 100.554 210.932 101.132C211.35 101.415 211.645 101.821 211.793 102.325C212.482 102.448 213.65 102.83 214.191 103.85C214.634 104.675 214.523 105.695 213.872 106.889C213.859 107.577 213.712 109.865 212.629 110.8C211.645 111.636 207.512 116.126 207.476 116.175C207.365 116.286 207.205 116.359 207.02 116.359ZM192.346 110.64L206.824 115.006C207.783 113.973 210.907 110.591 211.817 109.828C212.371 109.348 212.629 107.725 212.629 106.716C212.629 106.606 212.666 106.495 212.703 106.397C213.035 105.818 213.392 105.019 213.084 104.453C212.74 103.789 211.596 103.568 211.227 103.531C210.92 103.518 210.674 103.26 210.637 102.953C210.587 102.473 210.403 102.288 210.243 102.19C209.628 101.772 208.386 101.993 208.004 102.116C207.672 102.215 207.34 102.042 207.23 101.723C207.008 101.083 206.688 100.702 206.233 100.566C205.188 100.247 203.564 101.218 203.084 101.587C202.875 101.747 202.605 101.759 202.396 101.636C202.187 101.513 202.051 101.267 202.064 101.034C202.064 100.997 202.113 100.074 201.399 99.4347C200.674 98.7828 199.37 98.5737 197.599 98.8566C193.699 99.4347 192.519 107.147 192.346 110.64Z" fill="#3E4552"/>
<path d="M207.475 104.601C207.352 104.601 207.242 104.564 207.131 104.49C206.848 104.293 206.762 103.9 206.959 103.617C207.278 103.137 207.328 101.919 207.278 101.267C207.242 100.923 207.512 100.616 207.869 100.579C208.213 100.542 208.521 100.812 208.558 101.169C208.57 101.39 208.705 103.334 208.029 104.33C207.869 104.502 207.684 104.601 207.475 104.601Z" fill="#3E4552"/>
<path d="M210.944 105.954C210.735 105.954 210.526 105.855 210.415 105.671C210.219 105.388 210.305 104.982 210.588 104.797C211.19 104.404 210.698 103.162 210.698 103.149C210.551 102.83 210.711 102.448 211.043 102.325C211.363 102.178 211.744 102.338 211.867 102.67C212.211 103.494 212.47 105.08 211.289 105.88C211.178 105.917 211.055 105.954 210.944 105.954Z" fill="#3E4552"/>
<path d="M199.247 106.36C198.632 106.36 198.041 106.077 197.623 105.523C196.873 104.502 196.922 102.694 198.755 100.96C199.013 100.726 199.407 100.726 199.665 100.972C199.899 101.231 199.899 101.624 199.653 101.882C198.386 103.088 198.238 104.207 198.669 104.761C198.902 105.093 199.308 105.179 199.69 104.97C200.686 104.392 201.498 101.956 201.793 100.517C201.854 100.173 202.186 99.939 202.543 100.013C202.888 100.074 203.121 100.406 203.047 100.763C202.974 101.194 202.162 105.044 200.329 106.064C199.96 106.274 199.591 106.36 199.247 106.36Z" fill="#3E4552"/>
<path d="M201.473 107.417C201.166 107.417 200.883 107.356 200.637 107.245C199.653 106.815 199.394 105.782 199.37 105.659C199.296 105.314 199.517 104.97 199.862 104.896C200.194 104.822 200.551 105.044 200.624 105.376C200.624 105.388 200.772 105.905 201.166 106.077C201.535 106.237 202.1 106.089 202.789 105.683C203.097 105.511 203.49 105.609 203.662 105.905C203.835 106.2 203.736 106.606 203.441 106.778C202.703 107.208 202.051 107.417 201.473 107.417Z" fill="#3E4552"/>
<path d="M206.135 108.955C204.954 108.955 203.589 108.734 202.851 107.823C202.199 107.048 202.15 105.954 202.728 104.564C203.011 103.85 203.441 103.383 203.995 103.186C205.028 102.793 206.209 103.358 207.328 103.912C207.992 104.244 208.693 104.576 209.271 104.675C211.461 105.044 213.466 106.077 213.552 106.126C213.872 106.286 213.982 106.667 213.822 106.987C213.663 107.307 213.281 107.417 212.961 107.258C212.925 107.245 211.043 106.274 209.062 105.941C208.3 105.818 207.525 105.437 206.774 105.068C205.889 104.638 204.966 104.183 204.437 104.379C204.364 104.416 204.105 104.502 203.884 105.068C203.515 105.978 203.49 106.643 203.822 107.036C204.585 107.959 207.094 107.688 207.906 107.528C208.25 107.467 208.595 107.688 208.656 108.02C208.718 108.365 208.496 108.709 208.164 108.77C207.98 108.795 207.131 108.955 206.135 108.955Z" fill="#3E4552"/>
<path d="M295.162 120C295.162 120 300.562 109.262 296.134 105.892C291.706 102.522 290.193 105.954 290.193 105.954C290.193 105.954 288.114 101.44 285.458 103.924C285.458 103.924 283.059 101.563 281.755 103.531C281.755 103.531 278.053 101.895 278.213 105.966C278.213 105.966 276.921 108.365 277.413 109.619C277.905 110.874 279.443 116.864 279.443 116.864L295.162 120Z" fill="white"/>
<path d="M295.162 120.64C295.113 120.64 295.088 120.64 295.039 120.628L279.344 117.479C279.111 117.43 278.914 117.257 278.852 117.024C278.84 116.962 277.315 111.07 276.835 109.853C276.331 108.512 277.278 106.433 277.586 105.818C277.573 104.465 277.955 103.518 278.729 102.989C279.689 102.338 280.907 102.571 281.558 102.78C281.927 102.399 282.37 102.178 282.875 102.128C283.908 102.018 284.929 102.657 285.482 103.1C286.146 102.62 286.86 102.448 287.585 102.596C288.828 102.83 289.75 103.961 290.291 104.785C290.636 104.416 291.152 104.06 291.829 103.875C293.194 103.531 294.781 104.035 296.552 105.388C301.349 109.041 295.999 119.828 295.753 120.295C295.617 120.505 295.396 120.64 295.162 120.64ZM279.972 116.298L294.793 119.275C296.282 116.113 298.877 108.77 295.753 106.384C294.338 105.302 293.084 104.859 292.124 105.093C291.165 105.326 290.771 106.175 290.759 106.2C290.648 106.421 290.427 106.569 290.181 106.569C289.922 106.569 289.701 106.421 289.603 106.2C289.332 105.609 288.385 104.023 287.303 103.814C286.847 103.715 286.368 103.912 285.876 104.367C285.617 104.601 285.236 104.588 285.002 104.355C284.72 104.072 283.736 103.285 282.985 103.371C282.813 103.383 282.542 103.469 282.272 103.863C282.1 104.121 281.768 104.207 281.472 104.084C281.103 103.924 280.009 103.592 279.406 104.023C278.877 104.367 278.803 105.24 278.828 105.917C278.828 106.028 278.816 106.138 278.754 106.237C278.274 107.122 277.733 108.684 277.991 109.373C278.447 110.48 279.615 114.945 279.972 116.298Z" fill="#3E4552"/>
<path d="M284.609 106.901C284.289 106.901 284.006 106.667 283.969 106.323C283.859 105.13 284.879 103.481 284.99 103.285C285.187 102.977 285.581 102.903 285.863 103.088C286.171 103.285 286.245 103.666 286.06 103.961C285.716 104.515 285.175 105.609 285.236 106.187C285.273 106.532 285.015 106.852 284.658 106.888C284.633 106.901 284.621 106.901 284.609 106.901Z" fill="#3E4552"/>
<path d="M280.918 106.458C280.697 106.458 280.475 106.335 280.365 106.126C279.701 104.871 280.685 103.604 281.361 103.026C281.632 102.805 282.025 102.854 282.247 103.125C282.468 103.395 282.419 103.789 282.148 104.01C282.136 104.023 281.127 104.896 281.46 105.523C281.619 105.831 281.509 106.224 281.201 106.384C281.127 106.433 281.017 106.458 280.918 106.458Z" fill="#3E4552"/>
<path d="M291.645 112.485C290.981 112.485 290.329 112.141 289.923 111.513C288.791 109.73 289.91 105.978 290.033 105.56C290.132 105.228 290.489 105.031 290.833 105.13C291.165 105.228 291.362 105.585 291.263 105.929C290.833 107.307 290.402 109.865 291.005 110.837C291.276 111.267 291.694 111.28 291.989 111.144C292.629 110.837 293.035 109.791 292.481 108.143C292.37 107.811 292.543 107.442 292.875 107.331C293.207 107.221 293.576 107.393 293.687 107.725C294.486 110.123 293.674 111.747 292.53 112.288C292.247 112.424 291.952 112.485 291.645 112.485Z" fill="#3E4552"/>
<path d="M288.816 112.879C288.041 112.879 287.241 112.424 286.479 111.526C286.257 111.255 286.282 110.861 286.553 110.64C286.823 110.419 287.217 110.443 287.438 110.714C287.967 111.329 288.459 111.636 288.853 111.624C289.296 111.587 289.578 111.144 289.578 111.144C289.775 110.861 290.157 110.763 290.452 110.935C290.759 111.132 290.845 111.513 290.661 111.809C290.599 111.907 290.021 112.805 288.939 112.891C288.926 112.879 288.877 112.879 288.816 112.879Z" fill="#3E4552"/>
<path d="M285.888 112.042C284.043 112.042 281.976 110.394 281.73 110.173C281.46 109.951 281.423 109.558 281.657 109.287C281.878 109.016 282.272 108.98 282.542 109.213C283.194 109.742 285.273 111.169 286.392 110.702C286.872 110.505 287.155 109.902 287.265 108.943C287.327 108.34 287.155 108.143 287.105 108.082C286.736 107.663 285.728 107.627 284.719 107.59C283.883 107.553 283.022 107.528 282.284 107.282C280.377 106.63 278.249 106.618 278.237 106.618C277.893 106.618 277.598 106.335 277.598 105.978C277.598 105.622 277.88 105.363 278.237 105.339C278.336 105.339 280.586 105.376 282.69 106.089C283.243 106.286 284.006 106.31 284.756 106.323C286.011 106.372 287.314 106.421 288.04 107.245C288.434 107.688 288.594 108.315 288.52 109.078C288.36 110.554 287.806 111.513 286.872 111.895C286.564 111.993 286.232 112.042 285.888 112.042Z" fill="#3E4552"/>
<path d="M230.649 226.383C230.366 226.383 230.107 226.186 230.034 225.891C228.681 220.245 228.447 214.501 229.333 208.757C229.382 208.413 229.714 208.167 230.058 208.228C230.403 208.277 230.649 208.61 230.587 208.954C229.714 214.514 229.948 220.11 231.276 225.596C231.35 225.928 231.153 226.285 230.796 226.358C230.759 226.371 230.686 226.383 230.649 226.383Z" fill="#3E4552"/>
<path d="M200.034 220.331C199.972 220.331 199.911 220.331 199.837 220.331C199.493 220.319 199.197 220.024 199.222 219.68C199.247 219.335 199.53 219.04 199.874 219.065C202.875 219.126 205.987 217.195 207.82 214.108C209.283 211.648 210.034 208.622 210.255 204.305C210.267 203.96 210.575 203.69 210.919 203.702C211.264 203.714 211.534 204.022 211.522 204.366C211.374 207.183 210.944 211.316 208.914 214.747C206.897 218.154 203.429 220.331 200.034 220.331Z" fill="#3E4552"/>
<path d="M230.12 220.184C229.923 220.184 229.751 220.147 229.566 220.11C229.234 219.999 229.038 219.655 229.148 219.311C229.259 218.978 229.603 218.782 229.948 218.892C230.292 219.003 230.723 218.732 230.969 218.437C231.276 218.019 231.399 217.478 231.547 216.863C232.26 213.431 232.641 209.913 232.654 206.408C232.654 206.063 232.937 205.768 233.293 205.768C233.638 205.768 233.933 206.051 233.933 206.408C233.896 209.999 233.515 213.603 232.789 217.121C232.629 217.871 232.457 218.585 231.99 219.2C231.559 219.729 230.883 220.184 230.12 220.184Z" fill="#3E4552"/>
<path d="M256.958 220.491C255.876 220.491 254.744 220.171 253.76 219.52C251.952 218.339 250.858 216.457 250.107 214.932C248.533 211.734 247.549 208.327 247.18 204.772C247.143 204.428 247.401 204.108 247.758 204.071C248.103 204.034 248.422 204.292 248.459 204.649C248.804 208.031 249.751 211.303 251.251 214.378C251.94 215.756 252.9 217.465 254.462 218.474C255.716 219.298 257.684 219.606 258.988 218.622C259.271 218.413 259.677 218.462 259.874 218.745C260.07 219.028 260.033 219.433 259.751 219.63C258.963 220.208 257.992 220.491 256.958 220.491Z" fill="#3E4552"/>
<path d="M246.737 259.433C246.614 259.433 246.466 259.384 246.356 259.31C245.937 259.003 236.356 251.856 233.625 241.574C233.527 241.241 233.736 240.885 234.068 240.799C234.4 240.7 234.757 240.909 234.843 241.241C237.45 251.081 246.995 258.191 247.094 258.277C247.377 258.486 247.438 258.88 247.217 259.163C247.13 259.335 246.946 259.433 246.737 259.433Z" fill="#3E4552"/>
<path d="M274.978 230.184C274.646 230.184 274.363 229.913 274.338 229.569C274.326 229.224 274.596 228.917 274.941 228.917C276.343 228.868 277.733 228.695 279.074 228.388C279.418 228.314 279.762 228.536 279.836 228.88C279.91 229.224 279.689 229.569 279.344 229.643C277.93 229.962 276.454 230.135 274.99 230.196C274.99 230.184 274.978 230.184 274.978 230.184ZM270.697 229.925C270.66 229.925 270.624 229.925 270.587 229.913C269.074 229.643 267.659 229.187 266.355 228.548C266.036 228.388 265.913 228.007 266.073 227.687C266.232 227.367 266.614 227.244 266.934 227.404C268.127 227.994 269.43 228.4 270.833 228.659C271.177 228.72 271.411 229.052 271.337 229.384C271.275 229.704 271.005 229.925 270.697 229.925ZM283.305 228.376C283.047 228.376 282.813 228.228 282.714 227.982C282.591 227.662 282.727 227.281 283.059 227.158C284.35 226.617 285.58 225.965 286.749 225.215C287.056 225.018 287.438 225.104 287.622 225.411C287.819 225.719 287.733 226.1 287.425 226.285C286.208 227.084 284.879 227.761 283.526 228.339C283.477 228.351 283.403 228.376 283.305 228.376ZM263.133 226.199C262.973 226.199 262.813 226.137 262.702 226.026C261.669 225.055 260.722 223.898 259.91 222.595C259.713 222.287 259.812 221.906 260.119 221.721C260.427 221.525 260.808 221.623 260.993 221.93C261.755 223.136 262.629 224.218 263.6 225.128C263.859 225.362 263.871 225.768 263.637 226.039C263.477 226.125 263.317 226.199 263.133 226.199ZM290.463 223.714C290.304 223.714 290.131 223.652 290.021 223.517C289.762 223.259 289.787 222.865 290.021 222.607C290.291 222.349 290.414 222.189 290.414 222.189C290.648 221.918 291.054 221.906 291.3 222.127C291.57 222.361 291.583 222.767 291.361 223.013C291.361 223.013 291.201 223.21 290.882 223.505C290.783 223.652 290.623 223.714 290.463 223.714ZM258.533 219.04C258.274 219.04 258.041 218.88 257.942 218.622C257.438 217.318 257.02 215.903 256.688 214.427C256.614 214.083 256.835 213.739 257.167 213.665C257.499 213.591 257.856 213.812 257.93 214.145C258.25 215.571 258.656 216.924 259.135 218.167C259.258 218.499 259.098 218.868 258.766 218.991C258.693 219.028 258.606 219.04 258.533 219.04ZM256.602 210.688C256.282 210.688 255.999 210.455 255.962 210.11C255.765 208.351 255.741 206.949 255.741 206.285C255.741 205.94 255.741 205.731 255.741 205.731C255.753 205.387 256.06 205.116 256.393 205.129C256.737 205.141 257.007 205.436 256.995 205.781C256.995 205.781 256.995 205.977 256.995 206.285C256.995 206.937 257.032 208.265 257.204 209.987C257.241 210.332 256.983 210.651 256.626 210.688C256.651 210.688 256.626 210.688 256.602 210.688Z" fill="#3E4552"/>
<path d="M229.419 149.963C229.419 149.963 213.294 152.103 208.73 142.017C204.167 131.931 209.308 117.454 208.927 116.692C208.546 115.929 195.446 108.709 187.98 110.21C184.167 110.972 173.122 167.921 210.637 167.921C210.637 167.921 200.169 193.628 200.354 199.163C200.551 204.698 228.349 209.446 242.063 209.446C255.778 209.446 264.72 205.055 264.917 203.357C265.113 201.66 262.813 175.363 261.288 173.837C261.288 173.837 301.288 175.178 301.288 121.845C301.288 121.845 285.113 116.298 278.25 117.27C275.581 117.651 276.528 118.795 276.528 122.227C276.528 125.658 285.039 151.513 240.698 151.513C240.698 151.513 232.211 154.121 229.419 149.963Z" fill="#F44336"/>
<path d="M209.259 128.081C209.05 128.081 208.841 127.983 208.73 127.798C207.426 125.843 205.188 124.588 203.17 123.616C196.147 120.234 192.027 118.77 184.696 118.438C184.351 118.426 184.081 118.118 184.093 117.774C184.105 117.43 184.413 117.159 184.757 117.171C192.322 117.516 196.553 119.016 203.736 122.473C205.913 123.506 208.324 124.871 209.8 127.085C209.997 127.368 209.911 127.774 209.628 127.958C209.493 128.044 209.382 128.081 209.259 128.081Z" fill="white"/>
<path d="M300.967 130.726C300.918 130.726 300.857 130.726 300.795 130.714C288.815 127.454 286.872 126.999 276.134 126.052C275.789 126.015 275.531 125.72 275.556 125.363C275.58 125.006 275.888 124.76 276.244 124.785C287.093 125.72 289.049 126.187 301.127 129.471C301.459 129.57 301.669 129.914 301.57 130.246C301.496 130.529 301.238 130.726 300.967 130.726Z" fill="white"/>
<path d="M261.952 174.379C261.669 174.379 261.411 174.182 261.337 173.899C260.612 170.922 259.505 168.844 258.115 166.187L257.992 165.953C257.832 165.633 257.943 165.252 258.262 165.092C258.582 164.932 258.963 165.043 259.123 165.363L259.246 165.596C260.673 168.315 261.805 170.48 262.567 173.591C262.641 173.924 262.444 174.28 262.112 174.354C262.038 174.379 261.989 174.379 261.952 174.379Z" fill="white"/>
<path d="M209.148 169.594C209.037 169.594 208.927 169.557 208.828 169.52C208.521 169.348 208.41 168.942 208.607 168.647C209.591 166.962 209.985 166.421 210.243 166.076C210.563 165.633 210.661 165.523 211.731 163.1C211.879 162.78 212.26 162.644 212.568 162.78C212.887 162.927 213.023 163.309 212.887 163.616C211.793 166.064 211.67 166.248 211.252 166.814C211.018 167.146 210.637 167.651 209.677 169.274C209.566 169.483 209.37 169.594 209.148 169.594Z" fill="white"/>
<path d="M229.923 146.913L229.419 149.975C229.419 149.975 231.251 153.137 237.057 152.005C242.875 150.873 240.71 151.501 240.71 151.501V148.241C240.722 148.241 234.277 150.381 229.923 146.913Z" fill="white"/>
<path d="M234.696 152.891C230.44 152.891 228.964 150.406 228.878 150.283C228.804 150.16 228.779 150.012 228.804 149.865L229.308 146.802C229.345 146.581 229.505 146.384 229.702 146.31C229.911 146.236 230.145 146.261 230.317 146.408C234.351 149.619 240.452 147.651 240.513 147.626C240.71 147.565 240.932 147.589 241.092 147.725C241.251 147.86 241.362 148.044 241.362 148.229V150.738C241.559 150.8 241.682 150.935 241.743 151.181C241.891 151.82 241.215 152.005 240.907 152.091C240.747 152.14 240.563 152.128 240.415 152.03C239.874 152.103 238.927 152.288 237.205 152.62C236.27 152.817 235.421 152.891 234.696 152.891ZM230.083 149.828C230.538 150.418 232.383 152.276 236.934 151.402C238.336 151.132 239.382 150.947 240.083 150.824V149.09C238.287 149.52 233.933 150.221 230.391 148.02L230.083 149.828Z" fill="#3E4552"/>
<path d="M235.396 124.637C239.135 123.801 252.038 126.31 252.038 136.937C252.038 147.565 242.629 147.122 242.629 147.122C242.629 147.122 246.86 143.838 245.962 137.331C245.63 134.883 233.834 133.887 231.657 132.706C229.48 131.538 225.913 126.753 235.396 124.637Z" fill="#3E4552"/>
<path d="M230.673 131.993C230.673 131.993 225.446 146.113 231.633 147.934C237.819 149.742 243.896 147.589 245.335 143.789C245.335 143.789 248.274 145.351 250.39 141.98C252.506 138.61 250.169 137.134 248.41 137.134C246.651 137.134 246.122 138.992 246.122 138.992C246.122 138.992 246.602 136.396 244.867 135.707C243.121 134.994 232.518 133.653 230.673 131.993Z" fill="white"/>
<path d="M236.061 149.225C234.548 149.225 232.973 149.016 231.436 148.561C230.243 148.217 229.332 147.454 228.754 146.273C226.454 141.685 229.911 132.177 230.07 131.784C230.144 131.587 230.304 131.439 230.513 131.39C230.722 131.341 230.931 131.39 231.091 131.538C232.174 132.509 237.34 133.506 240.735 134.158C242.801 134.551 244.425 134.871 245.077 135.142C246.048 135.523 246.479 136.322 246.663 137.097C247.106 136.765 247.684 136.507 248.385 136.507C249.406 136.507 250.821 136.937 251.497 138.155C251.928 138.93 252.186 140.283 250.907 142.313C249.271 144.92 247.008 145.031 245.642 144.6C244.191 147.491 240.366 149.225 236.061 149.225ZM231.005 132.965C230.243 135.265 228.176 142.288 229.898 145.695C230.329 146.531 230.944 147.073 231.805 147.331C234.621 148.155 237.561 148.167 240.07 147.368C242.407 146.618 244.105 145.24 244.744 143.567C244.806 143.395 244.954 143.26 245.113 143.198C245.286 143.137 245.482 143.149 245.642 143.235C245.876 143.358 248.127 144.416 249.849 141.648C250.599 140.455 250.784 139.471 250.403 138.782C250.021 138.094 249.111 137.786 248.398 137.786C247.131 137.786 246.725 139.164 246.712 139.188C246.614 139.52 246.282 139.717 245.95 139.631C245.618 139.557 245.409 139.238 245.47 138.905C245.47 138.893 245.839 136.802 244.609 136.335C244.068 136.113 242.334 135.781 240.489 135.425C236.22 134.576 232.74 133.838 231.005 132.965Z" fill="#3E4552"/>
<path d="M236.048 140.947C235.704 140.947 235.409 140.664 235.409 140.308C235.409 139.336 235.482 138.352 235.667 137.405C235.728 137.06 236.048 136.827 236.393 136.876C236.737 136.937 236.971 137.257 236.921 137.602C236.762 138.487 236.688 139.397 236.688 140.283C236.675 140.652 236.393 140.947 236.048 140.947Z" fill="#3E4552"/>
<path d="M241.276 139.717C240.968 139.717 240.698 139.496 240.661 139.188C240.649 139.139 240.452 139.016 240.181 138.992C240.034 138.992 239.898 138.991 239.738 139.004C239.419 139.016 239.037 139.053 238.656 138.955C238.324 138.881 238.115 138.524 238.201 138.18C238.275 137.848 238.631 137.639 238.976 137.725C239.173 137.774 239.406 137.762 239.665 137.737C239.861 137.725 240.034 137.7 240.243 137.725C240.944 137.762 241.78 138.143 241.928 138.942C241.989 139.287 241.756 139.631 241.423 139.668C241.35 139.717 241.325 139.717 241.276 139.717Z" fill="#3E4552"/>
<path d="M234.314 138.34C234.007 138.34 233.736 138.118 233.699 137.811C233.687 137.762 233.49 137.639 233.219 137.614C233.072 137.614 232.937 137.614 232.777 137.626C232.457 137.639 232.076 137.675 231.694 137.577C231.362 137.503 231.153 137.147 231.239 136.802C231.313 136.47 231.67 136.261 232.014 136.347C232.211 136.396 232.445 136.384 232.703 136.359C232.9 136.347 233.072 136.322 233.281 136.347C233.994 136.384 234.818 136.765 234.966 137.589C235.028 137.934 234.794 138.278 234.462 138.315C234.388 138.315 234.351 138.34 234.314 138.34Z" fill="#3E4552"/>
<path d="M236.43 146.359C236.097 146.359 235.741 146.298 235.409 146.126C235.396 146.126 235.372 146.113 235.372 146.113C234.954 145.843 234.621 145.461 234.437 145.006C234.314 144.736 234.203 144.465 234.105 144.182C233.847 144.108 233.601 144.022 233.355 143.961C233.133 143.899 232.604 143.739 232.334 143.272C232.161 142.964 232.272 142.571 232.592 142.411C232.899 142.239 233.281 142.349 233.453 142.645C233.465 142.657 233.527 142.694 233.711 142.743H233.724C234.523 143.001 235.347 143.247 236.171 143.333C237.032 143.407 237.795 143.297 238.385 143.001C238.557 142.903 238.767 142.903 238.963 142.989C239.136 143.063 239.283 143.247 239.308 143.432C239.418 143.961 239.517 144.637 239.16 145.24C238.742 145.941 237.942 146.126 237.512 146.236C237.241 146.249 236.86 146.359 236.43 146.359ZM236.061 145.006C236.331 145.154 236.762 145.068 237.192 144.957C237.573 144.859 237.942 144.748 238.065 144.527C238.078 144.49 238.102 144.453 238.115 144.404C237.5 144.576 236.799 144.625 236.048 144.551C235.901 144.539 235.765 144.514 235.63 144.502C235.728 144.711 235.876 144.883 236.061 145.006Z" fill="#3E4552"/>
<path d="M239.443 144.071C239.406 144.071 239.382 144.071 239.345 144.059C238.84 143.985 238.348 143.752 237.943 143.42C237.672 143.198 237.635 142.805 237.869 142.534C238.09 142.263 238.484 142.226 238.754 142.46C238.976 142.657 239.259 142.78 239.554 142.829C239.898 142.891 240.144 143.21 240.083 143.555C240.021 143.85 239.751 144.071 239.443 144.071Z" fill="#3E4552"/>
<path d="M246.799 141.501C246.946 140.64 247.549 139.939 248.361 139.668L246.799 141.501Z" fill="white"/>
<path d="M246.799 142.14C246.762 142.14 246.725 142.14 246.688 142.128C246.343 142.066 246.11 141.747 246.159 141.402C246.356 140.32 247.118 139.434 248.139 139.078C248.471 138.967 248.84 139.139 248.951 139.471C249.062 139.803 248.89 140.172 248.558 140.283C247.955 140.492 247.524 140.996 247.414 141.624C247.377 141.931 247.106 142.14 246.799 142.14Z" fill="#3E4552"/>
<path d="M234.659 164.735L234.351 165.818H234.388C234.868 165.965 235.31 166.162 235.729 166.421C236.368 166.802 236.639 167.122 236.553 167.405C236.442 167.774 236.208 167.909 235.827 167.798C235.52 167.687 235.237 167.564 234.966 167.417C234.659 167.245 234.351 167.109 234.007 166.999L233.281 169.594C234.203 169.938 234.843 170.455 235.224 171.131C235.569 171.734 235.655 172.447 235.446 173.112C235.237 173.923 234.696 174.6 233.97 174.981C233.256 175.326 232.445 175.473 231.645 175.375L231.165 177.072C231.092 177.392 230.772 177.564 230.464 177.503C230.452 177.503 230.427 177.503 230.427 177.49C230.058 177.38 229.923 177.146 230.034 176.777L230.489 175.153C228.422 174.551 227.537 173.702 227.832 172.657C227.943 172.275 228.164 172.128 228.521 172.226C228.73 172.288 228.914 172.435 229.025 172.62C229.173 172.841 229.333 173.062 229.517 173.259C229.898 173.579 230.341 173.8 230.821 173.948L231.842 170.32L231.793 170.307C231.19 170.135 230.649 169.803 230.218 169.336C229.726 168.807 229.566 168.204 229.763 167.552C229.923 166.962 230.354 166.507 231.03 166.138C231.682 165.806 232.408 165.609 233.158 165.609L233.502 164.391C233.552 164.231 233.65 164.108 233.785 164.022C233.933 163.948 234.093 163.924 234.24 163.973C234.634 164.12 234.769 164.366 234.659 164.735ZM232.199 169.176L232.838 166.888C231.903 166.962 231.35 167.343 231.153 168.02C231.042 168.438 231.387 168.819 232.199 169.176ZM232.949 170.849L232.026 174.169C232.481 174.157 232.937 174.022 233.342 173.8C233.736 173.604 234.031 173.259 234.154 172.829C234.363 172.103 233.97 171.439 232.949 170.849Z" fill="#3E4552"/>
<path d="M232.641 180.578C232.309 180.578 232.026 180.307 232.002 179.975C231.989 179.631 232.26 179.323 232.604 179.311C233.957 179.262 235.236 178.917 236.454 178.278C236.774 178.118 237.155 178.229 237.315 178.548C237.475 178.868 237.364 179.249 237.045 179.409C235.679 180.123 234.216 180.516 232.653 180.59C232.666 180.578 232.641 180.578 232.641 180.578ZM228.447 179.815C228.373 179.815 228.275 179.803 228.189 179.766C226.786 179.176 225.519 178.253 224.499 177.109C224.265 176.839 224.289 176.445 224.548 176.224C224.818 175.99 225.212 176.015 225.433 176.273C226.319 177.269 227.438 178.069 228.656 178.598C228.976 178.745 229.136 179.102 228.988 179.422C228.939 179.668 228.705 179.815 228.447 179.815ZM239.984 176.716C239.861 176.716 239.714 176.666 239.603 176.593C239.32 176.384 239.271 175.99 239.48 175.707C240.292 174.625 240.845 173.407 241.116 172.079C241.177 171.734 241.509 171.5 241.866 171.587C242.211 171.648 242.444 171.98 242.358 172.337C242.051 173.825 241.423 175.264 240.501 176.47C240.366 176.617 240.181 176.716 239.984 176.716ZM222.936 173.591C222.666 173.591 222.408 173.419 222.334 173.136C222.063 172.202 221.916 171.23 221.916 170.246C221.916 169.692 221.965 169.151 222.039 168.61C222.088 168.266 222.42 168.02 222.764 168.081C223.109 168.13 223.355 168.462 223.293 168.807C223.219 169.286 223.182 169.766 223.182 170.234C223.182 171.095 223.305 171.956 223.551 172.755C223.65 173.087 223.453 173.444 223.121 173.555C223.059 173.591 222.998 173.591 222.936 173.591ZM241.645 168.573C241.362 168.573 241.104 168.376 241.03 168.093C240.71 166.802 240.095 165.572 239.246 164.539C239.025 164.268 239.074 163.874 239.345 163.653C239.615 163.432 240.009 163.481 240.23 163.751C241.202 164.932 241.903 166.322 242.26 167.798C242.334 168.13 242.137 168.487 241.805 168.561C241.755 168.561 241.706 168.573 241.645 168.573ZM224.253 165.412C224.13 165.412 223.994 165.375 223.884 165.301C223.601 165.092 223.515 164.711 223.724 164.416C224.585 163.161 225.741 162.091 227.045 161.328C227.352 161.156 227.746 161.255 227.918 161.55C228.09 161.845 227.992 162.251 227.697 162.423C226.553 163.087 225.532 164.022 224.769 165.129C224.671 165.301 224.462 165.412 224.253 165.412ZM236.393 162.14C236.294 162.14 236.196 162.128 236.122 162.079C234.904 161.501 233.601 161.205 232.248 161.205C231.989 161.205 231.743 161.218 231.497 161.242C231.153 161.279 230.845 161.009 230.808 160.652C230.772 160.307 231.042 160 231.399 159.963C231.682 159.951 231.977 159.926 232.26 159.926C233.797 159.926 235.298 160.258 236.676 160.922C236.995 161.07 237.118 161.451 236.983 161.759C236.86 162.017 236.639 162.14 236.393 162.14Z" fill="#3E4552"/>
</svg>
