<svg width="142" height="160" viewBox="0 0 142 160" fill="none" xmlns="http://www.w3.org/2000/svg">
<defs>
<filter id="filter0_d_5473_76248" x="13.9531" y="0.664062" width="111.489" height="158.683" filterUnits="userSpaceOnUse" color-interpolation-filters="sRGB">
<feFlood flood-opacity="0" result="BackgroundImageFix"/>
<feColorMatrix in="SourceAlpha" type="matrix" values="0 0 0 0 0 0 0 0 0 0 0 0 0 0 0 0 0 0 127 0" result="hardAlpha"/>
<feOffset dy="11"/>
<feGaussianBlur stdDeviation="11"/>
<feColorMatrix type="matrix" values="0 0 0 0 0.397708 0 0 0 0 0.47749 0 0 0 0 0.575 0 0 0 0.27 0"/>
<feBlend mode="normal" in2="BackgroundImageFix" result="effect1_dropShadow_5473_76248"/>
<feBlend mode="normal" in="SourceGraphic" in2="effect1_dropShadow_5473_76248" result="shape"/>
</filter>
<linearGradient id="paint0_linear_5473_76248" x1="69.6755" y1="9.01134" x2="69.6755" y2="127.583" gradientUnits="userSpaceOnUse">
<stop stop-color="#FDFEFF"/>
<stop offset="0.9964" stop-color="#ECF0F5"/>
</linearGradient>
<linearGradient id="paint1_linear_5473_76248" x1="82.9812" y1="31.5471" x2="123.957" y2="31.5471" gradientUnits="userSpaceOnUse">
<stop stop-color="#B0BACC"/>
<stop offset="1" stop-color="#969EAE"/>
</linearGradient>
</defs>
<path d="M69.8727 123.754C100.332 123.754 125.024 98.9064 125.024 68.2559C125.024 37.6053 100.332 12.7582 69.8727 12.7582C39.4136 12.7582 14.7217 37.6053 14.7217 68.2559C14.7217 98.9064 39.4136 123.754 69.8727 123.754Z" fill="#EAEEF9"/>
<path d="M138.244 73.6119C139.964 72.0309 140.084 69.3469 138.513 67.617C136.942 65.887 134.274 65.7661 132.555 67.3471C130.836 68.928 130.716 71.612 132.287 73.342C133.858 75.072 136.525 75.1928 138.244 73.6119Z" fill="#EAEEF9"/>
<path d="M25.6775 26.0895C27.1346 25.6129 27.9318 24.038 27.4582 22.5718C26.9847 21.1055 25.4196 20.3032 23.9625 20.7798C22.5054 21.2564 21.7081 22.8313 22.1817 24.2975C22.6553 25.7638 24.2204 26.5661 25.6775 26.0895Z" fill="#EAEEF9"/>
<path d="M8.60329 38.1448C9.5941 37.8207 10.1362 36.7498 9.81421 35.7527C9.49217 34.7557 8.42789 34.2101 7.43708 34.5342C6.44628 34.8583 5.90413 35.9292 6.22617 36.9263C6.54821 37.9233 7.61248 38.4689 8.60329 38.1448Z" fill="#EAEEF9"/>
<path d="M134.349 34.7539C135.073 34.0883 135.123 32.9582 134.462 32.2298C133.8 31.5014 132.677 31.4505 131.953 32.1161C131.229 32.7818 131.179 33.9119 131.84 34.6403C132.502 35.3687 133.625 35.4196 134.349 34.7539Z" fill="#EAEEF9"/>
<path d="M89.5564 8.64327C90.0543 8.18543 90.0891 7.40813 89.6341 6.90712C89.1791 6.40612 88.4067 6.37112 87.9088 6.82897C87.4109 7.28681 87.3762 8.0641 87.8311 8.56511C88.2861 9.06612 89.0586 9.10111 89.5564 8.64327Z" fill="#EAEEF9"/>
<g filter="url(#filter0_d_5473_76248)">
<path d="M103.442 116.521C103.442 121.998 98.9319 126.347 93.6166 126.347H45.9395C40.4631 126.347 35.9531 121.837 35.9531 116.521V21.4894C35.9531 16.013 40.4631 11.6641 45.9395 11.6641H93.6166C99.093 11.6641 103.442 16.1741 103.442 21.4894V116.521Z" fill="url(#paint0_linear_5473_76248)"/>
</g>
<path d="M98.2873 102.185C98.2873 105.246 95.8713 107.501 92.972 107.501H46.9057C43.8453 107.501 41.5903 105.085 41.5903 102.185V23.2607C41.5903 20.2003 44.0064 17.9453 46.9057 17.9453H92.972C96.0323 17.9453 98.2873 20.3614 98.2873 23.2607V102.185Z" fill="#D5DDEA" stroke="#D6DCE8" stroke-width="1.9781" stroke-miterlimit="10"/>
<path d="M69.7774 121.838C72.535 121.838 74.7706 119.602 74.7706 116.845C74.7706 114.087 72.535 111.852 69.7774 111.852C67.0197 111.852 64.7842 114.087 64.7842 116.845C64.7842 119.602 67.0197 121.838 69.7774 121.838Z" fill="#C4CFDD"/>
<path d="M77.1871 75.9316C77.1871 76.2537 77.026 76.5759 76.5428 76.5759H41.1072C40.785 76.5759 40.4629 76.2537 40.4629 75.9316V73.8376C40.4629 73.5155 40.785 73.1934 41.1072 73.1934H76.7039C77.026 73.1934 77.3482 73.5155 77.3482 73.8376V75.9316H77.1871Z" fill="#D6DCE8"/>
<path d="M62.8518 85.2742H41.1072C40.785 85.2742 40.4629 84.952 40.4629 84.6299V82.697C40.4629 82.3749 40.785 82.0527 41.1072 82.0527H62.8518C63.1739 82.0527 63.4961 82.3749 63.4961 82.697V84.7909C63.6571 85.1131 63.335 85.2742 62.8518 85.2742Z" fill="#D6DCE8"/>
<path d="M103.475 51.8117C114.783 51.8117 123.95 42.7369 123.95 31.5427C123.95 20.3484 114.783 11.2737 103.475 11.2737C92.167 11.2737 83 20.3484 83 31.5427C83 42.7369 92.167 51.8117 103.475 51.8117Z" fill="url(#paint1_linear_5473_76248)"/>
<path d="M115.383 30.5495C115.383 29.3913 114.408 29.3913 113.433 29.2948C112.555 29.1983 112.458 28.4261 112.068 27.654C111.385 26.2062 114.018 25.5305 112.653 24.1793C111.288 22.828 110.605 21.7663 109.533 22.5385C108.85 23.021 108.363 23.6002 107.583 23.2141C106.803 22.828 106.023 22.7315 105.925 21.8628C105.633 19.6429 105.438 19.9324 102.415 19.9324C100.563 19.9324 101.83 22.2489 100.368 22.828C99.4903 23.1176 98.9053 23.6002 98.2228 23.1176C96.3703 21.7663 96.5653 22.0559 94.3228 24.1793C93.5428 24.9514 94.1278 25.6271 94.8103 26.4957C95.2978 27.1714 94.8103 27.7505 94.5178 28.6191C94.0303 30.0669 91.5928 28.8122 91.5928 30.646C91.5928 31.5147 91.5928 32.3834 91.6903 33.2521C92.0803 34.3138 92.9578 33.8312 93.8353 34.2172H93.9328C93.9328 34.2172 93.9328 34.2172 94.0303 34.2172C94.2253 34.3138 94.4203 34.6033 94.5178 34.7964C94.5178 34.8929 94.6153 35.1824 94.7128 35.279C95.0053 35.9546 95.2978 36.3407 94.8103 36.9198C93.5428 38.6571 93.7378 38.5606 95.8828 40.7805C97.1503 42.1318 98.0278 39.5258 99.3928 40.2014C99.9778 40.491 100.758 40.684 100.953 41.2631C101.148 41.6492 101.05 42.3248 101.343 42.8074C101.733 43.6761 103.098 43.3865 104.56 43.3865C106.413 43.3865 105.145 41.0701 106.608 40.491C108.363 39.9119 107.973 39.7188 109.435 40.7805C110.508 41.5527 111.385 40.2979 112.555 39.1397C113.92 37.7884 111.288 37.0163 111.97 35.665C112.068 35.3755 112.263 35.0859 112.36 34.7964C112.653 34.0242 113.335 34.0242 114.213 33.9277C115.675 33.7346 115.383 32.3834 115.383 30.5495ZM103.488 35.7615C101.245 35.7615 99.3928 33.9277 99.3928 31.7078C99.3928 29.4878 101.245 27.654 103.488 27.654C105.73 27.654 107.583 29.4878 107.583 31.7078C107.68 33.9277 105.828 35.7615 103.488 35.7615Z" fill="white"/>
<path d="M21 32C20.2884 32 19.635 31.5917 19.3084 30.9617L18.4684 29.27C17.9317 28.2084 16.5317 27.3334 15.3417 27.3334H12.67C11.4684 27.3334 10.0684 28.2084 9.5317 29.27L8.6917 30.9617C8.36503 31.5917 7.7117 32 7.00003 32C4.46837 32 2.4617 34.135 2.62503 36.655L3.2317 46.2917C3.3717 48.695 4.6667 50.6667 7.8867 50.6667H20.1134C23.3334 50.6667 24.6167 48.695 24.7684 46.2917L25.375 36.655C25.5384 34.135 23.5317 32 21 32ZM12.25 33.4584H15.75C16.2284 33.4584 16.625 33.855 16.625 34.3334C16.625 34.8117 16.2284 35.2084 15.75 35.2084H12.25C11.7717 35.2084 11.375 34.8117 11.375 34.3334C11.375 33.855 11.7717 33.4584 12.25 33.4584ZM14 46.14C11.83 46.14 10.0567 44.3784 10.0567 42.1967C10.0567 40.015 11.8184 38.2534 14 38.2534C16.1817 38.2534 17.9434 40.015 17.9434 42.1967C17.9434 44.3784 16.17 46.14 14 46.14Z" fill="#9BA4B4"/>
<path opacity="0.4" d="M35.4999 99.3263C28.9899 99.3263 23.6812 94.0305 23.6812 87.5075V85.0792C23.6812 84.5755 24.0945 84.175 24.5853 84.175C25.0762 84.175 25.4895 84.5884 25.4895 85.0792V87.5075C25.4895 93.023 29.9716 97.505 35.487 97.505C41.0024 97.505 45.4845 93.023 45.4845 87.5075V85.0792C45.4845 84.5755 45.8978 84.175 46.3887 84.175C46.8795 84.175 47.2928 84.5884 47.2928 85.0792V87.5075C47.3187 94.0305 42.0099 99.3263 35.4999 99.3263Z" fill="#99A2B2"/>
<path d="M35.4998 73.5834C31.1598 73.5834 27.6206 77.1225 27.6206 81.4625V87.5205C27.6206 91.8605 31.1598 95.3996 35.4998 95.3996C39.8398 95.3996 43.3789 91.8605 43.3789 87.5205V81.4625C43.3789 77.1225 39.8398 73.5834 35.4998 73.5834ZM38.3156 84.6788C38.2252 85.0275 37.9023 85.26 37.5535 85.26C37.4889 85.26 37.4114 85.2471 37.3469 85.2342C36.0294 84.8725 34.6344 84.8725 33.3169 85.2342C32.8906 85.3505 32.4644 85.105 32.3481 84.6788C32.2319 84.2655 32.4773 83.8263 32.9035 83.71C34.4923 83.2709 36.1714 83.2709 37.7602 83.71C38.1864 83.8263 38.4319 84.2525 38.3156 84.6788ZM39.4135 81.1009C39.2973 81.4238 39.0002 81.6175 38.6773 81.6175C38.5869 81.6175 38.4964 81.6046 38.406 81.5659C36.4298 80.8425 34.2598 80.8425 32.2835 81.5659C31.8702 81.7209 31.4181 81.5142 31.2631 81.1009C31.121 80.7005 31.3277 80.2484 31.741 80.0934C34.066 79.2538 36.6235 79.2538 38.9356 80.0934C39.3489 80.2484 39.5556 80.7005 39.4135 81.1009Z" fill="#99A2B2"/>
</svg>
