<svg width="200" height="200" viewBox="0 0 200 200" fill="none" xmlns="http://www.w3.org/2000/svg">
<defs>
<linearGradient id="paint0_linear_1696_14346" x1="100" y1="41.667" x2="100" y2="83.8987" gradientUnits="userSpaceOnUse">
<stop stop-color="#5E9E53"/>
<stop offset="1" stop-color="#80CC73"/>
</linearGradient>
<linearGradient id="paint1_linear_1696_14346" x1="100" y1="83.333" x2="100" y2="150" gradientUnits="userSpaceOnUse">
<stop stop-color="#5E9E53"/>
<stop offset="1" stop-color="#80CC73"/>
</linearGradient>
<linearGradient id="paint2_linear_1696_14346" x1="69.1922" y1="114.068" x2="69.1922" y2="124.33" gradientUnits="userSpaceOnUse">
<stop stop-color="#5E9E53"/>
<stop offset="1" stop-color="#80CC73"/>
</linearGradient>
<linearGradient id="paint3_linear_1696_14346" x1="89.7288" y1="114.128" x2="89.7288" y2="124.332" gradientUnits="userSpaceOnUse">
<stop stop-color="#5E9E53"/>
<stop offset="1" stop-color="#80CC73"/>
</linearGradient>
<linearGradient id="paint4_linear_1696_14346" x1="110.269" y1="114.128" x2="110.269" y2="124.332" gradientUnits="userSpaceOnUse">
<stop stop-color="#5E9E53"/>
<stop offset="1" stop-color="#80CC73"/>
</linearGradient>
<linearGradient id="paint5_linear_1696_14346" x1="130.806" y1="114.128" x2="130.806" y2="124.332" gradientUnits="userSpaceOnUse">
<stop stop-color="#5E9E53"/>
<stop offset="1" stop-color="#80CC73"/>
</linearGradient>
<linearGradient id="paint6_linear_1696_14346" x1="100" y1="16.667" x2="100" y2="183.334" gradientUnits="userSpaceOnUse">
<stop stop-color="#5E9E53"/>
<stop offset="1" stop-color="#80CC73"/>
</linearGradient>
</defs>
<path d="M133.333 79.8026V83.8987C131.161 83.5597 128.691 83.3902 125.926 83.3337V79.8026C125.926 62.006 121.531 50.1416 100 50.1416C78.4692 50.1416 74.0742 62.006 74.0742 79.8026V83.3337C71.3087 83.3902 68.8396 83.5597 66.6667 83.8987V79.8026C66.6667 63.4184 70.1235 41.667 100 41.667C129.877 41.667 133.333 63.4184 133.333 79.8026Z" fill="url(#paint0_linear_1696_14346)"/>
<path opacity="0.4" d="M150 111.111V122.222C150 144.444 145 150 125 150H75C55 150 50 144.444 50 122.222V111.111C50 92.5552 53.5 85.6108 66.25 83.8886C68.45 83.5553 70.95 83.3886 73.75 83.333H126.25C129.05 83.3886 131.55 83.5553 133.75 83.8886C146.5 85.6108 150 92.5552 150 111.111Z" fill="url(#paint1_linear_1696_14346)"/>
<path d="M69.1922 124.33C68.5248 124.33 67.8574 124.176 67.2413 123.92C66.5739 123.663 66.0606 123.304 65.5472 122.842C64.6231 121.866 64.0583 120.531 64.0583 119.197C64.0583 118.529 64.2123 117.862 64.469 117.246C64.7257 116.63 65.0852 116.065 65.5472 115.551C66.0606 115.089 66.5739 114.73 67.2413 114.473C69.1409 113.652 71.3997 114.114 72.8372 115.551C73.2993 116.065 73.6588 116.63 73.9155 117.246C74.1721 117.862 74.3261 118.529 74.3261 119.197C74.3261 120.531 73.7613 121.866 72.8372 122.842C71.8618 123.766 70.527 124.33 69.1922 124.33Z" fill="url(#paint2_linear_1696_14346)"/>
<path d="M89.7288 124.332C88.3427 124.332 87.0593 123.767 86.0838 122.843C85.6218 122.329 85.2623 121.765 85.0056 121.149C84.7489 120.532 84.595 119.865 84.595 119.198C84.595 117.812 85.1597 116.528 86.0838 115.553C87.9834 113.653 91.423 113.653 93.3738 115.553C94.2979 116.528 94.8627 117.812 94.8627 119.198C94.8627 119.865 94.7088 120.532 94.4521 121.149C94.1954 121.765 93.8359 122.329 93.3738 122.843C92.3984 123.767 91.0636 124.332 89.7288 124.332Z" fill="url(#paint3_linear_1696_14346)"/>
<path d="M110.269 124.332C108.934 124.332 107.599 123.767 106.624 122.843C105.7 121.867 105.135 120.584 105.135 119.198C105.135 117.812 105.7 116.528 106.624 115.553C108.575 113.653 112.014 113.653 113.914 115.553C114.119 115.809 114.325 116.066 114.53 116.374C114.735 116.631 114.889 116.939 114.992 117.247C115.146 117.555 115.249 117.863 115.3 118.171C115.351 118.53 115.403 118.89 115.403 119.198C115.403 120.532 114.838 121.867 113.914 122.843C112.938 123.767 111.604 124.332 110.269 124.332Z" fill="url(#paint4_linear_1696_14346)"/>
<path d="M130.806 124.332C129.471 124.332 128.136 123.767 127.16 122.843C126.236 121.867 125.672 120.584 125.672 119.198C125.672 117.812 126.236 116.528 127.16 115.553C129.111 113.653 132.551 113.653 134.451 115.553C134.656 115.809 134.861 116.066 135.067 116.374C135.272 116.631 135.426 116.939 135.529 117.247C135.683 117.555 135.785 117.863 135.837 118.171C135.888 118.53 135.939 118.89 135.939 119.198C135.939 120.532 135.375 121.867 134.451 122.843C133.475 123.767 132.14 124.332 130.806 124.332Z" fill="url(#paint5_linear_1696_14346)"/>
<path opacity="0.4" d="M134.976 16.667H65.1076C34.7591 16.667 16.6667 34.7503 16.6667 65.0837V134.834C16.6667 165.25 34.7591 183.334 65.1076 183.334H134.892C165.241 183.334 183.333 165.25 183.333 134.917V65.0837C183.417 34.7503 165.324 16.667 134.976 16.667Z" fill="url(#paint6_linear_1696_14346)"/>
</svg>
