<svg width="60" height="60" viewBox="0 0 60 60" fill="none" xmlns="http://www.w3.org/2000/svg">
<path opacity="0.4" d="M29.925 55C43.7321 55 54.925 43.8071 54.925 30C54.925 16.1929 43.7321 5 29.925 5C16.1179 5 4.92499 16.1929 4.92499 30C4.92499 43.8071 16.1179 55 29.925 55Z" fill="#868686"/>
<path d="M36.9585 24.9781L29.2258 20.79C27.306 19.7367 24.9862 19.7367 23.0664 20.79C21.1466 21.8433 20 23.6991 20 25.8056V34.2069C20 36.2884 21.1466 38.1693 23.0664 39.2226C24.0263 39.7492 25.0929 40 26.1328 40C27.1994 40 28.2393 39.7492 29.1992 39.2226L36.9318 35.0345C38.8517 33.9812 39.9982 32.1254 39.9982 30.0188C40.0515 27.9122 38.905 26.0313 36.9585 24.9781Z" fill="white"/>
</svg>
