<svg width="26" height="26" viewBox="0 0 26 26" fill="none" xmlns="http://www.w3.org/2000/svg">
<defs>
<linearGradient id="paint0_linear_3095_47378" x1="13" y1="0" x2="13" y2="26" gradientUnits="userSpaceOnUse">
<stop stop-color="#F06930"/>
<stop offset="1" stop-color="#FC996E"/>
</linearGradient>
</defs>
<rect width="26" height="26" rx="9" fill="url(#paint0_linear_3095_47378)"/>
<path fill-rule="evenodd" clip-rule="evenodd" d="M5.56115 5.56115C6.68019 4.44211 8.35249 4.0166 10.4999 4.0166H15.4999C17.6474 4.0166 19.3197 4.44211 20.4387 5.56115C21.5578 6.68019 21.9833 8.35249 21.9833 10.4999V15.4999C21.9833 17.6474 21.5578 19.3197 20.4387 20.4387C19.3197 21.5578 17.6474 21.9833 15.4999 21.9833H10.4999C8.35249 21.9833 6.68019 21.5578 5.56115 20.4387C4.44211 19.3197 4.0166 17.6474 4.0166 15.4999V10.4999C4.0166 8.35249 4.44211 6.68019 5.56115 5.56115ZM6.48039 6.48039C5.72443 7.23635 5.3166 8.48071 5.3166 10.4999V15.4999C5.3166 17.5192 5.72443 18.7635 6.48039 19.5195C7.23635 20.2754 8.48071 20.6833 10.4999 20.6833H15.4999C17.5192 20.6833 18.7635 20.2754 19.5195 19.5195C20.2754 18.7635 20.6833 17.5192 20.6833 15.4999V10.4999C20.6833 8.48071 20.2754 7.23635 19.5195 6.48039C18.7635 5.72443 17.5192 5.3166 15.4999 5.3166H10.4999C8.48071 5.3166 7.23635 5.72443 6.48039 6.48039Z" fill="white"/>
<path fill-rule="evenodd" clip-rule="evenodd" d="M9.66676 8.4416C9.10908 8.4416 8.6501 8.90059 8.6501 9.45827V13.0025C8.95733 12.8515 9.30248 12.7666 9.66676 12.7666H16.3334C16.6977 12.7666 17.0429 12.8515 17.3501 13.0025V9.45827C17.3501 8.90059 16.8911 8.4416 16.3334 8.4416H9.66676ZM18.6501 15.0833V9.45827C18.6501 8.18262 17.6091 7.1416 16.3334 7.1416H9.66676C8.39111 7.1416 7.3501 8.18262 7.3501 9.45827V15.0833C7.3501 15.4423 7.64111 15.7333 8.0001 15.7333C8.35908 15.7333 8.6501 15.4423 8.6501 15.0833C8.6501 14.5256 9.10908 14.0666 9.66676 14.0666H16.3334C16.8911 14.0666 17.3501 14.5256 17.3501 15.0833C17.3501 15.4423 17.6411 15.7333 18.0001 15.7333C18.3591 15.7333 18.6501 15.4423 18.6501 15.0833Z" fill="white"/>
<path fill-rule="evenodd" clip-rule="evenodd" d="M17.3501 16.1251C17.3501 15.7661 17.6411 15.4751 18.0001 15.4751H18.8334C19.1924 15.4751 19.4834 15.7661 19.4834 16.1251C19.4834 16.4841 19.1924 16.7751 18.8334 16.7751H18.0001C17.6411 16.7751 17.3501 16.4841 17.3501 16.1251Z" fill="white"/>
<path fill-rule="evenodd" clip-rule="evenodd" d="M6.5166 16.1251C6.5166 15.7661 6.80762 15.4751 7.1666 15.4751H7.99993C8.35892 15.4751 8.64993 15.7661 8.64993 16.1251C8.64993 16.4841 8.35892 16.7751 7.99993 16.7751H7.1666C6.80762 16.7751 6.5166 16.4841 6.5166 16.1251Z" fill="white"/>
<path fill-rule="evenodd" clip-rule="evenodd" d="M7.3501 12.1668C7.3501 10.8911 8.39111 9.8501 9.66676 9.8501H16.3334C17.6091 9.8501 18.6501 10.8911 18.6501 12.1668V14.6668C18.6501 15.0257 18.3591 15.3168 18.0001 15.3168C17.6411 15.3168 17.3501 15.0257 17.3501 14.6668V12.1668C17.3501 11.6091 16.8911 11.1501 16.3334 11.1501H9.66676C9.10908 11.1501 8.6501 11.6091 8.6501 12.1668V14.6668C8.6501 15.0257 8.35908 15.3168 8.0001 15.3168C7.64111 15.3168 7.3501 15.0257 7.3501 14.6668V12.1668Z" fill="white"/>
<path fill-rule="evenodd" clip-rule="evenodd" d="M9.66676 14.0666C9.10908 14.0666 8.6501 14.5256 8.6501 15.0833V15.4749H10.9168C11.2757 15.4749 11.5668 15.7659 11.5668 16.1249C11.5668 16.9159 12.2091 17.5583 13.0001 17.5583C13.7911 17.5583 14.4334 16.9159 14.4334 16.1249C14.4334 15.7659 14.7244 15.4749 15.0834 15.4749H17.3501V15.0833C17.3501 14.5256 16.8911 14.0666 16.3334 14.0666H9.66676ZM7.3501 15.0833C7.3501 13.8076 8.39111 12.7666 9.66676 12.7666H16.3334C17.6091 12.7666 18.6501 13.8076 18.6501 15.0833V16.1249C18.6501 16.4839 18.3591 16.7749 18.0001 16.7749H15.6556C15.3637 17.9704 14.2851 18.8583 13.0001 18.8583C11.7151 18.8583 10.6365 17.9704 10.3446 16.7749H8.0001C7.64111 16.7749 7.3501 16.4839 7.3501 16.1249V15.0833Z" fill="white"/>
</svg>
