<svg width="200" height="200" viewBox="0 0 200 200" fill="none" xmlns="http://www.w3.org/2000/svg">
<defs>
<linearGradient id="paint0_linear_3299_51911" x1="99.9585" y1="16.666" x2="99.9585" y2="183.249" gradientUnits="userSpaceOnUse">
<stop stop-color="#5E9E53"/>
<stop offset="1" stop-color="#80CC73"/>
</linearGradient>
<linearGradient id="paint1_linear_3299_51911" x1="101.667" y1="93.916" x2="101.667" y2="156.333" gradientUnits="userSpaceOnUse">
<stop stop-color="#5E9E53"/>
<stop offset="1" stop-color="#80CC73"/>
</linearGradient>
<linearGradient id="paint2_linear_3299_51911" x1="98.3326" y1="43.75" x2="98.3326" y2="105.417" gradientUnits="userSpaceOnUse">
<stop stop-color="#5E9E53"/>
<stop offset="1" stop-color="#80CC73"/>
</linearGradient>
</defs>
<path opacity="0.4" d="M134.917 16.666H65.1668C34.7501 16.666 16.6667 34.7493 16.6667 65.0827V134.833C16.6667 165.166 34.7501 183.249 65.0834 183.249H134.833C165.167 183.249 183.25 165.166 183.25 134.833V65.0827C183.333 34.7493 165.25 16.666 134.917 16.666Z" fill="url(#paint0_linear_3299_51911)"/>
<path d="M150 93.916C146.5 93.916 143.75 96.666 143.75 100.166C143.667 111.833 139.167 122.749 131 130.916C122.75 139.166 111.75 143.749 100.083 143.749C88.4167 143.749 77.4165 139.166 69.1665 130.916C68.9165 130.666 68.75 130.416 68.5 130.166H75.4165C78.8332 130.166 81.6665 127.333 81.6665 123.916C81.6665 120.499 78.8332 117.666 75.4165 117.666H53.3333C49.9166 117.666 47.0833 120.499 47.0833 123.916V145.999C47.0833 149.416 49.9166 152.249 53.3333 152.249C56.7499 152.249 59.5833 149.416 59.5833 145.999V138.916C59.8333 139.166 60.0832 139.499 60.3332 139.833C70.9166 150.416 85.0834 156.333 100.083 156.333C115.083 156.333 129.25 150.499 139.833 139.833C150.333 129.333 156.167 115.249 156.25 100.249C156.25 96.7493 153.417 93.9993 150 93.916Z" fill="url(#paint1_linear_3299_51911)"/>
<path d="M50.0001 105.417C53.4168 105.417 56.1668 102.667 56.2501 99.25C56.4168 87.8333 61.0001 77.0833 69.0001 69C77.2501 60.75 88.2501 56.1667 99.9167 56.1667C111.583 56.1667 122.584 60.75 130.834 69C131.084 69.25 131.25 69.5 131.5 69.75H124.584C121.167 69.75 118.334 72.5833 118.334 76C118.334 79.4167 121.167 82.25 124.584 82.25H146.667C150.084 82.25 152.917 79.4167 152.917 76V54C152.917 50.5833 150.084 47.75 146.667 47.75C143.25 47.75 140.417 50.5833 140.417 54V61.1667C140.167 60.9167 139.917 60.5833 139.667 60.25C129.084 49.6667 114.917 43.75 99.9167 43.75C84.9167 43.75 70.7501 49.5833 60.1668 60.25C49.7501 70.5833 43.9168 84.4167 43.7501 99.0833C43.6668 102.5 46.4167 105.333 49.9167 105.417C50.0001 105.417 50.0001 105.417 50.0001 105.417Z" fill="url(#paint2_linear_3299_51911)"/>
</svg>
