<svg width="26" height="26" viewBox="0 0 26 26" fill="none" xmlns="http://www.w3.org/2000/svg">
<rect width="26" height="26" rx="9" fill="#F7FAFC"/>
<g clip-path="url(#clip0_4900_74368)">
<rect width="20" height="20" transform="translate(3 3)" fill="white" fill-opacity="0.01"/>
<path d="M8.4165 4.66675C7.53317 4.66675 6.7165 4.97508 6.07484 5.49175C5.20817 6.17508 4.6665 7.23341 4.6665 8.41675C4.6665 9.11675 4.8665 9.78341 5.20817 10.3501C5.65817 11.1001 6.3665 11.6834 7.2165 11.9667C7.5915 12.1001 7.9915 12.1667 8.4165 12.1667C9.3665 12.1667 10.2248 11.8167 10.8832 11.2334C11.1748 10.9834 11.4248 10.6834 11.6248 10.3501C11.7998 10.0584 11.9332 9.75008 12.0248 9.41675C12.1165 9.10008 12.1665 8.75841 12.1665 8.41675C12.1665 6.34175 10.4915 4.66675 8.4165 4.66675ZM9.79984 9.04175H9.05817V9.81675C9.05817 10.1584 8.77484 10.4417 8.43317 10.4417C8.0915 10.4417 7.80817 10.1667 7.80817 9.81675V9.04175H6.99984C6.65817 9.04175 6.37484 8.75841 6.37484 8.41675C6.37484 8.07508 6.65817 7.79175 6.99984 7.79175H7.80817V7.01675C7.80817 6.67508 8.0915 6.39175 8.43317 6.39175C8.77484 6.39175 9.05817 6.66675 9.05817 7.01675V7.79175H9.79984C10.1415 7.79175 10.4248 8.07508 10.4248 8.41675C10.4248 8.75841 10.1498 9.04175 9.79984 9.04175Z" fill="#3E4552"/>
<path d="M16.3335 20.7416L8.53345 21.6582C7.99179 21.7249 7.50845 21.6416 7.10012 21.4416C6.66679 21.2249 6.32512 20.8916 6.10845 20.4499C5.90845 20.0416 5.83345 19.5666 5.89179 19.0332L6.60012 13.0749C6.66679 13.0999 6.73345 13.1249 6.80012 13.1416C7.30845 13.3249 7.85012 13.4166 8.41679 13.4166C9.63345 13.4166 10.8085 12.9749 11.7001 12.1832C12.0835 11.8499 12.4251 11.4499 12.7001 10.9916C12.9335 10.5999 13.1085 10.1832 13.2251 9.77489C13.2835 9.55822 13.3335 9.32489 13.3668 9.09155C13.3751 9.04989 13.3751 9.00822 13.3751 8.96655L13.5168 8.97489L18.5835 14.0499L18.8001 17.7332C19.0085 19.7999 18.2918 20.5166 16.3335 20.7416Z" fill="#3E4552"/>
<path d="M21.3333 11.5667L19.6083 12.6584C19.2833 12.8584 18.8667 12.8167 18.6 12.5417L14.9083 8.85008C14.6417 8.58342 14.5917 8.16675 14.7917 7.84175L15.8833 6.11675C16.55 5.06675 17.8833 5.01675 18.875 5.99175L21.4667 8.58342C22.375 9.50842 22.3167 10.9417 21.3333 11.5667Z" fill="#3E4552"/>
</g>
<defs>
<clipPath id="clip0_4900_74368">
<rect width="20" height="20" fill="white" transform="translate(3 3)"/>
</clipPath>
</defs>
</svg>
