<svg width="147" height="64" viewBox="0 0 147 64" fill="none" xmlns="http://www.w3.org/2000/svg">
<path d="M29.3155 13.484H17.8401C17.2832 13.484 16.8457 13.0465 16.8457 12.4896V1.01418C16.8457 0.457314 17.2832 0.0197754 17.8401 0.0197754H29.3155C29.8724 0.0197754 30.31 0.457314 30.31 1.01418V12.4896C30.31 13.0465 29.8724 13.484 29.3155 13.484Z" fill="#D7E1F7"/>
<path d="M29.3155 30.3095H17.8401C17.2832 30.3095 16.8457 29.8719 16.8457 29.3151V17.8396C16.8457 17.2828 17.2832 16.8452 17.8401 16.8452H29.3155C29.8724 16.8452 30.31 17.2828 30.31 17.8396V29.3151C30.31 29.8719 29.8724 30.3095 29.3155 30.3095Z" fill="#D7E1F7"/>
<path d="M46.1408 30.3095H34.6653C34.1084 30.3095 33.6709 29.8719 33.6709 29.3151V17.8396C33.6709 17.2828 34.1084 16.8452 34.6653 16.8452H46.1408C46.6976 16.8452 47.1352 17.2828 47.1352 17.8396V29.3151C47.1352 29.8719 46.6976 30.3095 46.1408 30.3095Z" fill="#6085DE"/>
<path d="M29.3155 47.1547H17.8401C17.2832 47.1547 16.8457 46.7171 16.8457 46.1603V34.6848C16.8457 34.128 17.2832 33.6904 17.8401 33.6904H29.3155C29.8724 33.6904 30.31 34.128 30.31 34.6848V46.1603C30.31 46.6972 29.8724 47.1547 29.3155 47.1547Z" fill="#D7E1F7"/>
<path d="M12.4699 30.3095H0.994406C0.437539 30.3095 0 29.8719 0 29.3151V17.8396C0 17.2828 0.437539 16.8452 0.994406 16.8452H12.4699C13.0267 16.8452 13.4643 17.2828 13.4643 17.8396V29.3151C13.4643 29.8719 13.0267 30.3095 12.4699 30.3095Z" fill="#6085DE"/>
<path d="M12.4699 47.1547H0.994406C0.437539 47.1547 0 46.7171 0 46.1603V34.6848C0 34.128 0.437539 33.6904 0.994406 33.6904H12.4699C13.0267 33.6904 13.4643 34.128 13.4643 34.6848V46.1603C13.4643 46.6972 13.0267 47.1547 12.4699 47.1547Z" fill="#6085DE"/>
<path d="M46.1408 47.1547H34.6653C34.1084 47.1547 33.6709 46.7171 33.6709 46.1603V34.6848C33.6709 34.128 34.1084 33.6904 34.6653 33.6904H46.1408C46.6976 33.6904 47.1352 34.128 47.1352 34.6848V46.1603C47.1352 46.6972 46.6976 47.1547 46.1408 47.1547Z" fill="#6085DE"/>
<path d="M29.3155 63.9801H17.8401C17.2832 63.9801 16.8457 63.5426 16.8457 62.9857V51.5103C16.8457 50.9534 17.2832 50.5159 17.8401 50.5159H29.3155C29.8724 50.5159 30.31 50.9534 30.31 51.5103V62.9857C30.31 63.5426 29.8724 63.9801 29.3155 63.9801Z" fill="#D7E1F7"/>
<path d="M62.1106 16.8452H53.3797C49.0441 15.8111 47.5922 12.1318 47.1547 10.4214V1.86948C47.1547 0.8353 46.3194 0 45.2852 0H35.5599C34.5257 0 33.6904 0.8353 33.6904 1.86948V11.5948C33.6904 12.629 34.5257 13.4643 35.5599 13.4643H44.2311C48.5667 14.4587 50.0584 18.1181 50.5158 19.8483V28.4201C50.5158 29.4543 51.3511 30.2896 52.3853 30.2896H62.1106C63.1447 30.2896 63.9801 29.4543 63.9801 28.4201V18.6948C63.9801 17.6805 63.1447 16.8452 62.1106 16.8452Z" fill="#D7E1F7"/>
<path d="M62.1106 33.6904H52.3853C51.3511 33.6904 50.5158 34.5257 50.5158 35.5599V44.251C49.5413 48.527 46.0012 50.0385 44.2311 50.5357H35.5599C34.5257 50.5357 33.6904 51.371 33.6904 52.4051V62.1304C33.6904 63.1646 34.5257 63.9999 35.5599 63.9999H45.2852C46.3194 63.9999 47.1547 63.1646 47.1547 62.1304V53.3995C48.2287 48.9844 52.0472 47.5723 53.678 47.1746H62.1106C63.1447 47.1746 63.9801 46.3393 63.9801 45.3051V35.5798C63.9801 34.5257 63.1447 33.6904 62.1106 33.6904Z" fill="#D7E1F7"/>
<path d="M78.816 10.3181C81.3219 10.3181 82.5749 11.6506 82.5749 14.3355V25.9701C82.5749 28.6351 81.3219 29.9875 78.816 29.9875H71V10.338H78.816V10.3181ZM78.3188 26.4474V13.8184C78.3188 13.6593 78.2592 13.5201 78.1597 13.4008C78.0603 13.2814 77.9211 13.2218 77.7421 13.2218H75.2561V27.0639H77.7421C77.9012 27.0639 78.0404 27.0043 78.1597 26.8849C78.2592 26.7457 78.3188 26.6065 78.3188 26.4474Z" fill="#D7E1F7"/>
<path d="M89.3767 10.3181V29.9676H85.1206V10.3181H89.3767Z" fill="#D7E1F7"/>
<path d="M97.6698 22.1715V19.0491H103.298V26.2884C103.298 28.9534 102.045 30.3058 99.5393 30.3058H95.7208C93.2149 30.3058 91.9619 28.9733 91.9619 26.2884V14.0572C91.9619 11.3922 93.2149 10.0398 95.7208 10.0398H99.5393C102.045 10.0398 103.298 11.3723 103.298 14.0572V15.9068H99.2609V13.5401C99.2609 13.381 99.2012 13.2418 99.1018 13.1225C98.9824 13.0031 98.8432 12.9435 98.6841 12.9435H96.7748C96.6157 12.9435 96.4765 13.0031 96.3572 13.1225C96.2379 13.2418 96.1981 13.381 96.1981 13.5401V26.7856C96.1981 26.9447 96.2578 27.0839 96.3572 27.2032C96.4765 27.3226 96.5959 27.3822 96.7748 27.3822H98.6841C98.8432 27.3822 98.9824 27.3226 99.1018 27.2032C99.2211 27.0839 99.2609 26.9447 99.2609 26.7856V22.1914H97.6698V22.1715Z" fill="#D7E1F7"/>
<path d="M109.264 10.3181V29.9676H105.028V10.3181H109.264Z" fill="#D7E1F7"/>
<path d="M110.697 13.9378V10.3181H121.337V13.9378H118.155V29.9676H113.899V13.9378H110.697Z" fill="#D7E1F7"/>
<path d="M130.485 10.0199C132.991 10.0199 134.244 11.3524 134.244 14.0373V29.9876H129.988V23.3847H126.925V29.9677H122.669V14.0174C122.669 11.3524 123.922 10 126.428 10H130.485V10.0199ZM126.925 20.1032H129.988V13.5202C129.988 13.3611 129.929 13.2219 129.829 13.1025C129.71 12.9832 129.59 12.9236 129.411 12.9236H127.502C127.343 12.9236 127.204 12.9832 127.085 13.1025C126.965 13.2219 126.925 13.3611 126.925 13.5202V20.1032Z" fill="#D7E1F7"/>
<path d="M141.046 26.3877H145.7V29.9676H136.81V10.3181H141.066V26.3877H141.046Z" fill="#D7E1F7"/>
<path d="M75.6521 46.1583V54H71V34H75.6521V42.3693H79.3479V34H84V54H79.3479V46.1583H75.6521Z" fill="#6085DE"/>
<path d="M90.2632 50.4029H95V54H86V34H95V37.5252H90.2632V42.2254H94.6921V45.6307H90.2632V50.4029Z" fill="#6085DE"/>
<path d="M105.082 34C107.702 34 109 35.3459 109 38.0142V54H104.592V47.3884H101.408V54H97V38.0142C97 35.3459 98.298 34 100.918 34H105.082ZM101.384 44.1063H104.567V37.4947C104.567 37.3294 104.518 37.1877 104.396 37.0697C104.273 36.9516 104.127 36.8808 103.98 36.8808H101.971C101.8 36.8808 101.653 36.9516 101.555 37.0697C101.433 37.1877 101.384 37.3294 101.384 37.4947V44.1063Z" fill="#6085DE"/>
<path d="M115.482 50.3549H119.651V54H111.651V34H115.461V50.3549H115.482Z" fill="#6085DE"/>
<path d="M119.651 37.6691V34H130.651V37.6691H127.359V54H122.968V37.6691H119.651Z" fill="#6085DE"/>
<path d="M136.588 46.1583V54H132.651V34H136.588V42.3693H139.715V34H143.651V54H139.715V46.1583H136.588Z" fill="#6085DE"/>
</svg>
