<svg width="175" height="137" viewBox="0 0 175 137" fill="none" xmlns="http://www.w3.org/2000/svg">
<defs>
<filter id="filter0_d_5323_76121" x="0.5" y="9.73047" width="174" height="127.051" filterUnits="userSpaceOnUse" color-interpolation-filters="sRGB">
<feFlood flood-opacity="0" result="BackgroundImageFix"/>
<feColorMatrix in="SourceAlpha" type="matrix" values="0 0 0 0 0 0 0 0 0 0 0 0 0 0 0 0 0 0 127 0" result="hardAlpha"/>
<feOffset dy="11"/>
<feGaussianBlur stdDeviation="11"/>
<feColorMatrix type="matrix" values="0 0 0 0 0.397708 0 0 0 0 0.47749 0 0 0 0 0.575 0 0 0 0.27 0"/>
<feBlend mode="normal" in2="BackgroundImageFix" result="effect1_dropShadow_5323_76121"/>
<feBlend mode="normal" in="SourceGraphic" in2="effect1_dropShadow_5323_76121" result="shape"/>
</filter>
<linearGradient id="paint0_linear_5323_76121" x1="87.4999" y1="55.0504" x2="87.4576" y2="104.677" gradientUnits="userSpaceOnUse">
<stop stop-color="white"/>
<stop offset="0.9964" stop-color="#ECF0F5"/>
</linearGradient>
<linearGradient id="paint1_linear_5323_76121" x1="103.035" y1="52.0015" x2="123.852" y2="74.7697" gradientUnits="userSpaceOnUse">
<stop stop-color="#BCCBE1"/>
<stop offset="0.9942" stop-color="white" stop-opacity="0"/>
</linearGradient>
<linearGradient id="paint2_linear_5323_76121" x1="44.9905" y1="43.186" x2="77.8008" y2="56.0257" gradientUnits="userSpaceOnUse">
<stop stop-color="#E2E8F0"/>
<stop offset="0.9942" stop-color="white" stop-opacity="0"/>
</linearGradient>
<linearGradient id="paint3_linear_5323_76121" x1="123" y1="10" x2="123" y2="50" gradientUnits="userSpaceOnUse">
<stop stop-color="#5E9E53"/>
<stop offset="1" stop-color="#80CC73"/>
</linearGradient>
</defs>
<path d="M89.2 117.6C117.2 117.6 139.9 94.9 139.9 66.8C139.9 38.7 117.1 16 89.2 16C61.2 16 38.5 38.7 38.5 66.8C38.5 94.9 61.2 117.6 89.2 117.6Z" fill="#EAEEF9"/>
<path d="M136.2 33.6004C138.464 33.6004 140.3 31.7648 140.3 29.5004C140.3 27.236 138.464 25.4004 136.2 25.4004C133.936 25.4004 132.1 27.236 132.1 29.5004C132.1 31.7648 133.936 33.6004 136.2 33.6004Z" fill="#F1F3F9"/>
<path d="M142.2 17.6C143.746 17.6 145 16.3464 145 14.8C145 13.2536 143.746 12 142.2 12C140.654 12 139.4 13.2536 139.4 14.8C139.4 16.3464 140.654 17.6 142.2 17.6Z" fill="#EAEEF9"/>
<path d="M34.3 40.6C35.8464 40.6 37.1 39.3464 37.1 37.8C37.1 36.2536 35.8464 35 34.3 35C32.7536 35 31.5 36.2536 31.5 37.8C31.5 39.3464 32.7536 40.6 34.3 40.6Z" fill="#EAEEF9"/>
<path d="M49.7 118.4C52.5719 118.4 54.9 116.072 54.9 113.2C54.9 110.328 52.5719 108 49.7 108C46.8281 108 44.5 110.328 44.5 113.2C44.5 116.072 46.8281 118.4 49.7 118.4Z" fill="#EAEEF9"/>
<g filter="url(#filter0_d_5323_76121)">
<path d="M152.5 80.4041C152.5 93.3255 142.05 103.775 129.017 103.775C128.792 103.775 126.882 103.775 112.837 103.775C103.062 103.775 87.4438 103.775 62.5 103.775H50.5899C34.9719 104.112 22.5 91.6401 22.5 76.5839C22.5 61.4154 35.0843 48.8311 50.9269 49.6176C64.5224 7.14577 126.77 13.1008 132.05 57.0334C143.736 58.494 152.5 68.3817 152.5 80.4041Z" fill="url(#paint0_linear_5323_76121)"/>
</g>
<path d="M129.017 103.775C141.938 103.775 152.5 93.3253 152.5 80.404C152.5 67.4826 141.938 57.0332 129.017 57.0332C116.096 57.0332 105.534 67.4826 105.534 80.404C105.534 93.3253 116.096 103.775 129.017 103.775Z" fill="url(#paint1_linear_5323_76121)"/>
<path d="M90.7021 104C113.736 104 132.5 85.3479 132.5 62.3143C132.5 39.2806 113.736 20.6289 90.7021 20.6289C67.6684 20.6289 48.9044 39.2806 48.9044 62.3143C48.9044 85.3479 67.5561 104 90.7021 104Z" fill="url(#paint2_linear_5323_76121)"/>
<path fill-rule="evenodd" clip-rule="evenodd" d="M43.2363 24.0514C43.4707 23.1292 44.4082 22.5717 45.3303 22.8061L51.8505 24.4635C52.7726 24.6979 53.3301 25.6354 53.0957 26.5575C52.8614 27.4796 51.9238 28.0371 51.0017 27.8028L44.4815 26.1454C43.5594 25.911 43.0019 24.9735 43.2363 24.0514Z" fill="#989FB0"/>
<path fill-rule="evenodd" clip-rule="evenodd" d="M48.7764 5.7143C49.5636 5.17995 50.635 5.38494 51.1693 6.17216L58.9637 17.6552C59.4981 18.4424 59.2931 19.5137 58.5059 20.0481C57.7187 20.5824 56.6473 20.3774 56.113 19.5902L48.3185 8.10721C47.7842 7.31999 47.9892 6.24864 48.7764 5.7143Z" fill="#989FB0"/>
<path fill-rule="evenodd" clip-rule="evenodd" d="M63.2351 0.536284C64.1684 0.351547 65.0748 0.958405 65.2595 1.89174L67.9543 15.5061C68.139 16.4394 67.5322 17.3458 66.5988 17.5306C65.6655 17.7153 64.7591 17.1084 64.5744 16.1751L61.8796 2.56073C61.6949 1.6274 62.3018 0.721022 63.2351 0.536284Z" fill="#989FB0"/>
<path d="M143.094 34.0647C142.668 35.8614 142.028 37.5889 141.246 39.1783C139.186 42.9098 136.13 45.9503 132.293 47.8161C128.313 49.82 123.623 50.511 118.862 49.6127C107.776 47.3323 100.599 36.8288 102.944 25.9798C105.289 15.1308 116.02 8.15147 127.176 10.4318C131.156 11.2611 134.638 13.1268 137.551 15.8218C142.383 20.6589 144.444 27.5 143.094 34.0647Z" fill="url(#paint3_linear_5323_76121)"/>
<path d="M118.533 41C117.853 41 117.174 40.7326 116.638 40.1596L111.277 34.4297C110.241 33.322 110.241 31.4884 111.277 30.3806C112.314 29.2729 114.029 29.2729 115.066 30.3806L118.533 34.0859L130.934 20.8308C131.971 19.7231 133.686 19.7231 134.723 20.8308C135.759 21.9386 135.759 23.7722 134.723 24.8799L120.427 40.1596C119.891 40.7326 119.212 41 118.533 41Z" fill="white"/>
<path d="M72.1139 57.1236C68.7784 57.1344 65.9838 59.4023 64.9269 62.6527C64.6624 63.3595 65.0649 64.0641 65.733 64.3442C66.401 64.6244 67.0667 64.1988 67.3313 63.492C67.9915 61.3722 69.9878 59.8128 72.1226 59.8059C74.2573 59.799 76.2632 61.2043 76.9376 63.4609C77.2068 64.166 77.8753 64.5873 78.5415 64.3028C79.2076 64.0183 79.6056 63.3111 79.3365 62.6061C78.2582 59.2214 75.4495 57.1128 72.1139 57.1236Z" fill="#989FB0"/>
<path d="M102.726 57.024C99.3901 57.0348 96.5955 59.3026 95.5386 62.5531C95.2741 63.2599 95.6766 63.9644 96.3446 64.2446C97.0127 64.5248 97.6784 64.0991 97.943 63.3924C98.6032 61.2726 100.6 59.7132 102.734 59.7063C104.869 59.6994 106.875 61.1047 107.549 63.3613C107.818 64.0664 108.487 64.4877 109.153 64.2032C109.819 63.9187 110.217 63.2115 109.948 62.5065C108.87 59.1218 106.061 57.0132 102.726 57.024Z" fill="#989FB0"/>
<path d="M79.6675 70.2553L81.5987 70.2346C83.2709 73.7823 87.5933 75.0731 90.9909 73.2539C92.3215 72.6453 93.4972 71.4442 94.077 70.1009L96.0082 70.0802C94.4235 74.7028 89.1011 77.1369 84.6254 75.4021C82.5361 74.5331 80.5859 72.7711 79.6675 70.2553Z" fill="#989FB0"/>
<circle opacity="0.4" cx="109.348" cy="76.6811" r="5.10188" transform="rotate(-0.185319 109.348 76.6811)" fill="#D5DDEA"/>
<circle opacity="0.4" cx="65.6184" cy="76.8236" r="5.10188" transform="rotate(-0.185319 65.6184 76.8236)" fill="#D5DDEA"/>

</svg>
