<svg width="180" height="180" viewBox="0 0 180 180" fill="none" xmlns="http://www.w3.org/2000/svg">
<defs>
<linearGradient id="paint0_linear_4433_68896" x1="89.9626" y1="15" x2="89.9626" y2="165" gradientUnits="userSpaceOnUse">
<stop stop-color="#5E9E53"/>
<stop offset="1" stop-color="#80CC73"/>
</linearGradient>
</defs>
<path d="M121.425 15H58.575C31.275 15 15 31.275 15 58.575V121.35C15 148.725 31.275 165 58.575 165H121.35C148.65 165 164.925 148.725 164.925 121.425V58.575C165 31.275 148.725 15 121.425 15ZM125.85 72.75L83.325 115.275C82.275 116.325 80.85 116.925 79.35 116.925C77.85 116.925 76.425 116.325 75.375 115.275L54.15 94.05C51.975 91.875 51.975 88.275 54.15 86.1C56.325 83.925 59.925 83.925 62.1 86.1L79.35 103.35L117.9 64.8C120.075 62.625 123.675 62.625 125.85 64.8C128.025 66.975 128.025 70.5 125.85 72.75Z" fill="url(#paint0_linear_4433_68896)"/>
</svg>
