<svg width="26" height="26" viewBox="0 0 26 26" fill="none" xmlns="http://www.w3.org/2000/svg">
<rect width="26" height="26" rx="9" fill="#F7FAFC"/>
<path fill-rule="evenodd" clip-rule="evenodd" d="M10.5488 11.4997C10.7917 11.6003 10.9501 11.8373 10.9501 12.1002V17.5002C10.9501 17.8592 10.6591 18.1502 10.3001 18.1502C9.94111 18.1502 9.6501 17.8592 9.6501 17.5002V13.6695L8.95972 14.3598C8.70588 14.6137 8.29432 14.6137 8.04048 14.3598C7.78664 14.106 7.78664 13.6944 8.04048 13.4406L9.84048 11.6406C10.0264 11.4547 10.306 11.3991 10.5488 11.4997Z" fill="#3E4552"/>
<path fill-rule="evenodd" clip-rule="evenodd" d="M9.84028 11.6406C10.0941 11.3867 10.5057 11.3867 10.7595 11.6406L12.5595 13.4406C12.8134 13.6944 12.8134 14.106 12.5595 14.3598C12.3057 14.6137 11.8941 14.6137 11.6403 14.3598L9.84028 12.5598C9.58644 12.306 9.58644 11.8944 9.84028 11.6406Z" fill="#3E4552"/>
<path fill-rule="evenodd" clip-rule="evenodd" d="M5.92222 5.92222C5.09126 6.75318 4.6501 8.11421 4.6501 10.3001V15.7001C4.6501 17.886 5.09126 19.247 5.92222 20.078C6.75318 20.9089 8.11421 21.3501 10.3001 21.3501H15.7001C17.886 21.3501 19.247 20.9089 20.078 20.078C20.9089 19.247 21.3501 17.886 21.3501 15.7001V11.2001C21.3501 10.8411 21.6411 10.5501 22.0001 10.5501C22.3591 10.5501 22.6501 10.8411 22.6501 11.2001V15.7001C22.6501 18.0142 22.1913 19.8032 20.9972 20.9972C19.8032 22.1913 18.0142 22.6501 15.7001 22.6501H10.3001C7.98599 22.6501 6.19702 22.1913 5.00298 20.9972C3.80894 19.8032 3.3501 18.0142 3.3501 15.7001V10.3001C3.3501 7.98599 3.80894 6.19702 5.00298 5.00298C6.19702 3.80894 7.98599 3.3501 10.3001 3.3501H14.8001C15.1591 3.3501 15.4501 3.64111 15.4501 4.0001C15.4501 4.35908 15.1591 4.6501 14.8001 4.6501H10.3001C8.11421 4.6501 6.75318 5.09126 5.92222 5.92222Z" fill="#3E4552"/>
<path fill-rule="evenodd" clip-rule="evenodd" d="M14.5512 3.39959C14.794 3.29899 15.0736 3.3546 15.2595 3.5405L22.4595 10.7405C22.6454 10.9264 22.701 11.206 22.6004 11.4489C22.4998 11.6917 22.2628 11.8501 21.9999 11.8501H18.3999C17.0139 11.8501 15.883 11.6275 15.1278 10.8722C14.3725 10.117 14.1499 8.98613 14.1499 7.60012V4.00012C14.1499 3.73722 14.3083 3.5002 14.5512 3.39959ZM15.4499 5.56936V7.60012C15.4499 8.91411 15.6773 9.58326 16.047 9.953C16.4168 10.3227 17.0859 10.5501 18.3999 10.5501H20.4307L15.4499 5.56936Z" fill="#3E4552"/>
</svg>
