<svg width="24" height="24" viewBox="0 0 24 24" fill="none" xmlns="http://www.w3.org/2000/svg">
<path fill-rule="evenodd" clip-rule="evenodd" d="M12.0003 7.6733C10.7668 7.6733 9.77779 8.66853 9.77779 9.89583C9.77779 11.0828 10.7066 12.0502 11.8822 12.1087C11.9591 12.1022 12.0414 12.1016 12.1205 12.1086C13.2918 12.0492 14.2153 11.0849 14.2229 9.8943C14.222 8.66879 13.226 7.6733 12.0003 7.6733ZM8.6792 9.89583C8.6792 8.06398 10.1578 6.57471 12.0003 6.57471C13.8333 6.57471 15.3214 8.06289 15.3214 9.89583V9.89893H15.3214C15.3113 11.6865 13.9056 13.1473 12.1204 13.2082C12.0882 13.2093 12.056 13.2075 12.024 13.203C12.0251 13.2031 12.0178 13.2022 12.0035 13.2022C11.9898 13.2022 11.9767 13.2031 11.967 13.2043C11.9382 13.2079 11.9092 13.2092 11.8802 13.2082C10.0978 13.1474 8.6792 11.6886 8.6792 9.89583Z" fill="#9194AB"/>
<path fill-rule="evenodd" clip-rule="evenodd" d="M8.10526 16.513C7.41804 16.9758 7.03637 17.5138 6.89967 18.0295C8.27763 19.1996 10.053 19.9014 12 19.9014C13.9469 19.9014 15.7223 19.1996 17.1002 18.0295C16.9635 17.5136 16.5816 16.9754 15.8939 16.5124C14.8543 15.8171 13.4462 15.4521 12.0063 15.4521C10.5669 15.4521 9.15406 15.8168 8.10526 16.513ZM12.0063 14.3535C13.6126 14.3535 15.2465 14.7574 16.5054 15.5998L16.5066 15.6006C17.508 16.2744 18.136 17.1826 18.2419 18.1785C18.2604 18.352 18.1953 18.5239 18.0667 18.6417C16.4652 20.1082 14.3399 21 12 21C9.66003 21 7.53466 20.1082 5.93322 18.6417C5.80456 18.5239 5.73951 18.352 5.75797 18.1785C5.86392 17.1826 6.49191 16.2744 7.4933 15.6006L7.49603 15.5988L7.49603 15.5988C8.76258 14.7575 10.3998 14.3535 12.0063 14.3535Z" fill="#9194AB"/>
<path fill-rule="evenodd" clip-rule="evenodd" d="M12 4.09859C7.63617 4.09859 4.09859 7.63617 4.09859 12C4.09859 16.3638 7.63617 19.9014 12 19.9014C16.3638 19.9014 19.9014 16.3638 19.9014 12C19.9014 7.63617 16.3638 4.09859 12 4.09859ZM3 12C3 7.02943 7.02943 3 12 3C16.9706 3 21 7.02943 21 12C21 16.9706 16.9706 21 12 21C7.02943 21 3 16.9706 3 12Z" fill="#9194AB"/>
</svg>
