<svg width="26" height="26" viewBox="0 0 26 26" fill="none" xmlns="http://www.w3.org/2000/svg">
<defs>
<linearGradient id="paint0_linear_3095_38345" x1="13" y1="0" x2="13" y2="26" gradientUnits="userSpaceOnUse">
<stop stop-color="#F44336"/>
<stop offset="1" stop-color="#F2918F"/>
</linearGradient>
</defs>
<rect width="26" height="26" rx="9" fill="url(#paint0_linear_3095_38345)"/>
<path fill-rule="evenodd" clip-rule="evenodd" d="M13.0003 8.6733C11.7668 8.6733 10.7778 9.66853 10.7778 10.8958C10.7778 12.0828 11.7066 13.0502 12.8822 13.1087C12.9591 13.1022 13.0414 13.1016 13.1205 13.1086C14.2918 13.0492 15.2153 12.0849 15.2229 10.8943C15.222 9.66879 14.226 8.6733 13.0003 8.6733ZM9.6792 10.8958C9.6792 9.06398 11.1578 7.57471 13.0003 7.57471C14.8333 7.57471 16.3214 9.06289 16.3214 10.8958V10.8989H16.3214C16.3113 12.6865 14.9056 14.1473 13.1204 14.2082C13.0882 14.2093 13.056 14.2075 13.024 14.203C13.0251 14.2031 13.0178 14.2022 13.0035 14.2022C12.9898 14.2022 12.9767 14.2031 12.967 14.2043C12.9382 14.2079 12.9092 14.2092 12.8802 14.2082C11.0978 14.1474 9.6792 12.6886 9.6792 10.8958Z" fill="white"/>
<path fill-rule="evenodd" clip-rule="evenodd" d="M9.10526 17.513C8.41804 17.9758 8.03637 18.5138 7.89967 19.0295C9.27763 20.1996 11.053 20.9014 13 20.9014C14.9469 20.9014 16.7223 20.1996 18.1002 19.0295C17.9635 18.5136 17.5816 17.9754 16.8939 17.5124C15.8543 16.8171 14.4462 16.4521 13.0063 16.4521C11.5669 16.4521 10.1541 16.8168 9.10526 17.513ZM13.0063 15.3535C14.6126 15.3535 16.2465 15.7574 17.5054 16.5998L17.5066 16.6006C18.508 17.2744 19.136 18.1826 19.2419 19.1785C19.2604 19.352 19.1953 19.5239 19.0667 19.6417C17.4652 21.1082 15.3399 22 13 22C10.66 22 8.53466 21.1082 6.93322 19.6417C6.80456 19.5239 6.73951 19.352 6.75797 19.1785C6.86392 18.1826 7.49191 17.2744 8.4933 16.6006L8.49603 16.5988L8.49603 16.5988C9.76258 15.7575 11.3998 15.3535 13.0063 15.3535Z" fill="white"/>
<path fill-rule="evenodd" clip-rule="evenodd" d="M13 5.09859C8.63617 5.09859 5.09859 8.63617 5.09859 13C5.09859 17.3638 8.63617 20.9014 13 20.9014C17.3638 20.9014 20.9014 17.3638 20.9014 13C20.9014 8.63617 17.3638 5.09859 13 5.09859ZM4 13C4 8.02943 8.02943 4 13 4C17.9706 4 22 8.02943 22 13C22 17.9706 17.9706 22 13 22C8.02943 22 4 17.9706 4 13Z" fill="white"/>
</svg>
