<svg width="200" height="200" viewBox="0 0 200 200" fill="none" xmlns="http://www.w3.org/2000/svg">
    <defs>
        <linearGradient id="paint0_linear_4149_46273" x1="99.9584" y1="16.6665" x2="99.9584" y2="183.25" gradientUnits="userSpaceOnUse">
            <stop stop-color="#F44336"/>
            <stop offset="1" stop-color="#F2918F"/>
        </linearGradient>
        <linearGradient id="paint1_linear_4149_46273" x1="100.256" y1="50" x2="100.256" y2="150" gradientUnits="userSpaceOnUse">
            <stop stop-color="#F44336"/>
            <stop offset="1" stop-color="#F2918F"/>
        </linearGradient>
        <linearGradient id="paint2_linear_4149_46273" x1="100.266" y1="80.4854" x2="100.266" y2="107.289" gradientUnits="userSpaceOnUse">
            <stop stop-color="#F44336"/>
            <stop offset="1" stop-color="#F2918F"/>
        </linearGradient>
    </defs>
<path opacity="0.4" d="M134.917 16.6665H65.1666C34.75 16.6665 16.6666 34.7498 16.6666 65.0832V134.833C16.6666 165.167 34.7499 183.25 65.0833 183.25H134.833C165.167 183.25 183.25 165.167 183.25 134.833V65.0832C183.333 34.7498 165.25 16.6665 134.917 16.6665Z" fill="url(#paint0_linear_4149_46273)"/>
<path opacity="0.4" d="M142.294 82.667C137.223 60.0926 117.526 50 100.266 50C100.266 50 100.266 50 100.217 50C83.0058 50 63.3569 60.0926 58.2374 82.6182C52.4841 107.777 67.8913 129.083 81.8357 142.54C87.0039 147.513 93.6348 150 100.266 150C106.897 150 113.528 147.513 118.647 142.54C132.591 129.083 147.999 107.825 142.294 82.667Z" fill="url(#paint1_linear_4149_46273)"/>
<path d="M94.1711 107.289C93.2447 107.289 92.3183 106.948 91.587 106.217L84.2735 98.9032C82.8595 97.4893 82.8595 95.1489 84.2735 93.735C85.6874 92.321 88.0277 92.321 89.4417 93.735L94.1711 98.4644L111.09 81.5458C112.504 80.1319 114.844 80.1319 116.258 81.5458C117.672 82.9598 117.672 85.3001 116.258 86.714L96.7552 106.217C96.0238 106.948 95.0975 107.289 94.1711 107.289Z" fill="url(#paint2_linear_4149_46273)"/>
</svg>
