<svg width="33" height="32" viewBox="0 0 33 32" fill="none" xmlns="http://www.w3.org/2000/svg">
<path d="M3.16675 13.0003C2.62008 13.0003 2.16675 12.547 2.16675 12.0003V8.66699C2.16675 4.80033 5.31341 1.66699 9.16675 1.66699H12.5001C13.0467 1.66699 13.5001 2.12033 13.5001 2.66699C13.5001 3.21366 13.0467 3.66699 12.5001 3.66699H9.16675C6.40675 3.66699 4.16675 5.90699 4.16675 8.66699V12.0003C4.16675 12.547 3.71341 13.0003 3.16675 13.0003Z" fill="white"/>
<path d="M29.8333 13.0003C29.2867 13.0003 28.8333 12.547 28.8333 12.0003V8.66699C28.8333 5.90699 26.5933 3.66699 23.8333 3.66699H20.5C19.9533 3.66699 19.5 3.21366 19.5 2.66699C19.5 2.12033 19.9533 1.66699 20.5 1.66699H23.8333C27.6867 1.66699 30.8333 4.80033 30.8333 8.66699V12.0003C30.8333 12.547 30.38 13.0003 29.8333 13.0003Z" fill="white"/>
<path d="M23.8333 30.333H21.8333C21.2866 30.333 20.8333 29.8797 20.8333 29.333C20.8333 28.7863 21.2866 28.333 21.8333 28.333H23.8333C26.5933 28.333 28.8333 26.093 28.8333 23.333V21.333C28.8333 20.7863 29.2866 20.333 29.8333 20.333C30.3799 20.333 30.8333 20.7863 30.8333 21.333V23.333C30.8333 27.1997 27.6866 30.333 23.8333 30.333Z" fill="white"/>
<path d="M12.5001 30.3333H9.16675C5.31341 30.3333 2.16675 27.2 2.16675 23.3333V20C2.16675 19.4533 2.62008 19 3.16675 19C3.71341 19 4.16675 19.4533 4.16675 20V23.3333C4.16675 26.0933 6.40675 28.3333 9.16675 28.3333H12.5001C13.0467 28.3333 13.5001 28.7867 13.5001 29.3333C13.5001 29.88 13.0467 30.3333 12.5001 30.3333Z" fill="white"/>
<path d="M12.5 7H9.83333C8.31333 7 7.5 7.8 7.5 9.33333V12C7.5 13.5333 8.31333 14.3333 9.83333 14.3333H12.5C14.02 14.3333 14.8333 13.5333 14.8333 12V9.33333C14.8333 7.8 14.02 7 12.5 7Z" fill="white"/>
<path d="M23.1667 7H20.5001C18.9801 7 18.1667 7.8 18.1667 9.33333V12C18.1667 13.5333 18.9801 14.3333 20.5001 14.3333H23.1667C24.6867 14.3333 25.5001 13.5333 25.5001 12V9.33333C25.5001 7.8 24.6867 7 23.1667 7Z" fill="white"/>
<path d="M12.5 17.667H9.83333C8.31333 17.667 7.5 18.467 7.5 20.0003V22.667C7.5 24.2003 8.31333 25.0003 9.83333 25.0003H12.5C14.02 25.0003 14.8333 24.2003 14.8333 22.667V20.0003C14.8333 18.467 14.02 17.667 12.5 17.667Z" fill="white"/>
<path d="M23.1667 17.667H20.5001C18.9801 17.667 18.1667 18.467 18.1667 20.0003V22.667C18.1667 24.2003 18.9801 25.0003 20.5001 25.0003H23.1667C24.6867 25.0003 25.5001 24.2003 25.5001 22.667V20.0003C25.5001 18.467 24.6867 17.667 23.1667 17.667Z" fill="white"/>
</svg>
