<svg width="68" height="40" viewBox="0 0 68 40" fill="none" xmlns="http://www.w3.org/2000/svg">
<path d="M7.10548 0.289124C9.38357 0.289124 10.5226 1.50049 10.5226 3.94131V14.5182C10.5226 16.9409 9.38357 18.1704 7.10548 18.1704H0V0.307205H7.10548V0.289124ZM6.65348 14.9521V3.47122C6.65348 3.32658 6.59924 3.20002 6.50884 3.09154C6.41844 2.98306 6.29187 2.92882 6.12915 2.92882H3.86914V15.5126H6.12915C6.27379 15.5126 6.40036 15.4583 6.50884 15.3499C6.59924 15.2233 6.65348 15.0967 6.65348 14.9521Z" fill="#F0F3FC"/>
<path d="M16.7051 0.289032V18.1522H12.8359V0.289032H16.7051Z" fill="#F0F3FC"/>
<path d="M24.2437 11.065V8.22639H29.3604V14.8076C29.3604 17.2303 28.2213 18.4597 25.9432 18.4597H22.4718C20.1937 18.4597 19.0547 17.2484 19.0547 14.8076V3.68829C19.0547 1.26555 20.1937 0.0361023 22.4718 0.0361023H25.9432C28.2213 0.0361023 29.3604 1.24747 29.3604 3.68829V5.36973H25.6901V3.2182C25.6901 3.07356 25.6359 2.947 25.5455 2.83852C25.437 2.73004 25.3104 2.6758 25.1658 2.6758H23.4301C23.2854 2.6758 23.1589 2.73004 23.0504 2.83852C22.9419 2.947 22.9058 3.07356 22.9058 3.2182V15.2596C22.9058 15.4042 22.96 15.5308 23.0504 15.6392C23.1589 15.7477 23.2674 15.802 23.4301 15.802H25.1658C25.3104 15.802 25.437 15.7477 25.5455 15.6392C25.6539 15.5308 25.6901 15.4042 25.6901 15.2596V11.083H24.2437V11.065Z" fill="#F0F3FC"/>
<path d="M34.7847 0.289124V18.1523H30.9336V0.289124H34.7847Z" fill="#F0F3FC"/>
<path d="M36.0898 3.57961V0.289032H45.7627V3.57961H42.8699V18.1522H39.0007V3.57961H36.0898Z" fill="#F0F3FC"/>
<path d="M54.0781 0.0180452C56.3562 0.0180452 57.4953 1.22942 57.4953 3.67023V18.1705H53.6261V12.1679H50.8418V18.1524H46.9727V3.65215C46.9727 1.22941 48.1117 -3.05176e-05 50.3898 -3.05176e-05H54.0781V0.0180452ZM50.8418 9.18467H53.6261V3.20015C53.6261 3.05551 53.5719 2.92894 53.4815 2.82046C53.373 2.71198 53.2645 2.65774 53.1018 2.65774H51.3661C51.2215 2.65774 51.0949 2.71198 50.9864 2.82046C50.878 2.92894 50.8418 3.05551 50.8418 3.20015V9.18467Z" fill="#F0F3FC"/>
<path d="M63.6792 14.8979H67.91V18.1523H59.8281V0.289124H63.6973V14.8979H63.6792Z" fill="#F0F3FC"/>
<path d="M4.22917 32.8712V40H0V21.8182H4.22917V29.4266H7.58901V21.8182H11.8182V40H7.58901V32.8712H4.22917Z" fill="#6085DE"/>
<path d="M17.5123 36.7298H21.8185V39.9999H13.6367V21.8181H21.8185V25.0228H17.5123V29.2957H21.5386V32.3914H17.5123V36.7298Z" fill="#6085DE"/>
<path d="M30.9837 21.8182C33.3658 21.8182 34.5458 23.0417 34.5458 25.4674V40H30.5384V33.9895H27.6441V40H23.6367V25.4674C23.6367 23.0417 24.8167 21.8182 27.1989 21.8182H30.9837ZM27.6219 31.0057H30.5161V24.9952C30.5161 24.8449 30.4716 24.7161 30.3603 24.6088C30.249 24.5014 30.1154 24.437 29.9818 24.437H28.1562C28.0004 24.437 27.8668 24.5014 27.7777 24.6088C27.6664 24.7161 27.6219 24.8449 27.6219 24.9952V31.0057V31.0057Z" fill="#6085DE"/>
<path d="M40.4395 36.6862H44.2298V39.9999H36.957V21.8181H40.4202V36.6862H40.4395Z" fill="#6085DE"/>
<path d="M44.2271 25.1537V21.8182H54.2271V25.1537H51.2337V40H47.2426V25.1537H44.2271Z" fill="#6085DE"/>
<path d="M59.6254 32.8711V39.9999H56.0469V21.8181H59.6254V29.4265H62.4683V21.8181H66.0469V39.9999H62.4683V32.8711H59.6254Z" fill="#6085DE"/>
</svg>
