<svg width="100" height="100" viewBox="0 0 100 100" fill="none" xmlns="http://www.w3.org/2000/svg">
<path opacity="0.4" d="M87.875 89.5833C87.875 90.75 86.9583 91.6667 85.7916 91.6667H14.2083C13.0417 91.6667 12.125 90.75 12.125 89.5833C12.125 72.3333 29.125 58.3333 50 58.3333C54.2916 58.3333 58.4584 58.9165 62.2917 60.0416C59.8334 62.9582 58.3333 66.75 58.3333 70.8333C58.3333 73.9583 59.2083 76.9167 60.7499 79.4167C61.5833 80.8333 62.6666 82.1249 63.9166 83.2082C66.8333 85.8749 70.7083 87.5 75 87.5C79.6666 87.5 83.875 85.5833 86.875 82.4999C87.5417 84.7499 87.875 87.125 87.875 89.5833Z" fill="#F1F2F7"/>
<path d="M91.1669 66.8333C90.7502 65.2083 90.0835 63.5833 89.1669 62.125C88.5419 61.0417 87.7085 60 86.7918 59.0417C83.7918 56.0417 79.8752 54.4168 75.8752 54.2085C71.3335 53.9168 66.7086 55.5834 63.2086 59.0417C59.9169 62.3334 58.2502 66.7084 58.3335 71.0834C58.3752 75.2501 60.0419 79.4168 63.2086 82.6252C65.4169 84.8335 68.1252 86.2917 71.0002 86.9584C72.5836 87.3751 74.2502 87.5417 75.9169 87.4167C79.8752 87.25 83.7502 85.6668 86.7918 82.6252C91.0835 78.3335 92.5419 72.2917 91.1669 66.8333ZM81.6669 77.5C80.4586 78.7083 78.4586 78.7083 77.2502 77.5L74.9585 75.2084L72.7502 77.4168C71.5418 78.6252 69.5419 78.6252 68.3335 77.4168C67.1252 76.1668 67.1252 74.2085 68.3335 73.0002L70.5418 70.7917L68.4169 68.7084C67.2086 67.4584 67.2086 65.5 68.4169 64.25C69.6669 63.0417 71.6252 63.0417 72.8752 64.25L74.9585 66.3751L77.1668 64.1669C78.3752 62.9585 80.3335 62.9585 81.5835 64.1669C82.7918 65.3752 82.7918 67.3752 81.5835 68.5835L79.3752 70.7917L81.6669 73.0833C82.8752 74.2917 82.8752 76.2917 81.6669 77.5Z" fill="#EE5253"/>
<path d="M49.9998 50C61.5058 50 70.8332 40.6726 70.8332 29.1667C70.8332 17.6607 61.5058 8.33333 49.9998 8.33333C38.4939 8.33333 29.1665 17.6607 29.1665 29.1667C29.1665 40.6726 38.4939 50 49.9998 50Z" fill="#F1F2F7"/>
</svg>
