<svg width="217" height="218" viewBox="0 0 217 218" fill="none" xmlns="http://www.w3.org/2000/svg">
<path d="M7.47126 0.666504H1C0.447715 0.666504 0 1.11422 0 1.6665V8.13777H7.47126V0.666504Z" fill="#F0F3FC"/>
<path d="M14.9425 0.666504H7.47126V8.13777H14.9425V0.666504Z" fill="#F0F3FC"/>
<path d="M22.4138 0.666504H14.9425V8.13777H22.4138V0.666504Z" fill="#F0F3FC"/>
<path d="M29.8851 0.666504H22.4138V8.13777H29.8851V0.666504Z" fill="#F0F3FC"/>
<path d="M37.3563 0.666504H29.8851V8.13777H37.3563V0.666504Z" fill="#F0F3FC"/>
<path d="M44.8276 0.666504H37.3563V8.13777H44.8276V0.666504Z" fill="#F0F3FC"/>
<path d="M52.2989 1.6665C52.2989 1.11422 51.8511 0.666504 51.2989 0.666504H44.8276V8.13777H52.2989V1.6665Z" fill="#F0F3FC"/>
<path d="M67.2414 0.666504H60.7701C60.2178 0.666504 59.7701 1.11422 59.7701 1.6665V7.13777C59.7701 7.69005 60.2178 8.13777 60.7701 8.13777H67.2414V0.666504Z" fill="#F0F3FC"/>
<path d="M74.7126 0.666504H67.2414V8.13777H74.7126V0.666504Z" fill="#F0F3FC"/>
<path d="M82.1839 0.666504H74.7126V8.13777H82.1839V0.666504Z" fill="#F0F3FC"/>
<path d="M89.6552 1.6665C89.6552 1.11422 89.2075 0.666504 88.6552 0.666504H82.1839V8.13777H89.6552V1.6665Z" fill="#F0F3FC"/>
<path d="M104.598 1.6665C104.598 1.11422 104.15 0.666504 103.598 0.666504H98.1264C97.5742 0.666504 97.1264 1.11422 97.1264 1.6665V7.13777C97.1264 7.69005 97.5742 8.13777 98.1264 8.13777H103.598C104.15 8.13777 104.598 7.69005 104.598 7.13777V1.6665Z" fill="#F0F3FC"/>
<path d="M127.011 0.666504H120.54C119.988 0.666504 119.54 1.11422 119.54 1.6665V8.13777H127.011V0.666504Z" fill="#F0F3FC"/>
<path d="M134.483 0.666504H127.011V8.13777H134.483V0.666504Z" fill="#F0F3FC"/>
<path d="M141.954 0.666504H134.483V8.13777H141.954V0.666504Z" fill="#F0F3FC"/>
<path d="M149.425 0.666504H141.954V8.13777H149.425V0.666504Z" fill="#F0F3FC"/>
<path d="M156.897 1.6665C156.897 1.11422 156.449 0.666504 155.897 0.666504H149.425V8.13777H156.897V1.6665Z" fill="#F0F3FC"/>
<path d="M171.839 0.666504H165.368C164.816 0.666504 164.368 1.11422 164.368 1.6665V8.13777H171.839V0.666504Z" fill="#F0F3FC"/>
<path d="M179.31 0.666504H171.839V8.13777H179.31V0.666504Z" fill="#F0F3FC"/>
<path d="M186.782 0.666504H179.31V8.13777H186.782V0.666504Z" fill="#F0F3FC"/>
<path d="M194.253 0.666504H186.782V8.13777H194.253V0.666504Z" fill="#F0F3FC"/>
<path d="M201.724 0.666504H194.253V8.13777H201.724V0.666504Z" fill="#F0F3FC"/>
<path d="M209.195 0.666504H201.724V8.13777H209.195V0.666504Z" fill="#F0F3FC"/>
<path d="M216.667 1.6665C216.667 1.11422 216.219 0.666504 215.667 0.666504H209.195V8.13777H216.667V1.6665Z" fill="#F0F3FC"/>
<path d="M7.47126 8.13777H0V15.609H7.47126V8.13777Z" fill="#F0F3FC"/>
<path d="M52.2989 8.13777H44.8276V15.609H52.2989V8.13777Z" fill="#F0F3FC"/>
<path d="M82.1839 8.13777H74.7126V15.609H82.1839V8.13777Z" fill="#F0F3FC"/>
<path d="M89.6552 8.13777H82.1839V15.609H88.6552C89.2075 15.609 89.6552 15.1613 89.6552 14.609V8.13777Z" fill="#F0F3FC"/>
<path d="M119.54 8.13777H113.069C112.517 8.13777 112.069 8.58548 112.069 9.13777V15.609H119.54V8.13777Z" fill="#F0F3FC"/>
<path d="M134.483 8.13777H127.011V15.609H134.483V8.13777Z" fill="#F0F3FC"/>
<path d="M141.954 8.13777H134.483V15.609H141.954V8.13777Z" fill="#F0F3FC"/>
<path d="M149.425 8.13777H141.954V15.609H149.425V8.13777Z" fill="#F0F3FC"/>
<path d="M156.897 8.13777H149.425V15.609H155.897C156.449 15.609 156.897 15.1613 156.897 14.609V8.13777Z" fill="#F0F3FC"/>
<path d="M171.839 8.13777H164.368V15.609H171.839V8.13777Z" fill="#F0F3FC"/>
<path d="M216.667 8.13777H209.195V15.609H216.667V8.13777Z" fill="#F0F3FC"/>
<path d="M7.47126 15.609H0V23.0803H7.47126V15.609Z" fill="#F0F3FC"/>
<path d="M22.4138 15.609H15.9425C15.3902 15.609 14.9425 16.0567 14.9425 16.609V23.0803H22.4138V15.609Z" fill="#F0F3FC"/>
<path d="M29.8851 15.609H22.4138V23.0803H29.8851V15.609Z" fill="#F0F3FC"/>
<path d="M37.3563 16.609C37.3563 16.0567 36.9086 15.609 36.3563 15.609H29.8851V23.0803H37.3563V16.609Z" fill="#F0F3FC"/>
<path d="M52.2989 15.609H44.8276V23.0803H52.2989V15.609Z" fill="#F0F3FC"/>
<path d="M74.7126 15.609H68.2414C67.6891 15.609 67.2414 16.0567 67.2414 16.609V23.0803H74.7126V15.609Z" fill="#F0F3FC"/>
<path d="M119.54 15.609H112.069V23.0803H119.54V15.609Z" fill="#F0F3FC"/>
<path d="M127.011 15.609H119.54V23.0803H127.011V15.609Z" fill="#F0F3FC"/>
<path d="M134.483 15.609H127.011V23.0803H134.483V15.609Z" fill="#F0F3FC"/>
<path d="M149.425 15.609H141.954V22.0803C141.954 22.6326 142.402 23.0803 142.954 23.0803H148.425C148.978 23.0803 149.425 22.6326 149.425 22.0803V15.609Z" fill="#F0F3FC"/>
<path d="M171.839 15.609H164.368V23.0803H171.839V15.609Z" fill="#F0F3FC"/>
<path d="M186.782 15.609H180.31C179.758 15.609 179.31 16.0567 179.31 16.609V23.0803H186.782V15.609Z" fill="#F0F3FC"/>
<path d="M194.253 15.609H186.782V23.0803H194.253V15.609Z" fill="#F0F3FC"/>
<path d="M201.724 16.609C201.724 16.0567 201.276 15.609 200.724 15.609H194.253V23.0803H201.724V16.609Z" fill="#F0F3FC"/>
<path d="M216.667 15.609H209.195V23.0803H216.667V15.609Z" fill="#F0F3FC"/>
<path d="M7.47126 23.0803H0V30.5516H7.47126V23.0803Z" fill="#F0F3FC"/>
<path d="M22.4138 23.0803H14.9425V30.5516H22.4138V23.0803Z" fill="#F0F3FC"/>
<path d="M29.8851 23.0803H22.4138V30.5516H29.8851V23.0803Z" fill="#F0F3FC"/>
<path d="M37.3563 23.0803H29.8851V30.5516H37.3563V23.0803Z" fill="#F0F3FC"/>
<path d="M52.2989 23.0803H44.8276V30.5516H52.2989V23.0803Z" fill="#F0F3FC"/>
<path d="M67.2414 23.0803H60.7701C60.2178 23.0803 59.7701 23.528 59.7701 24.0803V30.5516H67.2414V23.0803Z" fill="#F0F3FC"/>
<path d="M82.1839 24.0803C82.1839 23.528 81.7362 23.0803 81.1839 23.0803H74.7126V30.5516H82.1839V24.0803Z" fill="#F0F3FC"/>
<path d="M97.1264 24.0803C97.1264 23.528 96.6787 23.0803 96.1264 23.0803H90.6552C90.1029 23.0803 89.6552 23.528 89.6552 24.0803V30.5516H97.1264V24.0803Z" fill="#F0F3FC"/>
<path d="M112.069 23.0803H105.598C105.045 23.0803 104.598 23.528 104.598 24.0803V30.5516H112.069V23.0803Z" fill="#F0F3FC"/>
<path d="M119.54 23.0803H112.069V30.5516H119.54V23.0803Z" fill="#F0F3FC"/>
<path d="M134.483 23.0803H127.011V29.5516C127.011 30.1038 127.459 30.5516 128.011 30.5516H134.483V23.0803Z" fill="#F0F3FC"/>
<path d="M171.839 23.0803H164.368V30.5516H171.839V23.0803Z" fill="#F0F3FC"/>
<path d="M186.782 23.0803H179.31V30.5516H186.782V23.0803Z" fill="#F0F3FC"/>
<path d="M194.253 23.0803H186.782V30.5516H194.253V23.0803Z" fill="#F0F3FC"/>
<path d="M201.724 23.0803H194.253V30.5516H201.724V23.0803Z" fill="#F0F3FC"/>
<path d="M216.667 23.0803H209.195V30.5516H216.667V23.0803Z" fill="#F0F3FC"/>
<path d="M7.47126 30.5516H0V38.0228H7.47126V30.5516Z" fill="#F0F3FC"/>
<path d="M22.4138 30.5516H14.9425V37.0228C14.9425 37.5751 15.3902 38.0228 15.9425 38.0228H22.4138V30.5516Z" fill="#F0F3FC"/>
<path d="M29.8851 30.5516H22.4138V38.0228H29.8851V30.5516Z" fill="#F0F3FC"/>
<path d="M37.3563 30.5516H29.8851V38.0228H36.3563C36.9086 38.0228 37.3563 37.5751 37.3563 37.0228V30.5516Z" fill="#F0F3FC"/>
<path d="M52.2989 30.5516H44.8276V38.0228H52.2989V30.5516Z" fill="#F0F3FC"/>
<path d="M67.2414 30.5516H59.7701V38.0228H67.2414V30.5516Z" fill="#F0F3FC"/>
<path d="M82.1839 30.5516H74.7126V38.0228H82.1839V30.5516Z" fill="#F0F3FC"/>
<path d="M89.6552 30.5516H82.1839V38.0228H89.6552V30.5516Z" fill="#F0F3FC"/>
<path d="M97.1264 30.5516H89.6552V38.0228H97.1264V30.5516Z" fill="#F0F3FC"/>
<path d="M112.069 30.5516H104.598V38.0228H112.069V30.5516Z" fill="#F0F3FC"/>
<path d="M119.54 30.5516H112.069V38.0228H118.54C119.093 38.0228 119.54 37.5751 119.54 37.0228V30.5516Z" fill="#F0F3FC"/>
<path d="M141.954 30.5516H134.483V38.0228H141.954V30.5516Z" fill="#F0F3FC"/>
<path d="M149.425 30.5516H141.954V38.0228H149.425V30.5516Z" fill="#F0F3FC"/>
<path d="M156.897 31.5516C156.897 30.9993 156.449 30.5516 155.897 30.5516H149.425V38.0228H156.897V31.5516Z" fill="#F0F3FC"/>
<path d="M171.839 30.5516H164.368V38.0228H171.839V30.5516Z" fill="#F0F3FC"/>
<path d="M186.782 30.5516H179.31V37.0228C179.31 37.5751 179.758 38.0228 180.31 38.0228H186.782V30.5516Z" fill="#F0F3FC"/>
<path d="M194.253 30.5516H186.782V38.0228H194.253V30.5516Z" fill="#F0F3FC"/>
<path d="M201.724 30.5516H194.253V38.0228H200.724C201.276 38.0228 201.724 37.5751 201.724 37.0228V30.5516Z" fill="#F0F3FC"/>
<path d="M216.667 30.5516H209.195V38.0228H216.667V30.5516Z" fill="#F0F3FC"/>
<path d="M7.47126 38.0228H0V45.4941H7.47126V38.0228Z" fill="#F0F3FC"/>
<path d="M52.2989 38.0228H44.8276V45.4941H52.2989V38.0228Z" fill="#F0F3FC"/>
<path d="M67.2414 38.0228H59.7701V45.4941H67.2414V38.0228Z" fill="#F0F3FC"/>
<path d="M74.7126 38.0228H67.2414V45.4941H74.7126V38.0228Z" fill="#F0F3FC"/>
<path d="M97.1264 38.0228H89.6552V45.4941H97.1264V38.0228Z" fill="#F0F3FC"/>
<path d="M104.598 38.0228H97.1264V45.4941H104.598V38.0228Z" fill="#F0F3FC"/>
<path d="M112.069 38.0228H104.598V45.4941H112.069V38.0228Z" fill="#F0F3FC"/>
<path d="M134.483 38.0228H128.011C127.459 38.0228 127.011 38.4705 127.011 39.0228V45.4941H134.483V38.0228Z" fill="#F0F3FC"/>
<path d="M141.954 38.0228H134.483V45.4941H141.954V38.0228Z" fill="#F0F3FC"/>
<path d="M156.897 38.0228H149.425V45.4941H156.897V38.0228Z" fill="#F0F3FC"/>
<path d="M171.839 38.0228H164.368V45.4941H171.839V38.0228Z" fill="#F0F3FC"/>
<path d="M216.667 38.0228H209.195V45.4941H216.667V38.0228Z" fill="#F0F3FC"/>
<path d="M7.47126 45.4941H0V51.9654C0 52.5176 0.447715 52.9654 1 52.9654H7.47126V45.4941Z" fill="#F0F3FC"/>
<path d="M14.9425 45.4941H7.47126V52.9654H14.9425V45.4941Z" fill="#F0F3FC"/>
<path d="M22.4138 45.4941H14.9425V52.9654H22.4138V45.4941Z" fill="#F0F3FC"/>
<path d="M29.8851 45.4941H22.4138V52.9654H29.8851V45.4941Z" fill="#F0F3FC"/>
<path d="M37.3563 45.4941H29.8851V52.9654H37.3563V45.4941Z" fill="#F0F3FC"/>
<path d="M44.8276 45.4941H37.3563V52.9654H44.8276V45.4941Z" fill="#F0F3FC"/>
<path d="M52.2989 45.4941H44.8276V52.9654H51.2989C51.8511 52.9654 52.2989 52.5176 52.2989 51.9654V45.4941Z" fill="#F0F3FC"/>
<path d="M67.2414 45.4941H59.7701V52.9654H67.2414V45.4941Z" fill="#F0F3FC"/>
<path d="M82.1839 46.4941C82.1839 45.9418 81.7362 45.4941 81.1839 45.4941H74.7126V51.9654C74.7126 52.5176 75.1604 52.9654 75.7126 52.9654H82.1839V46.4941Z" fill="#F0F3FC"/>
<path d="M97.1264 45.4941H89.6552V52.9654H97.1264V45.4941Z" fill="#F0F3FC"/>
<path d="M112.069 45.4941H104.598V52.9654H111.069C111.621 52.9654 112.069 52.5176 112.069 51.9654V45.4941Z" fill="#F0F3FC"/>
<path d="M127.011 45.4941H120.54C119.988 45.4941 119.54 45.9418 119.54 46.4941V51.9654C119.54 52.5176 119.988 52.9654 120.54 52.9654H127.011V45.4941Z" fill="#F0F3FC"/>
<path d="M141.954 45.4941H134.483V52.9654H141.954V45.4941Z" fill="#F0F3FC"/>
<path d="M156.897 45.4941H149.425V52.9654H156.897V45.4941Z" fill="#F0F3FC"/>
<path d="M171.839 45.4941H164.368V51.9654C164.368 52.5176 164.816 52.9654 165.368 52.9654H171.839V45.4941Z" fill="#F0F3FC"/>
<path d="M179.31 45.4941H171.839V52.9654H179.31V45.4941Z" fill="#F0F3FC"/>
<path d="M186.782 45.4941H179.31V52.9654H186.782V45.4941Z" fill="#F0F3FC"/>
<path d="M194.253 45.4941H186.782V52.9654H194.253V45.4941Z" fill="#F0F3FC"/>
<path d="M201.724 45.4941H194.253V52.9654H201.724V45.4941Z" fill="#F0F3FC"/>
<path d="M209.195 45.4941H201.724V52.9654H209.195V45.4941Z" fill="#F0F3FC"/>
<path d="M216.667 45.4941H209.195V52.9654H215.667C216.219 52.9654 216.667 52.5176 216.667 51.9654V45.4941Z" fill="#F0F3FC"/>
<path d="M67.2414 52.9654H59.7701V60.4366H67.2414V52.9654Z" fill="#F0F3FC"/>
<path d="M89.6552 52.9654H82.1839V60.4366H89.6552V52.9654Z" fill="#F0F3FC"/>
<path d="M97.1264 52.9654H89.6552V60.4366H97.1264V52.9654Z" fill="#F0F3FC"/>
<path d="M104.598 52.9654H97.1264V60.4366H104.598V52.9654Z" fill="#F0F3FC"/>
<path d="M134.483 52.9654H127.011V60.4366H134.483V52.9654Z" fill="#F0F3FC"/>
<path d="M149.425 52.9654H141.954V60.4366H149.425V52.9654Z" fill="#F0F3FC"/>
<path d="M156.897 52.9654H149.425V60.4366H156.897V52.9654Z" fill="#F0F3FC"/>
<path d="M7.47126 60.4366H1C0.447715 60.4366 0 60.8843 0 61.4366V66.9079C0 67.4602 0.447715 67.9079 1 67.9079H7.47126V60.4366Z" fill="#F0F3FC"/>
<path d="M14.9425 60.4366H7.47126V67.9079H14.9425V60.4366Z" fill="#F0F3FC"/>
<path d="M22.4138 61.4366C22.4138 60.8843 21.9661 60.4366 21.4138 60.4366H14.9425V67.9079H21.4138C21.9661 67.9079 22.4138 67.4602 22.4138 66.9079V61.4366Z" fill="#F0F3FC"/>
<path d="M37.3563 61.4366C37.3563 60.8843 36.9086 60.4366 36.3563 60.4366H30.8851C30.3328 60.4366 29.8851 60.8843 29.8851 61.4366V67.9079H37.3563V61.4366Z" fill="#F0F3FC"/>
<path d="M52.2989 61.4366C52.2989 60.8843 51.8511 60.4366 51.2989 60.4366H45.8276C45.2753 60.4366 44.8276 60.8843 44.8276 61.4366V67.9079H51.2989C51.8511 67.9079 52.2989 67.4602 52.2989 66.9079V61.4366Z" fill="#F0F3FC"/>
<path d="M67.2414 60.4366H59.7701V66.9079C59.7701 67.4602 60.2178 67.9079 60.7701 67.9079H67.2414V60.4366Z" fill="#F0F3FC"/>
<path d="M74.7126 60.4366H67.2414V67.9079H74.7126V60.4366Z" fill="#F0F3FC"/>
<path d="M82.1839 60.4366H74.7126V67.9079H82.1839V60.4366Z" fill="#F0F3FC"/>
<path d="M104.598 60.4366H97.1264V66.9079C97.1264 67.4602 97.5742 67.9079 98.1264 67.9079H103.598C104.15 67.9079 104.598 67.4602 104.598 66.9079V60.4366Z" fill="#F0F3FC"/>
<path d="M134.483 60.4366H127.011V66.9079C127.011 67.4602 127.459 67.9079 128.011 67.9079H134.483V60.4366Z" fill="#F0F3FC"/>
<path d="M141.954 60.4366H134.483V67.9079H141.954V60.4366Z" fill="#F0F3FC"/>
<path d="M156.897 60.4366H149.425V66.9079C149.425 67.4602 149.873 67.9079 150.425 67.9079H156.897V60.4366Z" fill="#F0F3FC"/>
<path d="M164.368 60.4366H156.897V67.9079H164.368V60.4366Z" fill="#F0F3FC"/>
<path d="M171.839 60.4366H164.368V67.9079H171.839V60.4366Z" fill="#F0F3FC"/>
<path d="M179.31 60.4366H171.839V67.9079H179.31V60.4366Z" fill="#F0F3FC"/>
<path d="M186.782 60.4366H179.31V67.9079H186.782V60.4366Z" fill="#F0F3FC"/>
<path d="M194.253 61.4366C194.253 60.8843 193.805 60.4366 193.253 60.4366H186.782V67.9079H194.253V61.4366Z" fill="#F0F3FC"/>
<path d="M216.667 61.4366C216.667 60.8843 216.219 60.4366 215.667 60.4366H210.195C209.643 60.4366 209.195 60.8843 209.195 61.4366V67.9079H215.667C216.219 67.9079 216.667 67.4602 216.667 66.9079V61.4366Z" fill="#F0F3FC"/>
<path d="M37.3563 67.9079H29.8851V75.3791H37.3563V67.9079Z" fill="#F0F3FC"/>
<path d="M44.8276 67.9079H37.3563V75.3791H44.8276V67.9079Z" fill="#F0F3FC"/>
<path d="M74.7126 67.9079H67.2414V75.3791H74.7126V67.9079Z" fill="#F0F3FC"/>
<path d="M89.6552 68.9079C89.6552 68.3556 89.2075 67.9079 88.6552 67.9079H82.1839V75.3791H88.6552C89.2075 75.3791 89.6552 74.9314 89.6552 74.3791V68.9079Z" fill="#F0F3FC"/>
<path d="M119.54 68.9079C119.54 68.3556 119.093 67.9079 118.54 67.9079H113.069C112.517 67.9079 112.069 68.3556 112.069 68.9079V75.3791H119.54V68.9079Z" fill="#F0F3FC"/>
<path d="M141.954 67.9079H134.483V75.3791H140.954C141.506 75.3791 141.954 74.9314 141.954 74.3791V67.9079Z" fill="#F0F3FC"/>
<path d="M171.839 67.9079H164.368V75.3791H171.839V67.9079Z" fill="#F0F3FC"/>
<path d="M179.31 67.9079H171.839V75.3791H179.31V67.9079Z" fill="#F0F3FC"/>
<path d="M194.253 67.9079H186.782V75.3791H194.253V67.9079Z" fill="#F0F3FC"/>
<path d="M209.195 67.9079H202.724C202.172 67.9079 201.724 68.3556 201.724 68.9079V75.3791H208.195C208.748 75.3791 209.195 74.9314 209.195 74.3791V67.9079Z" fill="#F0F3FC"/>
<path d="M7.47126 75.3791H1C0.447715 75.3791 0 75.8269 0 76.3791V81.8504C0 82.4027 0.447715 82.8504 1 82.8504H7.47126V75.3791Z" fill="#F0F3FC"/>
<path d="M14.9425 76.3791C14.9425 75.8269 14.4948 75.3791 13.9425 75.3791H7.47126V82.8504H13.9425C14.4948 82.8504 14.9425 82.4027 14.9425 81.8504V76.3791Z" fill="#F0F3FC"/>
<path d="M29.8851 75.3791H23.4138C22.8615 75.3791 22.4138 75.8269 22.4138 76.3791V81.8504C22.4138 82.4027 22.8615 82.8504 23.4138 82.8504H29.8851V75.3791Z" fill="#F0F3FC"/>
<path d="M52.2989 76.3791C52.2989 75.8269 51.8511 75.3791 51.2989 75.3791H44.8276V81.8504C44.8276 82.4027 45.2753 82.8504 45.8276 82.8504H51.2989C51.8511 82.8504 52.2989 82.4027 52.2989 81.8504V76.3791Z" fill="#F0F3FC"/>
<path d="M67.2414 75.3791H60.7701C60.2178 75.3791 59.7701 75.8269 59.7701 76.3791V81.8504C59.7701 82.4027 60.2178 82.8504 60.7701 82.8504H67.2414V75.3791Z" fill="#F0F3FC"/>
<path d="M74.7126 75.3791H67.2414V82.8504H74.7126V75.3791Z" fill="#F0F3FC"/>
<path d="M82.1839 75.3791H74.7126V82.8504H82.1839V75.3791Z" fill="#F0F3FC"/>
<path d="M119.54 75.3791H112.069V82.8504H119.54V75.3791Z" fill="#F0F3FC"/>
<path d="M127.011 75.3791H119.54V82.8504H127.011V75.3791Z" fill="#F0F3FC"/>
<path d="M134.483 75.3791H127.011V82.8504H134.483V75.3791Z" fill="#F0F3FC"/>
<path d="M156.897 75.3791H150.425C149.873 75.3791 149.425 75.8269 149.425 76.3791V82.8504H156.897V75.3791Z" fill="#F0F3FC"/>
<path d="M164.368 75.3791H156.897V82.8504H164.368V75.3791Z" fill="#F0F3FC"/>
<path d="M179.31 75.3791H171.839V82.8504H179.31V75.3791Z" fill="#F0F3FC"/>
<path d="M186.782 75.3791H179.31V82.8504H186.782V75.3791Z" fill="#F0F3FC"/>
<path d="M194.253 75.3791H186.782V82.8504H194.253V75.3791Z" fill="#F0F3FC"/>
<path d="M201.724 75.3791H194.253V82.8504H201.724V75.3791Z" fill="#F0F3FC"/>
<path d="M37.3563 83.8504C37.3563 83.2981 36.9086 82.8504 36.3563 82.8504H29.8851V90.3217H37.3563V83.8504Z" fill="#F0F3FC"/>
<path d="M74.7126 82.8504H67.2414V90.3217H74.7126V82.8504Z" fill="#F0F3FC"/>
<path d="M89.6552 82.8504H82.1839V90.3217H89.6552V82.8504Z" fill="#F0F3FC"/>
<path d="M97.1264 82.8504H89.6552V90.3217H97.1264V82.8504Z" fill="#F0F3FC"/>
<path d="M104.598 82.8504H97.1264V90.3217H104.598V82.8504Z" fill="#F0F3FC"/>
<path d="M112.069 82.8504H104.598V90.3217H112.069V82.8504Z" fill="#F0F3FC"/>
<path d="M127.011 82.8504H119.54V90.3217H127.011V82.8504Z" fill="#F0F3FC"/>
<path d="M134.483 82.8504H127.011V90.3217H134.483V82.8504Z" fill="#F0F3FC"/>
<path d="M141.954 82.8504H134.483V90.3217H141.954V82.8504Z" fill="#F0F3FC"/>
<path d="M149.425 82.8504H141.954V90.3217H149.425V82.8504Z" fill="#F0F3FC"/>
<path d="M156.897 82.8504H149.425V90.3217H156.897V82.8504Z" fill="#F0F3FC"/>
<path d="M164.368 82.8504H156.897V90.3217H164.368V82.8504Z" fill="#F0F3FC"/>
<path d="M171.839 82.8504H164.368V90.3217H171.839V82.8504Z" fill="#F0F3FC"/>
<path d="M179.31 82.8504H171.839V90.3217H178.31C178.863 90.3217 179.31 89.874 179.31 89.3217V82.8504Z" fill="#F0F3FC"/>
<path d="M194.253 82.8504H186.782V89.3217C186.782 89.874 187.229 90.3217 187.782 90.3217H193.253C193.805 90.3217 194.253 89.874 194.253 89.3217V82.8504Z" fill="#F0F3FC"/>
<path d="M209.195 83.8504C209.195 83.2981 208.748 82.8504 208.195 82.8504H201.724V89.3217C201.724 89.874 202.172 90.3217 202.724 90.3217H208.195C208.748 90.3217 209.195 89.874 209.195 89.3217V83.8504Z" fill="#F0F3FC"/>
<path d="M7.47126 91.3217C7.47126 90.7694 7.02355 90.3217 6.47126 90.3217H1C0.447715 90.3217 0 90.7694 0 91.3217V96.7929C0 97.3452 0.447715 97.7929 1 97.7929H6.47126C7.02355 97.7929 7.47126 97.3452 7.47126 96.7929V91.3217Z" fill="#F0F3FC"/>
<path d="M37.3563 90.3217H29.8851V96.7929C29.8851 97.3452 30.3328 97.7929 30.8851 97.7929H37.3563V90.3217Z" fill="#F0F3FC"/>
<path d="M44.8276 90.3217H37.3563V97.7929H44.8276V90.3217Z" fill="#F0F3FC"/>
<path d="M52.2989 90.3217H44.8276V97.7929H52.2989V90.3217Z" fill="#F0F3FC"/>
<path d="M59.7701 91.3217C59.7701 90.7694 59.3224 90.3217 58.7701 90.3217H52.2989V97.7929H59.7701V91.3217Z" fill="#F0F3FC"/>
<path d="M74.7126 90.3217H67.2414V97.7929H74.7126V90.3217Z" fill="#F0F3FC"/>
<path d="M82.1839 90.3217H74.7126V97.7929H82.1839V90.3217Z" fill="#F0F3FC"/>
<path d="M97.1264 90.3217H89.6552V97.7929H97.1264V90.3217Z" fill="#F0F3FC"/>
<path d="M119.54 90.3217H112.069V97.7929H119.54V90.3217Z" fill="#F0F3FC"/>
<path d="M127.011 90.3217H119.54V97.7929H127.011V90.3217Z" fill="#F0F3FC"/>
<path d="M134.483 90.3217H127.011V97.7929H134.483V90.3217Z" fill="#F0F3FC"/>
<path d="M141.954 90.3217H134.483V97.7929H140.954C141.506 97.7929 141.954 97.3452 141.954 96.7929V90.3217Z" fill="#F0F3FC"/>
<path d="M59.7701 97.7929H52.2989V105.264H59.7701V97.7929Z" fill="#F0F3FC"/>
<path d="M67.2414 97.7929H59.7701V105.264H67.2414V97.7929Z" fill="#F0F3FC"/>
<path d="M74.7126 97.7929H67.2414V105.264H74.7126V97.7929Z" fill="#F0F3FC"/>
<path d="M82.1839 97.7929H74.7126V105.264H82.1839V97.7929Z" fill="#F0F3FC"/>
<path d="M89.6552 97.7929H82.1839V105.264H89.6552V97.7929Z" fill="#F0F3FC"/>
<path d="M97.1264 97.7929H89.6552V105.264H97.1264V97.7929Z" fill="#F0F3FC"/>
<path d="M104.598 97.7929H97.1264V105.264H104.598V97.7929Z" fill="#F0F3FC"/>
<path d="M112.069 97.7929H104.598V105.264H111.069C111.621 105.264 112.069 104.816 112.069 104.264V97.7929Z" fill="#F0F3FC"/>
<path d="M134.483 97.7929H127.011V105.264H134.483V97.7929Z" fill="#F0F3FC"/>
<path d="M156.897 98.7929C156.897 98.2407 156.449 97.7929 155.897 97.7929H150.425C149.873 97.7929 149.425 98.2407 149.425 98.7929V105.264H156.897V98.7929Z" fill="#F0F3FC"/>
<path d="M186.782 98.7929C186.782 98.2407 186.334 97.7929 185.782 97.7929H180.31C179.758 97.7929 179.31 98.2407 179.31 98.7929V105.264H186.782V98.7929Z" fill="#F0F3FC"/>
<path d="M209.195 97.7929H202.724C202.172 97.7929 201.724 98.2407 201.724 98.7929V105.264H209.195V97.7929Z" fill="#F0F3FC"/>
<path d="M216.667 98.7929C216.667 98.2407 216.219 97.7929 215.667 97.7929H209.195V105.264H215.667C216.219 105.264 216.667 104.816 216.667 104.264V98.7929Z" fill="#F0F3FC"/>
<path d="M37.3563 106.264C37.3563 105.712 36.9086 105.264 36.3563 105.264H30.8851C30.3328 105.264 29.8851 105.712 29.8851 106.264V112.735H37.3563V106.264Z" fill="#F0F3FC"/>
<path d="M52.2989 105.264H45.8276C45.2753 105.264 44.8276 105.712 44.8276 106.264V112.735H52.2989V105.264Z" fill="#F0F3FC"/>
<path d="M104.598 105.264H97.1264V112.735H103.598C104.15 112.735 104.598 112.288 104.598 111.735V105.264Z" fill="#F0F3FC"/>
<path d="M127.011 105.264H120.54C119.988 105.264 119.54 105.712 119.54 106.264V112.735H127.011V105.264Z" fill="#F0F3FC"/>
<path d="M134.483 105.264H127.011V112.735H134.483V105.264Z" fill="#F0F3FC"/>
<path d="M149.425 105.264H142.954C142.402 105.264 141.954 105.712 141.954 106.264V112.735H149.425V105.264Z" fill="#F0F3FC"/>
<path d="M156.897 105.264H149.425V112.735H156.897V105.264Z" fill="#F0F3FC"/>
<path d="M164.368 105.264H156.897V112.735H164.368V105.264Z" fill="#F0F3FC"/>
<path d="M171.839 105.264H164.368V112.735H171.839V105.264Z" fill="#F0F3FC"/>
<path d="M179.31 105.264H171.839V112.735H179.31V105.264Z" fill="#F0F3FC"/>
<path d="M186.782 105.264H179.31V112.735H185.782C186.334 112.735 186.782 112.288 186.782 111.735V105.264Z" fill="#F0F3FC"/>
<path d="M201.724 105.264H195.253C194.701 105.264 194.253 105.712 194.253 106.264V112.735H201.724V105.264Z" fill="#F0F3FC"/>
<path d="M7.47126 113.735C7.47126 113.183 7.02355 112.735 6.47126 112.735H1C0.447715 112.735 0 113.183 0 113.735V120.207H7.47126V113.735Z" fill="#F0F3FC"/>
<path d="M22.4138 113.735C22.4138 113.183 21.9661 112.735 21.4138 112.735H15.9425C15.3902 112.735 14.9425 113.183 14.9425 113.735V120.207H22.4138V113.735Z" fill="#F0F3FC"/>
<path d="M37.3563 112.735H29.8851V120.207H37.3563V112.735Z" fill="#F0F3FC"/>
<path d="M44.8276 112.735H37.3563V120.207H44.8276V112.735Z" fill="#F0F3FC"/>
<path d="M59.7701 113.735C59.7701 113.183 59.3224 112.735 58.7701 112.735H52.2989V120.207H59.7701V113.735Z" fill="#F0F3FC"/>
<path d="M82.1839 113.735C82.1839 113.183 81.7362 112.735 81.1839 112.735H75.7126C75.1604 112.735 74.7126 113.183 74.7126 113.735V120.207H82.1839V113.735Z" fill="#F0F3FC"/>
<path d="M97.1264 112.735H90.6552C90.1029 112.735 89.6552 113.183 89.6552 113.735V120.207H97.1264V112.735Z" fill="#F0F3FC"/>
<path d="M119.54 112.735H113.069C112.517 112.735 112.069 113.183 112.069 113.735V120.207H119.54V112.735Z" fill="#F0F3FC"/>
<path d="M141.954 112.735H134.483V120.207H140.954C141.506 120.207 141.954 119.759 141.954 119.207V112.735Z" fill="#F0F3FC"/>
<path d="M156.897 112.735H149.425V120.207H156.897V112.735Z" fill="#F0F3FC"/>
<path d="M179.31 112.735H171.839V119.207C171.839 119.759 172.287 120.207 172.839 120.207H178.31C178.863 120.207 179.31 119.759 179.31 119.207V112.735Z" fill="#F0F3FC"/>
<path d="M201.724 112.735H194.253V119.207C194.253 119.759 194.701 120.207 195.253 120.207H201.724V112.735Z" fill="#F0F3FC"/>
<path d="M216.667 113.735C216.667 113.183 216.219 112.735 215.667 112.735H210.195C209.643 112.735 209.195 113.183 209.195 113.735V120.207H215.667C216.219 120.207 216.667 119.759 216.667 119.207V113.735Z" fill="#F0F3FC"/>
<path d="M7.47126 120.207H0V126.678C0 127.23 0.447715 127.678 1 127.678H7.47126V120.207Z" fill="#F0F3FC"/>
<path d="M14.9425 120.207H7.47126V127.678H14.9425V120.207Z" fill="#F0F3FC"/>
<path d="M22.4138 120.207H14.9425V127.678H22.4138V120.207Z" fill="#F0F3FC"/>
<path d="M29.8851 120.207H22.4138V127.678H29.8851V120.207Z" fill="#F0F3FC"/>
<path d="M37.3563 120.207H29.8851V127.678H37.3563V120.207Z" fill="#F0F3FC"/>
<path d="M44.8276 120.207H37.3563V127.678H44.8276V120.207Z" fill="#F0F3FC"/>
<path d="M52.2989 120.207H44.8276V127.678H52.2989V120.207Z" fill="#F0F3FC"/>
<path d="M59.7701 120.207H52.2989V127.678H59.7701V120.207Z" fill="#F0F3FC"/>
<path d="M74.7126 120.207H68.2414C67.6891 120.207 67.2414 120.654 67.2414 121.207V127.678H74.7126V120.207Z" fill="#F0F3FC"/>
<path d="M82.1839 120.207H74.7126V127.678H82.1839V120.207Z" fill="#F0F3FC"/>
<path d="M89.6552 120.207H82.1839V127.678H89.6552V120.207Z" fill="#F0F3FC"/>
<path d="M97.1264 120.207H89.6552V127.678H97.1264V120.207Z" fill="#F0F3FC"/>
<path d="M104.598 120.207H97.1264V127.678H104.598V120.207Z" fill="#F0F3FC"/>
<path d="M112.069 120.207H104.598V127.678H112.069V120.207Z" fill="#F0F3FC"/>
<path d="M127.011 120.207H119.54V126.678C119.54 127.23 119.988 127.678 120.54 127.678H127.011V120.207Z" fill="#F0F3FC"/>
<path d="M134.483 120.207H127.011V127.678H133.483C134.035 127.678 134.483 127.23 134.483 126.678V120.207Z" fill="#F0F3FC"/>
<path d="M156.897 120.207H149.425V127.678H156.897V120.207Z" fill="#F0F3FC"/>
<path d="M209.195 120.207H201.724V127.678H209.195V120.207Z" fill="#F0F3FC"/>
<path d="M14.9425 127.678H7.47126V135.149H13.9425C14.4948 135.149 14.9425 134.702 14.9425 134.149V127.678Z" fill="#F0F3FC"/>
<path d="M29.8851 127.678H22.4138V134.149C22.4138 134.702 22.8615 135.149 23.4138 135.149H29.8851V127.678Z" fill="#F0F3FC"/>
<path d="M37.3563 127.678H29.8851V135.149H36.3563C36.9086 135.149 37.3563 134.702 37.3563 134.149V127.678Z" fill="#F0F3FC"/>
<path d="M67.2414 127.678H59.7701V135.149H67.2414V127.678Z" fill="#F0F3FC"/>
<path d="M74.7126 127.678H67.2414V135.149H74.7126V127.678Z" fill="#F0F3FC"/>
<path d="M89.6552 127.678H82.1839V135.149H89.6552V127.678Z" fill="#F0F3FC"/>
<path d="M112.069 127.678H104.598V134.149C104.598 134.702 105.045 135.149 105.598 135.149H112.069V127.678Z" fill="#F0F3FC"/>
<path d="M156.897 127.678H149.425V135.149H156.897V127.678Z" fill="#F0F3FC"/>
<path d="M164.368 128.678C164.368 128.126 163.92 127.678 163.368 127.678H156.897V135.149H164.368V128.678Z" fill="#F0F3FC"/>
<path d="M179.31 127.678H172.839C172.287 127.678 171.839 128.126 171.839 128.678V134.149C171.839 134.702 172.287 135.149 172.839 135.149H179.31V127.678Z" fill="#F0F3FC"/>
<path d="M186.782 127.678H179.31V135.149H186.782V127.678Z" fill="#F0F3FC"/>
<path d="M194.253 127.678H186.782V135.149H194.253V127.678Z" fill="#F0F3FC"/>
<path d="M201.724 127.678H194.253V135.149H201.724V127.678Z" fill="#F0F3FC"/>
<path d="M209.195 127.678H201.724V135.149H209.195V127.678Z" fill="#F0F3FC"/>
<path d="M216.667 128.678C216.667 128.126 216.219 127.678 215.667 127.678H209.195V135.149H215.667C216.219 135.149 216.667 134.702 216.667 134.149V128.678Z" fill="#F0F3FC"/>
<path d="M7.47126 135.149H1C0.447715 135.149 0 135.597 0 136.149V141.621C0 142.173 0.447715 142.621 1 142.621H7.47126V135.149Z" fill="#F0F3FC"/>
<path d="M52.2989 135.149H45.8276C45.2753 135.149 44.8276 135.597 44.8276 136.149V141.621C44.8276 142.173 45.2753 142.621 45.8276 142.621H52.2989V135.149Z" fill="#F0F3FC"/>
<path d="M59.7701 135.149H52.2989V142.621H59.7701V135.149Z" fill="#F0F3FC"/>
<path d="M67.2414 135.149H59.7701V142.621H67.2414V135.149Z" fill="#F0F3FC"/>
<path d="M74.7126 135.149H67.2414V142.621H74.7126V135.149Z" fill="#F0F3FC"/>
<path d="M89.6552 135.149H82.1839V142.621H89.6552V135.149Z" fill="#F0F3FC"/>
<path d="M119.54 136.149C119.54 135.597 119.093 135.149 118.54 135.149H112.069V142.621H119.54V136.149Z" fill="#F0F3FC"/>
<path d="M134.483 136.149C134.483 135.597 134.035 135.149 133.483 135.149H128.011C127.459 135.149 127.011 135.597 127.011 136.149V142.621H134.483V136.149Z" fill="#F0F3FC"/>
<path d="M149.425 135.149H142.954C142.402 135.149 141.954 135.597 141.954 136.149V142.621H149.425V135.149Z" fill="#F0F3FC"/>
<path d="M156.897 135.149H149.425V142.621H156.897V135.149Z" fill="#F0F3FC"/>
<path d="M164.368 135.149H156.897V142.621H164.368V135.149Z" fill="#F0F3FC"/>
<path d="M186.782 135.149H179.31V142.621H186.782V135.149Z" fill="#F0F3FC"/>
<path d="M194.253 135.149H186.782V142.621H193.253C193.805 142.621 194.253 142.173 194.253 141.621V135.149Z" fill="#F0F3FC"/>
<path d="M209.195 135.149H201.724V141.621C201.724 142.173 202.172 142.621 202.724 142.621H209.195V135.149Z" fill="#F0F3FC"/>
<path d="M14.9425 143.621C14.9425 143.068 14.4948 142.621 13.9425 142.621H7.47126V149.092C7.47126 149.644 7.91898 150.092 8.47126 150.092H14.9425V143.621Z" fill="#F0F3FC"/>
<path d="M37.3563 143.621C37.3563 143.068 36.9086 142.621 36.3563 142.621H30.8851C30.3328 142.621 29.8851 143.068 29.8851 143.621V150.092H36.3563C36.9086 150.092 37.3563 149.644 37.3563 149.092V143.621Z" fill="#F0F3FC"/>
<path d="M74.7126 142.621H67.2414V150.092H74.7126V142.621Z" fill="#F0F3FC"/>
<path d="M89.6552 142.621H82.1839V150.092H89.6552V142.621Z" fill="#F0F3FC"/>
<path d="M97.1264 143.621C97.1264 143.068 96.6787 142.621 96.1264 142.621H89.6552V150.092H97.1264V143.621Z" fill="#F0F3FC"/>
<path d="M112.069 142.621H105.598C105.045 142.621 104.598 143.068 104.598 143.621V150.092H112.069V142.621Z" fill="#F0F3FC"/>
<path d="M119.54 142.621H112.069V150.092H119.54V142.621Z" fill="#F0F3FC"/>
<path d="M134.483 142.621H127.011V150.092H134.483V142.621Z" fill="#F0F3FC"/>
<path d="M141.954 142.621H134.483V150.092H141.954V142.621Z" fill="#F0F3FC"/>
<path d="M171.839 142.621H164.368V150.092H171.839V142.621Z" fill="#F0F3FC"/>
<path d="M179.31 142.621H171.839V150.092H179.31V142.621Z" fill="#F0F3FC"/>
<path d="M186.782 142.621H179.31V150.092H186.782V142.621Z" fill="#F0F3FC"/>
<path d="M216.667 143.621C216.667 143.068 216.219 142.621 215.667 142.621H209.195V150.092H216.667V143.621Z" fill="#F0F3FC"/>
<path d="M22.4138 150.092H14.9425V156.563C14.9425 157.115 15.3902 157.563 15.9425 157.563H22.4138V150.092Z" fill="#F0F3FC"/>
<path d="M29.8851 150.092H22.4138V157.563H28.8851C29.4373 157.563 29.8851 157.115 29.8851 156.563V150.092Z" fill="#F0F3FC"/>
<path d="M52.2989 151.092C52.2989 150.54 51.8511 150.092 51.2989 150.092H45.8276C45.2753 150.092 44.8276 150.54 44.8276 151.092V156.563C44.8276 157.115 45.2753 157.563 45.8276 157.563H51.2989C51.8511 157.563 52.2989 157.115 52.2989 156.563V151.092Z" fill="#F0F3FC"/>
<path d="M74.7126 150.092H67.2414V157.563H74.7126V150.092Z" fill="#F0F3FC"/>
<path d="M82.1839 150.092H74.7126V157.563H82.1839V150.092Z" fill="#F0F3FC"/>
<path d="M97.1264 150.092H89.6552V156.563C89.6552 157.115 90.1029 157.563 90.6552 157.563H96.1264C96.6787 157.563 97.1264 157.115 97.1264 156.563V150.092Z" fill="#F0F3FC"/>
<path d="M112.069 150.092H104.598V156.563C104.598 157.115 105.045 157.563 105.598 157.563H112.069V150.092Z" fill="#F0F3FC"/>
<path d="M119.54 150.092H112.069V157.563H119.54V150.092Z" fill="#F0F3FC"/>
<path d="M127.011 150.092H119.54V157.563H127.011V150.092Z" fill="#F0F3FC"/>
<path d="M134.483 150.092H127.011V157.563H133.483C134.035 157.563 134.483 157.115 134.483 156.563V150.092Z" fill="#F0F3FC"/>
<path d="M149.425 150.092H141.954V157.563H149.425V150.092Z" fill="#F0F3FC"/>
<path d="M156.897 150.092H149.425V157.563H156.897V150.092Z" fill="#F0F3FC"/>
<path d="M164.368 150.092H156.897V157.563H164.368V150.092Z" fill="#F0F3FC"/>
<path d="M171.839 150.092H164.368V157.563H171.839V150.092Z" fill="#F0F3FC"/>
<path d="M179.31 150.092H171.839V157.563H179.31V150.092Z" fill="#F0F3FC"/>
<path d="M186.782 150.092H179.31V157.563H186.782V150.092Z" fill="#F0F3FC"/>
<path d="M194.253 151.092C194.253 150.54 193.805 150.092 193.253 150.092H186.782V157.563H194.253V151.092Z" fill="#F0F3FC"/>
<path d="M216.667 150.092H209.195V157.563H216.667V150.092Z" fill="#F0F3FC"/>
<path d="M67.2414 157.563H60.7701C60.2178 157.563 59.7701 158.011 59.7701 158.563V164.034C59.7701 164.587 60.2178 165.034 60.7701 165.034H66.2414C66.7937 165.034 67.2414 164.587 67.2414 164.034V157.563Z" fill="#F0F3FC"/>
<path d="M82.1839 157.563H74.7126V165.034H82.1839V157.563Z" fill="#F0F3FC"/>
<path d="M149.425 157.563H141.954V165.034H149.425V157.563Z" fill="#F0F3FC"/>
<path d="M156.897 157.563H149.425V165.034H156.897V157.563Z" fill="#F0F3FC"/>
<path d="M186.782 157.563H179.31V165.034H186.782V157.563Z" fill="#F0F3FC"/>
<path d="M194.253 157.563H186.782V165.034H194.253V157.563Z" fill="#F0F3FC"/>
<path d="M201.724 158.563C201.724 158.011 201.276 157.563 200.724 157.563H194.253V165.034H200.724C201.276 165.034 201.724 164.587 201.724 164.034V158.563Z" fill="#F0F3FC"/>
<path d="M216.667 157.563H209.195V164.034C209.195 164.587 209.643 165.034 210.195 165.034H215.667C216.219 165.034 216.667 164.587 216.667 164.034V157.563Z" fill="#F0F3FC"/>
<path d="M7.47126 165.034H1C0.447715 165.034 0 165.482 0 166.034V172.506H7.47126V165.034Z" fill="#F0F3FC"/>
<path d="M14.9425 165.034H7.47126V172.506H14.9425V165.034Z" fill="#F0F3FC"/>
<path d="M22.4138 165.034H14.9425V172.506H22.4138V165.034Z" fill="#F0F3FC"/>
<path d="M29.8851 165.034H22.4138V172.506H29.8851V165.034Z" fill="#F0F3FC"/>
<path d="M37.3563 165.034H29.8851V172.506H37.3563V165.034Z" fill="#F0F3FC"/>
<path d="M44.8276 165.034H37.3563V172.506H44.8276V165.034Z" fill="#F0F3FC"/>
<path d="M52.2989 166.034C52.2989 165.482 51.8511 165.034 51.2989 165.034H44.8276V172.506H52.2989V166.034Z" fill="#F0F3FC"/>
<path d="M82.1839 165.034H74.7126V172.506H82.1839V165.034Z" fill="#F0F3FC"/>
<path d="M89.6552 165.034H82.1839V172.506H89.6552V165.034Z" fill="#F0F3FC"/>
<path d="M97.1264 165.034H89.6552V172.506H97.1264V165.034Z" fill="#F0F3FC"/>
<path d="M104.598 166.034C104.598 165.482 104.15 165.034 103.598 165.034H97.1264V172.506H104.598V166.034Z" fill="#F0F3FC"/>
<path d="M141.954 165.034H135.483C134.93 165.034 134.483 165.482 134.483 166.034V172.506H141.954V165.034Z" fill="#F0F3FC"/>
<path d="M149.425 165.034H141.954V172.506H149.425V165.034Z" fill="#F0F3FC"/>
<path d="M156.897 165.034H149.425V172.506H156.897V165.034Z" fill="#F0F3FC"/>
<path d="M171.839 166.034C171.839 165.482 171.391 165.034 170.839 165.034H165.368C164.816 165.034 164.368 165.482 164.368 166.034V171.506C164.368 172.058 164.816 172.506 165.368 172.506H170.839C171.391 172.506 171.839 172.058 171.839 171.506V166.034Z" fill="#F0F3FC"/>
<path d="M186.782 165.034H179.31V172.506H186.782V165.034Z" fill="#F0F3FC"/>
<path d="M7.47126 172.506H0V179.977H7.47126V172.506Z" fill="#F0F3FC"/>
<path d="M52.2989 172.506H44.8276V179.977H52.2989V172.506Z" fill="#F0F3FC"/>
<path d="M74.7126 172.506H68.2414C67.6891 172.506 67.2414 172.953 67.2414 173.506V179.977H74.7126V172.506Z" fill="#F0F3FC"/>
<path d="M82.1839 172.506H74.7126V179.977H81.1839C81.7362 179.977 82.1839 179.529 82.1839 178.977V172.506Z" fill="#F0F3FC"/>
<path d="M97.1264 172.506H89.6552V178.977C89.6552 179.529 90.1029 179.977 90.6552 179.977H97.1264V172.506Z" fill="#F0F3FC"/>
<path d="M104.598 172.506H97.1264V179.977H104.598V172.506Z" fill="#F0F3FC"/>
<path d="M112.069 173.506C112.069 172.953 111.621 172.506 111.069 172.506H104.598V179.977H112.069V173.506Z" fill="#F0F3FC"/>
<path d="M127.011 173.506C127.011 172.953 126.564 172.506 126.011 172.506H120.54C119.988 172.506 119.54 172.953 119.54 173.506V179.977H127.011V173.506Z" fill="#F0F3FC"/>
<path d="M141.954 172.506H134.483V179.977H141.954V172.506Z" fill="#F0F3FC"/>
<path d="M156.897 172.506H149.425V179.977H156.897V172.506Z" fill="#F0F3FC"/>
<path d="M186.782 172.506H179.31V179.977H186.782V172.506Z" fill="#F0F3FC"/>
<path d="M201.724 173.506C201.724 172.953 201.276 172.506 200.724 172.506H195.253C194.701 172.506 194.253 172.953 194.253 173.506V179.977H201.724V173.506Z" fill="#F0F3FC"/>
<path d="M7.47126 179.977H0V187.448H7.47126V179.977Z" fill="#F0F3FC"/>
<path d="M22.4138 179.977H15.9425C15.3902 179.977 14.9425 180.425 14.9425 180.977V187.448H22.4138V179.977Z" fill="#F0F3FC"/>
<path d="M29.8851 179.977H22.4138V187.448H29.8851V179.977Z" fill="#F0F3FC"/>
<path d="M37.3563 180.977C37.3563 180.425 36.9086 179.977 36.3563 179.977H29.8851V187.448H37.3563V180.977Z" fill="#F0F3FC"/>
<path d="M52.2989 179.977H44.8276V187.448H52.2989V179.977Z" fill="#F0F3FC"/>
<path d="M67.2414 179.977H60.7701C60.2178 179.977 59.7701 180.425 59.7701 180.977V186.448C59.7701 187 60.2178 187.448 60.7701 187.448H67.2414V179.977Z" fill="#F0F3FC"/>
<path d="M74.7126 179.977H67.2414V187.448H73.7126C74.2649 187.448 74.7126 187 74.7126 186.448V179.977Z" fill="#F0F3FC"/>
<path d="M104.598 179.977H97.1264V187.448H104.598V179.977Z" fill="#F0F3FC"/>
<path d="M112.069 179.977H104.598V187.448H112.069V179.977Z" fill="#F0F3FC"/>
<path d="M119.54 179.977H112.069V187.448H118.54C119.093 187.448 119.54 187 119.54 186.448V179.977Z" fill="#F0F3FC"/>
<path d="M134.483 179.977H127.011V187.448H134.483V179.977Z" fill="#F0F3FC"/>
<path d="M141.954 179.977H134.483V187.448H141.954V179.977Z" fill="#F0F3FC"/>
<path d="M156.897 179.977H149.425V187.448H156.897V179.977Z" fill="#F0F3FC"/>
<path d="M164.368 179.977H156.897V187.448H164.368V179.977Z" fill="#F0F3FC"/>
<path d="M171.839 179.977H164.368V187.448H171.839V179.977Z" fill="#F0F3FC"/>
<path d="M179.31 179.977H171.839V187.448H179.31V179.977Z" fill="#F0F3FC"/>
<path d="M186.782 179.977H179.31V187.448H186.782V179.977Z" fill="#F0F3FC"/>
<path d="M201.724 179.977H194.253V187.448H201.724V179.977Z" fill="#F0F3FC"/>
<path d="M209.195 180.977C209.195 180.425 208.748 179.977 208.195 179.977H201.724V187.448H209.195V180.977Z" fill="#F0F3FC"/>
<path d="M7.47126 187.448H0V194.919H7.47126V187.448Z" fill="#F0F3FC"/>
<path d="M22.4138 187.448H14.9425V194.919H22.4138V187.448Z" fill="#F0F3FC"/>
<path d="M29.8851 187.448H22.4138V194.919H29.8851V187.448Z" fill="#F0F3FC"/>
<path d="M37.3563 187.448H29.8851V194.919H37.3563V187.448Z" fill="#F0F3FC"/>
<path d="M52.2989 187.448H44.8276V194.919H52.2989V187.448Z" fill="#F0F3FC"/>
<path d="M104.598 187.448H97.1264V193.919C97.1264 194.472 97.5742 194.919 98.1264 194.919H104.598V187.448Z" fill="#F0F3FC"/>
<path d="M112.069 187.448H104.598V194.919H112.069V187.448Z" fill="#F0F3FC"/>
<path d="M134.483 187.448H127.011V194.919H134.483V187.448Z" fill="#F0F3FC"/>
<path d="M149.425 187.448H141.954V194.919H149.425V187.448Z" fill="#F0F3FC"/>
<path d="M156.897 187.448H149.425V194.919H156.897V187.448Z" fill="#F0F3FC"/>
<path d="M164.368 187.448H156.897V194.919H164.368V187.448Z" fill="#F0F3FC"/>
<path d="M171.839 187.448H164.368V194.919H171.839V187.448Z" fill="#F0F3FC"/>
<path d="M179.31 187.448H171.839V194.919H178.31C178.863 194.919 179.31 194.472 179.31 193.919V187.448Z" fill="#F0F3FC"/>
<path d="M194.253 187.448H186.782V194.919H194.253V187.448Z" fill="#F0F3FC"/>
<path d="M209.195 187.448H201.724V194.919H209.195V187.448Z" fill="#F0F3FC"/>
<path d="M7.47126 194.919H0V202.391H7.47126V194.919Z" fill="#F0F3FC"/>
<path d="M22.4138 194.919H14.9425V201.391C14.9425 201.943 15.3902 202.391 15.9425 202.391H22.4138V194.919Z" fill="#F0F3FC"/>
<path d="M29.8851 194.919H22.4138V202.391H29.8851V194.919Z" fill="#F0F3FC"/>
<path d="M37.3563 194.919H29.8851V202.391H36.3563C36.9086 202.391 37.3563 201.943 37.3563 201.391V194.919Z" fill="#F0F3FC"/>
<path d="M52.2989 194.919H44.8276V202.391H52.2989V194.919Z" fill="#F0F3FC"/>
<path d="M67.2414 194.919H60.7701C60.2178 194.919 59.7701 195.367 59.7701 195.919V202.391H67.2414V194.919Z" fill="#F0F3FC"/>
<path d="M74.7126 194.919H67.2414V202.391H74.7126V194.919Z" fill="#F0F3FC"/>
<path d="M82.1839 195.919C82.1839 195.367 81.7362 194.919 81.1839 194.919H74.7126V202.391H81.1839C81.7362 202.391 82.1839 201.943 82.1839 201.391V195.919Z" fill="#F0F3FC"/>
<path d="M112.069 194.919H104.598V202.391H112.069V194.919Z" fill="#F0F3FC"/>
<path d="M119.54 195.919C119.54 195.367 119.093 194.919 118.54 194.919H112.069V202.391H118.54C119.093 202.391 119.54 201.943 119.54 201.391V195.919Z" fill="#F0F3FC"/>
<path d="M134.483 194.919H127.011V202.391H134.483V194.919Z" fill="#F0F3FC"/>
<path d="M149.425 194.919H141.954V201.391C141.954 201.943 142.402 202.391 142.954 202.391H149.425V194.919Z" fill="#F0F3FC"/>
<path d="M156.897 194.919H149.425V202.391H156.897V194.919Z" fill="#F0F3FC"/>
<path d="M194.253 194.919H186.782V202.391H194.253V194.919Z" fill="#F0F3FC"/>
<path d="M209.195 194.919H201.724V202.391H208.195C208.748 202.391 209.195 201.943 209.195 201.391V194.919Z" fill="#F0F3FC"/>
<path d="M7.47126 202.391H0V209.862H7.47126V202.391Z" fill="#F0F3FC"/>
<path d="M52.2989 202.391H44.8276V209.862H52.2989V202.391Z" fill="#F0F3FC"/>
<path d="M67.2414 202.391H59.7701V209.862H67.2414V202.391Z" fill="#F0F3FC"/>
<path d="M74.7126 202.391H67.2414V209.862H73.7126C74.2649 209.862 74.7126 209.414 74.7126 208.862V202.391Z" fill="#F0F3FC"/>
<path d="M104.598 202.391H98.1264C97.5742 202.391 97.1264 202.838 97.1264 203.391V209.862H104.598V202.391Z" fill="#F0F3FC"/>
<path d="M134.483 202.391H127.011V208.862C127.011 209.414 127.459 209.862 128.011 209.862H134.483V202.391Z" fill="#F0F3FC"/>
<path d="M156.897 202.391H149.425V208.862C149.425 209.414 149.873 209.862 150.425 209.862H155.897C156.449 209.862 156.897 209.414 156.897 208.862V202.391Z" fill="#F0F3FC"/>
<path d="M194.253 202.391H186.782V208.862C186.782 209.414 187.229 209.862 187.782 209.862H194.253V202.391Z" fill="#F0F3FC"/>
<path d="M201.724 202.391H194.253V209.862H201.724V202.391Z" fill="#F0F3FC"/>
<path d="M7.47126 209.862H0V216.333C0 216.885 0.447715 217.333 1 217.333H7.47126V209.862Z" fill="#F0F3FC"/>
<path d="M14.9425 209.862H7.47126V217.333H14.9425V209.862Z" fill="#F0F3FC"/>
<path d="M22.4138 209.862H14.9425V217.333H22.4138V209.862Z" fill="#F0F3FC"/>
<path d="M29.8851 209.862H22.4138V217.333H29.8851V209.862Z" fill="#F0F3FC"/>
<path d="M37.3563 209.862H29.8851V217.333H37.3563V209.862Z" fill="#F0F3FC"/>
<path d="M44.8276 209.862H37.3563V217.333H44.8276V209.862Z" fill="#F0F3FC"/>
<path d="M52.2989 209.862H44.8276V217.333H51.2989C51.8511 217.333 52.2989 216.885 52.2989 216.333V209.862Z" fill="#F0F3FC"/>
<path d="M67.2414 209.862H59.7701V216.333C59.7701 216.885 60.2178 217.333 60.7701 217.333H66.2414C66.7937 217.333 67.2414 216.885 67.2414 216.333V209.862Z" fill="#F0F3FC"/>
<path d="M89.6552 209.862H83.1839C82.6316 209.862 82.1839 210.31 82.1839 210.862V216.333C82.1839 216.885 82.6316 217.333 83.1839 217.333H89.6552V209.862Z" fill="#F0F3FC"/>
<path d="M97.1264 209.862H89.6552V217.333H97.1264V209.862Z" fill="#F0F3FC"/>
<path d="M104.598 209.862H97.1264V217.333H104.598V209.862Z" fill="#F0F3FC"/>
<path d="M112.069 209.862H104.598V217.333H112.069V209.862Z" fill="#F0F3FC"/>
<path d="M119.54 210.862C119.54 210.31 119.093 209.862 118.54 209.862H112.069V217.333H118.54C119.093 217.333 119.54 216.885 119.54 216.333V210.862Z" fill="#F0F3FC"/>
<path d="M141.954 210.862C141.954 210.31 141.506 209.862 140.954 209.862H134.483V216.333C134.483 216.885 134.93 217.333 135.483 217.333H140.954C141.506 217.333 141.954 216.885 141.954 216.333V210.862Z" fill="#F0F3FC"/>
<path d="M179.31 210.862C179.31 210.31 178.863 209.862 178.31 209.862H172.839C172.287 209.862 171.839 210.31 171.839 210.862V216.333C171.839 216.885 172.287 217.333 172.839 217.333H178.31C178.863 217.333 179.31 216.885 179.31 216.333V210.862Z" fill="#F0F3FC"/>
<path d="M201.724 209.862H194.253V216.333C194.253 216.885 194.701 217.333 195.253 217.333H201.724V209.862Z" fill="#F0F3FC"/>
<path d="M209.195 210.862C209.195 210.31 208.748 209.862 208.195 209.862H201.724V217.333H208.195C208.748 217.333 209.195 216.885 209.195 216.333V210.862Z" fill="#F0F3FC"/>
</svg>
