<svg width="375" height="300" viewBox="0 0 375 300" fill="none" xmlns="http://www.w3.org/2000/svg">
<path fill-rule="evenodd" clip-rule="evenodd" d="M248.611 88.9749C248.505 88.9749 248.419 89.0607 248.419 89.1664C248.419 89.2721 248.505 89.3578 248.611 89.3578C248.716 89.3578 248.802 89.2721 248.802 89.1664C248.802 89.0606 248.716 88.9749 248.611 88.9749ZM247.241 89.1664C247.241 88.4099 247.854 87.7968 248.611 87.7968C249.367 87.7968 249.98 88.4099 249.98 89.1664C249.98 89.9228 249.367 90.536 248.611 90.536C247.854 90.536 247.241 89.9228 247.241 89.1664Z" fill="#3E4552"/>
<path fill-rule="evenodd" clip-rule="evenodd" d="M15.2135 52.9815C15.1078 52.9815 15.0221 53.0672 15.0221 53.173C15.0221 53.2787 15.1078 53.3644 15.2135 53.3644C15.3192 53.3644 15.405 53.2787 15.405 53.173C15.405 53.0672 15.3192 52.9815 15.2135 52.9815ZM13.8439 53.173C13.8439 52.4165 14.4571 51.8033 15.2135 51.8033C15.9699 51.8033 16.5831 52.4165 16.5831 53.173C16.5831 53.9294 15.9699 54.5426 15.2135 54.5426C14.4571 54.5426 13.8439 53.9294 13.8439 53.173Z" fill="#3E4552"/>
<path fill-rule="evenodd" clip-rule="evenodd" d="M275.4 17.7098C275.294 17.7098 275.208 17.7955 275.208 17.9012C275.208 18.007 275.294 18.0927 275.4 18.0927C275.505 18.0927 275.591 18.007 275.591 17.9012C275.591 17.7955 275.505 17.7098 275.4 17.7098ZM274.03 17.9012C274.03 17.1448 274.643 16.5316 275.4 16.5316C276.156 16.5316 276.769 17.1448 276.769 17.9012C276.769 18.6577 276.156 19.2709 275.4 19.2709C274.643 19.2709 274.03 18.6577 274.03 17.9012Z" fill="#3E4552"/>
<path fill-rule="evenodd" clip-rule="evenodd" d="M373.63 64.9548C373.525 64.9548 373.439 65.0405 373.439 65.1462C373.439 65.252 373.525 65.3377 373.63 65.3377C373.736 65.3377 373.822 65.252 373.822 65.1462C373.822 65.0405 373.736 64.9548 373.63 64.9548ZM372.261 65.1462C372.261 64.3898 372.874 63.7766 373.63 63.7766C374.387 63.7766 375 64.3898 375 65.1462C375 65.9027 374.387 66.5159 373.63 66.5159C372.874 66.5159 372.261 65.9027 372.261 65.1462Z" fill="#3E4552"/>
<path fill-rule="evenodd" clip-rule="evenodd" d="M59.3066 245.938C59.2009 245.938 59.1152 246.024 59.1152 246.129C59.1152 246.235 59.2009 246.321 59.3066 246.321C59.4124 246.321 59.4981 246.235 59.4981 246.129C59.4981 246.024 59.4124 245.938 59.3066 245.938ZM57.937 246.129C57.937 245.373 58.5502 244.76 59.3066 244.76C60.0631 244.76 60.6763 245.373 60.6763 246.129C60.6763 246.886 60.0631 247.499 59.3066 247.499C58.5502 247.499 57.937 246.886 57.937 246.129Z" fill="#3E4552"/>
<path fill-rule="evenodd" clip-rule="evenodd" d="M358.343 226.969C358.238 226.969 358.152 227.055 358.152 227.161C358.152 227.266 358.238 227.352 358.343 227.352C358.449 227.352 358.535 227.266 358.535 227.161C358.535 227.055 358.449 226.969 358.343 226.969ZM356.974 227.161C356.974 226.404 357.587 225.791 358.343 225.791C359.1 225.791 359.713 226.404 359.713 227.161C359.713 227.917 359.1 228.53 358.343 228.53C357.587 228.53 356.974 227.917 356.974 227.161Z" fill="#3E4552"/>
<path fill-rule="evenodd" clip-rule="evenodd" d="M255.842 237.808C255.736 237.808 255.65 237.894 255.65 238C255.65 238.106 255.736 238.191 255.842 238.191C255.948 238.191 256.033 238.106 256.033 238C256.033 237.894 255.948 237.808 255.842 237.808ZM254.472 238C254.472 237.243 255.085 236.63 255.842 236.63C256.598 236.63 257.211 237.243 257.211 238C257.211 238.756 256.598 239.37 255.842 239.37C255.085 239.37 254.472 238.756 254.472 238Z" fill="#3E4552"/>
<path fill-rule="evenodd" clip-rule="evenodd" d="M320.253 161.367C320.444 161.104 320.812 161.045 321.076 161.236L325.406 164.373C325.669 164.564 325.728 164.932 325.537 165.195C325.346 165.459 324.978 165.518 324.714 165.327L320.385 162.19C320.121 161.999 320.062 161.631 320.253 161.367Z" fill="#3E4552"/>
<path fill-rule="evenodd" clip-rule="evenodd" d="M327.767 281.787C327.953 282.054 327.887 282.421 327.62 282.607L323.231 285.655C322.964 285.841 322.597 285.775 322.411 285.507C322.226 285.24 322.292 284.873 322.559 284.687L326.948 281.639C327.215 281.453 327.582 281.519 327.767 281.787Z" fill="#3E4552"/>
<path fill-rule="evenodd" clip-rule="evenodd" d="M75.6069 115.058C75.7931 115.325 75.7278 115.693 75.461 115.879L71.0723 118.942C70.8055 119.128 70.4383 119.063 70.2521 118.796C70.0659 118.529 70.1312 118.162 70.398 117.976L74.7867 114.913C75.0535 114.726 75.4207 114.792 75.6069 115.058Z" fill="#3E4552"/>
<path fill-rule="evenodd" clip-rule="evenodd" d="M6.11523 176.593C6.23436 176.895 6.08551 177.237 5.78276 177.356L0.80495 179.315C0.502199 179.434 0.160198 179.285 0.0410692 178.983C-0.0780598 178.68 0.0707949 178.338 0.373545 178.219L5.35135 176.26C5.65411 176.141 5.99611 176.29 6.11523 176.593Z" fill="#3E4552"/>
<path fill-rule="evenodd" clip-rule="evenodd" d="M314.842 70.7492C315.115 70.5721 315.48 70.6497 315.657 70.9226L318.573 75.4144C318.75 75.6873 318.673 76.0521 318.4 76.2292C318.127 76.4064 317.762 76.3288 317.585 76.0559L314.669 71.5641C314.492 71.2912 314.569 70.9264 314.842 70.7492Z" fill="#3E4552"/>
<path fill-rule="evenodd" clip-rule="evenodd" d="M55.925 168.884C56.0928 169.383 56.1891 169.934 56.2135 170.448L56.214 170.458L56.2142 170.468C56.2297 171.763 55.9769 173.731 55.1504 175.474C54.6847 176.456 54.025 177.387 53.1162 178.075C53.2314 178.409 53.3465 178.711 53.4552 178.973C53.7153 179.54 54.1225 180.19 54.6696 180.808L59.2152 183.225L58.874 184.33C56.7361 184.094 55.0852 182.991 53.9378 181.754L48.8539 179.052L49.2733 177.96C49.6044 178.043 49.9486 178.055 50.2969 177.995L50.3055 177.994L50.3142 177.992C50.833 177.919 51.2985 177.771 51.7157 177.563C51.4251 176.58 51.1648 175.444 51.027 174.288C50.7909 172.308 50.896 170.121 51.9945 168.586C52.5037 167.875 53.0271 167.399 53.5811 167.214C54.1935 167.01 54.7374 167.194 55.1379 167.562C55.5093 167.903 55.7608 168.396 55.925 168.884ZM52.7393 176.857C52.5094 176.022 52.3092 175.09 52.1969 174.148C51.9691 172.237 52.1217 170.433 52.9525 169.272C53.4079 168.636 53.7497 168.4 53.9537 168.332C54.0993 168.283 54.2062 168.306 54.3414 168.43C54.5057 168.581 54.6749 168.863 54.8084 169.26C54.9373 169.643 55.0157 170.082 55.0362 170.493C55.0486 171.658 54.8146 173.432 54.0859 174.969C53.7451 175.688 53.3046 176.34 52.7393 176.857ZM52.0849 178.694C51.8253 178.813 51.5504 178.914 51.2595 178.996L52.4668 179.638C52.4362 179.575 52.4071 179.514 52.3795 179.454L52.3754 179.445L52.3715 179.435C52.2789 179.213 52.1823 178.964 52.0849 178.694ZM46.0561 172.983C46.0599 171.636 46.2191 170.3 46.4162 169.261L47.5838 169.354L47.79 176.615L46.6542 176.85C46.2013 175.718 46.0523 174.321 46.0561 172.983ZM46.9695 177.498L47.9595 176.862L48.3719 177.437L47.4408 178.157C47.2853 177.971 47.1126 177.749 46.9695 177.498ZM47.7898 178.493L48.47 177.536L49.1769 177.949L48.6665 179.007C48.3516 178.884 48.0554 178.72 47.7898 178.493ZM62.3152 182.793L62.2921 182.736L63.9415 181.999L64.4677 183.052C63.9015 183.367 63.3113 183.614 62.7359 183.826L62.701 183.741C62.6322 183.828 62.5377 183.898 62.4239 183.935C62.1402 184.03 61.8556 184.109 61.5702 184.173C61.4583 184.197 61.3469 184.189 61.2463 184.153L61.2609 184.231C60.9801 184.294 60.7019 184.326 60.4688 184.354C60.4528 184.356 60.437 184.357 60.4214 184.359L60.2647 183.192L61.0452 183.074L61.0593 183.15C61.1303 183.089 61.2169 183.044 61.3146 183.022C61.5594 182.968 61.8049 182.9 62.0514 182.818C62.1393 182.788 62.2292 182.781 62.3152 182.793ZM60.0138 183.215V184.393H59.572V183.215H60.0138Z" fill="#3E4552"/>
<path d="M190.851 259.649L195.342 255.157L169.319 226.601L167.375 239.163L100.97 251.431L103.813 256.512L163.929 277.749L172.147 271.475V279.546L186.211 284.185L190.851 259.649Z" fill="#3E4552"/>
<path d="M135.005 234.082L139.497 229.591L113.473 201.035L111.529 213.597L45.1243 225.865L47.9667 230.946L108.083 252.168L116.301 245.894V253.964L130.366 258.603L135.005 234.082Z" fill="#3E4552"/>
<path fill-rule="evenodd" clip-rule="evenodd" d="M175.804 219.61C176.11 219.718 176.272 220.054 176.163 220.361L172.423 230.979C172.315 231.286 171.978 231.447 171.671 231.339C171.364 231.231 171.203 230.895 171.311 230.588L175.052 219.97C175.16 219.663 175.497 219.502 175.804 219.61ZM196.34 242.007C198.733 236.34 201.583 229.697 203.476 225.307L204.56 225.768L193.043 253.293L191.915 252.994C191.932 252.862 191.992 252.675 192.05 252.505C192.116 252.311 192.209 252.059 192.323 251.759C192.552 251.157 192.876 250.345 193.271 249.374C194.062 247.43 195.144 244.84 196.34 242.007Z" fill="#3E4552"/>
<path fill-rule="evenodd" clip-rule="evenodd" d="M120.249 191.799C120.559 191.897 120.731 192.228 120.633 192.538L116.568 205.395C116.47 205.705 116.139 205.877 115.829 205.779C115.519 205.681 115.347 205.35 115.445 205.04L119.51 192.183C119.608 191.872 119.939 191.7 120.249 191.799ZM143.233 211.362L147.678 201.456L148.756 201.931C147.545 204.735 145.937 208.286 144.306 211.849L137.177 227.741L136.055 227.427C136.072 227.287 136.136 227.103 136.195 226.944C136.262 226.761 136.356 226.526 136.472 226.249C136.703 225.693 137.03 224.947 137.428 224.056C138.224 222.273 139.314 219.897 140.517 217.279C140.685 216.913 140.856 216.541 141.029 216.166C141.745 214.607 142.492 212.983 143.233 211.362Z" fill="#3E4552"/>
<path fill-rule="evenodd" clip-rule="evenodd" d="M325.062 183.575L318.892 167.903L317.796 168.335L324.057 184.239L329.631 189.737L329.714 189.779C332.839 191.349 337.814 192.839 342.159 193.988C344.339 194.565 346.376 195.06 347.963 195.44C348.298 195.52 348.611 195.595 348.9 195.664C349.975 195.92 350.722 196.098 351.026 196.188C351.897 196.517 352.651 196.591 353.274 196.415C353.921 196.231 354.354 195.796 354.584 195.273C354.808 194.765 354.839 194.187 354.742 193.665C354.645 193.142 354.411 192.622 354.043 192.234L353.99 192.179L347.221 188.012L363.638 189.782L363.664 189.783C364.386 189.796 364.979 189.62 365.415 189.274C365.854 188.927 366.079 188.448 366.133 187.966C366.233 187.055 365.713 186.01 364.728 185.714L364.728 185.714L364.558 186.278L364.728 185.714M363.019 185.199C363.319 185.147 363.576 185.097 363.749 185.051C364.318 184.904 364.825 184.595 365.22 184.181L365.233 184.168L365.245 184.154C365.64 183.684 365.865 183.19 365.915 182.694C365.966 182.196 365.837 181.739 365.597 181.362C365.315 180.919 364.883 180.583 364.397 180.388C364.604 180.007 364.72 179.626 364.746 179.251C364.79 178.61 364.566 178.053 364.209 177.623C363.835 177.171 363.3 176.843 362.732 176.677C362.908 176.31 362.936 175.892 362.723 175.507C362.522 175.142 362.157 174.905 361.763 174.753C361.362 174.598 360.863 174.504 360.287 174.468L338.414 172.581L338.089 169.933L336.92 170.076L337.361 173.672L360.2 175.643L360.207 175.644C360.711 175.675 361.084 175.754 361.338 175.852C361.602 175.954 361.678 176.052 361.692 176.077C361.695 176.083 361.695 176.084 361.695 176.087L361.695 176.087C361.695 176.094 361.693 176.123 361.664 176.178C361.603 176.298 361.447 176.484 361.127 176.71L361.599 177.765C362.133 177.641 362.895 177.884 363.302 178.375C363.491 178.603 363.591 178.868 363.57 179.17C363.549 179.479 363.397 179.893 362.954 180.395L362.075 181.388L363.401 181.374C363.883 181.368 364.37 181.628 364.602 181.993C364.712 182.166 364.765 182.361 364.743 182.574C364.722 182.787 364.621 183.061 364.356 183.38C364.105 183.637 363.793 183.823 363.454 183.911L363.453 183.911L363.452 183.911C362.884 184.06 361.057 184.307 360.197 184.396L360.088 185.546L364.389 186.842C364.729 186.944 365.012 187.379 364.961 187.837C364.939 188.04 364.85 188.219 364.683 188.351C364.516 188.484 364.218 188.61 363.71 188.605L344.755 186.561L344.383 187.648L353.235 193.097C353.397 193.29 353.526 193.567 353.583 193.879C353.646 194.22 353.615 194.549 353.506 194.798C353.403 195.031 353.231 195.202 352.952 195.281C352.653 195.366 352.166 195.362 351.426 195.079L351.406 195.072L351.386 195.066C351.057 194.967 350.248 194.774 349.141 194.51C348.858 194.443 348.556 194.371 348.237 194.294C346.653 193.915 344.627 193.423 342.46 192.849C338.148 191.708 333.334 190.261 330.326 188.768L325.062 183.575M330.326 188.768C330.298 188.754 330.271 188.74 330.243 188.726L329.979 189.253L330.393 188.833L330.326 188.768ZM353.235 193.097L353.307 193.142L353.616 192.64L353.189 193.046C353.204 193.062 353.22 193.079 353.235 193.097ZM363.71 188.605C363.702 188.605 363.694 188.605 363.685 188.605L363.675 189.194L363.738 188.608L363.71 188.605ZM364.356 183.38C364.352 183.385 364.348 183.39 364.344 183.395L364.794 183.774L364.368 183.367C364.364 183.371 364.36 183.376 364.356 183.38ZM338.414 172.581L337.938 172.54L337.887 173.126L338.472 173.055L338.414 172.581ZM360.287 174.468C360.284 174.468 360.282 174.468 360.279 174.468L360.243 175.056L360.294 174.469L360.287 174.468ZM362.732 176.677C362.265 176.541 361.775 176.514 361.332 176.617L361.466 177.191L361.805 177.673C362.206 177.391 362.529 177.072 362.712 176.717C362.719 176.704 362.725 176.691 362.732 176.677ZM364.397 180.388C364.075 180.259 363.73 180.192 363.388 180.196L363.395 180.785L363.836 181.175C364.067 180.914 364.254 180.651 364.397 180.388ZM363.749 185.051C363.75 185.051 363.75 185.051 363.75 185.051L363.601 184.481L363.748 185.052C363.749 185.051 363.749 185.051 363.749 185.051ZM363.019 185.199C362.161 185.347 360.947 185.503 360.319 185.568L360.258 184.982L360.428 184.418L363.019 185.199Z" fill="#3E4552"/>
<path fill-rule="evenodd" clip-rule="evenodd" d="M161.705 24.178L176.181 36.3166L177.58 59.957C177.599 60.2817 177.352 60.5606 177.027 60.5798C176.702 60.599 176.423 60.3513 176.404 60.0266L175.035 36.8932L161.411 25.4682L148.445 28.7557C148.226 29.1239 148.192 29.5053 148.408 29.8004C148.552 29.9955 148.85 30.2366 149.455 30.4373C150.059 30.6377 150.931 30.7851 152.163 30.8173C157.232 30.9499 159.716 30.8748 160.295 30.8197L160.6 30.7907L167.532 38.9173L167.522 39.1489C167.476 40.2091 167.247 41.8325 166.692 43.2842C166.149 44.7035 165.218 46.1512 163.65 46.5158L163.647 46.5164L163.645 46.517C163.634 46.5193 163.622 46.5222 163.606 46.5257C163.328 46.5888 162.221 46.8405 161.016 46.8088C159.783 46.7764 158.189 46.4363 157.467 44.982C156.993 44.0346 156.455 42.6014 155.903 41.1283L155.863 41.0195C155.339 39.6205 154.8 38.1787 154.271 36.9988C153.783 36.6888 153.17 36.5347 152.666 36.7585C152.138 36.9933 151.437 37.7767 151.187 40.0853C151.069 41.1665 151.278 42.8058 151.736 44.8069C152.189 46.7903 152.872 49.0682 153.657 51.398C155.228 56.0568 157.198 60.8851 158.533 63.9068C158.664 64.2044 158.53 64.5522 158.232 64.6837C157.934 64.8152 157.587 64.6805 157.455 64.3829C156.11 61.337 154.125 56.4747 152.541 51.7744C151.749 49.4246 151.053 47.1058 150.587 45.0695C150.126 43.051 149.875 41.2479 150.015 39.958C150.28 37.5244 151.067 36.1797 152.188 35.6818C153.29 35.1923 154.425 35.652 155.084 36.1272L155.21 36.2185L155.275 36.3604C155.843 37.605 156.419 39.1437 156.958 40.5856L157.007 40.7154C157.567 42.2129 158.082 43.5775 158.521 44.4562L158.522 44.4575C158.933 45.2857 159.902 45.6009 161.047 45.6311C162.098 45.6587 163.081 45.4365 163.352 45.3753C163.365 45.3723 163.376 45.3697 163.386 45.3676C164.35 45.142 165.082 44.197 165.592 42.8635C166.052 41.6595 166.269 40.2938 166.332 39.3263L160.095 32.0147C159.114 32.0695 156.601 32.112 152.132 31.9951C150.831 31.961 149.834 31.8047 149.084 31.5554C148.334 31.3065 147.792 30.9521 147.458 30.4973C146.753 29.5365 147.172 28.4721 147.611 27.8864L147.736 27.7199L161.705 24.178Z" fill="#3E4552"/>
<path fill-rule="evenodd" clip-rule="evenodd" d="M349.798 176.676L361.55 176.602L361.558 177.78L349.805 177.854L349.798 176.676ZM350.768 180.328L363.521 180.196L363.534 181.374L350.78 181.506L350.768 180.328ZM351.622 183.513C351.677 183.192 351.981 182.977 352.302 183.032L360.888 184.504C361.208 184.559 361.424 184.864 361.369 185.185C361.314 185.505 361.009 185.721 360.689 185.666L352.103 184.193C351.782 184.138 351.567 183.833 351.622 183.513Z" fill="#3E4552"/>
<path d="M256.74 43.7918C260.54 43.9096 262.381 47.1791 262.558 48.4456C266.284 48.4456 275.871 49.182 284.354 52.1274C292.837 55.0729 299.302 64.8812 301.467 69.4025L348.093 169.813L315.163 174.216L292.012 111.729L306.283 162.935C288.566 145.513 249.421 107.119 234.959 100.86C220.497 94.6008 208.626 105.499 204.503 111.729C203.266 110.433 200.232 107.62 198.008 106.81C184.194 101.92 172.707 108.842 168.686 112.921L146.389 64.7192L181.646 53.556L195.313 93.8497C200.114 86.8985 211.469 71.3317 218.523 64.7192C225.577 58.1067 235.621 54.528 239.76 53.556C239.76 52.8196 239.863 50.9787 240.275 49.6091C240.761 47.9154 251.969 43.6445 256.74 43.7918Z" fill="#F44336"/>
<path fill-rule="evenodd" clip-rule="evenodd" d="M230.203 83.2762C230.52 83.3504 230.717 83.6672 230.643 83.984L227.152 98.9027C227.078 99.2195 226.761 99.4163 226.445 99.3422C226.128 99.268 225.931 98.9511 226.005 98.6344L229.496 83.7156C229.57 83.3989 229.887 83.2021 230.203 83.2762ZM285.643 87.3736L291.254 107.52L290.119 107.837L284.508 87.6897L285.643 87.3736Z" fill="#3E4552"/>
<path fill-rule="evenodd" clip-rule="evenodd" d="M194.99 95.1022C195.307 95.1761 195.504 95.4928 195.43 95.8097L193.899 102.378C193.825 102.695 193.508 102.892 193.191 102.818C192.874 102.744 192.677 102.427 192.751 102.11L194.283 95.5421C194.357 95.2253 194.673 95.0283 194.99 95.1022Z" fill="#3E4552"/>
<path d="M266.136 41.73L254.001 45.2793L254.354 40.5371C248.92 37.4297 248.64 31.4799 247.27 29.5653C243.029 32.82 237.492 33.2766 235.651 33.2177C235.43 34.3664 235.533 35.7802 235.606 36.3546C236.137 39.2559 238.302 45.4855 242.823 47.7388C242.278 48.0628 241.07 48.8138 240.643 49.1526L229.819 51.0229C229.303 47.2969 232.852 45.1909 232.602 38.5931C232.19 27.2531 237.727 20.405 244.266 20.4786C248.404 20.5228 250.79 22.5846 253.868 25.2797C255.488 26.6935 257.02 27.0764 259.877 29.6537C264.575 35.25 260.893 38.7404 266.136 41.73Z" fill="#3E4552"/>
<path fill-rule="evenodd" clip-rule="evenodd" d="M256.384 44.824C256.659 44.6515 257.023 44.7352 257.195 45.011L259.581 48.8254C259.754 49.1012 259.67 49.4647 259.394 49.6372C259.118 49.8097 258.755 49.726 258.582 49.4502L256.197 45.6358C256.024 45.36 256.108 44.9965 256.384 44.824ZM253.529 50.5243L251.571 45.738L252.661 45.2918L254.62 50.0781L253.529 50.5243ZM250.04 50.8513L248.553 47.2726L249.641 46.8204L251.128 50.3991L250.04 50.8513ZM245.725 52.2933L244.768 48.2728L245.914 47.9999L246.872 52.0204L245.725 52.2933ZM242.24 54.1717L241.548 49.459L242.714 49.2878L243.406 54.0005L242.24 54.1717Z" fill="#3E4552"/>
<path fill-rule="evenodd" clip-rule="evenodd" d="M239.083 37.4694C238.214 36.217 236.812 35.8931 235.621 36.1363C235.303 36.2015 234.991 35.9959 234.926 35.6771C234.861 35.3583 235.067 35.0471 235.386 34.982C236.934 34.6657 238.859 35.0779 240.052 36.7994L240.053 36.8006L240.054 36.8017C241.294 38.6094 241.619 41.0916 240.804 43.2375C241.339 42.9606 241.944 42.5377 242.456 41.9153C242.663 41.6641 243.034 41.6279 243.285 41.8345C243.537 42.0412 243.573 42.4124 243.366 42.6637C242.649 43.5356 241.794 44.081 241.097 44.4065C240.747 44.5696 240.433 44.6799 240.186 44.7494C240.063 44.7841 239.954 44.8096 239.862 44.8264C239.794 44.8391 239.676 44.8587 239.567 44.8503L238.553 44.7723L239.125 43.9316C240.453 41.9799 240.338 39.2992 239.083 37.4694Z" fill="#3E4552"/>
<path fill-rule="evenodd" clip-rule="evenodd" d="M244.614 34.6474C243.931 34.6765 243.33 34.9686 243.004 35.2174C242.745 35.4149 242.376 35.3653 242.178 35.1068C241.981 34.8482 242.03 34.4785 242.289 34.281C242.773 33.9114 243.601 33.5113 244.564 33.4703C245.556 33.4282 246.659 33.7707 247.621 34.8417C247.838 35.0838 247.818 35.4563 247.576 35.6736C247.334 35.8909 246.961 35.8708 246.744 35.6287C246.026 34.8294 245.267 34.6197 244.614 34.6474Z" fill="#3E4552"/>
<path fill-rule="evenodd" clip-rule="evenodd" d="M246.172 43.5044C246.461 43.654 246.574 44.0095 246.424 44.2984C245.646 45.7998 244.077 46.1069 243.382 46.0891C243.057 46.0807 242.8 45.8103 242.808 45.4851C242.817 45.1598 243.087 44.9029 243.412 44.9113C243.866 44.9229 244.889 44.6998 245.378 43.7565C245.528 43.4676 245.883 43.3547 246.172 43.5044Z" fill="#3E4552"/>
<path fill-rule="evenodd" clip-rule="evenodd" d="M247.858 36.3297C248.083 36.5645 248.075 36.9374 247.84 37.1626C246.61 38.3423 244.83 38.7594 243.204 38.2901C242.892 38.1999 242.712 37.8733 242.802 37.5608C242.892 37.2482 243.219 37.0679 243.531 37.1582C244.763 37.5136 246.105 37.1944 247.025 36.3122C247.26 36.087 247.633 36.0949 247.858 36.3297Z" fill="#3E4552"/>
<path fill-rule="evenodd" clip-rule="evenodd" d="M240.273 37.9967C240.546 38.1747 240.622 38.5397 240.444 38.8121C239.623 40.069 238.597 40.5245 237.608 40.4812C236.673 40.4403 235.875 39.9591 235.417 39.5451C235.176 39.3267 235.158 38.9542 235.376 38.713C235.595 38.4719 235.967 38.4534 236.208 38.6718C236.532 38.9647 237.08 39.2788 237.659 39.3042C238.183 39.3271 238.836 39.1199 239.458 38.1677C239.636 37.8953 240.001 37.8188 240.273 37.9967Z" fill="#3E4552"/>
<path fill-rule="evenodd" clip-rule="evenodd" d="M224.257 99.6846C219.765 99.8286 215.231 101.471 210.784 105.365C207.568 108.249 205.399 111.127 204.712 112.196L197.455 124.837L185.142 161.144L170.589 218.597L203.752 224.783L226.98 116.578L285.856 181.623L291.995 150.124L261.047 120.417C259.73 119.344 258.342 118.17 256.892 116.943C251.254 112.172 244.678 106.609 237.673 103.102C233.28 100.903 228.765 99.5402 224.257 99.6846ZM293.151 149.629C293.125 149.585 293.092 149.543 293.053 149.506L261.829 119.534L261.81 119.519C260.521 118.469 259.152 117.31 257.712 116.092C252.068 111.315 245.346 105.626 238.201 102.049C233.702 99.7969 228.989 98.3542 224.22 98.507C219.436 98.6603 214.644 100.418 210.005 104.481L210.003 104.484L210 104.486C207.229 106.97 205.206 109.457 204.189 110.875C202.301 108.504 198.802 105.852 193.811 104.765C188.32 103.57 181.074 104.279 172.234 109.252C171.058 109.871 169.505 111.219 167.686 113.082C165.847 114.966 163.688 117.426 161.299 120.316C156.52 126.098 150.798 133.632 144.838 141.789C132.917 158.105 120.026 176.941 111.79 189.309L111.365 189.948L152.695 203.934L163.072 207.445L182.541 166.615L169.139 219.525L204.664 226.151L204.664 226.149L224.498 229.846L227.868 194.188L292.837 190.715L292.978 190.612C295.447 188.808 299.064 185.271 301.968 180.494C304.875 175.713 307.086 169.656 306.679 162.827L306.665 162.596L293.151 149.629ZM293.002 151.119L286.562 184.159L227.65 119.073L204.912 224.996L223.446 228.452L226.744 193.564L232.886 142.821C232.925 142.498 233.219 142.268 233.542 142.307C233.865 142.346 234.095 142.639 234.056 142.962L227.999 193.001L292.423 189.558C294.768 187.81 298.196 184.432 300.962 179.882C303.747 175.3 305.842 169.561 305.516 163.126L293.002 151.119ZM191.745 138.006L188.453 147.713C189.473 144.316 190.587 141.069 191.745 138.006ZM203.487 111.894C201.72 114.452 199.225 118.609 196.567 123.966L172.071 119.306L152.472 202.615L113.196 189.324C121.44 176.961 134.085 158.504 145.789 142.484C151.744 134.335 157.45 126.823 162.207 121.067C164.586 118.188 166.722 115.756 168.529 113.905C170.351 112.039 171.793 110.813 172.788 110.292L172.796 110.288L172.804 110.283C181.441 105.423 188.397 104.792 193.56 105.916C198.492 106.99 201.834 109.673 203.487 111.894ZM153.593 202.994L162.459 205.994L184.012 160.791C186.713 146.756 191.566 134.257 196.035 125.064L172.959 120.675L153.593 202.994Z" fill="#3E4552"/>
<path d="M152.383 27.2383C152.516 27.4445 152.781 27.5034 152.987 27.3709C153.193 27.2383 153.252 26.9733 153.119 26.7671L152.383 27.2383ZM156.183 39.948C156.183 53.2319 145.417 64.0123 132.118 64.0123V64.8959C145.888 64.8959 157.066 53.7327 157.066 39.948H156.183V39.948ZM132.118 15.8836C140.645 15.8836 148.112 20.5374 152.383 27.2383L153.134 26.7671C148.716 19.8305 140.984 15 132.118 15V15.8836V15.8836ZM154.725 31.7154C155.682 34.3516 156.168 37.1351 156.168 39.948H157.052C157.052 37.032 156.551 34.1454 155.549 31.4062L154.725 31.7154ZM108.128 41.7889C108.083 41.1703 108.054 40.5665 108.054 39.9332H107.17C107.17 40.5812 107.2 41.2145 107.244 41.8478L108.128 41.7889ZM120.189 60.8459C114.431 57.5617 110.278 52.039 108.717 45.5885L107.863 45.7947C109.483 52.4808 113.783 58.195 119.762 61.6117L120.189 60.8459ZM132.118 63.9976C128.363 63.9976 124.666 63.1286 121.309 61.435L120.911 62.2303C124.387 63.9828 128.23 64.8812 132.118 64.8812V63.9976ZM108.054 39.948C108.054 37.2971 108.481 34.6756 109.335 32.172L108.496 31.8922C107.612 34.4841 107.156 37.2087 107.156 39.9627L108.054 39.948ZM109.6 31.4356C113.15 22.0838 122.104 15.8836 132.118 15.8836V15C121.75 15 112.457 21.4211 108.776 31.1263L109.6 31.4356Z" fill="#3E4552"/>
<path fill-rule="evenodd" clip-rule="evenodd" d="M123.753 60.9049C120.036 60.9049 117.023 63.9181 117.023 67.6352C117.023 71.3523 120.036 74.3656 123.753 74.3656C127.47 74.3656 130.484 71.3523 130.484 67.6352C130.484 63.9181 127.47 60.9049 123.753 60.9049ZM116.139 67.6352C116.139 63.4301 119.548 60.0212 123.753 60.0212C127.958 60.0212 131.367 63.4301 131.367 67.6352C131.367 71.8403 127.958 75.2492 123.753 75.2492C119.548 75.2492 116.139 71.8403 116.139 67.6352Z" fill="#3E4552"/>
<path fill-rule="evenodd" clip-rule="evenodd" d="M110.41 22.0691C107.759 22.0691 105.609 24.2186 105.609 26.8702C105.609 29.5217 107.759 31.6712 110.41 31.6712C113.062 31.6712 115.211 29.5217 115.211 26.8702C115.211 24.2186 113.062 22.0691 110.41 22.0691ZM104.726 26.8702C104.726 23.7306 107.271 21.1854 110.41 21.1854C113.55 21.1854 116.095 23.7306 116.095 26.8702C116.095 30.0097 113.55 32.5549 110.41 32.5549C107.271 32.5549 104.726 30.0097 104.726 26.8702Z" fill="#3E4552"/>
<path fill-rule="evenodd" clip-rule="evenodd" d="M123.753 61.9504C120.614 61.9504 118.069 64.4955 118.069 67.6351C118.069 70.7747 120.614 73.3198 123.753 73.3198C126.893 73.3198 129.438 70.7747 129.438 67.6351C129.438 64.4955 126.893 61.9504 123.753 61.9504ZM117.185 67.6351C117.185 64.0075 120.126 61.0668 123.753 61.0668C127.381 61.0668 130.322 64.0075 130.322 67.6351C130.322 71.2627 127.381 74.2035 123.753 74.2035C120.126 74.2035 117.185 71.2627 117.185 67.6351Z" fill="#3E4552"/>
<path fill-rule="evenodd" clip-rule="evenodd" d="M110.41 22.8496C108.19 22.8496 106.39 24.6496 106.39 26.8701C106.39 29.0906 108.19 30.8906 110.41 30.8906C112.631 30.8906 114.431 29.0906 114.431 26.8701C114.431 24.6496 112.631 22.8496 110.41 22.8496ZM105.506 26.8701C105.506 24.1616 107.702 21.9659 110.41 21.9659C113.119 21.9659 115.314 24.1616 115.314 26.8701C115.314 29.5786 113.119 31.7743 110.41 31.7743C107.702 31.7743 105.506 29.5786 105.506 26.8701Z" fill="#3E4552"/>
<path fill-rule="evenodd" clip-rule="evenodd" d="M106.846 42.0673C103.84 41.2337 100.726 42.9832 99.8937 45.9864L99.0422 45.7503C100.006 42.2735 103.609 40.2527 107.082 41.2158C110.559 42.1799 112.58 45.7823 111.617 49.2558C110.653 52.7326 107.05 54.7533 103.577 53.7902L103.575 53.7898L103.573 53.7893C102.911 53.6002 102.298 53.3168 101.734 52.9562L102.209 52.2116C102.705 52.5282 103.24 52.7748 103.814 52.9392C106.82 53.7717 109.933 52.0223 110.765 49.0197C111.599 46.0132 109.849 42.9 106.846 42.0673Z" fill="#3E4552"/>
<path d="M99.6154 46.2512C99.851 46.1923 99.9983 45.9567 99.9394 45.721C99.8805 45.4854 99.6449 45.3381 99.4092 45.397H99.3945L99.6154 46.2512ZM77.7896 51.5677L77.6718 51.1406L76.2138 51.5236L77.6571 51.9801L77.7896 51.5677ZM86.7291 54.4396L86.5965 54.8519L86.8616 54.9403L87.0531 54.7341L86.7291 54.4396ZM88.5258 52.5397L88.6878 52.1274L88.408 52.0243L88.2018 52.2305L88.5258 52.5397ZM93.4594 54.4396L93.2974 54.8519L93.6361 54.9845L93.8276 54.6605L93.4594 54.4396ZM95.4181 51.1554L95.7127 50.8314L95.315 50.4779L95.0352 50.9345L95.4181 51.1554ZM97.9659 53.4528L97.6714 53.7768L97.8481 53.9241L98.069 53.8799L97.9659 53.4528ZM102.09 52.9816C102.325 52.9374 102.487 52.7017 102.443 52.4661C102.399 52.2305 102.163 52.0685 101.928 52.1126C101.913 52.1126 101.898 52.1126 101.898 52.1274L102.09 52.9816ZM99.3945 45.397L77.6718 51.1406L77.8927 51.9948L99.6154 46.2512L99.3945 45.397ZM77.6424 51.9801L86.5818 54.8519L86.8469 54.0125L77.9222 51.1406L77.6424 51.9801ZM87.0383 54.7341L88.8498 52.849L88.2165 52.2305L86.4051 54.1156L87.0383 54.7341ZM88.3785 52.9521L93.2974 54.8372L93.6067 54.0125L88.6878 52.1274L88.3785 52.9521ZM93.8276 54.6605L95.801 51.3763L95.05 50.9197L93.0765 54.2039L93.8276 54.6605ZM95.1236 51.4794L97.6714 53.7768L98.2605 53.1288L95.7127 50.8314L95.1236 51.4794ZM98.0543 53.8799L102.075 52.9816L101.883 52.1274L97.8629 53.0257L98.0543 53.8799Z" fill="#3E4552"/>
<path fill-rule="evenodd" clip-rule="evenodd" d="M120.256 74.3204L121.036 74.7348L116.299 83.6578L125.99 89.4877L125.257 89.8437C124.392 90.2638 123.212 90.3775 122.3 90.3979C122.157 90.4011 122.018 90.4021 121.887 90.4013C122.021 90.5527 122.152 90.7211 122.263 90.9012C122.423 91.1604 122.558 91.4719 122.575 91.8096C122.609 92.4451 122.214 92.8581 121.765 93.099C121.327 93.3335 120.768 93.4515 120.253 93.5134C119.729 93.5764 119.208 93.5862 118.822 93.5807C118.812 93.5806 118.801 93.5804 118.791 93.5802C118.873 93.8885 118.972 94.2947 119.063 94.7433C119.256 95.6956 119.428 96.9285 119.237 97.8028L119.108 98.3907L110.188 93.2842L120.256 74.3204ZM115.884 84.4394L111.369 92.9426L118.436 96.9882C118.445 96.3703 118.338 95.6164 118.197 94.9186C118.103 94.4521 117.998 94.032 117.916 93.7283C117.876 93.5766 117.841 93.4545 117.817 93.3707C117.805 93.3289 117.795 93.2966 117.788 93.2751C117.786 93.2682 117.785 93.2624 117.783 93.2578L117.781 93.251L117.779 93.2453L117.779 93.244L117.779 93.2439M117.779 93.2439L117.586 92.6206L118.236 92.673L118.237 92.673L118.238 92.6731L118.245 92.6737C118.252 92.6742 118.262 92.6749 118.276 92.6758C118.303 92.6777 118.344 92.6802 118.397 92.683C118.502 92.6884 118.653 92.6946 118.834 92.6972C119.199 92.7023 119.677 92.6927 120.148 92.6361C120.627 92.5784 121.056 92.4763 121.347 92.3201C121.627 92.1705 121.701 92.0226 121.692 91.8564L121.692 91.8546L121.692 91.8528C121.686 91.72 121.628 91.5553 121.511 91.3649C121.395 91.1777 121.239 90.9922 121.073 90.824C120.909 90.6571 120.744 90.5158 120.62 90.4159C120.558 90.3662 120.507 90.3275 120.472 90.3016C120.455 90.2886 120.442 90.279 120.433 90.2728C120.429 90.2697 120.426 90.2675 120.424 90.2662L120.422 90.2651L120.422 90.265L119.021 89.2873L120.721 89.4634L120.722 89.4635L120.727 89.464C120.73 89.4643 120.734 89.4647 120.74 89.4652C120.742 89.4655 120.745 89.4657 120.749 89.466C120.768 89.4679 120.798 89.4705 120.836 89.4737C120.914 89.48 121.027 89.4883 121.168 89.496C121.45 89.5114 121.842 89.5243 122.28 89.5145C122.849 89.5018 123.466 89.4509 124.015 89.3306L115.884 84.4394" fill="#3E4552"/>
<path fill-rule="evenodd" clip-rule="evenodd" d="M91.2891 16.4844L98.5731 20.4137L105.495 24.1395L105.076 24.9176L98.5227 21.3901L94.0909 28.6632L93.7385 27.9306C93.4143 27.2567 93.3342 26.3525 93.323 25.6679C93.3226 25.6462 93.3223 25.6245 93.3221 25.6031C93.2589 25.6507 93.1929 25.6963 93.1245 25.7384C92.9213 25.8633 92.6689 25.9741 92.3893 25.9861C91.8544 26.0115 91.513 25.6759 91.3223 25.3164C91.1383 24.9694 91.0506 24.5336 91.0062 24.1441C90.967 23.7996 90.9583 23.4578 90.9607 23.183C90.7518 23.2351 90.5002 23.2934 90.2278 23.3474C89.5171 23.4885 88.5757 23.6198 87.9013 23.4728L87.309 23.3437L91.2891 16.4844ZM91.8669 22.6381L91.8668 22.6389L91.8664 22.6439C91.866 22.6486 91.8654 22.656 91.8647 22.666C91.8632 22.6859 91.8611 22.7159 91.8588 22.7546C91.8542 22.8319 91.8488 22.9433 91.846 23.0772C91.8402 23.3469 91.8449 23.6991 91.8842 24.0441C91.9245 24.3984 91.997 24.7026 92.1029 24.9024C92.202 25.0892 92.2798 25.1068 92.3478 25.1034L92.3494 25.1034L92.3509 25.1033C92.4242 25.1002 92.5284 25.0676 92.6617 24.9856C92.7919 24.9056 92.9237 24.7947 93.0458 24.6742C93.1665 24.5551 93.2691 24.4353 93.3418 24.3447C93.3779 24.2997 93.406 24.2627 93.4245 24.2376C93.4338 24.2251 93.4407 24.2156 93.4449 24.2096L93.4494 24.2034L93.4497 24.2029L93.4498 24.2028C93.4498 24.2028 93.4498 24.2028 93.4503 24.2031L94.2513 24.5036C94.2517 24.5036 94.2517 24.5036 94.2517 24.5036L94.2513 24.5076C94.251 24.5108 94.2504 24.5161 94.2497 24.5232C94.2483 24.5374 94.2462 24.559 94.2437 24.5874C94.2386 24.6441 94.2319 24.7275 94.2255 24.8316C94.2127 25.0402 94.2012 25.3298 94.2065 25.6535C94.2119 25.9807 94.2343 26.325 94.2836 26.6488L97.7437 20.9703L91.6234 17.6688L88.7321 22.6516C89.1376 22.638 89.6077 22.5696 90.0558 22.4807C90.4019 22.412 90.714 22.3356 90.9398 22.2762C91.0525 22.2466 91.1432 22.2214 91.2053 22.2037C91.2363 22.1948 91.2602 22.1879 91.276 22.1832C91.2839 22.1809 91.2898 22.1791 91.2936 22.178L91.2977 22.1767L91.2986 22.1765L91.9244 21.9867L91.8669 22.6379L91.8669 22.6381Z" fill="#3E4552"/>
<path fill-rule="evenodd" clip-rule="evenodd" d="M107.818 46.3543C107.184 46.3543 106.67 46.8686 106.67 47.5031C106.67 48.1375 107.184 48.6518 107.818 48.6518C108.453 48.6518 108.967 48.1375 108.967 47.5031C108.967 46.8686 108.453 46.3543 107.818 46.3543ZM105.786 47.5031C105.786 46.3806 106.696 45.4707 107.818 45.4707C108.941 45.4707 109.851 46.3806 109.851 47.5031C109.851 48.6255 108.941 49.5354 107.818 49.5354C106.696 49.5354 105.786 48.6255 105.786 47.5031Z" fill="#3E4552"/>
<path d="M42.7533 26.2516L49.2333 38.9907L32.5032 47.5177L26.0232 34.7787L42.7533 26.2516ZM38.5414 34.4841C38.0701 33.5563 36.9361 33.1881 36.0083 33.6594C35.0804 34.1307 34.7123 35.2647 35.1835 36.1925C35.5075 36.8405 36.1703 37.2381 36.8919 37.2234L37.5252 41.7888L41.693 39.6681L38.3499 36.5165C38.7917 35.9274 38.8654 35.1468 38.5414 34.4841Z" fill="#3E4552"/>
<path fill-rule="evenodd" clip-rule="evenodd" d="M37.9918 21.7618C40.118 23.4443 41.7315 25.8579 42.5746 27.5668L42.8316 28.0878L39.7454 29.6642L39.476 29.1439C38.8488 27.9322 37.6432 26.0889 36.159 24.742C34.6549 23.3772 33.036 22.6645 31.483 23.2795M37.9918 21.7618C35.856 20.0717 33.1097 19.059 30.125 20.413ZM30.125 20.413C27.1199 21.7653 26.1258 24.5671 26.0527 27.3499C25.9798 30.1243 26.8075 33.0091 27.5881 34.8204L27.809 35.3331L31.268 34.0576L31.0281 33.4893C30.3627 31.9125 29.6214 29.6204 29.5088 27.5633C29.3949 25.4808 29.9229 23.899 31.483 23.2795M37.2607 22.6857C35.321 21.1507 33.0457 20.3814 30.611 21.4863L30.6093 21.4871C28.1807 22.5796 27.2973 24.8364 27.2305 27.3809C27.1698 29.6901 27.7941 32.1288 28.4588 33.8378L29.7106 33.3762C29.0847 31.7763 28.4419 29.629 28.3324 27.6277C28.2107 25.4026 28.7505 23.0965 31.0486 22.1843L31.049 22.1841C33.2515 21.3118 35.3511 22.4179 36.9507 23.8696C38.3675 25.1552 39.5269 26.8245 40.2427 28.0872L41.2504 27.5725C40.4091 26.026 39.0094 24.0694 37.2607 22.6857Z" fill="#3E4552"/>
<path d="M91.4858 121.684L117.479 137.045L105.786 156.823L79.7924 141.463L91.4858 121.684ZM101.589 134.261C100.145 133.407 98.2751 133.893 97.4209 135.336C96.8318 136.338 96.8612 137.575 97.4945 138.547L91.8393 143.333L98.3192 147.162L99.7183 139.902C101.383 140.064 102.87 138.856 103.047 137.177C103.179 135.999 102.605 134.865 101.589 134.261Z" fill="#3E4552"/>
<path fill-rule="evenodd" clip-rule="evenodd" d="M101.765 115.617C105.542 113.356 110.043 112.351 114.312 115.153C118.57 117.947 119.551 122.389 119.107 126.671C118.665 130.94 116.805 135.158 115.229 137.749L114.926 138.246L110.74 135.765L111.036 135.26C112.154 133.348 113.638 130.083 114.196 126.852C114.76 123.595 114.354 120.594 112.009 118.892C109.627 117.166 106.836 117.927 104.07 119.901C101.325 121.861 98.8226 124.88 97.2423 127.16L96.8903 127.667L92.7468 124.493L93.061 124.033C94.8301 121.439 97.9953 117.874 101.765 115.617ZM94.3535 124.24L96.6302 125.984C98.2569 123.72 100.687 120.868 103.386 118.942C106.268 116.885 109.676 115.746 112.7 117.938L112.7 117.938C115.612 120.05 115.943 123.669 115.357 127.053C114.815 130.189 113.462 133.314 112.342 135.345L114.518 136.635C115.962 134.123 117.543 130.333 117.935 126.55C118.353 122.518 117.42 118.602 113.666 116.138C109.924 113.683 105.942 114.49 102.37 116.628C99.0038 118.643 96.1061 121.791 94.3535 124.24Z" fill="#3E4552"/>
</svg>
