<svg width="101" height="100" viewBox="0 0 101 100" fill="none" xmlns="http://www.w3.org/2000/svg">
<path d="M42.1666 70.6253H26.3749C12.3333 70.6253 8.83325 67.1253 8.83325 53.0837V28.0837C8.83325 14.042 12.3333 10.542 26.3749 10.542H70.2499C84.2916 10.542 87.7916 14.042 87.7916 28.0837" stroke="#A3AABB" stroke-width="6" stroke-linecap="round" stroke-linejoin="round"/>
<path d="M42.1667 89.4583V70.625" stroke="#A3AABB" stroke-width="6" stroke-linecap="round" stroke-linejoin="round"/>
<path d="M8.83325 53.958H42.1666" stroke="#A3AABB" stroke-width="6" stroke-linecap="round" stroke-linejoin="round"/>
<path d="M28.5833 89.458H42.1666" stroke="#A3AABB" stroke-width="6" stroke-linecap="round" stroke-linejoin="round"/>
<path d="M92.1666 53.3333V77.125C92.1666 87 89.7083 89.4583 79.8333 89.4583H65.0416C55.1666 89.4583 52.7083 87 52.7083 77.125V53.3333C52.7083 43.4583 55.1666 41 65.0416 41H79.8333C89.7083 41 92.1666 43.4583 92.1666 53.3333Z" stroke="white" stroke-width="6" stroke-linecap="round" stroke-linejoin="round"/>
<path d="M72.3522 76.0413H72.3896" stroke="white" stroke-width="6" stroke-linecap="round" stroke-linejoin="round"/>
</svg>
