<svg xmlns="http://www.w3.org/2000/svg" xmlns:xlink="http://www.w3.org/1999/xlink" viewBox="0,0,256,256" width="480px" height="480px" fill-rule="nonzero"><g transform="translate(10.66667,10.66667) scale(0.91667,0.91667)"><g fill="#ec407a" fill-rule="nonzero" stroke="none" stroke-width="1" stroke-linecap="butt" stroke-linejoin="miter" stroke-miterlimit="10" stroke-dasharray="" stroke-dashoffset="0" font-family="none" font-weight="none" font-size="none" text-anchor="none" style="mix-blend-mode: normal"><path d="M-11.63636,267.63636v-279.27273h279.27273v279.27273z" id="bgRectangle"></path></g><g fill="#ffffff" fill-rule="nonzero" stroke="none" stroke-width="1" stroke-linecap="butt" stroke-linejoin="miter" stroke-miterlimit="10" stroke-dasharray="" stroke-dashoffset="0" font-family="none" font-weight="none" font-size="none" text-anchor="none" style="mix-blend-mode: normal"><g transform="translate(-5.33333,-0.71296) scale(5.33333,5.33333)"><path d="M18.2,20.321c7.65,-2.429 8.864,-9.471 7.893,-15.786c0,0 0,-0.364 0.243,-0.243c7.407,3.644 15.664,11.294 15.664,23.072c0,8.743 -6.921,16.636 -17,16.636c-10.929,0 -17,-7.65 -17,-16.757c0,-5.464 3.643,-10.929 7.893,-13.357c0,0 0.364,0 0.364,0.243c0,1.214 0.486,4.25 1.821,6.071z"></path></g></g></g></svg>